<svg width="19" height="19" viewBox="0 0 19 19" fill="none" xmlns="http://www.w3.org/2000/svg">
<g clip-path="url(#clip0_4_26)">
<path d="M13.7232 4.75L11.2811 14.184L7.97245 11.0798L11.148 7.5489L6.89142 10.648L3.9548 9.89583L13.7232 4.75ZM7.61794 11.8976V15.0417L8.94399 13.1416L7.61794 11.8976Z" fill="black"/>
</g>
<path fill-rule="evenodd" clip-rule="evenodd" d="M5.94916 0C3.18773 0 0.949158 2.23858 0.949158 5V14C0.949158 16.7614 3.18774 19 5.94916 19H13.9831C16.7445 19 18.9831 16.7614 18.9831 14V5C18.9831 2.23858 16.7445 0 13.9831 0H5.94916ZM9.96609 15.8333C13.286 15.8333 15.9774 12.9978 15.9774 9.5C15.9774 6.00219 13.286 3.16666 9.96609 3.16666C6.64614 3.16666 3.95479 6.00219 3.95479 9.5C3.95479 12.9978 6.64614 15.8333 9.96609 15.8333Z" fill="black"/>
<defs>
<clipPath id="clip0_4_26">
<rect width="9.76836" height="10.2917" fill="white" transform="translate(3.9548 4.75)"/>
</clipPath>
</defs>
</svg>
