<svg width="2292" height="2292" viewBox="0 0 2292 2292" fill="none" xmlns="http://www.w3.org/2000/svg">
<g filter="url(#filter0_d_104_677)">
<circle cx="1146" cy="1170" r="1092" fill="#FFD1D1"/>
<path d="M904 1661V1273L1437 1101L1419.5 1661H904Z" fill="#EBB395"/>
<path d="M414.744 1595.82C448.145 1553.97 749.298 1567.75 842.382 1481H1328.06C1561.87 1581.02 1769.94 1522.85 1838.93 1543.26C1999.36 1662.16 1975.2 1687.21 2019 1850C1510 2424.5 715 2382 280.5 1856C336.898 1671.27 306.329 1666.75 414.744 1595.82Z" fill="#444444"/>
<path d="M886 1607.5C877.587 1601.28 869.5 1586 877.5 1568.5C885.5 1551 1346 1584 1346 1584L1338 1622.5C1296.47 1650.56 1281.63 1644.93 1209.5 1653.5C1079.5 1646.5 985.47 1643.33 886 1607.5Z" fill="#A59E9E"/>
<path d="M908 1405C879.818 1517.45 865.441 1586.33 888 1593C1041.25 1628.13 1307.5 1634.5 1342 1595C1368 1590 1316.5 1389.5 1290.5 1399.5C1221.08 1420.16 1184.64 1435.31 1102 1437C935.354 1435.18 974.252 1421.56 908 1405Z" fill="#434343"/>
<path d="M929 1634.5C1055.42 1795.58 1145 1803.82 1342.5 1634.5" stroke="#EBD2A0" stroke-width="3"/>
<path d="M1032.99 225.829C1032.52 225.918 1032.05 226.009 1031.59 226.103C1035.81 226.904 1064.64 229.416 1072.99 233.017C1081.43 236.656 1097.9 244.215 1106.32 245.237C1111.21 245.83 1124.99 259.079 1128.92 262.13C1145.62 275.098 1166.85 283.686 1182.99 296.994C1223.12 330.099 1281.84 356.666 1308.17 403.742C1334.92 451.557 1366.72 493.876 1381.32 547.69C1395.31 599.278 1411.37 653.004 1426.13 703.139C1430.23 717.074 1446.84 727.963 1449.46 741.957C1454.09 766.637 1460.19 791.562 1467.8 815.818C1462.7 838.912 1446.98 977.091 1426.13 997.329C1416.61 1006.57 1375.04 1209.87 1360.15 1220.33C1335.32 1239.07 1220.15 1384.33 1121.65 1384.33C1101.73 1384.33 1070.15 1391.35 1025.65 1384.33C1007.6 1368.23 988.577 1370.33 967.153 1355.83C943.402 1339.76 927.093 1327.63 909.476 1307.69C886.38 1281.54 852.016 1263.78 834.663 1233.46C828.063 1221.94 819.393 1211.8 812.996 1200.94C809.532 1195.05 794.588 1179.12 789.664 1176.14C778.45 1169.34 773.897 1148.9 768.923 1138.04C764.59 1128.58 756.911 1112.59 756.331 1102.46C755.675 1090.99 750.393 1079.6 749.665 1066.87C748.926 1053.97 744.28 1041 740.405 1028.77C732.568 1004.06 739.665 966.923 739.665 940.717V856.432C739.665 828.873 734.153 797.671 734.153 770.335C734.153 743.754 734.784 713.69 739.665 687.638C744.598 661.309 743.086 627.223 754.664 602.502C762.597 585.566 762.73 561.24 767.997 542.838C773.438 523.829 777.127 505.66 783.738 487.128C794.023 458.291 808.293 427.606 822.255 400.507C828.45 388.484 835.953 377.156 842.255 364.924C847.162 355.4 851.727 338.004 861.514 332.577C873.835 325.744 881.809 310.488 894.476 303.464C907.175 296.421 914.941 283.005 927.994 275.968C944.49 267.074 958.547 252.034 977.807 245.237C997 238.464 1011.2 230.21 1031.59 226.103C1030.64 225.922 1030.94 225.829 1032.99 225.829Z" fill="#FFCEAE"/>
<path d="M864.153 1093.83C775.841 1036.38 779.197 941.232 758.153 892.829L751.653 1105.83L903.153 1250.33C895.153 1237.33 882.599 1105.83 864.153 1093.83Z" fill="#F9C5A9"/>
<path d="M776.153 563.829L949.153 407.829C867.153 540.329 851.153 572.329 792.653 728.329C770.153 826.829 750.953 921.265 747.653 1023.33L702.153 776.829L776.153 563.829Z" fill="#FAC4A6"/>
<path d="M1454.15 884.329C1452.41 901.868 1449.71 918.356 1446.23 933.864L1432.15 1021.83L1419.15 1102.33C1419.15 1102.33 1390.13 1189.49 1364.15 1218.83C1338.17 1248.16 1279.1 1301.67 1230.15 1339.33C1288.15 1272.33 1294.91 1176.95 1318.15 1141.33C1358.43 1103.68 1421.71 1043.03 1446.23 933.864L1454.15 884.329Z" fill="#F8C7AC"/>
<path d="M901.197 1243.82C857.971 1162.33 824.28 1125.73 768.153 1042.33L794.313 1221.93L857.971 1307.09L1027.65 1384.83C969.153 1338.33 925.059 1279.04 901.197 1243.82Z" fill="#EEBDA2"/>
<path d="M1006.15 187.829C1006.15 173.745 1026.07 160.829 1040.15 160.829C1054.24 160.829 1057.15 173.745 1057.15 187.829V337.829C1057.15 351.912 1054.74 332.329 1040.65 332.329C1026.57 332.329 1006.15 351.912 1006.15 337.829V187.829Z" fill="#CEBBAD"/>
<path d="M905.455 173.429C943.611 153.298 987.775 164.038 1029.89 163.488C1030.99 163.474 1031.91 164.358 1031.93 165.462C1033.18 220.133 1036.46 262.452 1030.68 308.528C1026.85 339.119 1015.96 376.44 997.227 394.054C992.064 398.908 982.044 405.004 975.852 408.771L975.542 408.96C969.176 412.833 964.89 418.852 957.777 421.615C928.98 432.804 900.508 462.404 881.296 480.114C839.225 518.896 816.665 557.855 792.142 607.264C776.423 638.935 750.9 667.173 751.573 702.987C751.576 703.135 751.562 703.286 751.533 703.431C745.394 733.934 745.773 750.926 749.971 783.265C750.658 814.757 751.453 828.524 754.653 844.177C757.185 856.559 761.159 880.779 762.044 893.512C763.584 915.661 762.044 949.329 775.653 1026.33C782.153 1081.33 788.653 1119.83 794.153 1132.83C802.644 1160.3 853.202 1223.05 882.066 1264.21C882.125 1264.29 882.191 1264.37 882.261 1264.44C938.466 1323.14 932.405 1355.21 938.831 1377.43C938.94 1377.8 938.939 1378.2 938.827 1378.58C909.716 1476.18 909.725 1561.85 938.854 1631.65C938.95 1631.88 939.002 1632.12 939.009 1632.37C939.851 1661.2 966.11 1720.11 975.448 1747.72C975.503 1747.88 975.528 1748.03 975.556 1748.19L975.571 1748.28C976.804 1755.23 1016.16 1790.35 1002.58 1854.44C1002.39 1855.34 1001.6 1856.01 1000.68 1856.04C992.709 1856.27 985.363 1856.82 977.846 1854C960.847 1847.63 927.854 1854.37 909.668 1854.77L843.308 1856.22C803.726 1857.08 758.681 1852.82 721.585 1866.99C692.663 1878.04 650.882 1884.82 624.261 1871.46C612.699 1865.66 604.05 1854.84 592.733 1848.69C575.405 1839.29 575.653 1824.53 570.899 1807.14C560.028 1767.36 582.148 1561.09 597.829 1520.33C597.954 1520.01 597.98 1519.71 597.933 1519.37C591.659 1473.32 612.658 1380.61 616.509 1359.44C620.877 1335.43 623.178 1209 627.999 1184.93C628.028 1184.78 628.038 1184.69 628.035 1184.54C627.558 1160.82 631.657 1019.84 631.16 997.037C629.594 925.289 642.29 853.747 642.715 782.457C641.478 703.337 685.5 490.946 704.5 442.5C723.5 394.054 753.101 316.111 792.142 268.5C816.76 238.478 871.453 191.367 905.455 173.429Z" fill="#40231A"/>
<path d="M704.243 922.986C736.975 982.403 745.315 988.479 772.153 1009.83C772.153 946.344 765.802 858.303 751.851 819.373C749.276 812.186 743.954 806.147 704.243 788.829C690.353 788.829 691.233 873.854 704.243 922.986Z" fill="#FAC4A6"/>
<path d="M1164.15 755.829C1187.15 741.829 1334.8 709.534 1298.65 726.329C1262.5 743.123 1144.65 843.329 1135.65 1001.33C1129.65 901.329 1134.65 780.829 1164.15 755.829Z" fill="#F9C4AB" fill-opacity="0.7"/>
<path d="M1033.32 753.829C1010.32 739.829 862.672 707.534 898.822 724.329C934.973 741.123 1056.65 822.329 1065.65 980.329C1071.65 880.329 1062.82 778.829 1033.32 753.829Z" fill="#F8C1A6" fill-opacity="0.7"/>
<path d="M1194.15 717.829C1185.65 719.374 1179.87 720.225 1170.43 721.306C1170.6 726.143 1170.83 730.988 1170.05 735.374C1170.82 739.468 1171.24 740.231 1171.66 743.08C1171.98 745.222 1171.37 744.733 1174.4 745.268C1180.57 745.09 1176.59 744.654 1180.57 745.09C1187.18 745.817 1194.93 745.618 1201.72 744.916C1207.5 744.319 1212.65 743.021 1217.79 742.031C1226.07 740.439 1235.02 738.973 1243.29 738.445C1246.55 738.237 1248.85 737.194 1253.07 736.565C1254.07 736.637 1255.68 736.339 1259.64 735.83C1263.13 734.906 1259.64 735.83 1267.34 734.218C1270.31 733.393 1272.19 733.072 1278.53 732.129C1284.86 731.187 1285.36 731.002 1295.19 730.947C1306.51 730.884 1311.35 729.677 1325.31 732.139L1348.24 736.183C1357.01 737.729 1361.85 740.642 1371.21 747.089C1378.82 748.432 1395.86 767.094 1390.53 760.338C1385.56 754.06 1383.78 746.351 1380.73 738.377C1379 733.853 1376.03 730.005 1375.1 725.013C1374.2 720.183 1369.25 713.659 1367.29 709.78C1362.73 700.762 1354.87 704.399 1347.01 702.326C1337.31 701.988 1331.73 702.881 1323.4 702.042C1317.57 701.453 1310.99 703.811 1305.08 702.769C1300.12 702.982 1295.63 702.191 1290.36 702.648C1284.52 703.679 1264.84 706.831 1259.96 707.899C1248.31 710.448 1238.62 710.674 1224.15 712.253C1219.3 713.186 1199.65 716.829 1194.15 717.829Z" fill="#93685A"/>
<path d="M1038.46 290.965C1037.75 245.742 1030.78 209.285 1030.65 165.53C1030.65 164.743 1030.81 163.959 1031.26 163.309C1041.39 148.466 1102.21 145 1117.92 145C1149.4 145 1182.65 145.829 1214.65 152.829C1246.26 159.743 1270.32 170.274 1291.37 179.487L1291.61 179.589C1291.97 179.749 1292.32 179.856 1292.71 179.931C1351.09 191.02 1505.05 349.91 1526.65 393.329C1545.52 434.495 1555.15 450.829 1574.15 498.829C1593.15 546.829 1584.66 531.606 1596.15 568.329C1610.06 612.778 1610.15 629.829 1622.15 674.329C1644.21 756.12 1664.89 811.793 1683.29 868.305C1705.2 935.634 1710.51 1008.1 1710.51 1078.56C1704.15 1168.33 1724.13 1245.8 1728.9 1257.66C1739.9 1285.06 1755.75 1309.91 1764.95 1337.89C1774.62 1367.33 1770.1 1401.04 1770.1 1431.7C1770.1 1506.4 1824.02 1591.42 1803.15 1663.32C1797.16 1683.96 1789.76 1717.34 1770.52 1755.49C1770.24 1756.04 1770.07 1756.65 1770 1757.27C1768.36 1771.67 1764.21 1769.78 1751.65 1802.59C1740.69 1831.24 1751.58 1807.48 1729.11 1851.91C1728.98 1852.18 1728.85 1852.49 1728.76 1852.78C1724.4 1867.58 1728.58 1853.1 1713.2 1876.1C1712.65 1876.92 1712.38 1877.93 1711.98 1878.82C1708.17 1887.2 1675.85 1906.88 1669.12 1908.35C1655.98 1911.23 1639.97 1915.49 1627.74 1920.84C1609.51 1928.82 1584.18 1924.83 1564.84 1924.83C1538.54 1924.83 1506.24 1928.16 1482.08 1917.58C1469.61 1912.13 1455.21 1911.42 1442.35 1906.9C1423.25 1900.18 1400.5 1893.66 1380.19 1892.23C1373.67 1891.77 1258 1881.73 1256.74 1877.38C1253.78 1867.19 1255.95 1850.7 1256.55 1840.08C1257.27 1827.39 1267.19 1814.93 1269.98 1802.59C1271.97 1793.77 1278.15 1776 1283.77 1769.08C1297.87 1751.73 1304.48 1729.55 1309.34 1708.05C1312.53 1693.89 1321 1681.55 1321.15 1663.79C1321.15 1663.48 1321.12 1663.16 1321.07 1662.86C1309.51 1600.51 1334.62 1583.47 1309.66 1515.87C1309.45 1515.31 1309.34 1514.69 1309.33 1514.1C1309.2 1477.39 1300.61 1439.48 1284.04 1408.33C1283.86 1408 1283.72 1407.63 1283.62 1407.26C1275.83 1378.11 1283.62 1377.44 1283.77 1317.11C1283.77 1315.98 1284.18 1314.82 1284.88 1313.93C1386.21 1186.06 1394.22 1149.67 1408.65 1105.33C1423.13 1060.83 1422.65 1035.83 1432.15 985.329C1437.88 954.87 1449 913.696 1443.09 896.329C1430.65 858.329 1437.15 870.829 1419.18 825.069C1407.45 803.984 1393.37 785.422 1384.15 775.329C1371.93 763.297 1317.17 687.642 1306.65 674.329C1293.8 658.053 1272.16 631.612 1257.65 617.329C1227.45 587.591 1206.15 544.817 1175.85 514.983C1160.09 499.465 1145.17 479.225 1127.85 465.181C1115.85 455.448 1102.59 441.844 1094.74 428.599C1088.72 418.439 1076.48 411.763 1071.57 400.891C1067.2 391.207 1060.78 384.003 1053.76 373.706C1053.55 373.404 1053.38 373.073 1053.25 372.732C1048.31 360.118 1046.96 352.424 1042.74 334.593C1038.46 316.52 1038.71 306.41 1038.46 290.965Z" fill="#40231A"/>
<path d="M835.153 829.329L846 814L908.653 838.829C880.252 837.157 863.81 836.826 835.153 829.329Z" fill="#DAA78C"/>
<path d="M1036.25 1079.61C1018.27 1072.57 1007.77 1065.78 999.787 1062.26C1002.64 1073.34 1021.92 1080.36 1036.25 1084.79C1045.18 1082.79 1044.42 1080.47 1056.16 1074.86C1067.89 1069.24 1086.75 1092.6 1092.9 1093C1097.62 1092.71 1133.22 1072.26 1142.92 1074.86C1152.62 1077.45 1159.25 1087.82 1159.25 1087.82C1168.36 1088.8 1173.5 1087.77 1182.73 1083.5C1191.44 1076.64 1193.58 1072.62 1196 1065.35C1184.92 1077.41 1177.05 1081.9 1159.25 1084.79C1155.88 1074.15 1157.49 1066.21 1144.45 1061.03C1139.51 1057.45 1105.88 1088.97 1092.9 1089.47C1081.92 1088.97 1063.35 1057.5 1056.16 1061.03C1051.66 1062.04 1048.14 1064.53 1036.25 1079.61Z" fill="#F0BA9D"/>
<path d="M1091 1093C1072.49 1078.5 1058.21 1074.99 1035 1083.51C1044.99 1067.72 1051.91 1060.57 1059.57 1061.02C1067.73 1063.87 1077.86 1075.81 1091 1093Z" fill="#DAA78C"/>
<path d="M1102.86 1085.96C1124.98 1076.13 1139.78 1075.99 1159.63 1089.47C1154.67 1071.95 1150.11 1063.47 1142.59 1062.17C1133.89 1063.08 1120.59 1072.33 1102.86 1085.96Z" fill="#DAA78C"/>
<path d="M1096.93 1048.79C1090.03 1049.67 1074.94 1034.18 1076.23 1029.31C1077.96 1022.82 1091.43 1011.62 1105.98 1009.83C1116.8 1010.57 1126.68 1024.44 1124.96 1029.31C1122.37 1034.72 1110.21 1047.11 1096.93 1048.79Z" fill="#FFD2AE"/>
<path d="M1075.4 1025.6C1079.38 1021.88 1074.01 854.262 1079.42 844.189C1087.86 827.5 1113.53 801.852 1125.15 792.829C1114.59 831.026 1121.29 915.419 1125.15 1025.6C1115.65 1030.45 1071.43 1029.33 1075.4 1025.6Z" fill="#FFD6B5"/>
<path d="M1017.65 1053.33C1012.56 1040.32 1052.76 1003.49 1063.15 997.329C1060.65 986.329 1064.65 911.329 1055.65 920.329C1039.25 945.352 1012.75 1016.38 1012.15 1036.83C1014.65 1042.87 1013.5 1054.01 1017.65 1053.33Z" fill="#FAC7AC"/>
<path d="M1060.15 994.329C1071.3 930.287 1073.73 737.705 1015.15 739.829L1033.65 794.829C1046.65 832.829 1053.13 959.191 1060.15 994.329Z" fill="#FAC2A3"/>
<path d="M1131.15 981.829C1121.91 906.77 1126.28 846.052 1156.15 766.829L1155.19 861.517C1134.09 911.944 1136.91 940.814 1131.15 981.829Z" fill="#FDC2A2"/>
<path d="M1062.15 1046.33C1059.24 1031.8 1061.62 1001.88 1066.15 957.829C1058.9 982.756 1059.65 987.829 1057.15 1004.83C1057.15 1011.83 1055.65 1038.58 1062.15 1046.33Z" fill="#FCC2A2"/>
<path d="M1131.49 1038.83C1134.4 1024.3 1133.69 1006.88 1129.15 962.829C1136.4 987.756 1135.65 992.829 1138.15 1009.83C1138.15 1016.83 1137.99 1031.08 1131.49 1038.83Z" fill="#FCC6A8"/>
<path d="M1185.64 1014.16C1184.58 1010.96 1183.37 1007.58 1182 1004C1183.27 1007.85 1184.49 1011.2 1185.64 1014.16C1200.51 1058.6 1187.73 1066.44 1184.65 1080C1192.02 1072.26 1199 1056.5 1199 1049.5C1196.6 1035.13 1191.98 1030.35 1185.64 1014.16Z" fill="#DAA78C"/>
<path d="M1004.86 1024.65C1006.68 1018.01 1009.32 1010.23 1013 1001C1009.74 1010.47 1007.07 1018.01 1004.86 1024.65C996.099 1056.5 1006 1061.98 1008.85 1074C1001.14 1066.26 997 1061.5 997 1054.5C998.838 1043.96 1001.24 1035.5 1004.86 1024.65Z" fill="#D8A98F"/>
<path d="M989.486 1157.94L1219.51 1171.14L1203.73 1192.59L1103.37 1211.84L1035.72 1201.39L992.869 1171.14L989.486 1157.94Z" fill="#CF6B53"/>
<path d="M1044.12 1232.41C1023.78 1229.12 982.785 1183.58 968.062 1152.99L1018.4 1188.59L1072.83 1197.9H1112.39C1146.42 1190.29 1144.38 1197.28 1178.92 1188.59L1232.48 1163.99C1208.7 1198.99 1176.91 1223.65 1154.77 1232.41C1132.64 1241.17 1064.46 1235.69 1044.12 1232.41Z" fill="#E58169"/>
<path d="M1072.36 1177.13C1072.39 1176.96 1072.43 1176.8 1072.46 1176.63C1078.92 1174.74 1082.82 1173.73 1086.43 1173.85C1090.02 1173.96 1093.37 1175.18 1098.7 1177.87L1099.47 1202C1087.91 1202.94 1081.36 1202.85 1070.28 1200.09C1069.56 1191.17 1070.59 1185.98 1072.36 1177.13Z" fill="#FEF2DB" stroke="#E7DBC4"/>
<path d="M1125.36 1177.13C1125.33 1176.96 1125.3 1176.8 1125.26 1176.63C1118.81 1174.74 1114.9 1173.73 1111.29 1173.85C1107.7 1173.96 1104.35 1175.18 1099.02 1177.87L1098.25 1202C1109.81 1202.94 1116.37 1202.85 1127.45 1200.09C1128.17 1191.17 1127.13 1185.98 1125.36 1177.13Z" fill="#FEF2DB" stroke="#E7DBC4"/>
<path d="M1053.76 1174.03C1053.8 1173.89 1053.85 1173.75 1053.89 1173.6C1058.61 1172.53 1061.4 1172.02 1063.85 1172.45C1066.27 1172.89 1068.4 1174.26 1071.76 1177.17L1069.18 1198.94C1061.11 1198.68 1056.59 1197.97 1049.33 1194.49C1049.98 1186.4 1051.38 1181.82 1053.76 1174.03Z" fill="#FEF2DB" stroke="#E7DBC4"/>
<path d="M997.342 1175.25C998.025 1167.03 998.267 1164.75 1000.58 1156.77C1004.89 1155.64 1007.43 1155.11 1009.63 1155.51C1011.81 1155.91 1013.73 1157.24 1016.75 1160.1L1014.12 1181.88C1008.61 1181.69 1005.61 1179.95 1001.49 1177.56C1000.24 1176.84 998.893 1176.06 997.342 1175.25Z" fill="#FEF2DB" stroke="#E7DBC4"/>
<path d="M1012.56 1182.95C1013.26 1174.73 1014.04 1171.39 1016.36 1163.37C1020.68 1162.24 1023.21 1161.71 1025.41 1162.11C1027.59 1162.51 1029.51 1163.84 1032.54 1166.7L1029.91 1188.48C1022.8 1188.27 1019.29 1186.45 1012.87 1183.11C1012.77 1183.05 1012.67 1183 1012.56 1182.95Z" fill="#FEF2DB" stroke="#E7DBC4"/>
<path d="M1144.43 1173.73C1144.38 1173.59 1144.34 1173.45 1144.3 1173.3C1139.57 1172.23 1136.78 1171.72 1134.34 1172.15C1131.92 1172.59 1129.78 1173.96 1126.43 1176.87L1129.01 1198.64C1137.07 1198.38 1141.59 1197.67 1148.85 1194.19C1148.2 1186.1 1146.8 1181.52 1144.43 1173.73Z" fill="#FEF2DB" stroke="#E7DBC4"/>
<path d="M1033.25 1189.48C1031.04 1181.1 1031.86 1175.02 1033.22 1166.57C1038.35 1164.85 1041.64 1165.11 1044.72 1166.36C1046.31 1167 1047.86 1167.91 1049.6 1168.98C1049.88 1169.15 1050.17 1169.33 1050.46 1169.51C1051.87 1170.38 1053.41 1171.34 1055.17 1172.3L1050.85 1184.71C1047.29 1188.21 1044.53 1190.67 1042.37 1192.27C1040.17 1193.9 1038.65 1194.61 1037.54 1194.72C1037.01 1194.77 1036.57 1194.68 1036.2 1194.49C1035.82 1194.29 1035.47 1193.97 1035.14 1193.51C1034.46 1192.59 1033.9 1191.21 1033.25 1189.48Z" fill="#FEF2DB" stroke="#E7DBC4"/>
<path d="M1202.63 1179.97C1202.74 1171.73 1202.71 1169.43 1201.18 1161.28C1196.99 1159.76 1194.52 1159 1192.29 1159.2C1190.08 1159.4 1188.04 1160.54 1184.75 1163.12L1185.29 1185.05C1190.79 1185.35 1193.94 1183.9 1198.28 1181.9C1199.59 1181.29 1201.01 1180.64 1202.63 1179.97Z" fill="#FEF2DB" stroke="#E7DBC4"/>
<path d="M1186.74 1186.25C1186.83 1178 1186.38 1174.61 1184.83 1166.41C1180.64 1164.9 1178.17 1164.13 1175.94 1164.33C1173.73 1164.53 1171.69 1165.68 1168.4 1168.26L1168.94 1190.18C1176.04 1190.62 1179.71 1189.12 1186.41 1186.38C1186.52 1186.34 1186.63 1186.29 1186.74 1186.25Z" fill="#FEF2DB" stroke="#E7DBC4"/>
<path d="M1165.52 1190.87C1168.52 1182.73 1168.29 1176.6 1167.74 1168.06C1162.79 1165.88 1159.5 1165.84 1156.31 1166.8C1154.67 1167.3 1153.04 1168.06 1151.2 1168.97C1150.9 1169.12 1150.6 1169.27 1150.29 1169.42C1148.81 1170.16 1147.18 1170.97 1145.33 1171.77L1148.44 1184.52C1151.66 1188.33 1154.17 1191.02 1156.17 1192.82C1158.2 1194.64 1159.65 1195.49 1160.74 1195.69C1161.27 1195.8 1161.71 1195.75 1162.1 1195.59C1162.5 1195.43 1162.87 1195.14 1163.25 1194.71C1164.02 1193.85 1164.7 1192.53 1165.52 1190.87Z" fill="#FEF2DB" stroke="#E7DBC4"/>
<path d="M1063.92 1228.56C1048.36 1221.5 1043.22 1213.18 1034.59 1204.14C1087.32 1208.15 1111.03 1212.22 1160.88 1207.39C1153.74 1219.35 1145.62 1225.18 1126.16 1234.53C1102.63 1235.71 1091.45 1234.53 1063.92 1228.56Z" fill="#EB8F79"/>
<path d="M1100.73 1136.85L1068.03 1125.85L1070.28 1122L1126.66 1125.85L1130.04 1128.05L1100.73 1136.85Z" fill="#FFDEC5"/>
<path d="M982.157 1155.19C977.601 1154.96 966.768 1148.58 956.748 1142.18C965.726 1151.35 970.189 1156.79 985.22 1162.9C1017.18 1162.9 1024.94 1166 1052.39 1169.85C1063.56 1169.86 1078.64 1170.25 1096.55 1173.7C1112.34 1173.61 1124.66 1171.63 1142.84 1168.94C1157.24 1168.58 1195.81 1172.75 1217.7 1173.14C1229.21 1166.79 1242.49 1166.62 1249.91 1160.25C1238.42 1163.8 1219.12 1162.01 1205.98 1160.25C1166.44 1155.69 1144.55 1152.58 1137.2 1152.99C1133.06 1151.44 1127.25 1148.57 1100.47 1157.8C1070.16 1147.04 1065.97 1148.56 1062.22 1149.14C1047.16 1149.97 1024.61 1152.24 982.157 1155.19Z" fill="#E68169"/>
<path d="M941 1144.19C944.687 1144.82 948.863 1143.8 951.157 1140.34C959.736 1148.11 969.579 1157 982.021 1165.09C1004.13 1164.24 1015.04 1165.24 1035.86 1169.49C1065.29 1175.35 1071.24 1174.44 1099.19 1175.54C1124.8 1172.24 1145.28 1173.22 1164.31 1171.69C1168.41 1171.04 1178.71 1171.14 1220.4 1173.34C1231.49 1171.33 1256.65 1155.74 1259.64 1155.74C1262.03 1155.74 1265.53 1159.09 1268 1157.39C1265.01 1153.54 1263.96 1153.53 1264.42 1151.34C1263.82 1146.39 1263.82 1149.69 1263.82 1144.74C1259.63 1147.14 1260.23 1151.34 1259.64 1151.89C1257.84 1155.74 1239.99 1164.02 1220.4 1169.49C1184.95 1167.49 1169.81 1167.94 1165.5 1168.39C1143.74 1170.22 1121.32 1168.49 1099.19 1173.34C1070.52 1171.37 1064.58 1172.47 1035.86 1166.19C1014.53 1162.81 1003.62 1160.65 982.021 1160.14C970.296 1154.86 961.407 1146.52 953.546 1137.59C951.999 1134.45 952.947 1128.81 949.961 1128.24C949.961 1132.64 949.364 1131.54 948.169 1135.39C946.377 1139.24 945.182 1139.79 941 1144.19Z" fill="#9C6147"/>
<path d="M848.966 787.076C852.654 785.349 854.836 784.655 858.519 782.994C862.179 781.589 866.159 780.165 869.852 779.332C872.093 778.827 875.112 778.153 879.141 776.901C884.162 775.341 885.167 775.317 889.522 774.385C892.207 773.811 891.837 773.811 894.061 773.234C897.737 772.28 902.307 771.37 904.274 771.26C911.313 770.12 914.329 770.12 921.297 769.395C928.91 769.395 934.944 769.219 941.765 770.12C948.424 772.051 955.033 774.204 961.393 777.072C967.295 779.734 969.134 779.933 975.167 784.014C980.698 786.565 985.036 789.738 987.326 791.828C991.06 795.239 992.262 795.749 995.279 798.3" stroke="#995741" stroke-width="1.2" stroke-linecap="round"/>
<path d="M842.653 809.329H822.153C858.153 782.829 877.738 774.504 922.653 771.829C886.147 783.752 880.039 791.832 842.653 809.329Z" fill="#DAA78C"/>
<path d="M845 814L855.653 812.829C871.502 823.569 883.706 827.859 904.153 834.829C886.037 837.166 845 814 845 814Z" fill="#936556"/>
<path d="M917 822C869 825 850 823.5 828.5 812.5L864 812.5C910 805.5 938.5 810 1002 818.363C1014.57 823.465 1010.59 818.555 1016 837.5C1007.87 818.454 951.5 822 917 822Z" fill="#40231A" stroke="black"/>
<path d="M837.153 798.462C837.153 798.462 845.153 788.829 850.653 785.329C856.153 781.829 887.61 769.146 922.666 766.83C956.46 766.669 970.813 778.56 995.571 796.932L995.571 798.263C995.571 798.671 995.571 798.909 995.571 798.462C995.571 797.442 953.518 768.19 922.666 768.871C887.009 772.863 867.503 783.42 837.153 798.462Z" fill="#995741"/>
<path d="M932.5 831.5C915.796 830.153 910.502 835.972 889.501 833.736C868.5 831.5 832.779 822.499 833.001 820.236C833.223 817.973 889.501 824.736 930.5 822C971.499 819.264 974.5 822 995.501 826.5C995.501 826.5 997.184 829.336 995.501 830.736C993.818 832.136 961.5 830.5 932.5 831.5Z" fill="#FFDEC5"/>
<path d="M1008.35 819C1016.35 826 1026.57 838.188 1024.85 839.5C1019.23 841.311 1010.02 842.505 1002.95 843.544C1001.48 843.861 999.833 844.124 998 844.329C999.44 844.072 1001.12 843.813 1002.95 843.544C1018.87 840.129 1014.76 830.44 1008.35 819Z" fill="#FDEEE3"/>
<path d="M952.743 203.823C960.35 198.494 965.558 196.619 967.653 199.227L952.743 203.823C914.225 230.811 814.213 346.403 745.653 417.329L849.153 298.227C913.45 236.234 937.653 214.622 950.153 204.622L952.743 203.823Z" fill="#613A2E"/>
<path d="M962.731 243.856C966.256 243.222 969.026 244.182 971.153 246.829L962.731 243.856C945.199 247.012 909.008 289.614 840.653 360.329L883.653 297.993C947.95 236 941.653 250.829 954.153 240.829L962.731 243.856Z" fill="#613A2E"/>
<path d="M783.153 386.829C905.2 275.244 954.153 236.829 976.653 236.829H955.653C937.07 249.967 948.736 232.382 853.153 313.829L783.153 386.829Z" fill="#523127"/>
<path d="M1103.06 365.589C1095.46 360.26 1090.25 358.386 1088.15 360.993L1103.06 365.589C1141.58 392.577 1241.59 508.169 1310.15 579.095L1206.65 459.993C1142.36 398 1118.15 376.388 1105.65 366.388L1103.06 365.589Z" fill="#613A2E"/>
<path d="M1093.07 405.623C1089.55 404.988 1086.78 405.948 1084.65 408.595L1093.07 405.623C1110.61 408.778 1146.8 451.38 1215.15 522.095L1172.15 459.76C1107.86 397.766 1114.15 412.595 1101.65 402.595L1093.07 405.623Z" fill="#613A2E"/>
<path d="M1272.65 548.595C1150.61 437.011 1101.65 398.595 1079.15 398.595H1100.15C1118.73 411.733 1107.07 394.148 1202.65 475.595L1272.65 548.595Z" fill="#523127"/>
<path d="M1195.01 373.836C1166.13 358.992 1124.65 339.829 1090.65 304.329C1081.8 310.267 1106.18 362.879 1111.65 365.329C1120.64 369.352 1129.93 393.603 1140.15 394.289C1150.74 394.999 1159.25 398.593 1168.84 404.162C1172.7 406.403 1179.73 407.075 1182.92 410.651C1186.28 414.408 1190.76 416.173 1194.69 418.55C1215.91 431.363 1234.85 448.874 1253.92 466.51L1254.07 466.65C1281.85 492.336 1308.71 519.416 1334.25 549.026C1344.7 561.139 1355.18 575.421 1366.62 585.983C1382.6 600.727 1398.36 615.353 1412.76 632.813C1437.86 663.245 1460.69 694.427 1482.12 729.577C1491.46 744.901 1500.8 759.725 1511.23 773.727C1512.69 775.692 1576.62 864.829 1571.65 852.829C1564.14 834.67 1506.15 753.329 1500.82 716.035C1492.77 698.864 1490.32 677.109 1481.91 660.178C1472.73 641.698 1464.01 623.641 1455.42 604.32C1447.4 586.261 1436.1 575.699 1424.32 562.567C1408.12 544.511 1393.29 524.56 1375.77 508.684C1334.21 471.031 1292 432.078 1246.5 403.457C1229.6 392.82 1212.41 382.782 1195.01 373.836Z" fill="#56352A"/>
<path d="M1701.54 1361.19C1694.75 1336.65 1669.22 1310.88 1686.08 1120C1677.73 1118.75 1659.9 1306.45 1661.4 1310.88C1660 1322 1666.83 1362.5 1671.32 1376.63C1671.32 1384 1672.27 1384.18 1672.99 1387.74C1676.85 1406.95 1678.31 1427.75 1678.12 1448.69C1677.84 1479.11 1676.23 1509.86 1672.4 1541.41C1670.83 1554.32 1667.98 1568.54 1667.87 1581.06C1667.73 1598.54 1667.54 1615.82 1664.92 1634.07C1660.35 1665.87 1654.1 1696.89 1644.72 1729.52C1640.63 1743.74 1636.84 1757.67 1634.13 1771.69C1633.75 1773.66 1615.17 1861.61 1619.65 1851.74C1626.42 1836.81 1643.57 1756.75 1662.96 1731.58C1668.86 1716.94 1680.52 1702.61 1686.08 1687.94C1692.14 1671.91 1698.21 1656.4 1705.09 1640.19C1711.53 1625.04 1711.71 1612.6 1713.16 1598.37C1715.17 1578.79 1719.04 1558.82 1719.02 1539.83C1718.98 1494.78 1719.35 1448.61 1711.78 1406.82C1708.96 1391.3 1705.64 1375.98 1701.54 1361.19Z" fill="#56352A"/>
<path d="M1059.15 190.559C1108.15 177.829 1126.38 179.779 1154.24 190.559C1177.94 199.73 1200.17 211.176 1223.36 221.117C1248 231.679 1268.22 249.182 1291.19 263.405C1307.52 273.517 1329.7 286.475 1342.77 302.652C1364.85 329.999 1391.09 352.064 1413.29 379.553C1427.03 396.575 1440.14 418.549 1449.54 439.51C1460.27 463.412 1480 486.077 1484.98 513.804C1489.23 537.497 1499.65 557.98 1509.07 578.975C1512.46 586.534 1514.25 598.388 1518.08 604.319C1523.14 612.153 1521.57 625.359 1526.5 632.994C1529.15 637.092 1531.18 651.913 1531.18 657.179C1531.18 663.074 1532.65 675.981 1533.8 683.019C1534.64 684.332 1535.15 685.342 1535.15 685.854C1535.15 689.657 1534.54 687.56 1533.8 683.019C1530.2 677.4 1520.58 666.239 1519.48 664.855C1510.74 653.817 1500.04 643.426 1493.75 629.808C1485.83 612.636 1474.5 592.91 1464.28 577.671C1443.47 546.636 1424.95 513.466 1402.3 484.405C1391.32 470.328 1379.69 453.778 1367.56 441.538C1357.42 431.306 1350.7 418.361 1339.61 409.532C1329.61 401.569 1319.51 392.442 1310.14 383.319C1279.91 353.91 1250.57 322.424 1217.75 297.584C1192.5 278.478 1170.13 251.879 1143.83 235.599C1134.76 229.981 1129.27 219.457 1120.68 213.297C1107.22 203.649 1075.69 190.559 1059.15 190.559Z" fill="#4B2D24"/>
<path d="M767.152 973.829C756.153 900.329 745.105 804.658 748.652 766.829C761.533 789.912 764.685 807.318 767.152 841.829C767.218 868.202 778.152 1047.33 767.152 973.829Z" fill="#EEBDA2"/>
<path d="M705.653 832.829C711.599 806.346 737.917 826.329 739.153 838.829C742.522 872.921 742.722 898.529 756.653 933.829C756.653 938.829 748.326 930.607 734.653 918.829C721.153 918.829 705.653 878.829 705.653 832.829Z" fill="#F0BA9C"/>
<path d="M744.491 796.068C742.045 797.921 739.115 802.056 735.883 802.056C731.717 802.056 729.002 805.799 725.03 805.799C722.66 805.799 720.29 805.799 717.92 805.799C715.346 805.799 713.335 803.956 710.809 803.595C699.186 801.934 689.933 793.823 677.875 793.823" stroke="#40231A" stroke-width="2" stroke-linecap="round"/>
<path d="M739.252 785.589C736.082 792.809 731.432 792.855 725.197 795.32C720.732 797.085 715.716 800.559 710.809 800.559C706.95 800.559 703.976 802.805 700.164 802.805C697.607 802.805 695.426 804.017 693.594 805.799C685.308 813.854 679.614 824.657 673.385 834.241" stroke="#40231A" stroke-width="2" stroke-linecap="round"/>
<path d="M742.994 803.553C737.002 811.223 728.001 812.315 719.042 813.866C714.168 814.709 709.786 815.529 704.821 815.529C699.831 815.529 694.841 815.529 689.851 815.529C687.98 815.529 686.109 815.529 684.238 815.529C672.744 815.529 661.221 834.308 655.421 840.978" stroke="#40231A" stroke-width="2" stroke-linecap="round"/>
<path d="M730.27 781.099C726.909 785.689 720.549 792.326 714.219 792.326C710.749 792.326 707.541 792.213 704.488 794.156C701.823 795.852 699.173 796.477 696.754 798.896C691.068 804.582 688.089 810.908 683.863 817.775" stroke="#40231A" stroke-width="2" stroke-linecap="round"/>
<path d="M720.539 792.326C716.662 793.618 712.845 795.964 708.813 796.65C705.303 797.248 701.482 796.817 697.918 796.817C692.59 796.817 686.692 798.966 682.366 802.056" stroke="#40231A" stroke-width="2" stroke-linecap="round"/>
<path d="M743.743 803.553C729.399 803.553 712.586 805.967 698.875 801.682C695.165 800.523 692.284 800.097 688.354 801.64C673.776 807.368 663.617 822.877 653.924 834.241" stroke="#40231A" stroke-width="2" stroke-linecap="round"/>
<path d="M737.006 781.847C730.076 781.847 723.145 781.847 716.215 781.847C710.582 781.847 706.861 785.151 702.742 788.583C693.559 796.235 688.957 811.501 686.275 822.515C681.893 840.514 677.928 858.625 674.882 876.905" stroke="#40231A" stroke-width="2" stroke-linecap="round"/>
<path d="M739.683 782.59C732.736 789.538 725.399 796.051 718.447 803.003C716.517 804.933 714.026 808.488 711.215 808.999C696.75 811.629 682.747 812.248 668.01 812.248" stroke="#40231A" stroke-width="2" stroke-linecap="round"/>
<path d="M747.922 814.72C742.469 812.459 738.105 808.33 732.635 806.207C727.388 804.17 720.801 802.648 715.975 799.891C712.68 798.008 705.907 798.243 702.153 798.243C699.536 798.243 696.895 798.144 694.281 798.289C685.514 798.776 679.321 806.215 672.953 811.424" stroke="#40231A" stroke-width="2" stroke-linecap="round"/>
<path d="M747.922 820.487C747.922 813.563 742.814 810.152 737.624 806.115C733.789 803.133 728.996 798.618 724.214 796.779C719.699 795.042 715.875 791.97 711.216 790.417C690.835 783.623 673.59 797.749 658.948 809.777" stroke="#40231A" stroke-width="2" stroke-linecap="round"/>
<path d="M715.153 866.329C712.53 854.919 733.334 851.939 736.653 837.329L738.653 905.329C732.477 905.696 717.776 877.738 715.153 866.329Z" fill="#DAA78C"/>
<path d="M746.274 826.254C741.742 818.822 738.048 814.726 730.209 811.013C726.475 809.244 723.101 805.921 719.911 803.369C708 793.84 692.732 784.165 677.896 780.119" stroke="#40231A" stroke-width="2" stroke-linecap="round"/>
<path d="M747.098 827.077C747.098 819.412 744.942 814.065 740.873 807.671C736.689 801.097 730.802 797.29 725.221 792.019C717.7 784.916 709.478 777.716 699.316 775.176" stroke="#40231A" stroke-width="2" stroke-linecap="round"/>
<path d="M747.437 812.394C747.437 819.596 747.233 824.432 744.849 830.987C742.623 837.109 737.335 844.932 737.086 851.402C736.832 858.017 736.223 864.732 736.223 871.53C736.223 877.885 736.668 883.917 737.613 890.219C742.721 924.269 753.425 957.179 765.552 989.227" stroke="#40231A" stroke-width="2" stroke-linecap="round"/>
<path d="M746.575 824.47C746.575 832.17 746.575 839.869 746.575 847.569C746.575 855.36 742.551 865.102 740.153 872.297C737.744 879.524 734.194 886.483 733.252 894.149C731.521 908.248 731.91 922.633 731.91 936.8C731.91 946.573 731.248 956.622 732.15 966.368C733.499 980.942 738.397 995.811 743.268 1009.55C747.416 1021.24 752.118 1032.88 757.117 1044.24C762.38 1056.2 761.454 1064.38 769.153 1074.83" stroke="#40231A" stroke-width="2" stroke-linecap="round"/>
<path d="M743.987 833.959C743.987 842.106 743.987 850.253 743.987 858.399C743.987 861.035 743.987 863.671 743.987 866.306C743.987 872.406 742.203 877.476 741.016 883.415C737.551 900.739 732.226 917.638 728.652 934.979C725.586 949.851 725.406 967.432 726.926 982.518C729.453 1007.59 748.331 1031.01 763.827 1049.61" stroke="#40231A" stroke-width="2" stroke-linecap="round"/>
<path d="M743.987 835.684C743.987 849.949 743.987 864.214 743.987 878.479C743.987 884.693 743.987 890.906 743.987 897.12C743.987 907.988 741.573 919.04 740.105 929.803C737.258 950.685 736.223 971.617 736.223 992.677C736.223 1002.7 735.891 1012.81 736.415 1022.82C737.17 1037.27 741.502 1050.04 746.575 1063.41" stroke="#40231A" stroke-width="2" stroke-linecap="round"/>
<path d="M729.497 786.99C721.061 791.456 715.302 798.979 707.274 803.796C702.505 806.657 697.121 810.579 693.24 814.46C691.533 816.168 689.594 816.863 688.036 818.853C685.397 822.226 683.544 826.47 681.894 830.413C678.514 838.486 677.87 847.414 676.093 855.921C675.706 857.772 679.791 851.287 680.145 850.76C684.011 845.004 687.51 838.984 691.107 833.058" stroke="#40231A" stroke-width="2" stroke-linecap="round"/>
<path d="M746.389 814.631C739.444 809.58 730.105 807.684 721.819 805.801C711.761 803.515 695.783 801.104 686.33 806.356C670.906 814.924 669.545 833.773 668.841 849.949" stroke="#40231A" stroke-width="2" stroke-linecap="round"/>
<path d="M745.621 780.848C739.17 793.032 730.231 798.993 717.212 800.853C713.474 801.387 709.662 802.594 706.122 803.882C703.723 804.754 702.233 805.932 699.937 806.953C692.765 810.14 690.262 819.688 688.804 826.574C686.93 835.422 683.724 844.059 683.429 853.191C683.142 862.108 682.25 872.146 680.358 880.661" stroke="#40231A" stroke-width="2" stroke-linecap="round"/>
<path d="M1193 1236C1111.66 1276.11 1040.43 1253.48 1008 1240.11C1034.05 1258.62 1035.28 1260.4 1040.43 1263.77C1079.01 1266.38 1100.67 1266.11 1139.31 1265.82C1149.61 1263.35 1152.6 1261.71 1193 1236Z" fill="#F3C0A4"/>
<path d="M1007.32 717.283C1015.15 721.241 1021.5 722.704 1031.15 725.143C1030.08 729.412 1028.96 733.681 1028.96 737.697C1027.4 741.214 1026.83 741.826 1025.87 744.29C1025.14 746.144 1025.87 745.804 1022.6 745.804C1016.21 744.681 1020.43 744.916 1016.21 744.681C1009.18 744.29 1001.14 742.9 994.184 741.214C988.271 739.779 983.138 737.819 977.957 736.134C969.615 733.423 960.557 730.719 952.028 728.955C948.663 728.259 946.462 726.973 942.174 725.753C941.125 725.661 939.494 725.143 935.457 724.071C931.989 722.704 935.457 724.071 927.73 721.434C924.781 720.236 922.877 719.655 916.445 717.826C910.013 715.996 909.529 715.755 899.292 714.167C887.5 712.337 882.676 710.508 867.667 710.508H843.011C833.585 710.508 828.002 712.337 817.061 716.599C808.876 716.599 787.67 730.506 794.48 725.341C800.807 720.542 798.312 717.408 808.732 707.368C819.153 697.329 833.153 687.585 846.653 686.329C860.153 685.072 864.813 685.77 873.653 686.329C879.848 686.72 887.802 687.829 894.153 687.829C899.285 688.795 918.241 692.097 923.653 693.329C926.001 693.329 964.238 705.829 966.653 705.829C969.568 705.829 990.025 711.982 992.81 712.887C997.7 714.477 1002.8 714.997 1007.32 717.283Z" fill="#93685A"/>
<ellipse cx="1099.15" cy="1035.33" rx="21" ry="15.5" fill="#FFD9BB"/>
<circle cx="840.403" cy="932.079" r="2.25" fill="#666666"/>
<circle cx="888.153" cy="687.829" r="3" fill="#666666"/>
<path d="M751.119 1077.54C748.454 1037.57 718.649 998.532 717.706 958C727.074 962.684 751.119 994.568 771.166 1029.65C775.733 1037.64 780.625 1063.51 778.035 1123.21C774.501 1160.31 767.825 1196.58 767.825 1234.58C767.825 1257.36 761.143 1279.26 761.143 1302.15V1358.95C761.143 1397.25 774.508 1434.35 774.508 1472.37C774.508 1514.54 788.767 1553.81 804.579 1592.1C812.709 1611.78 822.509 1629.68 829.638 1649.64C836 1676 852.5 1697 880.5 1726.5C880.5 1737.54 839.844 1693.07 830.567 1683.8C824.573 1677.8 818.411 1675.3 812.747 1668.02C799.77 1651.33 784.485 1635.94 770.424 1620.31C755.834 1604.1 748.719 1582.2 734.413 1566.11C718.678 1548.41 701 1519.85 701 1495.94V1350.78C701 1322.55 711.507 1295.88 714.365 1268.74C719.369 1221.2 754.46 1179.89 754.46 1131.75C754.46 1113.13 752.325 1095.64 751.119 1077.54Z" fill="#56352A"/>
<path d="M1451.12 1252.54C1448.45 1212.57 1418.65 1173.53 1417.71 1133C1427.07 1137.68 1451.12 1169.57 1471.17 1204.65C1475.73 1212.64 1480.63 1238.51 1478.03 1298.21C1474.5 1335.31 1467.83 1371.58 1467.83 1409.58C1467.83 1432.36 1461.14 1454.26 1461.14 1477.15V1533.95C1461.14 1572.25 1474.51 1609.35 1474.51 1647.37C1474.51 1689.54 1488.77 1728.81 1504.58 1767.1C1512.71 1786.78 1522.51 1804.68 1529.64 1824.64C1536 1851 1552.5 1872 1580.5 1901.5C1580.5 1912.54 1539.84 1868.07 1530.57 1858.8C1524.57 1852.8 1518.41 1850.3 1512.75 1843.02C1499.77 1826.33 1484.49 1810.94 1470.42 1795.31C1455.83 1779.1 1448.72 1757.2 1434.41 1741.11C1418.68 1723.41 1401 1694.85 1401 1670.94V1525.78C1401 1497.55 1411.51 1470.88 1414.37 1443.74C1419.37 1396.2 1454.46 1354.89 1454.46 1306.75C1454.46 1288.13 1452.33 1270.64 1451.12 1252.54Z" fill="#4B2D24"/>
<path d="M802.376 1229.17C807.221 1203.16 791.727 1172.35 797.947 1146.33C804.112 1151.18 816.544 1176.29 825.459 1202.64C827.489 1208.64 826.709 1226.1 814.59 1263.63C805.626 1286.57 794.471 1308.35 787.981 1332.57C784.091 1347.09 775.384 1359.71 771.475 1374.3L761.776 1410.5C755.236 1434.9 758.838 1461.21 752.346 1485.44C745.144 1512.32 749.04 1540.18 754.259 1567.73C756.942 1581.89 769.583 1625.86 771.475 1640C766.753 1675.31 761.827 1730.03 762.51 1772.37C765.741 1789.69 768.76 1808.49 771.475 1829C765.469 1819.72 762.93 1798.38 762.51 1772.37C731.143 1604.19 679.84 1575.79 693.668 1485.82L718.455 1393.31C723.276 1375.32 735.642 1360.42 742.402 1343.69C754.24 1314.39 787.383 1295.06 795.604 1264.37C798.783 1252.51 800.183 1240.94 802.376 1229.17Z" fill="#4B2D24"/>
<path d="M979 834.5C939 840.006 890.632 832.929 837.5 821C840.586 825.105 854.813 831.08 865.5 834.5C890.5 842.5 956.5 842.5 965.5 839.5C974.5 836.5 975.713 836.089 979 834.5Z" fill="#EEBDA2"/>
<line x1="760.5" y1="990" x2="760.5" y2="1201" stroke="#EBD2A0" stroke-width="3"/>
<line x1="1456.5" y1="1066" x2="1456.5" y2="1201" stroke="#EBD2A0" stroke-width="3"/>
<path d="M766.5 984C766.5 986.95 765.684 989.599 764.39 991.497C763.095 993.396 761.357 994.5 759.5 994.5C757.643 994.5 755.905 993.396 754.61 991.497C753.316 989.599 752.5 986.95 752.5 984C752.5 981.05 753.316 978.401 754.61 976.503C755.905 974.604 757.643 973.5 759.5 973.5C761.357 973.5 763.095 974.604 764.39 976.503C765.684 978.401 766.5 981.05 766.5 984Z" fill="#EBD2A0" stroke="#B79D69"/>
<path d="M1526 1168C1477.83 1059.17 1444.22 975.676 1446 907.5C1436 969.5 1434.03 1030.94 1454.5 1066.5C1481.89 1133.68 1500.86 1126.72 1526 1168Z" fill="#56352A"/>
<path d="M795 992.5C774.589 952.891 766.447 926.94 771 859C1063.28 889.87 1180.01 883.322 1425 859C1455.08 894.113 1443.14 938.598 1425 992.5C1425 992.5 1383 1106.5 1333 1116C1283 1125.5 1144 966 1096.5 966C1049 966 910.5 1124.5 874.5 1100C838.5 1075.5 818.812 1063.07 795 992.5Z" fill="#FF0000" fill-opacity="0.02"/>
<path d="M840.5 831.5C841.904 828.688 846.211 820.71 849.648 816.425L851.935 817.437C848.423 818.759 843.14 827.791 840.5 831.5Z" fill="black"/>
<path d="M846.5 833.5C848.049 830.766 850.141 822.658 853.798 818.559L856.028 819.689C852.452 820.825 849.331 829.934 846.5 833.5Z" fill="black"/>
<path d="M852.734 831.268C853.611 827.735 855.62 822.13 859.277 818.032L861.31 818.961C857.735 820.098 855.09 827.109 852.734 831.268Z" fill="black"/>
<path d="M860.107 831.986C860.139 828.346 860.79 822.428 863.395 817.591L865.589 818.023C862.375 819.959 861.432 827.393 860.107 831.986Z" fill="black"/>
<path d="M867.201 831.614C867.234 827.974 867.233 824.016 869.838 819.179L872.032 819.611C868.818 821.547 868.527 827.022 867.201 831.614Z" fill="black"/>
<path d="M874.769 832.94C874.801 829.3 874.8 825.342 877.405 820.505L879.599 820.937C876.385 822.873 876.094 828.347 874.769 832.94Z" fill="black"/>
<path d="M882.885 834.141C882.411 830.532 881.859 826.612 883.765 821.46L885.998 821.582C883.085 823.947 883.559 829.408 882.885 834.141Z" fill="black"/>
<path d="M890.834 832.439C889.923 828.914 889.013 827.296 890.277 821.95L891.236 821.819C889.772 824.666 890.926 827.66 890.834 832.439Z" fill="black"/>
<path d="M897.168 830.965C896.257 827.441 895.154 827.392 896.418 822.046L897.905 822.001C896.242 823.868 897.259 826.186 897.168 830.965Z" fill="black"/>
<path d="M901.611 830.235C900.7 826.711 901.248 828.022 901.555 822.391L902.574 822.389C901.892 824.057 901.703 825.456 901.611 830.235Z" fill="black"/>
<path d="M906.65 828.924C906.446 825.394 906.247 824.414 906.602 822.104L907.622 822.101C906.939 823.77 906.741 824.145 906.65 828.924Z" fill="black"/>
<path d="M843.484 1332.35C720.801 1348.2 717.426 1250.45 762.747 1196.53C734.985 1220.04 709.226 1250.28 717.033 1289.76C726.99 1340.11 793.242 1366.7 843.484 1332.35Z" fill="#EBD2A0" stroke="#B79D69" stroke-width="3"/>
<circle cx="759.5" cy="1196.5" r="6" fill="#EBD2A0" stroke="#B79D69" stroke-width="3"/>
<path d="M824.999 807.619C835.471 812.921 843.283 815.638 860.375 819.985L865.231 815.986C849.905 814.541 840.98 812.159 824.999 807.619Z" fill="#40231A"/>
<path d="M836.378 804.493C846.306 810.402 853.857 813.59 870.565 818.993L875.929 815.373C860.657 812.945 851.946 810.013 836.378 804.493Z" fill="#40231A"/>
<path d="M846.916 801.705C855.974 807.655 862.961 811.054 878.543 817.149L883.94 814.483C869.513 811.079 861.398 807.803 846.916 801.705Z" fill="#40231A"/>
<path d="M857.366 797.654C865.792 804.109 868.417 807.312 883.398 814.337L889.492 812.683C875.356 808.383 871.239 804.61 857.366 797.654Z" fill="#40231A"/>
<path d="M869.263 795.741C876.992 802.652 879.259 805.978 893.526 813.88L899.86 812.651C886.125 807.489 882.421 803.503 869.263 795.741Z" fill="#40231A"/>
<path d="M882.431 794.101C889.405 801.414 891.177 802.569 904.621 811.287L911.148 810.492C897.917 804.507 893.693 803.539 882.431 794.101Z" fill="#40231A"/>
<path d="M892.691 792.479C898.857 800.139 898.95 800.405 911.469 809.874L916.762 809.305C904.136 802.542 902.927 802.512 892.691 792.479Z" fill="#40231A"/>
<path d="M902.009 791.912C908.175 799.572 908.267 799.838 920.786 809.307L926.079 808.738C913.453 801.975 912.244 801.946 902.009 791.912Z" fill="#40231A"/>
<path d="M922.194 792.58C924.724 801.025 922.922 798.317 930.869 810.018L935.36 810.535C926.059 801.228 927.632 804.199 922.194 792.58Z" fill="#40231A"/>
<path d="M938.078 795.018C938.249 803.447 937.198 800.589 941.9 812.962L946.27 814.157C939.534 803.849 940.281 806.921 938.078 795.018Z" fill="#40231A"/>
<path d="M951.146 797.956C947.585 807.958 948.409 803.557 947.826 813.914L951.186 814.613C949.536 803.422 950.153 808.674 951.146 797.956Z" fill="#40231A"/>
<path d="M961.604 803.47C960.689 807.871 961.936 806.417 958.342 816.149L956.054 816.09C959.673 809.747 960.535 808.61 961.604 803.47Z" fill="#40231A"/>
<path d="M970.195 804.129C970.157 809.878 970.605 808.606 969.881 814.828L967.676 815.44C969.633 810.336 969.396 809.537 970.195 804.129Z" fill="#40231A"/>
<path d="M980.135 807.732C977.402 813.241 979.816 809.862 976.23 815.654L973.915 815.69C978.11 811.28 976.863 812.723 980.135 807.732Z" fill="#40231A"/>
<path d="M989.964 810.114C985.988 815.248 987.459 813.626 984.716 816.998L982.452 816.74C987.59 812.885 985.585 814.665 989.964 810.114Z" fill="#40231A"/>
<path d="M995.942 813.669C993.401 816.774 994.131 816.336 991.388 819.708L989.124 819.45C994.262 815.594 991.564 818.22 995.942 813.669Z" fill="#40231A"/>
<path d="M1298 828.952C1346 831.952 1365 830.452 1386.5 819.452L1351 819.452C1305 812.452 1276.5 816.952 1213 825.315C1200.43 830.417 1204.41 825.508 1199 844.452C1207.13 825.406 1263.5 828.952 1298 828.952Z" fill="#40231A" stroke="black"/>
<path d="M1366.92 813.5H1387.42C1351.42 787 1331.83 778.676 1286.92 776C1323.42 787.923 1329.53 796.004 1366.92 813.5Z" fill="#DAA78C"/>
<path d="M1372.42 802.634C1372.42 802.634 1364.42 793 1358.92 789.5C1353.42 786 1321.96 773.317 1286.91 771.002C1253.11 770.84 1238.76 782.732 1214 801.103L1214 802.435C1214 802.843 1214 803.08 1214 802.634C1214 801.613 1256.05 772.361 1286.91 773.042C1322.56 777.034 1342.07 787.591 1372.42 802.634Z" fill="#995741"/>
<path d="M1279.75 837.736C1296.45 836.389 1301.75 842.208 1322.75 839.972C1343.75 837.736 1379.47 828.735 1379.25 826.472C1379.03 824.209 1322.75 830.972 1281.75 828.236C1240.75 825.499 1237.75 828.236 1216.75 832.736C1216.75 832.736 1215.07 835.572 1216.75 836.972C1218.43 838.372 1250.75 836.736 1279.75 837.736Z" fill="#FFDEC5"/>
<path d="M1205.69 824C1197.69 831 1187.47 843.188 1189.19 844.5C1194.81 846.311 1204.02 847.505 1211.09 848.544C1212.56 848.861 1214.21 849.124 1216.04 849.329C1214.6 849.072 1212.91 848.813 1211.09 848.544C1195.17 845.129 1199.28 835.44 1205.69 824Z" fill="#FDEEE3"/>
<path d="M1229.16 841.5C1269.16 847.006 1317.53 839.929 1370.66 828C1367.58 832.105 1353.35 838.08 1342.66 841.5C1317.66 849.5 1251.66 849.5 1242.66 846.5C1233.66 843.5 1232.45 843.089 1229.16 841.5Z" fill="#EEBDA2"/>
<path d="M1367.66 838.5C1366.26 835.688 1361.95 827.71 1358.51 823.425L1356.23 824.437C1359.74 825.759 1365.02 834.791 1367.66 838.5Z" fill="black"/>
<path d="M1361.66 840.5C1360.11 837.766 1358.02 829.658 1354.37 825.559L1352.14 826.689C1355.71 827.825 1358.83 836.934 1361.66 840.5Z" fill="black"/>
<path d="M1355.43 838.268C1354.55 834.735 1352.54 829.13 1348.89 825.032L1346.85 825.961C1350.43 827.098 1353.07 834.109 1355.43 838.268Z" fill="black"/>
<path d="M1348.06 838.986C1348.02 835.346 1347.37 829.428 1344.77 824.591L1342.57 825.023C1345.79 826.959 1346.73 834.393 1348.06 838.986Z" fill="black"/>
<path d="M1340.96 838.614C1340.93 834.974 1340.93 831.016 1338.33 826.179L1336.13 826.611C1339.35 828.547 1339.64 834.022 1340.96 838.614Z" fill="black"/>
<path d="M1333.39 839.94C1333.36 836.3 1333.36 832.342 1330.76 827.505L1328.56 827.937C1331.78 829.873 1332.07 835.347 1333.39 839.94Z" fill="black"/>
<path d="M1325.28 841.141C1325.75 837.532 1326.3 833.612 1324.4 828.46L1322.17 828.582C1325.08 830.947 1324.6 836.408 1325.28 841.141Z" fill="black"/>
<path d="M1317.33 839.439C1318.24 835.914 1319.15 834.296 1317.89 828.95L1316.93 828.819C1318.39 831.666 1317.24 834.66 1317.33 839.439Z" fill="black"/>
<path d="M1311 837.965C1311.91 834.441 1313.01 834.392 1311.75 829.046L1310.26 829.001C1311.92 830.868 1310.9 833.186 1311 837.965Z" fill="black"/>
<path d="M1306.55 837.235C1307.46 833.711 1306.92 835.022 1306.61 829.391L1305.59 829.389C1306.27 831.057 1306.46 832.456 1306.55 837.235Z" fill="black"/>
<path d="M1301.51 835.924C1301.72 832.394 1301.92 831.414 1301.56 829.104L1300.54 829.101C1301.22 830.77 1301.42 831.145 1301.51 835.924Z" fill="black"/>
<path d="M1383.16 814.619C1372.69 819.921 1364.88 822.638 1347.79 826.985L1342.93 822.986C1358.26 821.541 1367.18 819.159 1383.16 814.619Z" fill="#40231A"/>
<path d="M1371.78 811.493C1361.86 817.402 1354.31 820.59 1337.6 825.993L1332.23 822.373C1347.51 819.945 1356.22 817.013 1371.78 811.493Z" fill="#40231A"/>
<path d="M1361.25 808.705C1352.19 814.655 1345.2 818.054 1329.62 824.149L1324.22 821.483C1338.65 818.079 1346.77 814.803 1361.25 808.705Z" fill="#40231A"/>
<path d="M1350.8 804.654C1342.37 811.109 1339.75 814.312 1324.77 821.337L1318.67 819.683C1332.81 815.383 1336.92 811.61 1350.8 804.654Z" fill="#40231A"/>
<path d="M1338.9 802.741C1331.17 809.652 1328.9 812.978 1314.64 820.88L1308.3 819.651C1322.04 814.489 1325.74 810.503 1338.9 802.741Z" fill="#40231A"/>
<path d="M1325.73 801.101C1318.76 808.414 1316.99 809.569 1303.54 818.287L1297.02 817.492C1310.25 811.507 1314.47 810.539 1325.73 801.101Z" fill="#40231A"/>
<path d="M1315.47 799.479C1309.31 807.139 1309.21 807.405 1296.69 816.874L1291.4 816.305C1304.03 809.542 1305.24 809.512 1315.47 799.479Z" fill="#40231A"/>
<path d="M1306.15 798.912C1299.99 806.572 1299.9 806.838 1287.38 816.307L1282.08 815.738C1294.71 808.975 1295.92 808.946 1306.15 798.912Z" fill="#40231A"/>
<path d="M1285.97 799.58C1283.44 808.025 1285.24 805.317 1277.29 817.018L1272.8 817.535C1282.1 808.228 1280.53 811.199 1285.97 799.58Z" fill="#40231A"/>
<path d="M1270.09 802.018C1269.91 810.447 1270.96 807.589 1266.26 819.962L1261.89 821.157C1268.63 810.849 1267.88 813.921 1270.09 802.018Z" fill="#40231A"/>
<path d="M1257.02 804.956C1260.58 814.958 1259.75 810.557 1260.34 820.914L1256.98 821.613C1258.63 810.422 1258.01 815.674 1257.02 804.956Z" fill="#40231A"/>
<path d="M1246.56 810.47C1247.47 814.871 1246.23 813.417 1249.82 823.149L1252.11 823.09C1248.49 816.747 1247.63 815.61 1246.56 810.47Z" fill="#40231A"/>
<path d="M1237.97 811.129C1238.01 816.878 1237.56 815.606 1238.28 821.828L1240.49 822.44C1238.53 817.336 1238.77 816.537 1237.97 811.129Z" fill="#40231A"/>
<path d="M1228.03 814.732C1230.76 820.241 1228.35 816.862 1231.93 822.654L1234.25 822.69C1230.05 818.28 1231.3 819.723 1228.03 814.732Z" fill="#40231A"/>
<path d="M1218.2 817.114C1222.18 822.248 1220.7 820.626 1223.45 823.998L1225.71 823.74C1220.57 819.885 1222.58 821.665 1218.2 817.114Z" fill="#40231A"/>
<path d="M1212.22 820.669C1214.76 823.774 1214.03 823.336 1216.77 826.708L1219.04 826.45C1213.9 822.594 1216.6 825.22 1212.22 820.669Z" fill="#40231A"/>
<path d="M1456.55 1304L1465.85 1246.15H1447.24L1456.55 1304Z" fill="#EBD2A0"/>
<path d="M1456.55 1188L1465.85 1245.85H1447.24L1456.55 1188Z" fill="#EBD2A0"/>
<path d="M1413 1246.29L1457.42 1236.86V1255.73L1413 1246.29Z" fill="#EBD2A0"/>
<path d="M1501.25 1246.29L1456.84 1236.86V1255.73L1501.25 1246.29Z" fill="#EBD2A0"/>
<path d="M1482.49 1219.23L1461.97 1251.73L1451.09 1240.47L1482.49 1219.23Z" fill="#EBD2A0"/>
<path d="M1430.6 1272.94L1462 1251.7L1451.12 1240.44L1430.6 1272.94Z" fill="#EBD2A0"/>
<path d="M1430.6 1219.23L1451.12 1251.73L1462 1240.47L1430.6 1219.23Z" fill="#EBD2A0"/>
<path d="M1482.49 1272.94L1451.09 1251.7L1461.97 1240.44L1482.49 1272.94Z" fill="#EBD2A0"/>
<path d="M1464.5 1246C1464.5 1250.72 1460.89 1254.5 1456.5 1254.5C1452.11 1254.5 1448.5 1250.72 1448.5 1246C1448.5 1241.28 1452.11 1237.5 1456.5 1237.5C1460.89 1237.5 1464.5 1241.28 1464.5 1246Z" fill="#FF8888" stroke="#BDBDBD"/>
<circle cx="1456.5" cy="1229.5" r="2.5" fill="white"/>
<circle cx="1456.5" cy="1218" r="1" fill="white"/>
<circle r="2.5" transform="matrix(1 0 0 -1 1456.5 1262.5)" fill="white"/>
<circle r="1" transform="matrix(1 0 0 -1 1456.5 1274)" fill="white"/>
<circle cx="1471.5" cy="1246.5" r="2.5" transform="rotate(-90 1471.5 1246.5)" fill="white"/>
<circle cx="1482" cy="1246.5" r="1" transform="rotate(-90 1482 1246.5)" fill="white"/>
<circle r="2.5" transform="matrix(0 -1 -1 0 1440.5 1246.5)" fill="white"/>
<circle r="1" transform="matrix(0 -1 -1 0 1430 1246.5)" fill="white"/>
<circle r="0.5" transform="matrix(0 -1 -1 0 1444.5 1233.5)" fill="white"/>
<circle r="0.5" transform="matrix(0 -1 -1 0 1440.5 1229.5)" fill="white"/>
<circle r="0.5" transform="matrix(0.707107 -0.707107 -0.707107 -0.707107 1467.5 1234.5)" fill="white"/>
<circle r="0.5" transform="matrix(0.707107 -0.707107 -0.707107 -0.707107 1467.71 1257.71)" fill="white"/>
<circle r="0.5" transform="matrix(0.707107 -0.707107 -0.707107 -0.707107 1444.71 1257.71)" fill="white"/>
<circle r="0.5" transform="matrix(0.707107 -0.707107 -0.707107 -0.707107 1471.71 1261.71)" fill="white"/>
<circle r="0.5" transform="matrix(0.707107 -0.707107 -0.707107 -0.707107 1440.71 1262.71)" fill="white"/>
<circle r="0.5" transform="matrix(0.707107 -0.707107 -0.707107 -0.707107 1471.71 1230.71)" fill="white"/>
<circle cx="727" cy="1268" r="3.5" fill="#9ECBFF" stroke="#7BA0FF"/>
<circle r="1.5" transform="matrix(1 0 0 -1 729 1254)" fill="#FF9E9E" stroke="#FF7B7B"/>
<circle r="1.5" transform="matrix(1 0 0 -1 778 1337)" fill="#FF9E9E" stroke="#FF7B7B"/>
<circle r="1.5" transform="matrix(1 0 0 -1 732 1243)" fill="#9ECBFF" stroke="#7BA0FF"/>
<circle r="1.5" transform="matrix(1 0 0 -1 792 1340)" fill="#9ECBFF" stroke="#7BA0FF"/>
<circle r="0.5" transform="matrix(1 0 0 -1 735 1234)" fill="#FF9E9E" stroke="#FF7B7B"/>
<circle r="0.5" transform="matrix(1 0 0 -1 806 1340)" fill="#FF9E9E" stroke="#FF7B7B"/>
<circle r="0.5" transform="matrix(1 0 0 -1 738.5 1227.5)" fill="#FF9E9E"/>
<circle r="0.5" transform="matrix(1 0 0 -1 816.5 1339.5)" fill="#FF9E9E"/>
<circle cx="727" cy="1287" r="3.5" fill="#FF9E9E" stroke="#FF7B7B"/>
<circle cx="734" cy="1306" r="3.5" fill="#9ECBFF" stroke="#7BA0FF"/>
<circle cx="747" cy="1321" r="3.5" fill="#FF9E9E" stroke="#FF7B7B"/>
<circle cx="763" cy="1331" r="3.5" fill="#9ECBFF" stroke="#7BA0FF"/>
<circle cx="1112" cy="1789" r="31" fill="#EBD2A0"/>
<circle cx="1112" cy="1789" r="26.4412" fill="#989898"/>
<circle cx="1112" cy="1789.3" r="22.1863" fill="#B4BBFF"/>
<path d="M1117.47 1803.89H1106.53L1111.85 1811.49L1117.47 1803.89Z" fill="#99A2F1"/>
<path d="M1112.15 1772.89L1122.41 1776.63L1127.87 1786.08L1125.97 1796.83L1117.61 1803.84H1106.69L1098.33 1796.83L1096.44 1786.08L1101.9 1776.63L1112.15 1772.89Z" fill="#5B6CFD"/>
<path d="M1112.15 1772.89L1101.67 1776.69L1103.95 1768.49L1112.15 1772.89Z" fill="#99A2F1"/>
<path d="M1112.15 1772.89L1122.94 1776.84L1120.66 1768.64L1112.15 1772.89Z" fill="#99A2F1"/>
<path d="M1117.62 1803.89L1125.98 1796.9L1127.5 1805.11L1117.62 1803.89Z" fill="#99A2F1"/>
<path d="M1106.68 1803.89L1098.32 1796.9L1096.8 1805.11L1106.68 1803.89Z" fill="#99A2F1"/>
<path d="M1098.32 1796.75L1096.5 1785.96L1090.12 1792.5L1098.32 1796.75Z" fill="#99A2F1"/>
<path d="M1125.98 1796.75L1127.8 1785.96L1134.19 1792.5L1125.98 1796.75Z" fill="#99A2F1"/>
<path d="M1096.5 1785.96L1101.97 1776.54L1093.16 1777.6L1096.5 1785.96Z" fill="#99A2F1"/>
<path d="M1127.8 1785.96L1122.33 1776.54L1131.15 1777.6L1127.8 1785.96Z" fill="#99A2F1"/>
<path d="M983.292 278.858C977.228 282.468 971.243 286.188 965.291 289.937C911.674 329.86 796.688 455.238 771.5 494C735.5 542.561 740.262 568.504 733 605.5C719.203 624.917 710.559 649.741 702.33 672.37C700.981 676.082 699.405 687.115 696.785 689.211C693.081 692.174 675.186 730.314 672 733.5C670.419 735.081 683.025 712 683.025 696.605C687.145 686.599 689.705 664.328 695.758 656.761C703.794 646.715 706.645 622.659 709.519 609.728C713.331 592.576 717.669 574.646 722.869 557.561C738.561 506 761.802 455.264 800.092 417.696C823.83 394.406 848.69 372.456 872.387 349.099C882.204 339.422 889.993 332.55 901.962 326.918C924.032 316.532 944.462 303.056 965.291 289.937C972.536 284.542 978.661 280.708 983.292 278.858Z" fill="#56352A"/>
<path d="M1571.02 898.655C1562.43 870.974 1549.12 843.571 1543 815C1553.06 835.128 1582.83 883.293 1597.04 915.866C1602.67 928.793 1607.84 929.515 1607.84 941.082V964.498V1011.33C1607.84 1024.06 1597.78 1040.17 1597.04 1052.76C1595.52 1078.56 1593.43 1105.16 1593.43 1132.01C1593.43 1169.52 1598.93 1202.4 1609.64 1236.68C1618.69 1265.62 1622.25 1297.3 1622.25 1328.34V1376.29C1622.25 1387.77 1615.33 1413.25 1610.64 1423.8C1605.12 1436.23 1597.04 1458.95 1597.04 1472.43C1587.06 1495.44 1574.05 1524.58 1570.56 1536.79C1559.19 1576.61 1564.61 1590.43 1564.61 1632.73C1564.61 1667.77 1570.57 1699.38 1571.82 1734.4C1572.03 1740.2 1572.9 1751.66 1573.74 1760.42C1574.6 1763.34 1575.42 1766.21 1575.42 1769.62C1575.42 1775.62 1574.6 1769.47 1573.74 1760.42C1572.8 1757.23 1571.82 1753.96 1571.82 1749.81C1571.82 1741.11 1562.35 1710.79 1559.56 1693.29C1557.41 1679.79 1557.41 1673.75 1557.41 1661.55C1557.41 1638.03 1545.87 1614.86 1546.4 1591.91C1547.16 1559.27 1557.33 1522.08 1564.53 1495.75L1564.61 1495.44C1597.04 1437.29 1609.64 1359.79 1587.56 1319.29C1584.09 1303.67 1566.33 1262.25 1557.41 1248.08C1544.12 1226.97 1550.2 1191.85 1550.2 1168.03C1550.2 1109.11 1579.02 1053.05 1579.02 993.717C1579.02 961.743 1580.63 929.62 1571.02 898.655Z" fill="#56352A"/>
</g>
<g filter="url(#filter1_d_104_677)">
<circle cx="1146" cy="1142" r="1102" stroke="#A55C5C" stroke-width="80"/>
</g>
<path d="M881 1121C875.235 1140.68 891.5 1169 891.5 1169C891.5 1169 880.253 1139.07 886.5 1121.5C894.233 1099.75 910 1099.5 931 1086C949.815 1073.9 973.5 1044.5 973.5 1044.5C973.5 1044.5 949.553 1067.32 933 1080.5C912.917 1096.5 888.218 1096.36 881 1121Z" fill="#F0BA9D"/>
<path d="M1309.5 1125.5C1315.26 1145.18 1299 1173.5 1299 1173.5C1299 1173.5 1310.25 1143.57 1304 1126C1296.27 1104.25 1280.5 1104 1259.5 1090.5C1240.68 1078.4 1217 1049 1217 1049C1217 1049 1240.95 1071.82 1257.5 1085C1277.58 1101 1302.28 1100.86 1309.5 1125.5Z" fill="#F0BA9D"/>
<path d="M907 867.307C941.777 864.284 960.037 861.356 989.437 853.011C989.437 853.011 971.85 862.584 959.592 865.878C939.75 871.209 907 867.307 907 867.307Z" fill="#F0BA9D"/>
<path d="M1278.44 867.307C1243.66 864.284 1225.4 861.356 1196 853.011C1196 853.011 1213.59 862.584 1225.84 865.878C1245.69 871.209 1278.44 867.307 1278.44 867.307Z" fill="#F0BA9D"/>
<path fill-rule="evenodd" clip-rule="evenodd" d="M1583 1080C1563.67 1080 1548 1095.67 1548 1115V1211.53L1501 1242.49L1548 1273.46V1302C1548 1321.33 1563.67 1337 1583 1337H2081C2100.33 1337 2116 1321.33 2116 1302V1115C2116 1095.67 2100.33 1080 2081 1080H1583Z" fill="#EFFFFE"/>
<path d="M1661.56 1268V1170.8H1675.12V1212.8H1700.08V1170.8H1713.64V1268H1700.08V1222.52H1675.12V1268H1661.56ZM1743.23 1268V1170.8H1780.91V1180.88H1756.79V1213.04H1776.35V1222.64H1756.79V1258.28H1781.15V1268H1743.23ZM1806.49 1268V1170.8H1820.05V1258.28H1844.89V1268H1806.49ZM1868.59 1268V1170.8H1882.15V1258.28H1906.99V1268H1868.59ZM1954.82 1269.08C1948.26 1269.08 1943.02 1267.8 1939.1 1265.24C1935.18 1262.68 1932.38 1259.04 1930.7 1254.32C1929.02 1249.52 1928.18 1243.92 1928.18 1237.52V1200.68C1928.18 1194.28 1929.02 1188.8 1930.7 1184.24C1932.46 1179.6 1935.26 1176.08 1939.1 1173.68C1943.02 1171.2 1948.26 1169.96 1954.82 1169.96C1961.38 1169.96 1966.58 1171.2 1970.42 1173.68C1974.26 1176.16 1977.02 1179.68 1978.7 1184.24C1980.46 1188.8 1981.34 1194.28 1981.34 1200.68V1237.64C1981.34 1243.96 1980.46 1249.48 1978.7 1254.2C1977.02 1258.92 1974.26 1262.6 1970.42 1265.24C1966.58 1267.8 1961.38 1269.08 1954.82 1269.08ZM1954.82 1258.4C1958.42 1258.4 1961.14 1257.68 1962.98 1256.24C1964.82 1254.72 1966.06 1252.64 1966.7 1250C1967.34 1247.28 1967.66 1244.12 1967.66 1240.52V1197.92C1967.66 1194.32 1967.34 1191.24 1966.7 1188.68C1966.06 1186.04 1964.82 1184.04 1962.98 1182.68C1961.14 1181.24 1958.42 1180.52 1954.82 1180.52C1951.22 1180.52 1948.46 1181.24 1946.54 1182.68C1944.7 1184.04 1943.46 1186.04 1942.82 1188.68C1942.18 1191.24 1941.86 1194.32 1941.86 1197.92V1240.52C1941.86 1244.12 1942.18 1247.28 1942.82 1250C1943.46 1252.64 1944.7 1254.72 1946.54 1256.24C1948.46 1257.68 1951.22 1258.4 1954.82 1258.4Z" fill="black"/>
<path d="M769.922 757.224C879.227 749.28 940.836 753.252 1051.6 783.055M769.922 757.224C767.291 821.93 776.426 885.489 812.449 917.11C830.461 935.369 1000.57 947.839 1025.59 917.11C1046.19 867.137 1055.83 838.682 1051.6 783.055M769.922 757.224L727 794.5M1051.6 783.055C1092.44 773.64 1115.34 775.756 1156.17 783.055M1156.17 783.055C1255.85 754.572 1314.36 746.106 1427.85 757.224M1156.17 783.055C1148.17 837.389 1150.67 865.893 1172.68 917.11C1194.7 955.411 1369.31 937.151 1395.33 917.11C1395.33 917.11 1438.35 913.101 1427.85 757.224M1427.85 757.224L1449 805" stroke="#B79D69" stroke-width="5"/>
<defs>
<filter id="filter0_d_104_677" x="50" y="78" width="2192" height="2195.8" filterUnits="userSpaceOnUse" color-interpolation-filters="sRGB">
<feFlood flood-opacity="0" result="BackgroundImageFix"/>
<feColorMatrix in="SourceAlpha" type="matrix" values="0 0 0 0 0 0 0 0 0 0 0 0 0 0 0 0 0 0 127 0" result="hardAlpha"/>
<feOffset dy="4"/>
<feGaussianBlur stdDeviation="2"/>
<feComposite in2="hardAlpha" operator="out"/>
<feColorMatrix type="matrix" values="0 0 0 0 0 0 0 0 0 0 0 0 0 0 0 0 0 0 0.25 0"/>
<feBlend mode="normal" in2="BackgroundImageFix" result="effect1_dropShadow_104_677"/>
<feBlend mode="normal" in="SourceGraphic" in2="effect1_dropShadow_104_677" result="shape"/>
</filter>
<filter id="filter1_d_104_677" x="0" y="0" width="2292" height="2292" filterUnits="userSpaceOnUse" color-interpolation-filters="sRGB">
<feFlood flood-opacity="0" result="BackgroundImageFix"/>
<feColorMatrix in="SourceAlpha" type="matrix" values="0 0 0 0 0 0 0 0 0 0 0 0 0 0 0 0 0 0 127 0" result="hardAlpha"/>
<feOffset dy="4"/>
<feGaussianBlur stdDeviation="2"/>
<feComposite in2="hardAlpha" operator="out"/>
<feColorMatrix type="matrix" values="0 0 0 0 0 0 0 0 0 0 0 0 0 0 0 0 0 0 0.25 0"/>
<feBlend mode="normal" in2="BackgroundImageFix" result="effect1_dropShadow_104_677"/>
<feBlend mode="normal" in="SourceGraphic" in2="effect1_dropShadow_104_677" result="shape"/>
</filter>
</defs>
</svg>
