<svg width="2292" height="2292" viewBox="0 0 2292 2292" fill="none" xmlns="http://www.w3.org/2000/svg">
<g filter="url(#filter0_d_103_485)">
<circle cx="1146" cy="1170" r="1092" fill="#FFD1D1"/>
<path d="M904 1661V1273L1437 1101L1419.5 1661H904Z" fill="#EBB395"/>
<path d="M414.744 1595.82C448.145 1553.97 749.298 1567.75 842.382 1481H1328.06C1561.87 1581.02 1769.94 1522.85 1838.93 1543.26C1999.36 1662.16 1975.2 1687.21 2019 1850C1510 2424.5 715 2382 280.5 1856C336.898 1671.27 306.329 1666.75 414.744 1595.82Z" fill="#444444"/>
<path d="M886 1607.5C877.587 1601.28 869.5 1586 877.5 1568.5C885.5 1551 1346 1584 1346 1584L1338 1622.5C1296.47 1650.56 1281.63 1644.93 1209.5 1653.5C1079.5 1646.5 985.47 1643.33 886 1607.5Z" fill="#A59E9E"/>
<path d="M908 1405C879.818 1517.45 865.441 1586.33 888 1593C1041.25 1628.13 1307.5 1634.5 1342 1595C1368 1590 1316.5 1389.5 1290.5 1399.5C1221.08 1420.16 1184.64 1435.31 1102 1437C935.354 1435.18 974.252 1421.56 908 1405Z" fill="#434343"/>
<path d="M929 1634.5C1055.42 1795.58 1145 1803.82 1342.5 1634.5" stroke="#EBD2A0" stroke-width="3"/>
<path d="M1032.99 225.829C1032.52 225.918 1032.05 226.009 1031.59 226.103C1035.81 226.904 1064.64 229.416 1072.99 233.017C1081.43 236.656 1097.9 244.215 1106.32 245.237C1111.21 245.83 1124.98 259.079 1128.91 262.13C1145.62 275.098 1166.85 283.686 1182.99 296.994C1223.12 330.099 1281.84 356.666 1308.17 403.742C1334.92 451.557 1366.72 493.876 1381.32 547.69C1395.31 599.278 1411.37 653.004 1426.13 703.139C1430.23 717.074 1446.84 727.963 1449.46 741.957C1454.09 766.637 1460.19 791.562 1467.8 815.818C1462.7 838.912 1446.98 977.091 1426.13 997.329C1416.61 1006.57 1375.04 1209.87 1360.15 1220.33C1335.32 1239.07 1220.15 1384.33 1121.65 1384.33C1101.73 1384.33 1070.15 1391.35 1025.65 1384.33C1007.6 1368.23 988.576 1370.33 967.152 1355.83C943.402 1339.76 927.092 1327.63 909.475 1307.69C886.379 1281.54 852.015 1263.78 834.662 1233.46C828.063 1221.94 819.393 1211.8 812.996 1200.94C809.532 1195.05 794.588 1179.12 789.663 1176.14C778.45 1169.34 773.896 1148.9 768.923 1138.04C764.59 1128.58 756.911 1112.59 756.331 1102.46C755.675 1090.99 750.393 1079.6 749.664 1066.87C748.926 1053.97 744.28 1041 740.405 1028.77C732.568 1004.06 739.664 966.923 739.664 940.717V856.432C739.664 828.873 734.152 797.671 734.152 770.335C734.152 743.754 734.784 713.69 739.664 687.638C744.597 661.309 743.085 627.223 754.664 602.502C762.597 585.566 762.73 561.24 767.997 542.838C773.438 523.829 777.127 505.66 783.738 487.128C794.023 458.291 808.293 427.606 822.255 400.507C828.45 388.484 835.953 377.156 842.255 364.924C847.162 355.4 851.726 338.004 861.514 332.577C873.835 325.744 881.809 310.488 894.476 303.464C907.174 296.421 914.941 283.005 927.993 275.968C944.49 267.074 958.547 252.034 977.807 245.237C997 238.464 1011.2 230.21 1031.59 226.103C1030.64 225.922 1030.93 225.829 1032.99 225.829Z" fill="#FFCEAE"/>
<path d="M864.152 1093.83C775.84 1036.38 779.197 941.232 758.152 892.829L751.652 1105.83L903.152 1250.33C895.152 1237.33 882.599 1105.83 864.152 1093.83Z" fill="#F9C5A9"/>
<path d="M776.152 563.829L949.152 407.829C867.152 540.329 851.152 572.329 792.652 728.329C770.152 826.829 750.952 921.265 747.652 1023.33L702.152 776.829L776.152 563.829Z" fill="#FAC4A6"/>
<path d="M1454.15 884.329C1452.41 901.868 1449.71 918.356 1446.23 933.864L1432.15 1021.83L1419.15 1102.33C1419.15 1102.33 1390.13 1189.49 1364.15 1218.83C1338.17 1248.16 1279.1 1301.67 1230.15 1339.33C1288.15 1272.33 1294.91 1176.95 1318.15 1141.33C1358.43 1103.68 1421.71 1043.03 1446.23 933.864L1454.15 884.329Z" fill="#F8C7AC"/>
<path d="M901.197 1243.82C857.971 1162.33 824.28 1125.73 768.153 1042.33L794.313 1221.93L857.971 1307.09L1027.65 1384.83C969.153 1338.33 925.059 1279.04 901.197 1243.82Z" fill="#EEBDA2"/>
<path d="M1006.15 187.829C1006.15 173.745 1026.07 160.829 1040.15 160.829C1054.24 160.829 1057.15 173.745 1057.15 187.829V337.829C1057.15 351.912 1054.74 332.329 1040.65 332.329C1026.57 332.329 1006.15 351.912 1006.15 337.829V187.829Z" fill="#CEBBAD"/>
<path d="M905.455 173.429C943.611 153.298 987.775 164.038 1029.89 163.488C1030.99 163.474 1031.91 164.358 1031.93 165.462C1033.18 220.133 1036.46 262.452 1030.68 308.528C1026.85 339.119 1015.96 376.44 997.227 394.054C992.064 398.908 982.044 405.004 975.852 408.771L975.542 408.96C969.176 412.833 964.89 418.852 957.777 421.615C928.98 432.804 900.508 462.404 881.296 480.114C839.225 518.896 816.665 557.855 792.142 607.264C776.423 638.935 750.9 667.173 751.573 702.987C751.576 703.135 751.562 703.286 751.533 703.431C745.394 733.934 745.773 750.926 749.971 783.265C750.658 814.757 751.453 828.524 754.653 844.177C757.185 856.559 761.159 880.779 762.044 893.512C763.584 915.661 762.044 949.329 775.653 1026.33C782.153 1081.33 788.653 1119.83 794.153 1132.83C802.644 1160.3 853.202 1223.05 882.066 1264.21C882.125 1264.29 882.191 1264.37 882.261 1264.44C938.466 1323.14 932.405 1355.21 938.831 1377.43C938.94 1377.8 938.939 1378.2 938.827 1378.58C909.716 1476.18 909.725 1561.85 938.854 1631.65C938.95 1631.88 939.002 1632.12 939.009 1632.37C939.851 1661.2 966.11 1720.11 975.448 1747.72C975.503 1747.88 975.528 1748.03 975.556 1748.19L975.571 1748.28C976.804 1755.23 1016.16 1790.35 1002.58 1854.44C1002.39 1855.34 1001.6 1856.01 1000.68 1856.04C992.709 1856.27 985.363 1856.82 977.846 1854C960.847 1847.63 927.854 1854.37 909.668 1854.77L843.308 1856.22C803.726 1857.08 758.681 1852.82 721.585 1866.99C692.663 1878.04 650.882 1884.82 624.261 1871.46C612.699 1865.66 604.05 1854.84 592.733 1848.69C575.405 1839.29 575.653 1824.53 570.899 1807.14C560.028 1767.36 582.148 1561.09 597.829 1520.33C597.954 1520.01 597.98 1519.71 597.933 1519.37C591.659 1473.32 612.658 1380.61 616.509 1359.44C620.877 1335.43 623.178 1209 627.999 1184.93C628.028 1184.78 628.038 1184.69 628.035 1184.54C627.558 1160.82 631.657 1019.84 631.16 997.037C629.594 925.289 642.29 853.747 642.715 782.457C641.478 703.337 685.5 490.946 704.5 442.5C723.5 394.054 753.101 316.111 792.142 268.5C816.76 238.478 871.453 191.367 905.455 173.429Z" fill="#40231A"/>
<path d="M704.243 922.986C736.975 982.403 745.315 988.479 772.152 1009.83C772.152 946.344 765.802 858.303 751.851 819.373C749.275 812.186 743.954 806.147 704.243 788.829C690.353 788.829 691.232 873.854 704.243 922.986Z" fill="#FAC4A6"/>
<path d="M1164.15 755.829C1187.15 741.829 1334.8 709.534 1298.65 726.329C1262.5 743.123 1144.65 843.329 1135.65 1001.33C1129.65 901.329 1134.65 780.829 1164.15 755.829Z" fill="#F9C4AB" fill-opacity="0.7"/>
<path d="M1033.32 753.829C1010.32 739.829 862.672 707.534 898.822 724.329C934.973 741.123 1056.65 822.329 1065.65 980.329C1071.65 880.329 1062.82 778.829 1033.32 753.829Z" fill="#F8C1A6" fill-opacity="0.7"/>
<path d="M1194.15 717.829C1185.65 719.374 1179.87 720.225 1170.43 721.306C1170.6 726.143 1170.83 730.988 1170.05 735.374C1170.82 739.468 1171.24 740.231 1171.66 743.08C1171.98 745.222 1171.37 744.733 1174.4 745.268C1180.57 745.09 1176.59 744.654 1180.57 745.09C1187.18 745.817 1194.93 745.618 1201.72 744.916C1207.5 744.319 1212.65 743.021 1217.79 742.031C1226.07 740.439 1235.02 738.973 1243.29 738.445C1246.55 738.237 1248.85 737.194 1253.07 736.565C1254.07 736.637 1255.68 736.339 1259.64 735.83C1263.13 734.906 1259.64 735.83 1267.34 734.218C1270.31 733.393 1272.19 733.072 1278.53 732.129C1284.86 731.187 1285.36 731.002 1295.19 730.947C1306.51 730.884 1311.35 729.677 1325.31 732.139L1348.24 736.183C1357.01 737.729 1361.85 740.642 1371.21 747.089C1378.82 748.432 1395.86 767.094 1390.53 760.338C1385.56 754.06 1383.78 746.351 1380.73 738.377C1379 733.853 1376.03 730.005 1375.1 725.013C1374.2 720.183 1369.25 713.659 1367.29 709.78C1362.73 700.762 1354.87 704.399 1347.01 702.326C1337.31 701.988 1331.73 702.881 1323.4 702.042C1317.57 701.453 1310.99 703.811 1305.08 702.769C1300.12 702.982 1295.63 702.191 1290.36 702.648C1284.52 703.679 1264.84 706.831 1259.96 707.899C1248.31 710.448 1238.62 710.674 1224.15 712.253C1219.3 713.186 1199.65 716.829 1194.15 717.829Z" fill="#93685A"/>
<path d="M1038.46 290.965C1037.75 245.742 1030.78 209.285 1030.65 165.53C1030.65 164.743 1030.81 163.959 1031.26 163.309C1041.39 148.466 1102.2 145 1117.92 145C1149.4 145 1182.65 145.829 1214.65 152.829C1246.26 159.743 1270.32 170.274 1291.37 179.487L1291.6 179.589C1291.97 179.749 1292.32 179.856 1292.71 179.931C1351.09 191.02 1505.05 349.91 1526.65 393.329C1545.52 434.495 1555.15 450.829 1574.15 498.829C1593.15 546.829 1584.66 531.606 1596.15 568.329C1610.06 612.778 1610.15 629.829 1622.15 674.329C1644.21 756.12 1664.89 811.793 1683.29 868.305C1705.2 935.634 1710.51 1008.1 1710.51 1078.56C1704.15 1168.33 1724.13 1245.8 1728.9 1257.66C1739.9 1285.06 1755.75 1309.91 1764.95 1337.89C1774.62 1367.33 1770.1 1401.04 1770.1 1431.7C1770.1 1506.4 1824.02 1591.42 1803.15 1663.32C1797.16 1683.96 1789.76 1717.34 1770.52 1755.49C1770.24 1756.04 1770.07 1756.65 1770 1757.27C1768.36 1771.67 1764.21 1769.78 1751.65 1802.59C1740.69 1831.24 1751.58 1807.48 1729.11 1851.91C1728.98 1852.18 1728.85 1852.49 1728.76 1852.78C1724.4 1867.58 1728.58 1853.1 1713.2 1876.1C1712.65 1876.92 1712.38 1877.93 1711.98 1878.82C1708.17 1887.2 1675.85 1906.88 1669.12 1908.35C1655.98 1911.23 1639.97 1915.49 1627.74 1920.84C1609.51 1928.82 1584.18 1924.83 1564.84 1924.83C1538.54 1924.83 1506.24 1928.16 1482.08 1917.58C1469.61 1912.13 1455.21 1911.42 1442.35 1906.9C1423.25 1900.18 1400.5 1893.66 1380.19 1892.23C1373.67 1891.77 1258 1881.73 1256.73 1877.38C1253.78 1867.19 1255.95 1850.7 1256.55 1840.08C1257.27 1827.39 1267.19 1814.93 1269.98 1802.59C1271.97 1793.77 1278.15 1776 1283.77 1769.08C1297.87 1751.73 1304.48 1729.55 1309.34 1708.05C1312.53 1693.89 1321 1681.55 1321.15 1663.79C1321.15 1663.48 1321.12 1663.16 1321.07 1662.86C1309.51 1600.51 1334.62 1583.47 1309.66 1515.87C1309.45 1515.31 1309.34 1514.69 1309.33 1514.1C1309.2 1477.39 1300.61 1439.48 1284.04 1408.33C1283.86 1408 1283.72 1407.63 1283.62 1407.26C1275.83 1378.11 1283.62 1377.44 1283.77 1317.11C1283.77 1315.98 1284.18 1314.82 1284.88 1313.93C1386.21 1186.06 1394.22 1149.67 1408.65 1105.33C1423.13 1060.83 1422.65 1035.83 1432.15 985.329C1437.88 954.87 1449 913.696 1443.09 896.329C1430.65 858.329 1437.15 870.829 1419.18 825.069C1407.45 803.984 1393.37 785.422 1384.15 775.329C1371.93 763.297 1317.17 687.642 1306.65 674.329C1293.8 658.053 1272.16 631.612 1257.65 617.329C1227.45 587.591 1206.15 544.817 1175.85 514.983C1160.09 499.465 1145.17 479.225 1127.85 465.181C1115.85 455.448 1102.59 441.844 1094.74 428.599C1088.72 418.439 1076.48 411.763 1071.57 400.891C1067.2 391.207 1060.78 384.003 1053.76 373.706C1053.55 373.404 1053.38 373.073 1053.24 372.732C1048.31 360.118 1046.96 352.424 1042.74 334.593C1038.46 316.52 1038.71 306.41 1038.46 290.965Z" fill="#40231A"/>
<path d="M858.047 815.905C856.142 814.081 854.183 812.718 852.27 810.72C853.319 808.885 856.312 805.149 857.605 803.756C858.646 802.635 860.948 801.305 862.006 800.167C865.7 798.115 867.605 797.187 869.986 794.907C872.844 793.5 872.844 793.5 876.177 791.449C877.781 790.036 878.082 790.936 881.415 788.885C884.749 786.833 885.701 785.808 889.511 783.244C893.321 781.705 894.717 781.719 899.511 779.654C901.893 778.628 904.804 777.452 906.655 777.09C908.821 776.666 913.729 775.492 915.703 774.526C919.036 773.909 919.229 773.909 922.082 773.909H926.896C928.529 773.909 932.863 773.31 934.275 773.5C937.227 773.898 937.339 773.909 940.466 773.909C943.799 775.551 947.895 775.631 950.943 777.09C952.421 777.797 955.554 778.763 957.133 779.141C958.598 779.492 961.277 781.329 962.848 781.705C965.604 782.365 966.623 783.619 969.025 785.056C971.582 786.586 974.277 787.859 977.134 789.91C978.964 791.881 980.902 793.16 982.853 795.051C987.127 799.193 991.421 803.756 995.799 808.372C998.848 813.208 1000.23 813.05 1000.08 815.905C1000.02 816.904 998.498 819.464 997.886 820.312C997.38 821.013 995.799 824.103 995.799 824.978C995.799 826.378 994.799 827.02 993.338 827.945C992.089 828.737 993.694 831.842 992.373 832.474C989.236 833.976 985.398 835.129 982.373 836.577C979.835 837.791 975.706 837.09 972.372 837.602C969.039 838.115 965.097 838.93 960.943 839.654C954.276 841.192 947.597 841.829 940.618 841.829C937.813 841.829 935.228 841.192 930.748 840.677C927.132 839.141 926.656 839.654 920.465 838.115C918.084 837.602 916.059 837.606 914.274 837.09C912.249 836.504 911.364 836.212 909.189 836.126C904.562 835.941 899.436 834.596 895.013 833.13C891.067 831.823 887.004 831.153 883.083 829.645C879.283 828.183 875.797 826.417 872.25 824.719C870.194 823.735 868.654 822.366 866.713 821.205C865.285 820.351 863.206 819.416 862.006 818.382C860.806 817.349 859.238 817.045 858.047 815.905Z" fill="#EDD8C7"/>
<path d="M835.152 829.329L846 814L908.652 838.829C880.251 837.157 863.81 836.826 835.152 829.329Z" fill="#DAA78C"/>
<path d="M1357 833.735L1346.64 822L1281 847C1309.03 845.294 1328.71 841.385 1357 833.735Z" fill="#DAA78C"/>
<path d="M1352.65 816.829H1362.65C1333.15 790.829 1314.07 782.504 1269.15 779.829C1305.66 791.752 1315.27 799.332 1352.65 816.829Z" fill="#DAA78C"/>
<path d="M1352.35 796.534C1348.87 794.684 1346.8 793.918 1343.33 792.135C1339.87 790.607 1336.1 789.052 1332.59 788.096C1330.46 787.516 1327.59 786.741 1323.77 785.355C1319.01 783.628 1318.05 783.57 1313.91 782.493C1311.35 781.829 1311.71 781.841 1309.59 781.19C1306.1 780.114 1301.75 779.052 1299.87 778.876C1293.16 777.501 1290.27 777.4 1283.62 776.442C1276.32 776.187 1270.54 775.809 1263.97 776.482C1257.51 778.188 1251.1 780.118 1244.9 782.772C1239.15 785.235 1237.38 785.372 1231.46 789.249C1226.06 791.613 1221.79 794.638 1219.53 796.651C1215.83 799.934 1214.66 800.404 1211.68 802.852" stroke="#995741" stroke-width="1.2" stroke-linecap="round"/>
<path d="M1343.59 825.075C1345.48 823.316 1347.41 822.019 1349.31 820.087C1348.37 818.217 1345.63 814.383 1344.44 812.949C1343.48 811.793 1341.32 810.387 1340.35 809.214C1336.88 807.04 1335.08 806.048 1332.88 803.69C1330.19 802.188 1330.19 802.188 1327.06 800.027C1325.57 798.561 1325.25 799.45 1322.13 797.289C1319.01 795.127 1318.13 794.07 1314.57 791.38C1310.97 789.715 1309.63 789.682 1305.1 787.458C1302.86 786.353 1300.11 785.08 1298.34 784.656C1296.28 784.16 1291.62 782.822 1289.76 781.791C1286.58 781.062 1286.4 781.056 1283.66 780.96L1279.05 780.799C1277.48 780.745 1273.35 780.001 1271.99 780.144C1269.14 780.442 1269.04 780.45 1266.04 780.345C1262.78 781.875 1258.85 781.818 1255.88 783.173C1254.44 783.831 1251.4 784.691 1249.88 785.016C1248.46 785.317 1245.83 787.064 1244.31 787.387C1241.64 787.954 1240.62 789.173 1238.27 790.529C1235.76 791.973 1233.13 793.155 1230.32 795.109C1228.5 797.017 1226.6 798.23 1224.66 800.055C1220.42 804.051 1216.14 808.468 1211.78 812.934C1208.69 817.665 1207.37 817.461 1207.42 820.32C1207.44 821.32 1208.81 823.929 1209.37 824.797C1209.83 825.514 1211.23 828.656 1211.2 829.531C1211.16 830.929 1212.09 831.605 1213.46 832.578C1214.63 833.411 1212.98 836.461 1214.23 837.137C1217.18 838.742 1220.82 840.023 1223.67 841.572C1226.06 842.87 1230.05 842.307 1233.22 842.931C1236.4 843.556 1240.15 844.502 1244.11 845.364C1250.45 847.125 1256.83 847.985 1263.52 848.218C1266.21 848.312 1268.71 847.763 1273.02 847.397C1276.55 845.984 1276.98 846.512 1282.97 845.182C1285.27 844.749 1287.22 844.82 1288.94 844.364C1290.91 843.847 1291.76 843.585 1293.85 843.571C1298.3 843.541 1303.26 842.368 1307.55 841.052C1311.38 839.877 1315.3 839.344 1319.11 837.968C1322.8 836.634 1326.21 834.986 1329.67 833.408C1331.67 832.493 1333.2 831.177 1335.1 830.082C1336.5 829.275 1338.52 828.411 1339.71 827.418C1340.9 826.425 1342.41 826.174 1343.59 825.075Z" fill="#EDD8C7"/>
<path d="M1211.41 816.279C1208.3 816.17 1206.29 820.36 1204.3 822.272C1203.59 822.953 1202.81 823.811 1202.43 824.715C1202.04 825.66 1201.08 826.398 1200.66 827.354C1199.97 828.924 1198.89 830.423 1198 831.864C1197.2 833.161 1197.28 834.74 1197.22 836.226C1197.21 836.73 1197 838.36 1197.41 838.702C1197.85 839.076 1198.93 838.963 1199.53 839.114C1200.1 839.259 1201 839.318 1201.57 839.369C1202.59 839.46 1203.94 839.392 1204.9 839.697C1206.12 840.083 1207.41 840.167 1208.65 840.523C1210.18 840.965 1211.89 841.292 1213.49 841.348L1221.34 841.622L1223.57 841.7C1223.94 841.713 1224.38 841.819 1224.68 841.604C1224.69 841.59 1224.71 841.579 1224.73 841.569C1225.14 841.746 1225.05 841.383 1224.73 841.569C1224.7 841.557 1224.67 841.542 1224.64 841.525C1223.55 840.944 1222.27 839.845 1221.06 839.538C1219.27 839.084 1218.09 836.673 1216.94 835.467C1215.45 833.909 1214.67 831.579 1213.7 829.72C1212.97 828.34 1212.37 826.499 1212.04 824.983C1211.72 823.499 1210.73 821.906 1210.78 820.341C1210.81 819.556 1210.33 816.241 1211.41 816.279Z" fill="#D3886B"/>
<path d="M1239.47 811.287C1238.87 828.443 1252.8 842.913 1270.65 843.536C1288.5 844.16 1303.4 830.696 1304 813.54C1304.6 796.384 1290.67 781.913 1272.82 781.29C1254.97 780.667 1240.07 794.13 1239.47 811.287Z" fill="#3F3324" stroke="black" stroke-width="2"/>
<path d="M1344.66 812.776C1342.89 811.015 1341.99 810.482 1340.07 808.841C1336.17 806.262 1337.05 807.297 1335.12 805.965C1333.46 804.824 1332.32 803.929 1331.37 803.363C1329.3 802.137 1327.5 800.452 1325.43 799.227C1323.72 798.212 1322.11 797.019 1320.42 796.017C1318.7 794.994 1317.33 793.555 1315.35 792.572C1311.47 790.652 1305.15 787.606 1300.93 785.766C1299.72 785.408 1297.9 784.774 1296.97 784.5C1295.63 784.103 1294.73 783.728 1292.71 782.95C1291.29 782.403 1289.33 782.076 1287.77 781.708C1284.08 780.84 1279.78 780.398 1275.99 780.266C1272.23 780.134 1268.45 779.72 1264.92 781.202C1262.85 782.069 1260.02 782.258 1257.8 782.782C1254.94 783.458 1251.58 784.392 1248.9 785.622C1246.65 786.657 1243.1 787.74 1240.84 788.875C1239.64 789.305 1236.17 791.222 1232.81 793.036C1231.9 793.671 1229.04 795.203 1228.2 795.965C1226.62 797.401 1225.49 797.759 1223.95 799.331C1220.57 802.782 1217.68 806.301 1214.89 809.056C1212.1 811.81 1212.02 812.47 1209.81 814.719C1206.29 818.797 1204.83 821.256 1202.89 824.2C1202.1 825.39 1200.09 827.873 1199.01 830.09C1197.24 833.702 1197.22 834.204 1196.22 836.679" stroke="black" stroke-width="3" stroke-linecap="round"/>
<ellipse rx="4.82351" ry="5.10193" transform="matrix(-0.999391 -0.0348995 -0.0348995 0.999391 1275.15 808.096)" fill="#EEDFD8"/>
<path d="M1348.29 821.569C1342.73 824.803 1341.81 825.073 1336.18 829.109C1331.49 832.473 1330.1 832.907 1326.44 834.462C1321.28 836.652 1320.29 836.186 1317.88 837.405C1305.1 841.63 1299.82 841.737 1289.44 844.611C1284.96 845.85 1277.66 846.719 1272.91 846.553C1267.53 846.365 1263.28 847.189 1256.42 846.949C1250.98 845.787 1246.21 845.252 1241.32 843.87C1238.56 843.094 1235.53 842.935 1232.81 842.129C1231.17 841.642 1229.62 841.944 1225.99 840.883" stroke="#AD7058" stroke-width="2" stroke-linecap="round"/>
<path d="M1320.65 798.829C1332.81 805.715 1340.32 810.655 1349.65 817.829C1338.03 829.65 1329.01 832.838 1314.15 836.829C1325.19 822.98 1330.14 814.202 1320.65 798.829Z" fill="#DBC7B7"/>
<path d="M1344.15 817.829L1373.5 810C1353.15 814.5 1325.14 793.123 1293.66 782.905C1320.13 795.989 1321.16 798.284 1344.15 817.829Z" fill="black" stroke="black"/>
<path d="M1240.65 790.829C1273.22 779.601 1292.7 781.692 1321.15 797.329L1318.89 792.975C1288.77 778.02 1254.63 781.032 1239.42 788.158C1227.19 792.836 1202.51 818.963 1196.66 837.715C1205.12 818.953 1219.96 802.869 1240.65 790.829Z" fill="black" stroke="black"/>
<path d="M1357 819.395L1345.65 819.395C1330.08 829.598 1322.01 833.983 1302.16 840.264C1319.45 843.207 1357 819.395 1357 819.395Z" fill="#936556"/>
<path d="M1043.12 1085.54C1027.36 1078.56 1018.15 1071.83 1011.15 1068.33C1013.65 1079.33 1030.56 1086.29 1043.12 1090.69C1050.94 1088.7 1050.27 1086.4 1060.56 1080.83C1070.85 1075.26 1087.38 1098.44 1092.78 1098.83C1096.91 1098.54 1128.12 1078.26 1136.62 1080.83C1145.12 1083.4 1150.94 1093.69 1150.94 1093.69C1158.92 1094.66 1163.43 1093.64 1171.52 1089.4C1179.16 1082.6 1181.03 1078.61 1183.15 1071.4C1173.44 1083.36 1166.54 1087.81 1150.94 1090.69C1147.98 1080.13 1149.4 1072.25 1137.96 1067.11C1133.64 1063.56 1104.15 1094.83 1092.78 1095.33C1083.15 1094.83 1066.87 1063.61 1060.56 1067.11C1056.63 1068.12 1053.54 1070.58 1043.12 1085.54Z" fill="#F0BA9D"/>
<path d="M1091.15 1098.83C1074.96 1084.32 1062.46 1080.81 1042.15 1089.33C1050.89 1073.53 1056.95 1066.38 1063.65 1066.83C1070.79 1069.68 1079.66 1081.63 1091.15 1098.83Z" fill="#DAA78C"/>
<path d="M1101.84 1091.96C1121.24 1082.13 1134.22 1081.99 1151.63 1095.47C1147.28 1077.95 1143.28 1069.47 1136.69 1068.17C1129.06 1069.08 1117.4 1078.33 1101.84 1091.96Z" fill="#DAA78C"/>
<path d="M1096.93 1048.79C1090.03 1049.67 1074.94 1034.18 1076.23 1029.31C1077.96 1022.82 1091.43 1011.62 1105.98 1009.83C1116.8 1010.57 1126.68 1024.44 1124.96 1029.31C1122.37 1034.72 1110.21 1047.11 1096.93 1048.79Z" fill="#FFD2AE"/>
<path d="M1075.4 1025.6C1079.38 1021.88 1074.01 854.262 1079.42 844.189C1087.86 827.5 1113.53 801.852 1125.15 792.829C1114.59 831.026 1121.29 915.419 1125.15 1025.6C1115.65 1030.45 1071.43 1029.33 1075.4 1025.6Z" fill="#FFD6B5"/>
<path d="M1017.65 1053.33C1012.56 1040.32 1052.76 1003.49 1063.15 997.329C1060.65 986.329 1064.65 911.329 1055.65 920.329C1039.25 945.352 1012.74 1016.38 1012.15 1036.83C1014.65 1042.87 1013.5 1054.01 1017.65 1053.33Z" fill="#FAC7AC"/>
<path d="M1060.15 994.329C1071.3 930.287 1073.73 737.705 1015.15 739.829L1033.65 794.829C1046.65 832.829 1053.13 959.191 1060.15 994.329Z" fill="#FAC2A3"/>
<path d="M1131.15 981.829C1121.91 906.77 1126.28 846.052 1156.15 766.829L1155.19 861.517C1134.09 911.944 1136.91 940.814 1131.15 981.829Z" fill="#FDC2A2"/>
<path d="M1062.15 1046.33C1059.24 1031.8 1061.62 1001.88 1066.15 957.829C1058.9 982.756 1059.65 987.829 1057.15 1004.83C1057.15 1011.83 1055.65 1038.58 1062.15 1046.33Z" fill="#FCC2A2"/>
<path d="M1131.49 1038.83C1134.4 1024.3 1133.69 1006.88 1129.15 962.829C1136.4 987.756 1135.65 992.829 1138.15 1009.83C1138.15 1016.83 1137.99 1031.08 1131.49 1038.83Z" fill="#FCC6A8"/>
<path d="M1174.37 1019.99C1173.43 1016.79 1172.36 1013.41 1171.15 1009.83C1172.27 1013.68 1173.35 1017.02 1174.37 1019.99C1187.49 1064.43 1176.21 1072.27 1173.49 1085.83C1179.99 1078.08 1186.15 1062.33 1186.15 1055.33C1184.04 1040.96 1179.96 1036.18 1174.37 1019.99Z" fill="#DAA78C"/>
<path d="M1015.78 1030.48C1017.32 1023.84 1019.55 1016.06 1022.65 1006.83C1019.9 1016.29 1017.65 1023.83 1015.78 1030.48C1008.39 1062.33 1016.74 1067.81 1019.15 1079.83C1012.65 1072.08 1009.15 1067.33 1009.15 1060.33C1010.7 1049.78 1012.73 1041.33 1015.78 1030.48Z" fill="#D8A98F"/>
<path d="M986.145 1167.28C982.105 1167.07 976.853 1163.49 967.966 1157.67C975.929 1166.01 979.886 1170.95 993.217 1176.51C1021.56 1176.51 1028.44 1179.33 1052.79 1182.83C1062.69 1182.84 1076.07 1185.2 1091.95 1188.33C1105.95 1188.25 1117.1 1185.27 1133.23 1182.83C1145.66 1179.28 1179.98 1185.47 1199.39 1185.82C1209.6 1180.05 1221.38 1179.89 1227.96 1174.1C1217.77 1177.33 1204.59 1175.7 1192.94 1174.1C1157.87 1169.96 1133.99 1154.06 1127.47 1154.43C1123.8 1153.02 1119.17 1153.48 1095.43 1161.88C1068.55 1152.09 1065.22 1151.74 1061.89 1152.26C1048.55 1153.02 1023.79 1164.59 986.145 1167.28Z" fill="#E68169"/>
<path d="M1045.71 1225.67C1027.76 1222.66 1003.26 1191.33 976 1169L1023 1178.53L1071.06 1187.05L1108.03 1189.56C1138.08 1182.59 1154.51 1180.83 1182.5 1184.55L1220 1178.53C1188.53 1202.62 1162.96 1217.64 1143.42 1225.67C1123.88 1233.69 1063.67 1228.68 1045.71 1225.67Z" fill="#E58169"/>
<path d="M957 1163.5C960.27 1164.07 963.973 1163.15 966.007 1160C973.616 1167.07 979.345 1171.15 990.38 1178.5C1009.99 1177.73 1020.66 1177.64 1039.12 1181.5C1065.22 1186.83 1079.39 1188 1104.29 1190C1127.07 1185.27 1136.16 1184.89 1153.04 1183.5C1156.68 1182.91 1164.81 1184.01 1201.78 1186C1211.62 1184.18 1239.93 1170 1242.58 1170C1244.7 1170 1247.81 1173.05 1250 1171.5C1247.35 1168 1246.42 1168 1246.82 1166C1246.29 1161.5 1246.29 1164.5 1246.29 1160C1242.57 1162.18 1243.11 1166 1242.58 1166.5C1240.99 1170 1219.16 1177.53 1201.78 1182.5C1170.34 1180.69 1157.92 1180.09 1154.1 1180.5C1134.8 1182.16 1123.92 1183.59 1104.29 1188C1078.86 1186.21 1064.59 1184.21 1039.12 1178.5C1020.21 1175.43 1009.53 1174.47 990.38 1174C979.981 1169.2 975.098 1165.62 968.127 1157.5C966.755 1154.65 967.595 1149.52 964.947 1149C964.947 1153 964.418 1152 963.358 1155.5C961.769 1159 960.709 1159.5 957 1163.5Z" fill="#9C6147"/>
<path d="M1063.01 1215.2C1049.21 1208.79 1044.65 1201.22 1037 1193C1083.76 1196.65 1104.79 1200.35 1149 1195.96C1142.67 1206.83 1135.47 1212.13 1118.21 1220.63C1097.35 1221.7 1087.43 1220.63 1063.01 1215.2Z" fill="#EB8F79"/>
<path d="M1095.65 1152.83L1066.65 1142.83L1068.65 1139.33L1118.65 1142.83L1121.65 1144.83L1095.65 1152.83Z" fill="#FFDEC5"/>
<path d="M1277.15 853.065C1293.86 851.718 1314.15 849.065 1317.15 848.565C1320.15 848.065 1360.87 837.592 1360.65 835.329C1360.43 833.066 1287.25 847.565 1277.15 847.565C1267.05 847.565 1231.88 845.338 1203.15 839.565C1203.15 839.565 1209.47 844.165 1211.15 845.565C1212.84 846.965 1248.15 852.065 1277.15 853.065Z" fill="#FFDEC5"/>
<path d="M1195.54 840.829C1193.82 839.516 1193.18 838.852 1195.15 835.329C1195.33 836.403 1206.15 839.829 1213.65 846.329C1206.65 845.081 1202.61 843.108 1195.54 840.829Z" fill="#FDEEE3"/>
<path d="M848.966 787.076C852.654 785.349 854.836 784.655 858.519 782.994C862.179 781.589 866.159 780.165 869.852 779.332C872.093 778.827 875.112 778.153 879.141 776.901C884.162 775.341 885.167 775.317 889.522 774.385C892.207 773.811 891.837 773.811 894.061 773.234C897.737 772.28 902.307 771.37 904.274 771.26C911.313 770.12 914.329 770.12 921.297 769.395C928.91 769.395 934.944 769.219 941.765 770.12C948.424 772.051 955.033 774.204 961.393 777.072C967.295 779.734 969.134 779.933 975.167 784.014C980.698 786.565 985.036 789.738 987.326 791.828C991.06 795.239 992.262 795.749 995.279 798.3" stroke="#995741" stroke-width="1.2" stroke-linecap="round"/>
<path d="M995.069 811.728C998.307 811.728 1000.26 815.985 1002.26 817.965C1002.97 818.67 1003.75 819.555 1004.11 820.472C1004.48 821.43 1005.46 822.201 1005.86 823.172C1006.52 824.764 1007.6 826.3 1008.47 827.771C1009.26 829.096 1009.12 830.671 1009.12 832.158C1009.12 832.662 1009.28 834.299 1008.84 834.626C1008.36 834.984 1007.24 834.833 1006.61 834.964C1006.01 835.089 1005.07 835.116 1004.48 835.147C1003.41 835.202 1002.01 835.088 1001 835.359C999.715 835.702 998.361 835.741 997.062 836.053C995.448 836.442 993.658 836.709 991.992 836.709H983.799H981.48C981.09 836.709 980.628 836.8 980.326 836.574C980.307 836.56 980.289 836.548 980.272 836.537C979.837 836.7 979.947 836.34 980.272 836.537C980.301 836.526 980.333 836.513 980.367 836.497C981.528 835.954 982.896 834.901 984.17 834.636C986.054 834.244 987.367 831.876 988.611 830.712C990.22 829.206 991.115 826.904 992.198 825.081C993.002 823.727 993.692 821.908 994.094 820.404C994.487 818.933 995.572 817.375 995.572 815.809C995.572 815.024 996.189 811.728 995.069 811.728Z" fill="#D3886B"/>
<path d="M963.884 805.585C963.884 822.713 948.873 836.727 930.192 836.727C911.51 836.727 896.499 822.713 896.499 805.585C896.499 788.456 911.51 774.442 930.192 774.442C948.873 774.442 963.884 788.456 963.884 805.585Z" fill="#3F3324" stroke="black" stroke-width="2"/>
<path d="M856.379 803.576C858.291 801.878 859.248 801.376 861.307 799.804C865.464 797.362 864.508 798.366 866.569 797.102C868.333 796.02 869.557 795.165 870.57 794.633C872.769 793.479 874.709 791.859 876.907 790.706C878.725 789.752 880.445 788.616 882.242 787.673C884.076 786.711 885.548 785.32 887.652 784.407C891.764 782.624 898.458 779.801 902.918 778.109C904.197 777.794 906.109 777.223 907.087 776.981C908.5 776.631 909.457 776.288 911.589 775.582C913.089 775.084 915.135 774.825 916.776 774.512C920.648 773.774 925.151 773.482 929.096 773.482C933.019 773.482 936.971 773.2 940.601 774.804C942.728 775.743 945.668 776.031 947.957 776.631C950.916 777.408 954.384 778.458 957.127 779.781C959.437 780.894 963.092 782.1 965.404 783.313C966.639 783.785 970.185 785.822 973.616 787.751C974.543 788.418 977.467 790.049 978.314 790.839C979.913 792.33 981.07 792.728 982.618 794.352C986.018 797.919 988.9 801.537 991.703 804.387C994.507 807.237 994.572 807.899 996.793 810.224C1000.31 814.422 1001.75 816.931 1003.66 819.942C1004.43 821.158 1006.43 823.709 1007.48 825.963C1009.2 829.635 1009.2 830.136 1010.15 832.645" stroke="black" stroke-width="3" stroke-linecap="round"/>
<ellipse cx="933.18" cy="801.931" rx="5.02793" ry="5.10193" fill="#EEDFD8"/>
<path d="M965.404 784.177C931.883 771.82 914.162 773.114 883.951 787.748V784.687C915.871 770.792 951.325 774.994 966.912 782.646C979.482 787.748 1004.24 814.721 1009.65 833.666C1001.52 814.619 986.521 796.932 965.404 784.177Z" fill="#40231A" stroke="black"/>
<path d="M881.152 790.829C868.995 797.715 861.483 802.655 852.152 809.829C863.773 821.65 872.8 824.838 887.652 828.829C876.615 814.98 871.668 806.202 881.152 790.829Z" fill="#DBC7B7"/>
<path d="M864.625 820.196C869.389 823.721 870.819 824.203 874.579 825.885C879.872 828.254 878.822 827.823 881.286 829.125C894.452 833.794 896.29 833.581 907 836.815C911.617 838.21 924.948 839.837 929.902 839.837C935.51 839.837 939.908 840.808 947.063 840.808C952.773 839.837 957.757 839.468 962.91 838.258C965.803 837.578 968.973 837.525 971.832 836.815C973.563 836.385 975.168 836.742 978.98 835.808" stroke="#AD7058" stroke-width="2" stroke-linecap="round"/>
<path d="M842.652 809.329H822.152C858.152 782.829 877.738 774.504 922.652 771.829C886.147 783.752 880.039 791.832 842.652 809.329Z" fill="#DAA78C"/>
<path d="M845 814L855.653 812.829C871.502 823.569 883.706 827.859 904.153 834.829C886.037 837.166 845 814 845 814Z" fill="#936556"/>
<path d="M819 805.5L821.974 805.777C849.406 807.129 888.822 777.651 920.653 772.829C892.6 784.98 884.821 790.598 860.153 809.329L821.974 805.777C820.966 805.727 819.975 805.635 819 805.5Z" fill="#40231A"/>
<path d="M819 805.5L860.153 809.329C884.821 790.598 892.6 784.98 920.653 772.829C887.653 777.829 846.5 809.329 819 805.5Z" stroke="black"/>
<path d="M837.152 798.462C837.152 798.462 845.152 788.829 850.652 785.329C856.152 781.829 887.609 769.146 922.666 766.83C956.459 766.669 970.813 778.56 995.571 796.932L995.571 798.263C995.571 798.671 995.571 798.909 995.571 798.462C995.571 797.442 953.518 768.19 922.666 768.871C887.009 772.863 867.503 783.42 837.152 798.462Z" fill="#995741"/>
<path d="M1366.57 805.462C1366.57 805.462 1358.57 795.829 1353.07 792.329C1347.57 788.829 1316.11 776.146 1281.06 773.83C1247.26 773.669 1232.91 785.56 1208.15 803.932L1208.15 805.263C1208.15 805.671 1208.15 805.909 1208.15 805.462C1208.15 804.442 1250.21 775.19 1281.06 775.871C1316.71 779.863 1336.22 790.42 1366.57 805.462Z" fill="#995741"/>
<path d="M936.153 847.329C919.449 845.982 899.153 843.329 896.153 842.829C893.153 842.329 839.431 831.592 839.653 829.329C839.874 827.066 926.055 841.829 936.153 841.829C946.25 841.829 981.423 839.602 1010.15 833.829C1010.15 833.829 1003.84 838.429 1002.15 839.829C1000.47 841.229 965.153 846.329 936.153 847.329Z" fill="#FFDEC5"/>
<path d="M1003.5 816.5C1011.5 823.5 1021.72 835.688 1020 837C1014.39 838.811 1005.17 840.005 998.106 841.044C996.631 841.361 994.985 841.624 993.152 841.829C994.593 841.572 996.277 841.313 998.106 841.044C1014.02 837.629 1009.91 827.94 1003.5 816.5Z" fill="#FDEEE3"/>
<path d="M1201.5 821.5C1195.33 825.5 1182.78 841.688 1184.5 843C1190.65 844.985 1202.78 845.091 1210.44 845.909C1211.4 846.066 1212.43 846.207 1213.52 846.329C1212.61 846.167 1211.58 846.03 1210.44 845.909C1192.33 842.949 1196.28 833.843 1201.5 821.5Z" fill="#FDEEE3"/>
<path d="M1009.15 833.329L960.652 782.829C974.152 788.329 985.152 799.829 990.152 804.329L1001.15 818.329L1009.15 833.329Z" fill="#B19F90" fill-opacity="0.5"/>
<path d="M1197.15 837.329L1247.15 787.829C1233.65 793.329 1221.15 803.829 1216.15 808.329L1205.15 822.329L1197.15 837.329Z" fill="#B19F90" fill-opacity="0.5"/>
<path d="M952.743 203.823C960.349 198.494 965.558 196.619 967.652 199.227L952.743 203.823C914.225 230.811 814.212 346.403 745.652 417.329L849.152 298.227C913.449 236.234 937.652 214.622 950.152 204.622L952.743 203.823Z" fill="#613A2E"/>
<path d="M962.731 243.856C966.255 243.222 969.026 244.182 971.152 246.829L962.731 243.856C945.199 247.012 909.008 289.614 840.652 360.329L883.652 297.993C947.949 236 941.652 250.829 954.152 240.829L962.731 243.856Z" fill="#613A2E"/>
<path d="M783.152 386.829C905.2 275.244 954.152 236.829 976.652 236.829H955.652C937.07 249.967 948.736 232.382 853.152 313.829L783.152 386.829Z" fill="#523127"/>
<path d="M1103.06 365.589C1095.46 360.26 1090.25 358.386 1088.15 360.993L1103.06 365.589C1141.58 392.577 1241.59 508.169 1310.15 579.095L1206.65 459.993C1142.36 398 1118.15 376.388 1105.65 366.388L1103.06 365.589Z" fill="#613A2E"/>
<path d="M1093.07 405.623C1089.55 404.988 1086.78 405.948 1084.65 408.595L1093.07 405.623C1110.61 408.778 1146.8 451.38 1215.15 522.095L1172.15 459.76C1107.86 397.766 1114.15 412.595 1101.65 402.595L1093.07 405.623Z" fill="#613A2E"/>
<path d="M1272.65 548.595C1150.6 437.011 1101.65 398.595 1079.15 398.595H1100.15C1118.73 411.733 1107.07 394.148 1202.65 475.595L1272.65 548.595Z" fill="#523127"/>
<path d="M1195.01 373.836C1166.13 358.992 1124.65 339.829 1090.65 304.329C1081.8 310.267 1106.18 362.879 1111.65 365.329C1120.64 369.352 1129.93 393.603 1140.15 394.289C1150.74 394.999 1159.25 398.593 1168.84 404.162C1172.7 406.403 1179.73 407.075 1182.92 410.651C1186.28 414.408 1190.76 416.173 1194.69 418.55C1215.91 431.363 1234.85 448.874 1253.92 466.51L1254.07 466.65C1281.85 492.336 1308.71 519.416 1334.26 549.026C1344.7 561.139 1355.18 575.421 1366.62 585.983C1382.6 600.727 1398.36 615.353 1412.76 632.813C1437.86 663.245 1460.69 694.427 1482.12 729.577C1491.46 744.901 1500.8 759.725 1511.23 773.727C1512.69 775.692 1576.62 864.829 1571.65 852.829C1564.14 834.67 1506.15 753.329 1500.82 716.035C1492.77 698.864 1490.32 677.109 1481.91 660.178C1472.73 641.698 1464.02 623.641 1455.42 604.32C1447.4 586.261 1436.1 575.699 1424.32 562.567C1408.12 544.511 1393.29 524.56 1375.77 508.684C1334.21 471.031 1292 432.078 1246.5 403.457C1229.6 392.82 1212.42 382.782 1195.01 373.836Z" fill="#56352A"/>
<path d="M1701.54 1361.19C1694.75 1336.65 1669.22 1310.88 1686.08 1120C1677.73 1118.75 1659.9 1306.45 1661.4 1310.88C1660 1322 1666.83 1362.5 1671.32 1376.63C1671.32 1384 1672.27 1384.18 1672.99 1387.74C1676.85 1406.95 1678.31 1427.75 1678.12 1448.69C1677.84 1479.11 1676.23 1509.86 1672.4 1541.41C1670.83 1554.32 1667.98 1568.54 1667.87 1581.06C1667.73 1598.54 1667.54 1615.82 1664.92 1634.07C1660.35 1665.87 1654.1 1696.89 1644.72 1729.52C1640.63 1743.74 1636.84 1757.67 1634.13 1771.69C1633.75 1773.66 1615.17 1861.61 1619.65 1851.74C1626.42 1836.81 1643.57 1756.75 1662.96 1731.58C1668.86 1716.94 1680.52 1702.61 1686.08 1687.94C1692.14 1671.91 1698.21 1656.4 1705.09 1640.19C1711.53 1625.04 1711.71 1612.6 1713.16 1598.37C1715.17 1578.79 1719.04 1558.82 1719.02 1539.83C1718.98 1494.78 1719.35 1448.61 1711.78 1406.82C1708.96 1391.3 1705.64 1375.98 1701.54 1361.19Z" fill="#56352A"/>
<path d="M1059.15 190.559C1108.15 177.829 1126.38 179.779 1154.24 190.559C1177.94 199.73 1200.17 211.176 1223.36 221.117C1248 231.679 1268.22 249.182 1291.19 263.405C1307.52 273.517 1329.7 286.475 1342.77 302.652C1364.85 329.999 1391.09 352.064 1413.29 379.553C1427.03 396.575 1440.14 418.549 1449.54 439.51C1460.27 463.412 1480 486.077 1484.98 513.804C1489.23 537.497 1499.65 557.98 1509.07 578.975C1512.46 586.534 1514.25 598.388 1518.08 604.319C1523.14 612.153 1521.57 625.359 1526.5 632.994C1529.15 637.092 1531.18 651.913 1531.18 657.179C1531.18 663.074 1532.65 675.981 1533.8 683.019C1534.64 684.332 1535.15 685.342 1535.15 685.854C1535.15 689.657 1534.54 687.56 1533.8 683.019C1530.19 677.4 1520.58 666.239 1519.48 664.855C1510.74 653.817 1500.04 643.426 1493.75 629.808C1485.83 612.636 1474.5 592.91 1464.28 577.671C1443.47 546.636 1424.95 513.466 1402.3 484.405C1391.32 470.328 1379.69 453.778 1367.56 441.538C1357.42 431.306 1350.7 418.361 1339.61 409.532C1329.61 401.569 1319.51 392.442 1310.14 383.319C1279.91 353.91 1250.57 322.424 1217.75 297.584C1192.5 278.478 1170.13 251.879 1143.83 235.599C1134.76 229.981 1129.27 219.457 1120.68 213.297C1107.22 203.649 1075.69 190.559 1059.15 190.559Z" fill="#4B2D24"/>
<path d="M767.152 973.829C756.152 900.329 745.105 804.658 748.652 766.829C761.533 789.912 764.685 807.318 767.152 841.829C767.218 868.202 778.152 1047.33 767.152 973.829Z" fill="#EEBDA2"/>
<path d="M705.652 832.829C711.599 806.346 737.917 826.329 739.152 838.829C742.522 872.921 742.722 898.529 756.652 933.829C756.652 938.829 748.326 930.607 734.652 918.829C721.152 918.829 705.652 878.829 705.652 832.829Z" fill="#F0BA9C"/>
<path d="M744.491 796.068C742.045 797.921 739.115 802.056 735.883 802.056C731.717 802.056 729.002 805.799 725.03 805.799C722.66 805.799 720.29 805.799 717.92 805.799C715.346 805.799 713.335 803.956 710.809 803.595C699.186 801.934 689.933 793.823 677.875 793.823" stroke="#40231A" stroke-width="2" stroke-linecap="round"/>
<path d="M739.252 785.589C736.082 792.809 731.432 792.855 725.197 795.32C720.732 797.085 715.716 800.559 710.809 800.559C706.95 800.559 703.977 802.805 700.164 802.805C697.607 802.805 695.426 804.017 693.594 805.799C685.309 813.854 679.614 824.657 673.385 834.241" stroke="#40231A" stroke-width="2" stroke-linecap="round"/>
<path d="M742.994 803.553C737.002 811.223 728.001 812.315 719.042 813.866C714.168 814.709 709.786 815.529 704.821 815.529C699.831 815.529 694.841 815.529 689.851 815.529C687.98 815.529 686.109 815.529 684.238 815.529C672.744 815.529 661.221 834.308 655.421 840.978" stroke="#40231A" stroke-width="2" stroke-linecap="round"/>
<path d="M730.27 781.099C726.909 785.689 720.549 792.326 714.219 792.326C710.749 792.326 707.541 792.213 704.488 794.156C701.823 795.852 699.173 796.477 696.754 798.896C691.068 804.582 688.089 810.908 683.863 817.775" stroke="#40231A" stroke-width="2" stroke-linecap="round"/>
<path d="M720.539 792.326C716.662 793.618 712.845 795.964 708.813 796.65C705.303 797.248 701.482 796.817 697.918 796.817C692.59 796.817 686.692 798.966 682.366 802.056" stroke="#40231A" stroke-width="2" stroke-linecap="round"/>
<path d="M743.743 803.553C729.399 803.553 712.586 805.967 698.875 801.682C695.165 800.523 692.284 800.097 688.354 801.64C673.776 807.368 663.617 822.877 653.924 834.241" stroke="#40231A" stroke-width="2" stroke-linecap="round"/>
<path d="M737.006 781.847C730.076 781.847 723.146 781.847 716.215 781.847C710.582 781.847 706.861 785.151 702.742 788.583C693.56 796.235 688.957 811.501 686.276 822.515C681.893 840.514 677.928 858.625 674.882 876.905" stroke="#40231A" stroke-width="2" stroke-linecap="round"/>
<path d="M739.683 782.59C732.736 789.538 725.399 796.051 718.447 803.003C716.516 804.933 714.026 808.488 711.215 808.999C696.749 811.629 682.747 812.248 668.01 812.248" stroke="#40231A" stroke-width="2" stroke-linecap="round"/>
<path d="M747.922 814.72C742.469 812.459 738.105 808.33 732.635 806.207C727.388 804.17 720.801 802.648 715.975 799.891C712.68 798.008 705.907 798.243 702.153 798.243C699.536 798.243 696.895 798.144 694.281 798.289C685.514 798.776 679.321 806.215 672.953 811.424" stroke="#40231A" stroke-width="2" stroke-linecap="round"/>
<path d="M747.922 820.487C747.922 813.563 742.814 810.152 737.624 806.115C733.789 803.133 728.996 798.618 724.214 796.779C719.699 795.042 715.876 791.97 711.216 790.417C690.835 783.623 673.59 797.749 658.948 809.777" stroke="#40231A" stroke-width="2" stroke-linecap="round"/>
<path d="M715.153 866.329C712.53 854.919 733.334 851.939 736.653 837.329L738.653 905.329C732.477 905.696 717.776 877.738 715.153 866.329Z" fill="#DAA78C"/>
<path d="M746.274 826.254C741.742 818.822 738.048 814.726 730.209 811.013C726.475 809.244 723.101 805.921 719.911 803.369C708 793.84 692.732 784.165 677.896 780.119" stroke="#40231A" stroke-width="2" stroke-linecap="round"/>
<path d="M747.098 827.077C747.098 819.412 744.942 814.065 740.873 807.671C736.689 801.097 730.801 797.29 725.22 792.019C717.7 784.916 709.478 777.716 699.315 775.176" stroke="#40231A" stroke-width="2" stroke-linecap="round"/>
<path d="M747.437 812.394C747.437 819.596 747.233 824.432 744.85 830.987C742.624 837.109 737.335 844.932 737.086 851.402C736.832 858.017 736.224 864.732 736.224 871.53C736.224 877.885 736.668 883.917 737.613 890.219C742.721 924.269 753.426 957.179 765.552 989.227" stroke="#40231A" stroke-width="2" stroke-linecap="round"/>
<path d="M746.575 824.47C746.575 832.17 746.575 839.869 746.575 847.569C746.575 855.36 742.551 865.102 740.153 872.297C737.744 879.524 734.194 886.483 733.252 894.149C731.521 908.248 731.91 922.633 731.91 936.8C731.91 946.573 731.248 956.622 732.15 966.368C733.499 980.942 738.397 995.811 743.268 1009.55C747.416 1021.24 752.118 1032.88 757.117 1044.24C762.38 1056.2 761.454 1064.38 769.153 1074.83" stroke="#40231A" stroke-width="2" stroke-linecap="round"/>
<path d="M743.987 833.959C743.987 842.106 743.987 850.253 743.987 858.399C743.987 861.035 743.987 863.671 743.987 866.306C743.987 872.406 742.204 877.476 741.016 883.415C737.551 900.739 732.226 917.638 728.652 934.979C725.587 949.851 725.406 967.432 726.927 982.518C729.454 1007.59 748.331 1031.01 763.827 1049.61" stroke="#40231A" stroke-width="2" stroke-linecap="round"/>
<path d="M743.987 835.684C743.987 849.949 743.987 864.214 743.987 878.479C743.987 884.693 743.987 890.906 743.987 897.12C743.987 907.988 741.573 919.04 740.105 929.803C737.258 950.685 736.223 971.617 736.223 992.677C736.223 1002.7 735.891 1012.81 736.415 1022.82C737.17 1037.27 741.502 1050.04 746.575 1063.41" stroke="#40231A" stroke-width="2" stroke-linecap="round"/>
<path d="M729.497 786.99C721.061 791.456 715.302 798.979 707.274 803.796C702.505 806.657 697.121 810.579 693.24 814.46C691.533 816.168 689.594 816.863 688.036 818.853C685.397 822.226 683.544 826.47 681.894 830.413C678.514 838.486 677.87 847.414 676.093 855.921C675.706 857.772 679.791 851.287 680.145 850.76C684.011 845.004 687.51 838.984 691.107 833.058" stroke="#40231A" stroke-width="2" stroke-linecap="round"/>
<path d="M746.389 814.631C739.444 809.58 730.105 807.684 721.819 805.801C711.761 803.515 695.783 801.104 686.33 806.356C670.906 814.924 669.545 833.773 668.841 849.949" stroke="#40231A" stroke-width="2" stroke-linecap="round"/>
<path d="M745.621 780.848C739.171 793.032 730.232 798.993 717.213 800.853C713.474 801.387 709.662 802.594 706.122 803.882C703.723 804.754 702.233 805.932 699.937 806.953C692.766 810.14 690.263 819.688 688.804 826.574C686.931 835.422 683.724 844.059 683.43 853.191C683.142 862.108 682.251 872.146 680.358 880.661" stroke="#40231A" stroke-width="2" stroke-linecap="round"/>
<path d="M1193 1217C1111.66 1257.11 1040.43 1234.48 1008 1221.11C1034.05 1239.62 1035.28 1241.4 1040.43 1244.77C1079.01 1247.38 1100.67 1247.11 1139.31 1246.82C1149.61 1244.35 1152.6 1242.71 1193 1217Z" fill="#F3C0A4"/>
<path d="M1007.32 717.283C1015.15 721.241 1021.5 722.704 1031.15 725.143C1030.08 729.412 1028.96 733.681 1028.96 737.697C1027.4 741.214 1026.83 741.826 1025.86 744.29C1025.14 746.144 1025.86 745.804 1022.6 745.804C1016.21 744.681 1020.43 744.916 1016.21 744.681C1009.18 744.29 1001.14 742.9 994.184 741.214C988.271 739.779 983.138 737.819 977.957 736.134C969.615 733.423 960.557 730.719 952.028 728.955C948.663 728.259 946.462 726.973 942.173 725.753C941.124 725.661 939.493 725.143 935.457 724.071C931.989 722.704 935.457 724.071 927.73 721.434C924.781 720.236 922.877 719.655 916.445 717.826C910.012 715.996 909.528 715.755 899.292 714.167C887.5 712.337 882.676 710.508 867.667 710.508H843.01C833.585 710.508 828.002 712.337 817.06 716.599C808.876 716.599 787.67 730.506 794.479 725.341C800.807 720.542 798.311 717.408 808.732 707.368C819.152 697.329 833.152 687.585 846.652 686.329C860.152 685.072 864.813 685.77 873.652 686.329C879.848 686.72 887.802 687.829 894.152 687.829C899.285 688.795 918.24 692.097 923.652 693.329C926.001 693.329 964.238 705.829 966.652 705.829C969.568 705.829 990.025 711.982 992.81 712.887C997.7 714.477 1002.8 714.997 1007.32 717.283Z" fill="#93685A"/>
<ellipse cx="1099.15" cy="1035.33" rx="21" ry="15.5" fill="#FFD9BB"/>
<circle cx="840.402" cy="932.079" r="2.25" fill="#666666"/>
<circle cx="888.152" cy="687.829" r="3" fill="#666666"/>
<path d="M751.119 1077.54C748.454 1037.57 718.649 998.532 717.706 958C727.074 962.684 751.119 994.568 771.166 1029.65C775.733 1037.64 780.625 1063.51 778.035 1123.21C774.501 1160.31 767.825 1196.58 767.825 1234.58C767.825 1257.36 761.143 1279.26 761.143 1302.15V1358.95C761.143 1397.25 774.508 1434.35 774.508 1472.37C774.508 1514.54 788.767 1553.81 804.579 1592.1C812.709 1611.78 822.509 1629.68 829.638 1649.64C836 1676 852.5 1697 880.5 1726.5C880.5 1737.54 839.844 1693.07 830.567 1683.8C824.573 1677.8 818.411 1675.3 812.747 1668.02C799.77 1651.33 784.485 1635.94 770.424 1620.31C755.834 1604.1 748.719 1582.2 734.413 1566.11C718.678 1548.41 701 1519.85 701 1495.94V1350.78C701 1322.55 711.507 1295.88 714.365 1268.74C719.369 1221.2 754.46 1179.89 754.46 1131.75C754.46 1113.13 752.325 1095.64 751.119 1077.54Z" fill="#56352A"/>
<path d="M1451.12 1252.54C1448.45 1212.57 1418.65 1173.53 1417.71 1133C1427.07 1137.68 1451.12 1169.57 1471.17 1204.65C1475.73 1212.64 1480.63 1238.51 1478.03 1298.21C1474.5 1335.31 1467.83 1371.58 1467.83 1409.58C1467.83 1432.36 1461.14 1454.26 1461.14 1477.15V1533.95C1461.14 1572.25 1474.51 1609.35 1474.51 1647.37C1474.51 1689.54 1488.77 1728.81 1504.58 1767.1C1512.71 1786.78 1522.51 1804.68 1529.64 1824.64C1536 1851 1552.5 1872 1580.5 1901.5C1580.5 1912.54 1539.84 1868.07 1530.57 1858.8C1524.57 1852.8 1518.41 1850.3 1512.75 1843.02C1499.77 1826.33 1484.49 1810.94 1470.42 1795.31C1455.83 1779.1 1448.72 1757.2 1434.41 1741.11C1418.68 1723.41 1401 1694.85 1401 1670.94V1525.78C1401 1497.55 1411.51 1470.88 1414.37 1443.74C1419.37 1396.2 1454.46 1354.89 1454.46 1306.75C1454.46 1288.13 1452.33 1270.64 1451.12 1252.54Z" fill="#4B2D24"/>
<path d="M802.376 1229.17C807.221 1203.16 791.727 1172.35 797.947 1146.33C804.112 1151.18 816.544 1176.29 825.459 1202.64C827.489 1208.64 826.709 1226.1 814.59 1263.63C805.626 1286.57 794.471 1308.35 787.981 1332.57C784.091 1347.09 775.384 1359.71 771.475 1374.3L761.776 1410.5C755.236 1434.9 758.838 1461.21 752.346 1485.44C745.144 1512.32 749.04 1540.18 754.259 1567.73C756.942 1581.89 769.583 1625.86 771.475 1640C766.753 1675.31 761.827 1730.03 762.51 1772.37C765.741 1789.69 768.76 1808.49 771.475 1829C765.469 1819.72 762.93 1798.38 762.51 1772.37C731.143 1604.19 679.84 1575.79 693.668 1485.82L718.455 1393.31C723.276 1375.32 735.642 1360.42 742.402 1343.69C754.24 1314.39 787.383 1295.06 795.604 1264.37C798.783 1252.51 800.183 1240.94 802.376 1229.17Z" fill="#4B2D24"/>
<path d="M981 845.5C941 851.006 892.632 843.929 839.5 832C842.586 836.105 856.813 842.08 867.5 845.5C892.5 853.5 958.5 853.5 967.5 850.5C976.5 847.5 977.713 847.089 981 845.5Z" fill="#EEBDA2"/>
<path d="M1209 850C1249 855.506 1310.5 853.5 1360 837C1356.91 841.105 1334.47 851.711 1329 853.5C1285.26 863.363 1242.5 860.5 1233.5 857.5C1224.5 854.5 1212.29 851.589 1209 850Z" fill="#EEBDA2"/>
<line x1="760.5" y1="990" x2="760.5" y2="1201" stroke="#EBD2A0" stroke-width="3"/>
<line x1="1456.5" y1="1066" x2="1456.5" y2="1201" stroke="#EBD2A0" stroke-width="3"/>
<path d="M766.5 984C766.5 986.95 765.684 989.599 764.39 991.497C763.095 993.396 761.357 994.5 759.5 994.5C757.643 994.5 755.905 993.396 754.61 991.497C753.316 989.599 752.5 986.95 752.5 984C752.5 981.05 753.316 978.401 754.61 976.503C755.905 974.604 757.643 973.5 759.5 973.5C761.357 973.5 763.095 974.604 764.39 976.503C765.684 978.401 766.5 981.05 766.5 984Z" fill="#EBD2A0" stroke="#B79D69"/>
<path d="M1526 1168C1477.83 1059.17 1444.22 975.676 1446 907.5C1436 969.5 1434.03 1030.94 1454.5 1066.5C1481.89 1133.68 1500.86 1126.72 1526 1168Z" fill="#56352A"/>
<path d="M795 992.5C774.589 952.891 766.447 926.94 771 859C1063.28 889.87 1180.01 883.322 1425 859C1455.08 894.113 1443.14 938.598 1425 992.5C1425 992.5 1383 1106.5 1333 1116C1283 1125.5 1144 966 1096.5 966C1049 966 910.5 1124.5 874.5 1100C838.5 1075.5 818.812 1063.07 795 992.5Z" fill="#FF0000" fill-opacity="0.02"/>
<path d="M840.5 831.5C841.904 828.688 846.211 820.71 849.648 816.425L851.935 817.437C848.423 818.759 843.14 827.791 840.5 831.5Z" fill="black"/>
<path d="M846.5 833.5C848.049 830.766 850.141 822.658 853.798 818.559L856.028 819.689C852.452 820.825 849.331 829.934 846.5 833.5Z" fill="black"/>
<path d="M852.734 834.268C853.611 830.735 855.62 825.13 859.277 821.032L861.311 821.961C857.735 823.098 855.09 830.109 852.734 834.268Z" fill="black"/>
<path d="M858.973 837.291C859.726 833.73 861.538 828.059 865.05 823.835L867.115 824.693C863.581 825.953 861.183 833.053 858.973 837.291Z" fill="black"/>
<path d="M866 838.334C866.753 834.773 867.538 830.893 871.05 826.669L873.114 827.527C869.58 828.787 868.209 834.095 866 838.334Z" fill="black"/>
<path d="M873.154 841.134C873.907 837.573 874.692 833.693 878.204 829.469L880.269 830.327C876.735 831.587 875.364 836.895 873.154 841.134Z" fill="black"/>
<path d="M880.872 843.92C881.122 840.289 881.359 836.338 884.249 831.666L886.413 832.228C883.089 833.968 882.47 839.416 880.872 843.92Z" fill="black"/>
<path d="M889 843.829C888.806 840.194 888.235 838.427 890.534 833.438L891.5 833.5C889.5 836 890.038 839.163 889 843.829Z" fill="black"/>
<path d="M895.5 843.64C895.306 840.005 894.235 839.738 896.534 834.749L898 835C896 836.5 896.537 838.974 895.5 843.64Z" fill="black"/>
<path d="M900 843.806C899.806 840.171 900.083 841.565 901.5 836.106L902.5 836.306C901.5 837.806 901.037 839.14 900 843.806Z" fill="black"/>
<path d="M905 844.5C905.5 841 905.5 840 906.306 837.806L907.306 838.006C906.306 839.506 906.037 839.834 905 844.5Z" fill="black"/>
<path d="M1353.14 841.5C1351.73 838.688 1347.43 830.71 1343.99 826.425L1341.7 827.437C1345.22 828.759 1350.5 837.791 1353.14 841.5Z" fill="black"/>
<path d="M1347.14 843.5C1345.59 840.766 1343.5 832.658 1339.84 828.559L1337.61 829.689C1341.19 830.825 1344.31 839.934 1347.14 843.5Z" fill="black"/>
<path d="M1340.9 844.268C1340.03 840.735 1338.02 835.13 1334.36 831.032L1332.33 831.961C1335.9 833.098 1338.55 840.109 1340.9 844.268Z" fill="black"/>
<path d="M1334.67 847.291C1333.91 843.73 1332.1 838.059 1328.59 833.835L1326.52 834.693C1330.06 835.953 1332.46 843.053 1334.67 847.291Z" fill="black"/>
<path d="M1327.64 848.334C1326.89 844.773 1326.1 840.893 1322.59 836.669L1320.52 837.527C1324.06 838.787 1325.43 844.095 1327.64 848.334Z" fill="black"/>
<path d="M1320.48 851.134C1319.73 847.573 1318.95 843.693 1315.43 839.469L1313.37 840.327C1316.9 841.587 1318.27 846.895 1320.48 851.134Z" fill="black"/>
<path d="M1312.77 853.92C1312.52 850.289 1312.28 846.338 1309.39 841.666L1307.23 842.228C1310.55 843.968 1311.17 849.416 1312.77 853.92Z" fill="black"/>
<path d="M1304.64 853.829C1304.83 850.194 1305.4 848.427 1303.1 843.438L1302.14 843.5C1304.14 846 1303.6 849.163 1304.64 853.829Z" fill="black"/>
<path d="M1298.14 853.64C1298.33 850.005 1299.4 849.738 1297.1 844.749L1295.64 845C1297.64 846.5 1297.1 848.974 1298.14 853.64Z" fill="black"/>
<path d="M843.484 1332.35C720.801 1348.2 717.426 1250.45 762.747 1196.53C734.985 1220.04 709.226 1250.28 717.033 1289.76C726.99 1340.11 793.242 1366.7 843.484 1332.35Z" fill="#EBD2A0" stroke="#B79D69" stroke-width="3"/>
<circle cx="759.5" cy="1196.5" r="6" fill="#EBD2A0" stroke="#B79D69" stroke-width="3"/>
<path d="M827 799C837.066 802.742 844.351 804.05 860 805L863.5 799C849.911 801.088 841.719 800.457 827 799Z" fill="#40231A"/>
<path d="M836.331 792.421C846.032 797.026 853.176 798.964 868.683 801.274L872.692 795.602C858.973 796.497 850.867 795.155 836.331 792.421Z" fill="#40231A"/>
<path d="M844.99 786.456C853.944 791.327 860.634 793.658 875.286 797.077L879.498 792.54C866.336 792.057 858.686 790.153 844.99 786.456Z" fill="#40231A"/>
<path d="M853.346 779C861.84 784.633 864.702 787.817 879 792.5L884 789C870.93 787.371 866.668 783.877 853.346 779Z" fill="#40231A"/>
<path d="M863.345 773.745C871.316 780.097 873.889 783.518 887.725 789.429L893.011 786.378C880.133 783.616 876.191 779.764 863.345 773.745Z" fill="#40231A"/>
<path d="M874.5 768.5C881.887 775.523 883.637 776.464 896.905 783.559L902.437 780.981C889.849 777.107 886 777 874.5 768.5Z" fill="#40231A"/>
<path d="M883.129 764C889.876 771.64 890.005 771.936 902.604 780.16L907.104 778.16C894.901 773.204 893.844 773.47 883.129 764Z" fill="#40231A"/>
<path d="M891.129 761C897.876 768.64 898.005 768.936 910.604 777.16L915.104 775.16C902.901 770.204 901.844 770.47 891.129 761Z" fill="#40231A"/>
<path d="M908.804 756.771C912.531 766.258 910.474 763.463 919.5 775.5L923.5 775C913.729 766.169 915.634 769.335 908.804 756.771Z" fill="#40231A"/>
<path d="M923.057 755.736C924.73 765.791 923.299 762.628 929.626 776.28L933.642 776.622C925.92 765.953 927.126 769.446 923.057 755.736Z" fill="#40231A"/>
<path d="M934.952 756C933.665 768.869 933.586 763.391 934.952 775.944L938 775.944C934.541 762.95 936.027 769.087 934.952 756Z" fill="#40231A"/>
<path d="M945.044 760C945.044 765.5 945.866 763.447 944.5 776L942.5 776.5C944.5 768 945.044 766.423 945.044 760Z" fill="#40231A"/>
<path d="M953.5 766C953 773 953.5 771.5 952.355 779L950.355 779.5C952.5 773.5 952.355 772.5 953.5 766Z" fill="#40231A"/>
<path d="M962 771.5C959.136 777.907 961.545 774.06 957.903 780.716L955.853 780.502C959.921 775.597 958.701 777.217 962 771.5Z" fill="#40231A"/>
<path d="M970.5 775.5C966.567 781.312 968 779.5 965.3 783.302L963.318 782.735C968.176 778.612 966.258 780.557 970.5 775.5Z" fill="#40231A"/>
<path d="M975.5 780.5C973 784 973.682 783.547 970.982 787.349L969 786.782C973.858 782.658 971.258 785.557 975.5 780.5Z" fill="#40231A"/>
<path d="M1374.22 804.264C1364.16 808.006 1356.87 809.314 1341.22 810.264L1337.72 804.264C1351.31 806.351 1359.5 805.721 1374.22 804.264Z" fill="black"/>
<path d="M1364.89 797.685C1355.19 802.29 1348.05 804.228 1332.54 806.538L1328.53 800.866C1342.25 801.761 1350.35 800.419 1364.89 797.685Z" fill="black"/>
<path d="M1356.23 791.719C1347.28 796.591 1340.59 798.922 1325.94 802.341L1321.72 797.804C1334.89 797.32 1342.54 795.417 1356.23 791.719Z" fill="black"/>
<path d="M1347.88 784.264C1339.38 789.897 1336.52 793.08 1322.22 797.764L1317.22 794.264C1330.29 792.635 1334.55 789.141 1347.88 784.264Z" fill="black"/>
<path d="M1337.88 779.008C1329.91 785.361 1327.33 788.781 1313.5 794.693L1308.21 791.642C1321.09 788.88 1325.03 785.028 1337.88 779.008Z" fill="black"/>
<path d="M1326.72 773.764C1319.33 780.787 1317.58 781.728 1304.32 788.823L1298.78 786.244C1311.37 782.371 1315.22 782.264 1326.72 773.764Z" fill="black"/>
<path d="M1318.09 769.264C1311.35 776.904 1311.22 777.2 1298.62 785.424L1294.12 783.424C1306.32 778.468 1307.38 778.734 1318.09 769.264Z" fill="black"/>
<path d="M1310.09 766.264C1303.35 773.904 1303.22 774.2 1290.62 782.424L1286.12 780.424C1298.32 775.468 1299.38 775.734 1310.09 766.264Z" fill="black"/>
<path d="M1292.42 762.035C1288.69 771.522 1290.75 768.726 1281.72 780.764L1277.72 780.264C1287.49 771.433 1285.59 774.599 1292.42 762.035Z" fill="black"/>
<path d="M1278.17 761C1276.49 771.055 1277.92 767.892 1271.6 781.543L1267.58 781.886C1275.3 771.216 1274.1 774.709 1278.17 761Z" fill="black"/>
<path d="M1266.27 761.264C1267.56 774.133 1267.64 768.655 1266.27 781.208L1263.22 781.208C1266.68 768.213 1265.19 774.351 1266.27 761.264Z" fill="black"/>
<path d="M1256.18 765.264C1256.18 770.764 1255.36 768.711 1256.72 781.264L1258.72 781.764C1256.72 773.264 1256.18 771.687 1256.18 765.264Z" fill="black"/>
<path d="M1247.72 771.264C1248.22 778.264 1247.72 776.764 1248.87 784.264L1250.87 784.764C1248.72 778.764 1248.87 777.764 1247.72 771.264Z" fill="black"/>
<path d="M1239.22 776.764C1242.09 783.171 1239.68 779.324 1243.32 785.98L1245.37 785.765C1241.3 780.861 1242.52 782.48 1239.22 776.764Z" fill="black"/>
<path d="M1230.72 780.764C1234.65 786.576 1233.22 784.764 1235.92 788.566L1237.9 787.999C1233.05 783.875 1234.96 785.82 1230.72 780.764Z" fill="black"/>
<path d="M1225.72 785.764C1228.22 789.264 1227.54 788.811 1230.24 792.613L1232.22 792.046C1227.36 787.922 1229.96 790.82 1225.72 785.764Z" fill="black"/>
<path d="M1456.55 1304L1465.85 1246.15H1447.24L1456.55 1304Z" fill="#EBD2A0"/>
<path d="M1456.55 1188L1465.85 1245.85H1447.24L1456.55 1188Z" fill="#EBD2A0"/>
<path d="M1413 1246.29L1457.42 1236.86V1255.73L1413 1246.29Z" fill="#EBD2A0"/>
<path d="M1501.25 1246.29L1456.84 1236.86V1255.73L1501.25 1246.29Z" fill="#EBD2A0"/>
<path d="M1482.49 1219.23L1461.97 1251.73L1451.09 1240.47L1482.49 1219.23Z" fill="#EBD2A0"/>
<path d="M1430.6 1272.94L1462 1251.7L1451.12 1240.44L1430.6 1272.94Z" fill="#EBD2A0"/>
<path d="M1430.6 1219.23L1451.12 1251.73L1462 1240.47L1430.6 1219.23Z" fill="#EBD2A0"/>
<path d="M1482.49 1272.94L1451.09 1251.7L1461.97 1240.44L1482.49 1272.94Z" fill="#EBD2A0"/>
<path d="M1464.5 1246C1464.5 1250.72 1460.89 1254.5 1456.5 1254.5C1452.11 1254.5 1448.5 1250.72 1448.5 1246C1448.5 1241.28 1452.11 1237.5 1456.5 1237.5C1460.89 1237.5 1464.5 1241.28 1464.5 1246Z" fill="#FF8888" stroke="#BDBDBD"/>
<circle cx="1456.5" cy="1229.5" r="2.5" fill="white"/>
<circle cx="1456.5" cy="1218" r="1" fill="white"/>
<circle r="2.5" transform="matrix(1 0 0 -1 1456.5 1262.5)" fill="white"/>
<circle r="1" transform="matrix(1 0 0 -1 1456.5 1274)" fill="white"/>
<circle cx="1471.5" cy="1246.5" r="2.5" transform="rotate(-90 1471.5 1246.5)" fill="white"/>
<circle cx="1482" cy="1246.5" r="1" transform="rotate(-90 1482 1246.5)" fill="white"/>
<circle r="2.5" transform="matrix(0 -1 -1 0 1440.5 1246.5)" fill="white"/>
<circle r="1" transform="matrix(0 -1 -1 0 1430 1246.5)" fill="white"/>
<circle r="0.5" transform="matrix(0 -1 -1 0 1444.5 1233.5)" fill="white"/>
<circle r="0.5" transform="matrix(0 -1 -1 0 1440.5 1229.5)" fill="white"/>
<circle r="0.5" transform="matrix(0.707107 -0.707107 -0.707107 -0.707107 1467.5 1234.5)" fill="white"/>
<circle r="0.5" transform="matrix(0.707107 -0.707107 -0.707107 -0.707107 1467.71 1257.71)" fill="white"/>
<circle r="0.5" transform="matrix(0.707107 -0.707107 -0.707107 -0.707107 1444.71 1257.71)" fill="white"/>
<circle r="0.5" transform="matrix(0.707107 -0.707107 -0.707107 -0.707107 1471.71 1261.71)" fill="white"/>
<circle r="0.5" transform="matrix(0.707107 -0.707107 -0.707107 -0.707107 1440.71 1262.71)" fill="white"/>
<circle r="0.5" transform="matrix(0.707107 -0.707107 -0.707107 -0.707107 1471.71 1230.71)" fill="white"/>
<circle cx="727" cy="1268" r="3.5" fill="#9ECBFF" stroke="#7BA0FF"/>
<circle r="1.5" transform="matrix(1 0 0 -1 729 1254)" fill="#FF9E9E" stroke="#FF7B7B"/>
<circle r="1.5" transform="matrix(1 0 0 -1 778 1337)" fill="#FF9E9E" stroke="#FF7B7B"/>
<circle r="1.5" transform="matrix(1 0 0 -1 732 1243)" fill="#9ECBFF" stroke="#7BA0FF"/>
<circle r="1.5" transform="matrix(1 0 0 -1 792 1340)" fill="#9ECBFF" stroke="#7BA0FF"/>
<circle r="0.5" transform="matrix(1 0 0 -1 735 1234)" fill="#FF9E9E" stroke="#FF7B7B"/>
<circle r="0.5" transform="matrix(1 0 0 -1 806 1340)" fill="#FF9E9E" stroke="#FF7B7B"/>
<circle r="0.5" transform="matrix(1 0 0 -1 738.5 1227.5)" fill="#FF9E9E"/>
<circle r="0.5" transform="matrix(1 0 0 -1 816.5 1339.5)" fill="#FF9E9E"/>
<circle cx="727" cy="1287" r="3.5" fill="#FF9E9E" stroke="#FF7B7B"/>
<circle cx="734" cy="1306" r="3.5" fill="#9ECBFF" stroke="#7BA0FF"/>
<circle cx="747" cy="1321" r="3.5" fill="#FF9E9E" stroke="#FF7B7B"/>
<circle cx="763" cy="1331" r="3.5" fill="#9ECBFF" stroke="#7BA0FF"/>
<circle cx="1112" cy="1789" r="31" fill="#EBD2A0"/>
<circle cx="1112" cy="1789" r="26.4412" fill="#989898"/>
<circle cx="1112" cy="1789.3" r="22.1863" fill="#B4BBFF"/>
<path d="M1117.47 1803.89H1106.53L1111.85 1811.49L1117.47 1803.89Z" fill="#99A2F1"/>
<path d="M1112.15 1772.89L1122.41 1776.63L1127.87 1786.08L1125.97 1796.83L1117.61 1803.84H1106.69L1098.33 1796.83L1096.44 1786.08L1101.9 1776.63L1112.15 1772.89Z" fill="#5B6CFD"/>
<path d="M1112.15 1772.89L1101.67 1776.69L1103.95 1768.49L1112.15 1772.89Z" fill="#99A2F1"/>
<path d="M1112.15 1772.89L1122.94 1776.84L1120.66 1768.64L1112.15 1772.89Z" fill="#99A2F1"/>
<path d="M1117.62 1803.89L1125.98 1796.9L1127.5 1805.11L1117.62 1803.89Z" fill="#99A2F1"/>
<path d="M1106.68 1803.89L1098.32 1796.9L1096.8 1805.11L1106.68 1803.89Z" fill="#99A2F1"/>
<path d="M1098.32 1796.75L1096.5 1785.96L1090.12 1792.5L1098.32 1796.75Z" fill="#99A2F1"/>
<path d="M1125.98 1796.75L1127.8 1785.96L1134.19 1792.5L1125.98 1796.75Z" fill="#99A2F1"/>
<path d="M1096.5 1785.96L1101.97 1776.54L1093.16 1777.6L1096.5 1785.96Z" fill="#99A2F1"/>
<path d="M1127.8 1785.96L1122.33 1776.54L1131.15 1777.6L1127.8 1785.96Z" fill="#99A2F1"/>
<path d="M983.292 278.858C977.227 282.468 971.242 286.188 965.29 289.937C911.673 329.86 796.688 455.238 771.5 494C735.5 542.561 740.262 568.504 732.999 605.5C719.203 624.917 710.559 649.741 702.33 672.37C700.98 676.082 699.405 687.115 696.785 689.211C693.081 692.174 675.186 730.314 672 733.5C670.418 735.081 683.025 712 683.024 696.605C687.144 686.599 689.704 664.328 695.758 656.761C703.794 646.715 706.645 622.659 709.519 609.728C713.33 592.576 717.669 574.646 722.868 557.561C738.561 506 761.802 455.264 800.092 417.696C823.83 394.406 848.69 372.456 872.386 349.099C882.204 339.422 889.993 332.55 901.961 326.918C924.032 316.532 944.462 303.056 965.29 289.937C972.536 284.542 978.661 280.708 983.292 278.858Z" fill="#56352A"/>
<path d="M1571.02 898.655C1562.43 870.974 1549.12 843.571 1543 815C1553.06 835.128 1582.83 883.293 1597.04 915.866C1602.67 928.793 1607.84 929.515 1607.84 941.082V964.498V1011.33C1607.84 1024.06 1597.78 1040.17 1597.04 1052.76C1595.52 1078.56 1593.43 1105.16 1593.43 1132.01C1593.43 1169.52 1598.93 1202.4 1609.64 1236.68C1618.69 1265.62 1622.25 1297.3 1622.25 1328.34V1376.29C1622.25 1387.77 1615.33 1413.25 1610.64 1423.8C1605.12 1436.23 1597.04 1458.95 1597.04 1472.43C1587.06 1495.44 1574.05 1524.58 1570.56 1536.79C1559.19 1576.61 1564.61 1590.43 1564.61 1632.73C1564.61 1667.77 1570.57 1699.38 1571.82 1734.4C1572.03 1740.2 1572.9 1751.66 1573.74 1760.42C1574.6 1763.34 1575.42 1766.21 1575.42 1769.62C1575.42 1775.62 1574.6 1769.47 1573.74 1760.42C1572.8 1757.23 1571.82 1753.96 1571.82 1749.81C1571.82 1741.11 1562.35 1710.79 1559.56 1693.29C1557.41 1679.79 1557.41 1673.75 1557.41 1661.55C1557.41 1638.03 1545.87 1614.86 1546.4 1591.91C1547.16 1559.27 1557.33 1522.08 1564.53 1495.75L1564.61 1495.44C1597.04 1437.29 1609.64 1359.79 1587.56 1319.29C1584.09 1303.67 1566.33 1262.25 1557.41 1248.08C1544.12 1226.97 1550.2 1191.85 1550.2 1168.03C1550.2 1109.11 1579.02 1053.05 1579.02 993.717C1579.02 961.743 1580.63 929.62 1571.02 898.655Z" fill="#56352A"/>
</g>
<g filter="url(#filter1_d_103_485)">
<circle cx="1146" cy="1142" r="1102" stroke="#D39090" stroke-width="80"/>
</g>
<defs>
<filter id="filter0_d_103_485" x="50" y="78" width="2192" height="2195.8" filterUnits="userSpaceOnUse" color-interpolation-filters="sRGB">
<feFlood flood-opacity="0" result="BackgroundImageFix"/>
<feColorMatrix in="SourceAlpha" type="matrix" values="0 0 0 0 0 0 0 0 0 0 0 0 0 0 0 0 0 0 127 0" result="hardAlpha"/>
<feOffset dy="4"/>
<feGaussianBlur stdDeviation="2"/>
<feComposite in2="hardAlpha" operator="out"/>
<feColorMatrix type="matrix" values="0 0 0 0 0 0 0 0 0 0 0 0 0 0 0 0 0 0 0.25 0"/>
<feBlend mode="normal" in2="BackgroundImageFix" result="effect1_dropShadow_103_485"/>
<feBlend mode="normal" in="SourceGraphic" in2="effect1_dropShadow_103_485" result="shape"/>
</filter>
<filter id="filter1_d_103_485" x="0" y="0" width="2292" height="2292" filterUnits="userSpaceOnUse" color-interpolation-filters="sRGB">
<feFlood flood-opacity="0" result="BackgroundImageFix"/>
<feColorMatrix in="SourceAlpha" type="matrix" values="0 0 0 0 0 0 0 0 0 0 0 0 0 0 0 0 0 0 127 0" result="hardAlpha"/>
<feOffset dy="4"/>
<feGaussianBlur stdDeviation="2"/>
<feComposite in2="hardAlpha" operator="out"/>
<feColorMatrix type="matrix" values="0 0 0 0 0 0 0 0 0 0 0 0 0 0 0 0 0 0 0.25 0"/>
<feBlend mode="normal" in2="BackgroundImageFix" result="effect1_dropShadow_103_485"/>
<feBlend mode="normal" in="SourceGraphic" in2="effect1_dropShadow_103_485" result="shape"/>
</filter>
</defs>
</svg>
