<svg width="1764" height="1812" viewBox="0 0 1764 1812" fill="none" xmlns="http://www.w3.org/2000/svg">
<g filter="url(#filter0_d_13_242)">
<rect x="4" width="1756" height="1803.2" fill="#FFD1D1"/>
<path d="M640 1516V1128L1173 956L1155.5 1516H640Z" fill="#EBB395"/>
<path d="M150.744 1450.82C184.145 1408.97 485.298 1422.75 578.382 1336H1064.06C1297.87 1436.02 1505.94 1377.85 1574.93 1398.26C1735.36 1517.16 1716.2 1569.21 1760 1732C1089.31 1826.69 704.958 1827.18 4 1732C60.3979 1547.27 42.3287 1521.75 150.744 1450.82Z" fill="#444444"/>
<path d="M622 1462.5C613.587 1456.28 605.5 1441 613.5 1423.5C621.5 1406 1082 1439 1082 1439L1074 1477.5C1032.47 1505.56 1017.63 1499.93 945.5 1508.5C815.5 1501.5 721.47 1498.33 622 1462.5Z" fill="#A59E9E"/>
<path d="M644 1260C615.818 1372.45 601.441 1441.33 624 1448C777.252 1483.13 1043.5 1489.5 1078 1450C1104 1445 1052.5 1244.5 1026.5 1254.5C957.077 1275.16 920.64 1290.31 838.001 1292C671.354 1290.18 710.252 1276.56 644 1260Z" fill="#434343"/>
<path d="M665 1489.5C791.422 1650.58 881.005 1658.82 1078.5 1489.5" stroke="#EBD2A0" stroke-width="3"/>
<path d="M768.991 80.8288C768.52 80.9179 768.053 81.0093 767.589 81.1028C771.81 81.9041 800.64 84.4158 808.99 88.0172C817.428 91.6566 833.896 99.2153 842.323 100.238C847.206 100.83 860.985 114.079 864.915 117.13C881.618 130.098 902.855 138.686 918.988 151.994C959.12 185.099 1017.84 211.666 1044.17 258.742C1070.92 306.557 1102.72 348.876 1117.32 402.69C1131.31 454.278 1147.37 508.004 1162.13 558.14C1166.23 572.074 1182.84 582.963 1185.46 596.957C1190.09 621.637 1196.19 646.562 1203.8 670.818C1198.7 693.913 1182.98 832.091 1162.13 852.329C1152.61 861.565 1111.04 1064.87 1096.15 1075.33C1071.32 1094.07 956.152 1239.33 857.652 1239.33C837.728 1239.33 806.152 1246.35 761.652 1239.33C743.604 1223.23 724.576 1225.33 703.152 1210.83C679.402 1194.76 663.092 1182.63 645.475 1162.69C622.379 1136.54 588.015 1118.78 570.662 1088.46C564.063 1076.94 555.393 1066.8 548.996 1055.94C545.532 1050.05 530.588 1034.12 525.663 1031.14C514.45 1024.34 509.896 1003.9 504.923 993.039C500.59 983.577 492.911 967.586 492.331 957.456C491.675 945.994 486.393 934.598 485.664 921.873C484.926 908.974 480.28 895.996 476.405 883.775C468.568 859.057 475.664 821.923 475.664 795.717V711.433C475.664 683.873 470.152 652.671 470.152 625.336C470.152 598.754 470.784 568.69 475.664 542.638C480.597 516.309 479.085 482.223 490.664 457.502C498.597 440.566 498.73 416.24 503.997 397.838C509.438 378.829 513.127 360.66 519.738 342.128C530.023 313.292 544.293 282.607 558.255 255.507C564.45 243.484 571.953 232.157 578.255 219.925C583.162 210.4 587.726 193.004 597.514 187.577C609.835 180.744 617.809 165.488 630.476 158.464C643.174 151.422 650.941 138.005 663.993 130.968C680.49 122.074 694.547 107.034 713.807 100.238C733 93.4644 747.196 85.2105 767.589 81.1028C766.639 80.9225 766.935 80.8288 768.991 80.8288Z" fill="#FFCEAE"/>
<path d="M600.152 948.829C511.84 891.378 515.197 796.232 494.152 747.829L487.652 960.829L639.152 1105.33C631.152 1092.33 618.599 960.829 600.152 948.829Z" fill="#F9C5A9"/>
<path d="M512.152 418.829L685.152 262.829C603.152 395.329 587.152 427.329 528.652 583.329C506.152 681.829 486.952 776.265 483.652 878.329L438.152 631.829L512.152 418.829Z" fill="#FAC4A6"/>
<path d="M1190.15 739.329C1188.41 756.869 1185.71 773.356 1182.23 788.864L1168.15 876.829L1155.15 957.329C1155.15 957.329 1126.13 1044.49 1100.15 1073.83C1074.17 1103.16 1015.1 1156.67 966.153 1194.33C1024.15 1127.33 1030.91 1031.95 1054.15 996.329C1094.43 958.678 1157.71 898.026 1182.23 788.864L1190.15 739.329Z" fill="#F8C7AC"/>
<path d="M637.197 1098.82C593.971 1017.33 560.28 980.731 504.153 897.329L530.313 1076.94L593.971 1162.09L763.653 1239.83C705.153 1193.33 661.059 1134.04 637.197 1098.82Z" fill="#EEBDA2"/>
<path d="M742.153 42.8288C742.153 28.7455 762.069 15.8288 776.153 15.8288C790.236 15.8288 793.153 28.7455 793.153 42.8288V192.829C793.153 206.912 790.736 187.329 776.653 187.329C762.569 187.329 742.153 206.912 742.153 192.829V42.8288Z" fill="#CEBBAD"/>
<path d="M641.455 28.429C679.611 8.29855 723.775 19.0381 765.888 18.4886C766.992 18.4742 767.905 19.3578 767.931 20.4621C769.181 75.1329 772.456 117.452 766.682 163.528C762.848 194.119 751.959 231.44 733.227 249.054C728.064 253.908 718.044 260.005 711.852 263.771L711.542 263.96C705.176 267.834 700.89 273.852 693.777 276.616C664.98 287.804 636.508 317.404 617.296 335.114C575.225 373.896 552.665 412.855 528.142 462.265C512.423 493.935 486.9 522.173 487.573 557.987C487.576 558.135 487.562 558.287 487.533 558.431C481.394 588.935 481.773 605.927 485.971 638.265C486.658 669.757 487.453 683.524 490.653 699.177C493.185 711.559 497.159 735.779 498.044 748.512C499.584 770.662 498.044 804.329 511.653 881.329C518.153 936.329 524.653 974.829 530.153 987.829C538.644 1015.3 589.202 1078.05 618.066 1119.21C618.125 1119.29 618.191 1119.37 618.261 1119.44C674.466 1178.14 668.405 1210.21 674.831 1232.43C674.94 1232.8 674.939 1233.2 674.827 1233.58C645.716 1331.18 645.725 1416.85 674.854 1486.65C674.95 1486.88 675.002 1487.12 675.009 1487.37C675.851 1516.2 702.11 1575.11 711.448 1602.72C711.503 1602.88 711.528 1603.03 711.556 1603.19L711.571 1603.28C712.804 1610.23 752.16 1645.35 738.584 1709.44C738.393 1710.34 737.599 1711.01 736.679 1711.04C728.709 1711.27 721.363 1711.82 713.846 1709C696.847 1702.63 663.854 1709.37 645.668 1709.77L579.308 1711.22C539.726 1712.08 494.681 1707.82 457.585 1721.99C428.663 1733.04 386.882 1739.82 360.261 1726.46C348.699 1720.66 340.05 1709.84 328.733 1703.7C311.405 1694.29 311.653 1679.53 306.899 1662.14C296.028 1622.36 318.148 1416.09 333.829 1375.33C333.954 1375.01 333.98 1374.71 333.933 1374.37C327.659 1328.32 348.658 1235.61 352.509 1214.44C356.877 1190.43 359.178 1064 363.999 1039.93C364.028 1039.78 364.038 1039.69 364.035 1039.54C363.558 1015.82 367.657 874.842 367.16 852.038C365.594 780.289 378.29 708.748 378.715 637.457C377.478 558.337 421.5 345.946 440.5 297.5C459.5 249.054 489.101 171.112 528.142 123.5C552.76 93.4779 607.453 46.3674 641.455 28.429Z" fill="#40231A"/>
<path d="M440.243 777.986C472.975 837.403 481.315 843.479 508.152 864.829C508.152 801.344 501.802 713.303 487.851 674.374C485.275 667.187 479.954 661.147 440.243 643.829C426.353 643.829 427.232 728.854 440.243 777.986Z" fill="#FAC4A6"/>
<path d="M900.153 610.829C923.153 596.829 1070.8 564.534 1034.65 581.329C998.502 598.123 880.653 698.329 871.653 856.329C865.653 756.329 870.653 635.829 900.153 610.829Z" fill="#F9C4AB" fill-opacity="0.7"/>
<path d="M769.322 608.829C746.322 594.829 598.672 562.534 634.822 579.329C670.973 596.123 792.652 677.329 801.652 835.329C807.652 735.329 798.822 633.829 769.322 608.829Z" fill="#F8C1A6" fill-opacity="0.7"/>
<path d="M930.152 572.829C921.652 574.374 915.872 575.225 906.428 576.306C906.604 581.143 906.828 585.988 906.054 590.374C906.824 594.468 907.239 595.231 907.66 598.079C907.977 600.222 907.368 599.732 910.403 600.268C916.569 600.09 912.593 599.653 916.569 600.09C923.183 600.817 930.929 600.618 937.72 599.916C943.496 599.319 948.647 598.02 953.791 597.031C962.072 595.439 971.017 593.973 979.29 593.445C982.554 593.237 984.849 592.193 989.072 591.565C990.066 591.637 991.682 591.339 995.643 590.83C999.132 589.906 995.643 590.83 1003.34 589.218C1006.31 588.393 1008.19 588.072 1014.53 587.129C1020.86 586.186 1021.36 586.002 1031.19 585.947C1042.51 585.884 1047.35 584.677 1061.31 587.139L1084.24 591.183C1093.01 592.729 1097.85 595.642 1107.21 602.089C1114.82 603.431 1131.86 622.094 1126.53 615.338C1121.56 609.06 1119.78 601.351 1116.73 593.377C1115 588.853 1112.03 585.005 1111.1 580.012C1110.2 575.183 1105.25 568.659 1103.29 564.78C1098.73 555.762 1090.87 559.398 1083.01 557.326C1073.31 556.987 1067.73 557.881 1059.4 557.042C1053.57 556.453 1046.99 558.811 1041.08 557.769C1036.12 557.982 1031.63 557.191 1026.36 557.648C1020.52 558.679 1000.84 561.831 995.957 562.899C984.305 565.448 974.617 565.674 960.153 567.253C955.299 568.186 935.652 571.829 930.152 572.829Z" fill="#93685A"/>
<path d="M774.465 145.965C773.747 100.742 766.78 64.2847 766.654 20.53C766.652 19.7432 766.815 18.9591 767.258 18.3093C777.388 3.46583 838.205 0 853.918 0C885.396 0 918.653 0.82877 950.653 7.82874C982.261 14.7431 1006.32 25.2738 1027.37 34.487L1027.61 34.5891C1027.97 34.7488 1028.32 34.8563 1028.71 34.9306C1087.09 46.02 1241.05 204.91 1262.65 248.329C1281.52 289.495 1291.15 305.829 1310.15 353.829C1329.15 401.829 1320.66 386.606 1332.15 423.329C1346.06 467.778 1346.15 484.829 1358.15 529.329C1380.21 611.12 1400.89 666.793 1419.29 723.305C1441.2 790.634 1446.51 863.095 1446.51 933.559C1440.15 1023.33 1460.13 1100.8 1464.9 1112.66C1475.9 1140.06 1491.75 1164.91 1500.95 1192.89C1510.62 1222.33 1506.1 1256.04 1506.1 1286.7C1506.1 1361.4 1560.02 1446.42 1539.15 1518.32C1533.16 1538.96 1525.76 1572.34 1506.52 1610.49C1506.24 1611.04 1506.07 1611.65 1506 1612.27C1504.36 1626.67 1500.21 1624.78 1487.65 1657.59C1476.69 1686.24 1487.58 1662.48 1465.11 1706.91C1464.98 1707.18 1464.85 1707.49 1464.76 1707.78C1460.4 1722.58 1464.58 1708.1 1449.2 1731.1C1448.65 1731.92 1448.38 1732.93 1447.98 1733.82C1444.17 1742.2 1411.85 1761.88 1405.12 1763.35C1391.98 1766.23 1375.97 1770.49 1363.74 1775.84C1345.51 1783.82 1320.18 1779.83 1300.84 1779.83C1274.54 1779.83 1242.24 1783.16 1218.08 1772.58C1205.61 1767.13 1191.21 1766.42 1178.35 1761.9C1159.25 1755.18 1136.5 1748.66 1116.19 1747.23C1109.67 1746.77 993.996 1736.73 992.735 1732.38C989.777 1722.19 991.952 1705.7 992.551 1695.08C993.267 1682.39 1003.19 1669.93 1005.98 1657.59C1007.97 1648.77 1014.15 1631 1019.77 1624.08C1033.87 1606.73 1040.48 1584.55 1045.34 1563.05C1048.53 1548.89 1057 1536.55 1057.15 1518.79C1057.15 1518.48 1057.12 1518.16 1057.07 1517.86C1045.51 1455.51 1070.62 1438.47 1045.66 1370.87C1045.45 1370.31 1045.34 1369.69 1045.33 1369.1C1045.2 1332.39 1036.61 1294.48 1020.04 1263.33C1019.86 1263 1019.72 1262.63 1019.62 1262.26C1011.83 1233.11 1019.62 1232.44 1019.77 1172.11C1019.77 1170.98 1020.18 1169.82 1020.88 1168.93C1122.21 1041.06 1130.22 1004.67 1144.65 960.329C1159.13 915.829 1158.65 890.829 1168.15 840.329C1173.88 809.87 1185 768.696 1179.09 751.329C1166.65 713.329 1173.15 725.829 1155.18 680.069C1143.45 658.984 1129.37 640.422 1120.15 630.329C1107.93 618.297 1053.17 542.642 1042.65 529.329C1029.8 513.053 1008.16 486.612 993.653 472.329C963.451 442.591 942.152 399.817 911.853 369.983C896.093 354.465 881.17 334.225 863.85 320.181C851.847 310.448 838.591 296.844 830.744 283.599C824.725 273.439 812.478 266.763 807.57 255.891C803.199 246.207 796.776 239.003 789.759 228.706C789.552 228.404 789.378 228.073 789.245 227.732C784.313 215.118 782.96 207.424 778.741 189.593C774.465 171.52 774.71 161.41 774.465 145.965Z" fill="#40231A"/>
<path d="M594.047 670.905C592.142 669.081 590.183 667.718 588.27 665.72C589.319 663.885 592.312 660.149 593.605 658.756C594.646 657.635 596.948 656.305 598.006 655.167C601.7 653.115 603.605 652.187 605.986 649.907C608.844 648.5 608.844 648.5 612.177 646.449C613.781 645.036 614.082 645.936 617.415 643.885C620.749 641.833 621.701 640.808 625.511 638.244C629.321 636.705 630.717 636.719 635.511 634.654C637.893 633.628 640.804 632.452 642.655 632.09C644.821 631.666 649.729 630.492 651.703 629.526C655.036 628.909 655.229 628.909 658.082 628.909H662.896C664.529 628.909 668.863 628.31 670.275 628.5C673.227 628.898 673.339 628.909 676.466 628.909C679.799 630.551 683.895 630.631 686.943 632.09C688.421 632.797 691.554 633.763 693.133 634.141C694.598 634.492 697.277 636.329 698.848 636.705C701.604 637.365 702.623 638.619 705.025 640.056C707.582 641.586 710.277 642.859 713.134 644.91C714.964 646.881 716.902 648.16 718.853 650.051C723.127 654.193 727.421 658.756 731.799 663.372C734.848 668.208 736.235 668.05 736.079 670.905C736.024 671.904 734.498 674.464 733.886 675.312C733.38 676.013 731.799 679.103 731.799 679.978C731.799 681.378 730.799 682.02 729.338 682.945C728.089 683.737 729.694 686.842 728.373 687.474C725.236 688.976 721.398 690.129 718.373 691.577C715.835 692.791 711.706 692.09 708.372 692.602C705.039 693.115 701.097 693.93 696.943 694.654C690.276 696.192 683.597 696.829 676.618 696.829C673.813 696.829 671.228 696.192 666.748 695.677C663.132 694.141 662.656 694.654 656.465 693.115C654.084 692.602 652.059 692.606 650.274 692.09C648.249 691.504 647.364 691.212 645.189 691.126C640.562 690.941 635.436 689.596 631.013 688.13C627.067 686.823 623.004 686.153 619.083 684.645C615.283 683.183 611.797 681.417 608.25 679.719C606.194 678.735 604.654 677.366 602.713 676.205C601.285 675.351 599.206 674.416 598.006 673.382C596.806 672.349 595.238 672.045 594.047 670.905Z" fill="#EDD8C7"/>
<path d="M571.152 684.329L582 669L644.652 693.829C616.251 692.157 599.81 691.826 571.152 684.329Z" fill="#DAA78C"/>
<path d="M1093 688.735L1082.64 677L1017 702C1045.03 700.294 1064.71 696.385 1093 688.735Z" fill="#DAA78C"/>
<path d="M1088.65 671.829H1098.65C1069.15 645.829 1050.07 637.505 1005.15 634.829C1041.66 646.752 1051.27 654.332 1088.65 671.829Z" fill="#DAA78C"/>
<path d="M1088.35 651.534C1084.87 649.684 1082.8 648.918 1079.33 647.135C1075.87 645.608 1072.1 644.052 1068.59 643.096C1066.46 642.516 1063.59 641.742 1059.77 640.356C1055.01 638.628 1054.05 638.571 1049.91 637.493C1047.35 636.829 1047.71 636.842 1045.59 636.191C1042.1 635.114 1037.75 634.052 1035.87 633.876C1029.16 632.501 1026.27 632.4 1019.62 631.443C1012.32 631.188 1006.54 630.809 999.966 631.482C993.514 633.188 987.103 635.118 980.905 637.772C975.153 640.235 973.383 640.372 967.456 644.249C962.064 646.613 957.795 649.638 955.527 651.651C951.827 654.935 950.657 655.404 947.675 657.853" stroke="#995741" stroke-width="1.2" stroke-linecap="round"/>
<path d="M1079.59 680.075C1081.48 678.316 1083.41 677.02 1085.31 675.087C1084.37 673.217 1081.63 669.383 1080.44 667.949C1079.48 666.794 1077.32 665.387 1076.35 664.214C1072.87 662.04 1071.08 661.048 1068.88 658.69C1066.19 657.188 1066.19 657.188 1063.06 655.027C1061.57 653.561 1061.25 654.451 1058.13 652.289C1055.01 650.127 1054.13 649.07 1050.57 646.38C1046.97 644.715 1045.63 644.682 1041.1 642.458C1038.86 641.353 1036.11 640.08 1034.34 639.656C1032.28 639.16 1027.62 637.822 1025.76 636.791C1022.58 636.063 1022.4 636.056 1019.66 635.961L1015.05 635.799C1013.48 635.745 1009.35 635.001 1007.99 635.144C1005.14 635.442 1005.04 635.45 1002.04 635.345C998.784 636.875 994.855 636.818 991.882 638.173C990.44 638.831 987.402 639.691 985.875 640.016C984.458 640.317 981.825 642.064 980.306 642.387C977.641 642.954 976.621 644.174 974.268 645.529C971.762 646.973 969.134 648.155 966.323 650.109C964.5 652.017 962.598 653.23 960.66 655.055C956.419 659.052 952.142 663.469 947.783 667.934C944.692 672.665 943.367 672.461 943.417 675.32C943.435 676.32 944.809 678.93 945.366 679.798C945.827 680.515 947.234 683.657 947.204 684.531C947.155 685.929 948.092 686.605 949.46 687.578C950.63 688.411 948.983 691.461 950.227 692.137C953.183 693.743 956.822 695.024 959.672 696.572C962.063 697.871 966.046 697.308 969.224 697.932C972.402 698.556 976.153 699.502 980.11 700.364C986.449 702.125 992.831 702.985 999.521 703.219C1002.21 703.312 1004.71 702.763 1009.02 702.398C1012.55 700.984 1012.98 701.512 1018.97 700.182C1021.27 699.749 1023.21 699.821 1024.94 699.364C1026.91 698.847 1027.76 698.585 1029.85 698.571C1034.3 698.542 1039.26 697.369 1043.55 696.052C1047.38 694.878 1051.3 694.344 1055.11 692.968C1058.8 691.635 1062.21 689.986 1065.67 688.408C1067.67 687.494 1069.2 686.177 1071.1 685.082C1072.5 684.276 1074.52 683.412 1075.71 682.418C1076.9 681.426 1078.41 681.174 1079.59 680.075Z" fill="#EDD8C7"/>
<path d="M947.408 671.279C944.304 671.171 942.286 675.36 940.3 677.272C939.593 677.953 938.808 678.811 938.434 679.715C938.044 680.66 937.081 681.398 936.66 682.355C935.97 683.924 934.889 685.423 934 686.864C933.2 688.162 933.277 689.74 933.225 691.227C933.207 691.73 932.997 693.361 933.405 693.703C933.851 694.076 934.931 693.963 935.528 694.115C936.099 694.259 937.001 694.319 937.567 694.369C938.588 694.46 939.935 694.393 940.899 694.698C942.117 695.084 943.414 695.167 944.649 695.523C946.182 695.965 947.889 696.292 949.487 696.348L957.342 696.623L959.565 696.7C959.939 696.713 960.379 696.82 960.676 696.604C960.695 696.591 960.712 696.579 960.729 696.569C961.14 696.746 961.048 696.383 960.729 696.569C960.702 696.557 960.672 696.543 960.639 696.525C959.546 695.944 958.271 694.846 957.058 694.538C955.266 694.084 954.09 691.673 952.937 690.468C951.447 688.91 950.67 686.579 949.695 684.72C948.972 683.34 948.373 681.499 948.04 679.983C947.715 678.5 946.729 676.906 946.784 675.341C946.811 674.556 946.334 671.242 947.408 671.279Z" fill="#D3886B"/>
<path d="M975.473 666.287C974.874 683.443 988.797 697.913 1006.65 698.536C1024.5 699.16 1039.4 685.696 1040 668.54C1040.6 651.384 1026.67 636.913 1008.82 636.29C990.971 635.667 976.072 649.13 975.473 666.287Z" fill="#3F3324" stroke="black" stroke-width="2"/>
<path d="M1080.66 667.776C1078.89 666.015 1077.99 665.482 1076.07 663.842C1072.17 661.262 1073.05 662.297 1071.12 660.965C1069.46 659.824 1068.32 658.929 1067.37 658.363C1065.3 657.137 1063.5 655.453 1061.43 654.227C1059.72 653.213 1058.11 652.02 1056.42 651.017C1054.7 649.994 1053.33 648.555 1051.35 647.572C1047.47 645.652 1041.15 642.606 1036.93 640.766C1035.72 640.409 1033.9 639.774 1032.97 639.5C1031.63 639.103 1030.73 638.728 1028.71 637.95C1027.29 637.403 1025.33 637.076 1023.77 636.708C1020.08 635.84 1015.78 635.398 1011.99 635.266C1008.23 635.134 1004.45 634.72 1000.92 636.202C998.846 637.069 996.017 637.258 993.802 637.782C990.937 638.458 987.576 639.392 984.9 640.622C982.647 641.657 979.1 642.74 976.841 643.875C975.64 644.305 972.169 646.222 968.813 648.036C967.9 648.671 965.04 650.203 964.2 650.965C962.616 652.401 961.492 652.76 959.952 654.331C956.567 657.783 953.678 661.301 950.891 664.056C948.103 666.81 948.017 667.47 945.807 669.719C942.288 673.797 940.825 676.256 938.886 679.201C938.103 680.39 936.095 682.873 935.009 685.09C933.238 688.702 933.221 689.204 932.216 691.679" stroke="black" stroke-width="3" stroke-linecap="round"/>
<ellipse rx="4.82351" ry="5.10193" transform="matrix(-0.999391 -0.0348995 -0.0348995 0.999391 1011.15 663.096)" fill="#EEDFD8"/>
<path d="M1084.29 676.57C1078.73 679.803 1077.81 680.073 1072.18 684.11C1067.49 687.473 1066.1 687.907 1062.44 689.462C1057.28 691.652 1056.29 691.186 1053.88 692.405C1041.1 696.63 1035.82 696.738 1025.44 699.611C1020.96 700.85 1013.66 701.719 1008.91 701.553C1003.53 701.366 999.279 702.189 992.419 701.95C986.979 700.788 982.213 700.252 977.315 698.87C974.565 698.094 971.527 697.935 968.811 697.13C967.166 696.642 965.616 696.944 961.994 695.884" stroke="#AD7058" stroke-width="2" stroke-linecap="round"/>
<path d="M1056.65 653.829C1068.81 660.716 1076.32 665.655 1085.65 672.829C1074.03 684.65 1065.01 687.838 1050.15 691.829C1061.19 677.98 1066.14 669.203 1056.65 653.829Z" fill="#DBC7B7"/>
<path d="M1080.15 672.829L1109.5 665C1089.15 669.5 1061.14 648.123 1029.66 637.905C1056.13 650.989 1057.16 653.284 1080.15 672.829Z" fill="black" stroke="black"/>
<path d="M976.653 645.829C1009.22 634.601 1028.7 636.692 1057.15 652.329L1054.89 647.975C1024.77 633.021 990.629 636.032 975.418 643.158C963.189 647.836 938.513 673.964 932.663 692.716C941.119 673.953 955.962 657.869 976.653 645.829Z" fill="black" stroke="black"/>
<path d="M1093 674.394L1081.65 674.394C1066.08 684.598 1058.01 688.983 1038.16 695.264C1055.45 698.207 1093 674.394 1093 674.394Z" fill="#936556"/>
<path d="M779.116 940.543C763.358 933.561 754.153 926.829 747.153 923.329C749.653 934.329 766.557 941.287 779.116 945.686C786.941 943.697 786.275 941.4 796.565 935.829C806.855 930.257 823.384 953.436 828.778 953.829C832.914 953.542 864.122 933.257 872.623 935.829C881.124 938.4 886.94 948.686 886.94 948.686C894.922 949.659 899.429 948.643 907.52 944.4C915.156 937.603 917.034 933.612 919.153 926.4C909.442 938.362 902.537 942.813 886.94 945.686C883.984 935.131 885.397 927.25 873.965 922.114C869.637 918.556 840.153 949.829 828.778 950.329C819.153 949.829 802.875 918.606 796.565 922.114C792.627 923.116 789.537 925.58 779.116 940.543Z" fill="#F0BA9D"/>
<path d="M827.153 953.829C810.957 939.315 798.461 935.812 778.153 944.329C786.892 928.534 792.952 921.381 799.653 921.829C806.788 924.678 815.658 936.633 827.153 953.829Z" fill="#DAA78C"/>
<path d="M837.844 946.962C857.244 937.134 870.221 936.985 887.633 950.468C883.28 932.949 879.277 924.472 872.689 923.17C865.059 924.076 853.397 933.327 837.844 946.962Z" fill="#DAA78C"/>
<path d="M832.928 903.793C826.029 904.67 810.937 889.181 812.231 884.311C813.956 877.817 827.429 866.617 841.983 864.829C852.803 865.573 862.681 879.44 860.956 884.311C858.369 889.723 846.208 902.105 832.928 903.793Z" fill="#FFD2AE"/>
<path d="M811.404 880.601C815.377 876.877 810.011 709.261 815.424 699.188C823.864 682.499 849.535 656.852 861.153 647.829C850.585 686.026 857.287 770.419 861.153 880.601C851.654 885.447 807.432 884.326 811.404 880.601Z" fill="#FFD6B5"/>
<path d="M753.653 908.329C748.557 895.317 788.76 858.488 799.153 852.329C796.653 841.329 800.653 766.329 791.653 775.329C775.255 800.352 748.745 871.381 748.153 891.829C750.654 897.872 749.501 909.011 753.653 908.329Z" fill="#FAC7AC"/>
<path d="M796.153 849.329C807.296 785.287 809.734 592.704 751.153 594.829L769.653 649.829C782.653 687.829 789.13 814.191 796.153 849.329Z" fill="#FAC2A3"/>
<path d="M867.153 836.829C857.913 761.769 862.28 701.051 892.153 621.829L891.19 716.516C870.086 766.943 872.915 795.814 867.153 836.829Z" fill="#FDC2A2"/>
<path d="M798.153 901.329C795.243 886.799 797.616 856.876 802.152 812.829C794.9 837.756 795.653 842.829 793.153 859.829C793.153 866.829 791.65 893.584 798.153 901.329Z" fill="#FCC2A2"/>
<path d="M867.491 893.829C870.401 879.299 869.688 861.876 865.153 817.829C872.404 842.756 871.652 847.829 874.152 864.829C874.152 871.829 873.994 886.084 867.491 893.829Z" fill="#FCC6A8"/>
<path d="M910.369 874.985C909.427 871.794 908.359 868.413 907.153 864.829C908.273 868.681 909.346 872.024 910.369 874.985C923.488 919.426 912.206 927.272 909.491 940.829C915.994 933.084 922.153 917.329 922.153 910.329C920.039 895.956 915.961 891.181 910.369 874.985Z" fill="#DAA78C"/>
<path d="M751.784 885.477C753.324 878.839 755.548 871.056 758.653 861.829C755.899 871.294 753.65 878.834 751.784 885.477C744.392 917.327 752.745 922.805 755.153 934.829C748.65 927.084 745.153 922.329 745.153 915.329C746.703 904.784 748.734 896.328 751.784 885.477Z" fill="#D8A98F"/>
<path d="M722.144 1022.28C718.105 1022.07 712.853 1018.49 703.966 1012.67C711.928 1021.01 715.886 1025.95 729.216 1031.51C757.563 1031.51 764.443 1034.33 788.787 1037.83C798.688 1037.84 812.065 1040.2 827.948 1043.33C841.953 1043.25 853.103 1040.27 869.227 1037.83C881.655 1034.28 915.977 1040.47 935.39 1040.82C945.601 1035.05 957.375 1034.89 963.955 1029.1C953.77 1032.33 940.586 1030.7 928.939 1029.1C893.871 1024.96 869.994 1009.06 863.475 1009.43C859.803 1008.02 855.172 1008.48 831.428 1016.88C804.546 1007.09 801.22 1006.74 797.893 1007.26C784.545 1008.02 759.79 1019.59 722.144 1022.28Z" fill="#E68169"/>
<path d="M781.714 1080.67C763.758 1077.66 739.261 1046.33 712 1024L759.004 1033.53L807.065 1042.05L844.035 1044.56C874.08 1037.59 890.514 1035.83 918.502 1039.55L956 1033.53C924.532 1057.62 898.961 1072.64 879.42 1080.67C859.879 1088.69 799.671 1083.68 781.714 1080.67Z" fill="#E58169"/>
<path d="M693 1018.5C696.27 1019.07 699.973 1018.15 702.007 1015C709.616 1022.07 715.345 1026.15 726.38 1033.5C745.988 1032.73 756.659 1032.64 775.125 1036.5C801.224 1041.83 815.387 1043 840.295 1045C863.067 1040.27 872.164 1039.89 889.04 1038.5C892.682 1037.91 900.813 1039.01 937.785 1041C947.622 1039.18 975.933 1025 978.582 1025C980.701 1025 983.806 1028.05 986 1026.5C983.351 1023 982.418 1023 982.821 1021C982.291 1016.5 982.291 1019.5 982.291 1015C978.574 1017.18 979.112 1021 978.582 1021.5C976.993 1025 955.156 1032.53 937.785 1037.5C906.343 1035.69 893.917 1035.09 890.1 1035.5C870.796 1037.16 859.916 1038.59 840.295 1043C814.862 1041.21 800.594 1039.21 775.125 1033.5C756.208 1030.43 745.533 1029.47 726.38 1029C715.981 1024.2 711.098 1020.62 704.127 1012.5C702.755 1009.65 703.595 1004.52 700.947 1004C700.947 1008 700.418 1007 699.358 1010.5C697.769 1014 696.709 1014.5 693 1018.5Z" fill="#9C6147"/>
<path d="M799.009 1070.2C785.209 1063.79 780.654 1056.22 773 1048C819.76 1051.65 840.788 1055.35 885 1050.96C878.669 1061.83 871.469 1067.13 854.213 1075.63C833.345 1076.7 823.427 1075.63 799.009 1070.2Z" fill="#EB8F79"/>
<path d="M831.653 1007.83L802.653 997.829L804.653 994.329L854.653 997.829L857.653 999.829L831.653 1007.83Z" fill="#FFDEC5"/>
<path d="M1013.15 708.065C1029.86 706.718 1050.15 704.065 1053.15 703.565C1056.15 703.065 1096.87 692.592 1096.65 690.329C1096.43 688.066 1023.25 702.565 1013.15 702.565C1003.05 702.565 967.882 700.338 939.152 694.565C939.152 694.565 945.469 699.165 947.152 700.565C948.835 701.965 984.152 707.065 1013.15 708.065Z" fill="#FFDEC5"/>
<path d="M931.541 695.829C929.818 694.516 929.178 693.852 931.153 690.329C931.334 691.404 942.153 694.829 949.653 701.329C942.648 700.081 938.608 698.109 931.541 695.829Z" fill="#FDEEE3"/>
<path d="M584.966 642.076C588.654 640.349 590.836 639.655 594.519 637.994C598.179 636.589 602.159 635.165 605.852 634.332C608.093 633.827 611.112 633.153 615.141 631.901C620.162 630.341 621.167 630.317 625.522 629.385C628.207 628.811 627.837 628.811 630.061 628.234C633.737 627.28 638.307 626.37 640.274 626.26C647.313 625.12 650.329 625.12 657.297 624.395C664.91 624.395 670.944 624.219 677.765 625.12C684.424 627.051 691.033 629.204 697.393 632.072C703.295 634.734 705.134 634.933 711.167 639.014C716.698 641.565 721.036 644.738 723.326 646.828C727.06 650.239 728.262 650.749 731.279 653.3" stroke="#995741" stroke-width="1.2" stroke-linecap="round"/>
<path d="M731.069 666.727C734.307 666.727 736.257 670.985 738.255 672.965C738.968 673.67 739.754 674.555 740.11 675.472C740.483 676.43 741.459 677.201 741.862 678.172C742.524 679.764 743.596 681.3 744.47 682.771C745.256 684.096 745.119 685.671 745.119 687.158C745.119 687.662 745.278 689.299 744.841 689.626C744.363 689.984 743.241 689.833 742.615 689.964C742.014 690.088 741.072 690.116 740.481 690.147C739.414 690.202 738.013 690.088 736.998 690.359C735.715 690.702 734.361 690.741 733.062 691.053C731.448 691.441 729.658 691.709 727.991 691.709H719.799H717.48C717.089 691.709 716.627 691.8 716.326 691.574C716.307 691.56 716.289 691.548 716.272 691.537C715.837 691.7 715.946 691.34 716.272 691.537C716.301 691.526 716.333 691.513 716.367 691.497C717.527 690.954 718.896 689.901 720.17 689.636C722.053 689.244 723.366 686.876 724.611 685.712C726.22 684.206 727.115 681.904 728.197 680.081C729.001 678.727 729.692 676.907 730.094 675.404C730.487 673.933 731.572 672.375 731.572 670.809C731.572 670.024 732.189 666.727 731.069 666.727Z" fill="#D3886B"/>
<path d="M699.884 660.585C699.884 677.714 684.873 691.727 666.192 691.727C647.51 691.727 632.499 677.714 632.499 660.585C632.499 643.456 647.51 629.443 666.192 629.443C684.873 629.443 699.884 643.456 699.884 660.585Z" fill="#3F3324" stroke="black" stroke-width="2"/>
<path d="M592.379 658.576C594.291 656.878 595.248 656.376 597.307 654.804C601.464 652.362 600.508 653.366 602.569 652.102C604.333 651.02 605.557 650.165 606.57 649.633C608.769 648.479 610.709 646.859 612.907 645.706C614.725 644.752 616.445 643.616 618.242 642.673C620.076 641.711 621.548 640.32 623.652 639.407C627.764 637.624 634.458 634.801 638.918 633.109C640.197 632.794 642.109 632.223 643.087 631.981C644.5 631.631 645.457 631.288 647.589 630.582C649.089 630.084 651.135 629.825 652.776 629.512C656.648 628.774 661.151 628.482 665.096 628.482C669.019 628.482 672.971 628.2 676.601 629.804C678.728 630.743 681.668 631.031 683.957 631.631C686.916 632.408 690.384 633.458 693.127 634.781C695.437 635.894 699.092 637.1 701.404 638.313C702.639 638.785 706.185 640.822 709.616 642.751C710.543 643.418 713.467 645.049 714.314 645.839C715.913 647.33 717.07 647.728 718.618 649.352C722.018 652.919 724.9 656.537 727.703 659.387C730.507 662.237 730.572 662.899 732.793 665.224C736.311 669.422 737.745 671.931 739.658 674.942C740.43 676.158 742.432 678.709 743.483 680.963C745.196 684.635 745.196 685.136 746.152 687.645" stroke="black" stroke-width="3" stroke-linecap="round"/>
<ellipse cx="669.181" cy="656.931" rx="5.02793" ry="5.10193" fill="#EEDFD8"/>
<path d="M701.404 639.177C667.883 626.82 650.162 628.114 619.951 642.748V639.687C651.871 625.792 687.325 629.994 702.912 637.646C715.482 642.748 740.237 669.721 745.649 688.666C737.523 669.619 722.521 651.932 701.404 639.177Z" fill="#40231A" stroke="black"/>
<path d="M617.152 645.829C604.995 652.716 597.483 657.655 588.152 664.829C599.773 676.65 608.8 679.838 623.652 683.829C612.615 669.98 607.668 661.203 617.152 645.829Z" fill="#DBC7B7"/>
<path d="M600.625 675.196C605.389 678.721 606.819 679.203 610.579 680.885C615.872 683.254 614.822 682.823 617.286 684.125C630.452 688.794 632.29 688.581 643 691.815C647.617 693.21 660.948 694.837 665.902 694.837C671.51 694.837 675.908 695.808 683.063 695.808C688.773 694.837 693.757 694.468 698.91 693.258C701.803 692.578 704.973 692.525 707.832 691.815C709.563 691.385 711.168 691.742 714.98 690.808" stroke="#AD7058" stroke-width="2" stroke-linecap="round"/>
<path d="M578.652 664.329H558.152C594.152 637.829 613.738 629.505 658.652 626.829C622.147 638.752 616.039 646.833 578.652 664.329Z" fill="#DAA78C"/>
<path d="M581 669L591.653 667.829C607.502 678.569 619.706 682.859 640.153 689.829C622.037 692.167 581 669 581 669Z" fill="#936556"/>
<path d="M555 660.5L557.974 660.777C585.406 662.13 624.822 632.652 656.653 627.829C628.6 639.98 620.821 645.598 596.153 664.329L557.974 660.777C556.966 660.727 555.975 660.636 555 660.5Z" fill="#40231A" stroke="black"/>
<path d="M573.152 653.462C573.152 653.462 581.152 643.829 586.652 640.329C592.152 636.829 623.609 624.146 658.666 621.83C692.459 621.669 706.813 633.561 731.571 651.932L731.571 653.264C731.571 653.672 731.571 653.909 731.571 653.462C731.571 652.442 689.518 623.19 658.666 623.871C623.009 627.863 603.503 638.42 573.152 653.462Z" fill="#995741"/>
<path d="M1102.57 660.462C1102.57 660.462 1094.57 650.829 1089.07 647.329C1083.57 643.829 1052.11 631.146 1017.06 628.83C983.265 628.669 968.911 640.561 944.153 658.932L944.153 660.264C944.153 660.672 944.153 660.909 944.153 660.462C944.153 659.442 986.206 630.19 1017.06 630.871C1052.71 634.863 1072.22 645.42 1102.57 660.462Z" fill="#995741"/>
<path d="M672.153 702.329C655.449 700.982 635.153 698.329 632.153 697.829C629.153 697.329 575.431 686.592 575.653 684.329C575.874 682.066 662.055 696.829 672.153 696.829C682.25 696.829 717.423 694.602 746.153 688.829C746.153 688.829 739.836 693.429 738.153 694.829C736.47 696.229 701.153 701.329 672.153 702.329Z" fill="#FFDEC5"/>
<path d="M739.5 671.5C747.5 678.5 757.723 690.688 756 692C750.386 693.811 741.17 695.005 734.106 696.044C732.632 696.361 730.985 696.624 729.153 696.829C730.593 696.572 732.278 696.313 734.106 696.044C750.018 692.629 745.911 682.94 739.5 671.5Z" fill="#FDEEE3"/>
<path d="M937.5 676.5C931.328 680.5 918.777 696.688 920.5 698C926.653 699.985 938.78 700.091 946.438 700.909C947.401 701.066 948.428 701.207 949.519 701.329C948.613 701.167 947.575 701.03 946.438 700.909C928.329 697.949 932.278 688.843 937.5 676.5Z" fill="#FDEEE3"/>
<path d="M745.153 688.329L696.653 637.829C710.153 643.329 721.153 654.829 726.153 659.329L737.153 673.329L745.153 688.329Z" fill="#B19F90" fill-opacity="0.5"/>
<path d="M933.153 692.329L983.153 642.829C969.653 648.329 957.153 658.829 952.153 663.329L941.153 677.329L933.153 692.329Z" fill="#B19F90" fill-opacity="0.5"/>
<path d="M688.743 58.8227C696.349 53.4934 701.558 51.6192 703.652 54.2266L688.743 58.8227C650.225 85.8103 550.212 201.403 481.652 272.329L585.152 153.227C649.449 91.2335 673.652 69.6213 686.152 59.6213L688.743 58.8227Z" fill="#613A2E"/>
<path d="M698.731 98.8564C702.255 98.2219 705.026 99.182 707.152 101.829L698.731 98.8564C681.199 102.012 645.008 144.614 576.652 215.329L619.652 152.993C683.949 91.0001 677.652 105.829 690.152 95.8288L698.731 98.8564Z" fill="#613A2E"/>
<path d="M519.152 241.829C641.2 130.244 690.152 91.8288 712.652 91.8288H691.652C673.07 104.967 684.736 87.3819 589.152 168.829L519.152 241.829Z" fill="#523127"/>
<path d="M839.062 220.589C831.456 215.26 826.247 213.386 824.153 215.993L839.062 220.589C877.58 247.577 977.592 363.169 1046.15 434.095L942.653 314.993C878.356 253 854.153 231.388 841.653 221.388L839.062 220.589Z" fill="#613A2E"/>
<path d="M829.074 260.623C825.549 259.988 822.779 260.949 820.653 263.595L829.074 260.623C846.606 263.779 882.797 306.381 951.153 377.095L908.153 314.76C843.856 252.767 850.153 267.595 837.653 257.595L829.074 260.623Z" fill="#613A2E"/>
<path d="M1008.65 403.595C886.605 292.011 837.653 253.595 815.153 253.595H836.153C854.735 266.733 843.069 249.148 938.653 330.595L1008.65 403.595Z" fill="#523127"/>
<path d="M931.01 228.836C902.134 213.992 860.653 194.829 826.653 159.329C817.804 165.267 842.177 217.879 847.653 220.329C856.645 224.352 865.932 248.603 876.153 249.289C886.739 249.999 895.247 253.593 904.842 259.163C908.703 261.403 915.728 262.075 918.925 265.651C922.284 269.409 926.76 271.174 930.695 273.55C951.908 286.363 970.846 303.874 989.919 321.51L990.071 321.65C1017.85 347.336 1044.71 374.416 1070.25 404.026C1080.7 416.139 1091.18 430.421 1102.62 440.983C1118.6 455.727 1134.36 470.353 1148.76 487.813C1173.86 518.246 1196.69 549.427 1218.12 584.577C1227.46 599.901 1236.8 614.725 1247.23 628.727C1248.69 630.692 1312.62 719.829 1307.65 707.829C1300.14 689.67 1242.15 608.329 1236.82 571.036C1228.77 553.864 1226.32 532.109 1217.91 515.178C1208.73 496.698 1200.01 478.641 1191.42 459.32C1183.4 441.261 1172.1 430.699 1160.32 417.568C1144.12 399.511 1129.29 379.56 1111.77 363.685C1070.21 326.031 1028 287.079 982.504 258.457C965.598 247.821 948.415 237.783 931.01 228.836Z" fill="#56352A"/>
<path d="M1437.54 1216.19C1430.75 1191.65 1405.22 1165.88 1422.08 975C1413.73 973.748 1395.9 1161.45 1397.4 1165.88C1396 1177 1402.83 1217.5 1407.32 1231.63C1407.32 1239 1408.27 1239.18 1408.99 1242.74C1412.85 1261.95 1414.31 1282.75 1414.12 1303.69C1413.84 1334.11 1412.23 1364.86 1408.4 1396.41C1406.83 1409.32 1403.98 1423.54 1403.87 1436.06C1403.73 1453.54 1403.54 1470.82 1400.92 1489.07C1396.35 1520.87 1390.1 1551.89 1380.72 1584.52C1376.63 1598.74 1372.84 1612.67 1370.13 1626.69C1369.75 1628.66 1351.17 1716.61 1355.65 1706.74C1362.42 1691.81 1379.57 1611.75 1398.96 1586.58C1404.86 1571.95 1416.52 1557.62 1422.08 1542.94C1428.14 1526.91 1434.21 1511.4 1441.09 1495.19C1447.53 1480.04 1447.71 1467.6 1449.16 1453.37C1451.17 1433.79 1455.04 1413.82 1455.02 1394.83C1454.98 1349.78 1455.35 1303.61 1447.78 1261.82C1444.96 1246.3 1441.64 1230.98 1437.54 1216.19Z" fill="#56352A"/>
<path d="M795.153 45.5595C844.153 32.8288 862.383 34.779 890.241 45.5594C913.941 54.7306 936.168 66.1761 959.359 76.1171C984.001 86.6795 1004.22 104.182 1027.19 118.405C1043.52 128.517 1065.7 141.476 1078.77 157.652C1100.85 184.999 1127.09 207.064 1149.29 234.554C1163.03 251.575 1176.14 273.55 1185.54 294.51C1196.27 318.412 1216 341.077 1220.98 368.805C1225.23 392.497 1235.65 412.98 1245.07 433.975C1248.46 441.534 1250.25 453.388 1254.08 459.319C1259.14 467.153 1257.57 480.359 1262.5 487.994C1265.15 492.092 1267.18 506.913 1267.18 512.179C1267.18 518.075 1268.65 530.982 1269.8 538.019C1270.64 539.332 1271.15 540.342 1271.15 540.854C1271.15 544.657 1270.54 542.56 1269.8 538.019C1266.2 532.401 1256.58 521.24 1255.48 519.855C1246.74 508.817 1236.04 498.426 1229.75 484.808C1221.83 467.637 1210.5 447.91 1200.28 432.672C1179.47 401.636 1160.95 368.466 1138.3 339.405C1127.32 325.329 1115.69 308.778 1103.56 296.538C1093.42 286.306 1086.7 273.361 1075.61 264.532C1065.61 256.569 1055.51 247.442 1046.14 238.319C1015.91 208.91 986.571 177.424 953.746 152.584C928.499 133.478 906.126 106.879 879.832 90.5994C870.758 84.9812 865.268 74.4569 856.676 68.2966C843.219 58.6491 811.691 45.5595 795.153 45.5595Z" fill="#4B2D24"/>
<path d="M503.152 828.829C492.152 755.329 481.105 659.658 484.652 621.829C497.533 644.912 500.685 662.319 503.152 696.829C503.218 723.203 514.152 902.329 503.152 828.829Z" fill="#EEBDA2"/>
<path d="M441.652 687.829C447.599 661.346 473.917 681.329 475.152 693.829C478.522 727.921 478.722 753.529 492.652 788.829C492.652 793.829 484.326 785.606 470.652 773.829C457.152 773.829 441.652 733.829 441.652 687.829Z" fill="#F0BA9C"/>
<path d="M480.491 651.068C478.045 652.921 475.115 657.056 471.883 657.056C467.717 657.056 465.002 660.799 461.03 660.799C458.66 660.799 456.29 660.799 453.92 660.799C451.346 660.799 449.335 658.956 446.809 658.595C435.186 656.934 425.933 648.823 413.875 648.823" stroke="#40231A" stroke-width="2" stroke-linecap="round"/>
<path d="M475.252 640.589C472.082 647.809 467.432 647.855 461.197 650.32C456.732 652.085 451.716 655.559 446.809 655.559C442.95 655.559 439.977 657.805 436.164 657.805C433.607 657.805 431.426 659.017 429.594 660.799C421.309 668.854 415.614 679.657 409.385 689.241" stroke="#40231A" stroke-width="2" stroke-linecap="round"/>
<path d="M478.994 658.553C473.002 666.223 464.001 667.315 455.042 668.866C450.168 669.709 445.786 670.529 440.821 670.529C435.831 670.529 430.841 670.529 425.851 670.529C423.98 670.529 422.109 670.529 420.238 670.529C408.744 670.529 397.221 689.308 391.421 695.978" stroke="#40231A" stroke-width="2" stroke-linecap="round"/>
<path d="M466.27 636.098C462.909 640.688 456.549 647.326 450.219 647.326C446.749 647.326 443.541 647.212 440.488 649.155C437.823 650.852 435.173 651.476 432.754 653.896C427.068 659.582 424.089 665.908 419.863 672.774" stroke="#40231A" stroke-width="2" stroke-linecap="round"/>
<path d="M456.539 647.326C452.662 648.618 448.845 650.964 444.813 651.65C441.303 652.248 437.482 651.817 433.918 651.817C428.59 651.817 422.692 653.966 418.366 657.056" stroke="#40231A" stroke-width="2" stroke-linecap="round"/>
<path d="M479.743 658.553C465.399 658.553 448.586 660.967 434.875 656.682C431.165 655.523 428.284 655.097 424.354 656.64C409.776 662.368 399.617 677.877 389.924 689.241" stroke="#40231A" stroke-width="2" stroke-linecap="round"/>
<path d="M473.006 636.847C466.076 636.847 459.146 636.847 452.215 636.847C446.582 636.847 442.861 640.151 438.742 643.583C429.56 651.236 424.957 666.501 422.276 677.515C417.893 695.514 413.928 713.625 410.882 731.905" stroke="#40231A" stroke-width="2" stroke-linecap="round"/>
<path d="M475.683 637.59C468.736 644.538 461.399 651.051 454.447 658.003C452.516 659.933 450.026 663.488 447.215 663.999C432.749 666.629 418.747 667.248 404.01 667.248" stroke="#40231A" stroke-width="2" stroke-linecap="round"/>
<path d="M483.922 669.72C478.469 667.459 474.105 663.33 468.635 661.207C463.388 659.171 456.801 657.649 451.975 654.891C448.68 653.008 441.907 653.243 438.153 653.243C435.536 653.243 432.895 653.144 430.281 653.289C421.514 653.776 415.321 661.215 408.953 666.425" stroke="#40231A" stroke-width="2" stroke-linecap="round"/>
<path d="M483.922 675.487C483.922 668.563 478.814 665.152 473.624 661.115C469.789 658.133 464.996 653.618 460.214 651.779C455.699 650.042 451.876 646.97 447.216 645.417C426.835 638.623 409.59 652.749 394.948 664.777" stroke="#40231A" stroke-width="2" stroke-linecap="round"/>
<path d="M451.153 721.329C448.53 709.92 469.334 706.94 472.653 692.329L474.653 760.329C468.477 760.696 453.776 732.738 451.153 721.329Z" fill="#DAA78C"/>
<path d="M482.274 681.253C477.742 673.822 474.048 669.726 466.209 666.013C462.475 664.244 459.101 660.921 455.911 658.369C444 648.84 428.732 639.165 413.896 635.119" stroke="#40231A" stroke-width="2" stroke-linecap="round"/>
<path d="M483.098 682.077C483.098 674.413 480.942 669.066 476.873 662.672C472.689 656.097 466.801 652.29 461.22 647.019C453.7 639.916 445.478 632.717 435.315 630.176" stroke="#40231A" stroke-width="2" stroke-linecap="round"/>
<path d="M483.437 667.394C483.437 674.597 483.233 679.432 480.85 685.988C478.624 692.109 473.335 699.933 473.086 706.402C472.832 713.017 472.224 719.733 472.224 726.53C472.224 732.885 472.668 738.918 473.613 745.22C478.721 779.269 489.426 812.179 501.552 844.227" stroke="#40231A" stroke-width="2" stroke-linecap="round"/>
<path d="M482.575 679.47C482.575 687.17 482.575 694.869 482.575 702.569C482.575 710.36 478.551 720.102 476.153 727.297C473.744 734.524 470.194 741.483 469.252 749.149C467.521 763.248 467.91 777.633 467.91 791.8C467.91 801.573 467.248 811.622 468.15 821.368C469.499 835.942 474.397 850.811 479.268 864.546C483.416 876.243 488.118 887.882 493.117 899.242C498.38 911.198 497.454 919.381 505.153 929.829" stroke="#40231A" stroke-width="2" stroke-linecap="round"/>
<path d="M479.987 688.959C479.987 697.106 479.987 705.252 479.987 713.399C479.987 716.035 479.987 718.671 479.987 721.306C479.987 727.405 478.204 732.475 477.016 738.414C473.551 755.739 468.226 772.638 464.652 789.979C461.587 804.851 461.406 822.431 462.927 837.518C465.454 862.593 484.331 886.014 499.827 904.609" stroke="#40231A" stroke-width="2" stroke-linecap="round"/>
<path d="M479.987 690.684C479.987 704.949 479.987 719.214 479.987 733.479C479.987 739.693 479.987 745.906 479.987 752.12C479.987 762.988 477.573 774.04 476.105 784.803C473.258 805.685 472.223 826.617 472.223 847.677C472.223 857.705 471.891 867.806 472.415 877.82C473.17 892.267 477.502 905.036 482.575 918.411" stroke="#40231A" stroke-width="2" stroke-linecap="round"/>
<path d="M465.497 641.99C457.061 646.456 451.302 653.979 443.274 658.796C438.505 661.657 433.121 665.579 429.24 669.46C427.533 671.168 425.594 671.863 424.036 673.853C421.397 677.226 419.544 681.47 417.894 685.413C414.514 693.486 413.87 702.414 412.093 710.921C411.706 712.772 415.791 706.287 416.145 705.76C420.011 700.004 423.51 693.984 427.107 688.058" stroke="#40231A" stroke-width="2" stroke-linecap="round"/>
<path d="M482.389 669.631C475.444 664.579 466.105 662.684 457.819 660.801C447.761 658.515 431.783 656.104 422.33 661.355C406.906 669.924 405.545 688.773 404.841 704.949" stroke="#40231A" stroke-width="2" stroke-linecap="round"/>
<path d="M481.621 635.847C475.171 648.032 466.232 653.993 453.213 655.853C449.474 656.387 445.662 657.594 442.122 658.881C439.723 659.754 438.233 660.932 435.937 661.953C428.766 665.14 426.263 674.687 424.804 681.574C422.931 690.422 419.724 699.059 419.43 708.191C419.142 717.108 418.251 727.146 416.358 735.661" stroke="#40231A" stroke-width="2" stroke-linecap="round"/>
<path d="M929 1072C847.664 1112.11 776.428 1089.48 744 1076.11C770.049 1094.62 771.281 1096.4 776.428 1099.77C815.01 1102.38 836.673 1102.11 875.307 1101.82C885.611 1099.35 888.598 1097.71 929 1072Z" fill="#F3C0A4"/>
<path d="M743.32 572.283C751.148 576.241 757.504 577.704 767.152 580.143C766.08 584.412 764.956 588.681 764.956 592.697C763.4 596.214 762.828 596.826 761.865 599.29C761.141 601.144 761.865 600.804 758.602 600.804C752.206 599.681 756.432 599.916 752.206 599.681C745.176 599.29 737.135 597.9 730.184 596.214C724.271 594.779 719.138 592.819 713.957 591.134C705.615 588.423 696.557 585.719 688.028 583.955C684.663 583.259 682.462 581.973 678.173 580.753C677.124 580.661 675.493 580.143 671.457 579.071C667.989 577.704 671.457 579.071 663.73 576.434C660.781 575.236 658.877 574.655 652.445 572.826C646.012 570.996 645.528 570.755 635.292 569.167C623.5 567.337 618.676 565.508 603.667 565.508H579.01C569.585 565.508 564.002 567.337 553.06 571.599C544.876 571.599 523.67 585.506 530.479 580.341C536.807 575.542 534.311 572.408 544.732 562.368C555.152 552.329 569.152 542.585 582.652 541.329C596.152 540.072 600.813 540.77 609.652 541.329C615.848 541.72 623.802 542.829 630.152 542.829C635.285 543.795 654.24 547.097 659.652 548.329C662.001 548.329 700.238 560.829 702.652 560.829C705.568 560.829 726.025 566.982 728.81 567.887C733.7 569.477 738.799 569.997 743.32 572.283Z" fill="#93685A"/>
<ellipse cx="835.153" cy="890.329" rx="21" ry="15.5" fill="#FFD9BB"/>
<circle cx="576.402" cy="787.079" r="2.25" fill="#666666"/>
<circle cx="624.152" cy="542.829" r="3" fill="#666666"/>
<path d="M487.119 932.543C484.454 892.567 454.649 853.532 453.706 813C463.074 817.684 487.119 849.568 507.166 884.651C511.733 892.643 516.625 918.512 514.035 978.207C510.501 1015.31 503.825 1051.58 503.825 1089.58C503.825 1112.36 497.143 1134.26 497.143 1157.15V1213.95C497.143 1252.25 510.508 1289.35 510.508 1327.37C510.508 1369.54 524.767 1408.81 540.579 1447.1C548.709 1466.78 558.509 1484.68 565.638 1504.64C572 1531 588.5 1552 616.5 1581.5C616.5 1592.54 575.844 1548.07 566.567 1538.8C560.573 1532.8 554.411 1530.3 548.747 1523.02C535.77 1506.33 520.485 1490.94 506.424 1475.31C491.834 1459.1 484.719 1437.2 470.413 1421.11C454.678 1403.41 437 1374.85 437 1350.94V1205.78C437 1177.55 447.507 1150.88 450.365 1123.74C455.369 1076.2 490.46 1034.89 490.46 986.745C490.46 968.131 488.325 950.64 487.119 932.543Z" fill="#56352A"/>
<path d="M1187.12 1107.54C1184.45 1067.57 1154.65 1028.53 1153.71 988C1163.07 992.684 1187.12 1024.57 1207.17 1059.65C1211.73 1067.64 1216.63 1093.51 1214.03 1153.21C1210.5 1190.31 1203.83 1226.58 1203.83 1264.58C1203.83 1287.36 1197.14 1309.26 1197.14 1332.15V1388.95C1197.14 1427.25 1210.51 1464.35 1210.51 1502.37C1210.51 1544.54 1224.77 1583.81 1240.58 1622.1C1248.71 1641.78 1258.51 1659.68 1265.64 1679.64C1272 1706 1288.5 1727 1316.5 1756.5C1316.5 1767.54 1275.84 1723.07 1266.57 1713.8C1260.57 1707.8 1254.41 1705.3 1248.75 1698.02C1235.77 1681.33 1220.49 1665.94 1206.42 1650.31C1191.83 1634.1 1184.72 1612.2 1170.41 1596.11C1154.68 1578.41 1137 1549.85 1137 1525.94V1380.78C1137 1352.55 1147.51 1325.88 1150.37 1298.74C1155.37 1251.2 1190.46 1209.89 1190.46 1161.75C1190.46 1143.13 1188.33 1125.64 1187.12 1107.54Z" fill="#4B2D24"/>
<path d="M538.376 1084.17C543.221 1058.16 527.727 1027.35 533.947 1001.33C540.112 1006.18 552.544 1031.29 561.459 1057.64C563.489 1063.64 562.709 1081.1 550.59 1118.63C541.626 1141.57 530.471 1163.35 523.981 1187.57C520.091 1202.09 511.384 1214.71 507.475 1229.3L497.776 1265.5C491.236 1289.9 494.838 1316.21 488.346 1340.44C481.144 1367.32 485.04 1395.18 490.259 1422.73C492.942 1436.89 505.583 1480.86 507.475 1495C502.753 1530.31 497.827 1585.03 498.51 1627.37C501.741 1644.69 504.76 1663.49 507.475 1684C501.469 1674.72 498.93 1653.38 498.51 1627.37C467.143 1459.19 415.84 1430.79 429.668 1340.82L454.455 1248.31C459.276 1230.32 471.642 1215.42 478.402 1198.69C490.24 1169.39 523.383 1150.06 531.604 1119.37C534.783 1107.51 536.183 1095.94 538.376 1084.17Z" fill="#4B2D24"/>
<path d="M717 700.5C677 706.006 628.632 698.929 575.5 687C578.586 691.105 592.813 697.08 603.5 700.5C628.5 708.5 694.5 708.5 703.5 705.5C712.5 702.5 713.713 702.089 717 700.5Z" fill="#EEBDA2"/>
<path d="M945 705C985 710.506 1046.5 708.5 1096 692C1092.91 696.105 1070.47 706.711 1065 708.5C1021.26 718.363 978.5 715.5 969.5 712.5C960.5 709.5 948.287 706.589 945 705Z" fill="#EEBDA2"/>
<line x1="496.5" y1="845" x2="496.5" y2="1056" stroke="#EBD2A0" stroke-width="3"/>
<line x1="1192.5" y1="921" x2="1192.5" y2="1056" stroke="#EBD2A0" stroke-width="3"/>
<path d="M502.5 839C502.5 841.95 501.684 844.599 500.39 846.497C499.095 848.396 497.357 849.5 495.5 849.5C493.643 849.5 491.905 848.396 490.61 846.497C489.316 844.599 488.5 841.95 488.5 839C488.5 836.05 489.316 833.401 490.61 831.503C491.905 829.604 493.643 828.5 495.5 828.5C497.357 828.5 499.095 829.604 500.39 831.503C501.684 833.401 502.5 836.05 502.5 839Z" fill="#EBD2A0" stroke="#B79D69"/>
<path d="M1262 1023C1213.83 914.169 1180.22 830.676 1182 762.5C1172 824.5 1170.03 885.936 1190.5 921.5C1217.89 988.681 1236.86 981.716 1262 1023Z" fill="#56352A"/>
<path d="M531 847.5C510.589 807.891 502.447 781.94 507 714C799.28 744.87 916.009 738.322 1161 714C1191.08 749.113 1179.14 793.598 1161 847.5C1161 847.5 1119 961.5 1069 971C1019 980.5 880 821 832.5 821C785 821 646.5 979.5 610.5 955C574.5 930.5 554.812 918.075 531 847.5Z" fill="#FF0000" fill-opacity="0.02"/>
<path d="M576.5 686.5C577.904 683.688 582.211 675.71 585.648 671.425L587.935 672.437C584.423 673.759 579.14 682.791 576.5 686.5Z" fill="black"/>
<path d="M582.5 688.5C584.049 685.766 586.141 677.657 589.798 673.559L592.028 674.689C588.452 675.825 585.331 684.934 582.5 688.5Z" fill="black"/>
<path d="M588.734 689.268C589.611 685.736 591.62 680.131 595.277 676.032L597.311 676.962C593.735 678.098 591.09 685.11 588.734 689.268Z" fill="black"/>
<path d="M594.973 692.292C595.726 688.73 597.538 683.059 601.05 678.835L603.115 679.693C599.581 680.953 597.183 688.053 594.973 692.292Z" fill="black"/>
<path d="M602 693.334C602.753 689.773 603.538 685.893 607.05 681.669L609.114 682.527C605.58 683.787 604.209 689.095 602 693.334Z" fill="black"/>
<path d="M609.154 696.134C609.907 692.573 610.692 688.693 614.204 684.469L616.269 685.327C612.735 686.587 611.364 691.895 609.154 696.134Z" fill="black"/>
<path d="M616.872 698.921C617.122 695.289 617.359 691.338 620.249 686.666L622.413 687.229C619.089 688.968 618.47 694.416 616.872 698.921Z" fill="black"/>
<path d="M625 698.828C624.806 695.194 624.235 693.427 626.534 688.438L627.5 688.5C625.5 691 626.038 694.162 625 698.828Z" fill="black"/>
<path d="M631.5 698.64C631.306 695.005 630.235 694.738 632.534 689.749L634 690C632 691.5 632.537 693.974 631.5 698.64Z" fill="black"/>
<path d="M636 698.806C635.806 695.171 636.083 696.565 637.5 691.106L638.5 691.306C637.5 692.806 637.037 694.14 636 698.806Z" fill="black"/>
<path d="M641 699.5C641.5 696 641.5 695 642.306 692.806L643.306 693.006C642.306 694.506 642.037 694.834 641 699.5Z" fill="black"/>
<path d="M1089.14 696.5C1087.73 693.688 1083.43 685.71 1079.99 681.425L1077.7 682.437C1081.22 683.759 1086.5 692.791 1089.14 696.5Z" fill="black"/>
<path d="M1083.14 698.5C1081.59 695.766 1079.5 687.657 1075.84 683.559L1073.61 684.689C1077.19 685.825 1080.31 694.934 1083.14 698.5Z" fill="black"/>
<path d="M1076.9 699.268C1076.03 695.736 1074.02 690.131 1070.36 686.032L1068.33 686.962C1071.9 688.098 1074.55 695.11 1076.9 699.268Z" fill="black"/>
<path d="M1070.67 702.292C1069.91 698.73 1068.1 693.059 1064.59 688.835L1062.52 689.693C1066.06 690.953 1068.46 698.053 1070.67 702.292Z" fill="black"/>
<path d="M1063.64 703.334C1062.89 699.773 1062.1 695.893 1058.59 691.669L1056.52 692.527C1060.06 693.787 1061.43 699.095 1063.64 703.334Z" fill="black"/>
<path d="M1056.48 706.134C1055.73 702.573 1054.95 698.693 1051.43 694.469L1049.37 695.327C1052.9 696.587 1054.27 701.895 1056.48 706.134Z" fill="black"/>
<path d="M1048.77 708.921C1048.52 705.289 1048.28 701.338 1045.39 696.666L1043.23 697.229C1046.55 698.968 1047.17 704.416 1048.77 708.921Z" fill="black"/>
<path d="M1040.64 708.828C1040.83 705.194 1041.4 703.427 1039.1 698.438L1038.14 698.5C1040.14 701 1039.6 704.162 1040.64 708.828Z" fill="black"/>
<path d="M1034.14 708.64C1034.33 705.005 1035.4 704.738 1033.1 699.749L1031.64 700C1033.64 701.5 1033.1 703.974 1034.14 708.64Z" fill="black"/>
<path d="M579.484 1187.35C456.801 1203.2 453.426 1105.45 498.747 1051.53C470.985 1075.04 445.226 1105.28 453.033 1144.76C462.99 1195.11 529.242 1221.7 579.484 1187.35Z" fill="#EBD2A0" stroke="#B79D69" stroke-width="3"/>
<circle cx="495.5" cy="1051.5" r="6" fill="#EBD2A0" stroke="#B79D69" stroke-width="3"/>
<path d="M563 654C573.066 657.742 580.351 659.051 596 660L599.5 654C585.911 656.088 577.719 655.457 563 654Z" fill="#40231A"/>
<path d="M572.331 647.421C582.032 652.026 589.176 653.964 604.683 656.274L608.692 650.602C594.973 651.497 586.867 650.155 572.331 647.421Z" fill="#40231A"/>
<path d="M580.99 641.456C589.944 646.327 596.634 648.658 611.286 652.078L615.498 647.54C602.336 647.057 594.686 645.153 580.99 641.456Z" fill="#40231A"/>
<path d="M589.346 634C597.84 639.634 600.702 642.817 615 647.5L620 644C606.93 642.371 602.668 638.877 589.346 634Z" fill="#40231A"/>
<path d="M599.345 628.745C607.316 635.097 609.889 638.518 623.725 644.429L629.011 641.378C616.133 638.616 612.191 634.764 599.345 628.745Z" fill="#40231A"/>
<path d="M610.5 623.5C617.887 630.523 619.637 631.464 632.905 638.559L638.437 635.98C625.849 632.107 622 632 610.5 623.5Z" fill="#40231A"/>
<path d="M619.129 619C625.876 626.64 626.005 626.936 638.604 635.161L643.104 633.161C630.901 628.204 629.844 628.47 619.129 619Z" fill="#40231A"/>
<path d="M627.129 616C633.876 623.64 634.005 623.936 646.604 632.161L651.104 630.161C638.901 625.204 637.844 625.47 627.129 616Z" fill="#40231A"/>
<path d="M644.803 611.772C648.531 621.259 646.474 618.463 655.5 630.5L659.5 630C649.728 621.169 651.634 624.335 644.803 611.772Z" fill="#40231A"/>
<path d="M659.057 610.736C660.73 620.791 659.3 617.628 665.626 631.28L669.642 631.622C661.92 620.953 663.126 624.446 659.057 610.736Z" fill="#40231A"/>
<path d="M670.952 611C669.665 623.869 669.586 618.391 670.952 630.944L674 630.944C670.541 617.95 672.027 624.087 670.952 611Z" fill="#40231A"/>
<path d="M681.044 615C681.044 620.5 681.866 618.447 680.5 631L678.5 631.5C680.5 623 681.044 621.423 681.044 615Z" fill="#40231A"/>
<path d="M689.5 621C689 628 689.5 626.5 688.355 634L686.355 634.5C688.5 628.5 688.355 627.5 689.5 621Z" fill="#40231A"/>
<path d="M698 626.5C695.136 632.907 697.545 629.06 693.903 635.716L691.853 635.502C695.921 630.597 694.701 632.216 698 626.5Z" fill="#40231A"/>
<path d="M706.5 630.5C702.567 636.312 704 634.5 701.3 638.302L699.318 637.735C704.176 633.612 702.258 635.557 706.5 630.5Z" fill="#40231A"/>
<path d="M711.5 635.5C709 639 709.682 638.547 706.982 642.349L705 641.782C709.858 637.659 707.258 640.557 711.5 635.5Z" fill="#40231A"/>
<path d="M1110.22 659.264C1100.16 663.006 1092.87 664.314 1077.22 665.264L1073.72 659.264C1087.31 661.351 1095.5 660.721 1110.22 659.264Z" fill="black"/>
<path d="M1100.89 652.685C1091.19 657.29 1084.05 659.228 1068.54 661.538L1064.53 655.866C1078.25 656.761 1086.35 655.419 1100.89 652.685Z" fill="black"/>
<path d="M1092.23 646.719C1083.28 651.591 1076.59 653.922 1061.94 657.341L1057.72 652.804C1070.89 652.32 1078.54 650.417 1092.23 646.719Z" fill="black"/>
<path d="M1083.88 639.264C1075.38 644.897 1072.52 648.081 1058.22 652.764L1053.22 649.264C1066.29 647.635 1070.55 644.141 1083.88 639.264Z" fill="black"/>
<path d="M1073.88 634.008C1065.91 640.361 1063.33 643.781 1049.5 649.693L1044.21 646.642C1057.09 643.88 1061.03 640.028 1073.88 634.008Z" fill="black"/>
<path d="M1062.72 628.764C1055.33 635.787 1053.58 636.728 1040.32 643.823L1034.78 641.244C1047.37 637.37 1051.22 637.264 1062.72 628.764Z" fill="black"/>
<path d="M1054.09 624.264C1047.35 631.904 1047.22 632.2 1034.62 640.424L1030.12 638.424C1042.32 633.468 1043.38 633.734 1054.09 624.264Z" fill="black"/>
<path d="M1046.09 621.264C1039.35 628.904 1039.22 629.2 1026.62 637.424L1022.12 635.424C1034.32 630.468 1035.38 630.734 1046.09 621.264Z" fill="black"/>
<path d="M1028.42 617.035C1024.69 626.522 1026.75 623.726 1017.72 635.764L1013.72 635.264C1023.49 626.433 1021.59 629.599 1028.42 617.035Z" fill="black"/>
<path d="M1014.16 616C1012.49 626.055 1013.92 622.892 1007.6 636.543L1003.58 636.886C1011.3 626.216 1010.1 629.709 1014.16 616Z" fill="black"/>
<path d="M1002.27 616.264C1003.56 629.133 1003.64 623.655 1002.27 636.208L999.222 636.208C1002.68 623.213 1001.19 629.351 1002.27 616.264Z" fill="black"/>
<path d="M992.177 620.264C992.177 625.764 991.355 623.711 992.721 636.264L994.721 636.764C992.721 628.264 992.177 626.687 992.177 620.264Z" fill="black"/>
<path d="M983.721 626.264C984.221 633.264 983.721 631.764 984.867 639.264L986.867 639.764C984.721 633.764 984.867 632.764 983.721 626.264Z" fill="black"/>
<path d="M975.221 631.764C978.085 638.171 975.677 634.323 979.318 640.979L981.368 640.765C977.3 635.861 978.521 637.48 975.221 631.764Z" fill="black"/>
<path d="M966.721 635.764C970.654 641.576 969.221 639.764 971.921 643.566L973.903 642.999C969.045 638.875 970.963 640.82 966.721 635.764Z" fill="black"/>
<path d="M961.721 640.764C964.221 644.264 963.54 643.811 966.239 647.613L968.221 647.046C963.364 642.922 965.963 645.82 961.721 640.764Z" fill="black"/>
<path d="M1192.55 1159L1201.85 1101.15H1183.24L1192.55 1159Z" fill="#EBD2A0"/>
<path d="M1192.55 1043L1201.85 1100.85H1183.24L1192.55 1043Z" fill="#EBD2A0"/>
<path d="M1149 1101.29L1193.42 1091.86V1110.73L1149 1101.29Z" fill="#EBD2A0"/>
<path d="M1237.25 1101.29L1192.84 1091.86V1110.73L1237.25 1101.29Z" fill="#EBD2A0"/>
<path d="M1218.49 1074.23L1197.97 1106.73L1187.09 1095.47L1218.49 1074.23Z" fill="#EBD2A0"/>
<path d="M1166.6 1127.94L1198 1106.7L1187.12 1095.44L1166.6 1127.94Z" fill="#EBD2A0"/>
<path d="M1166.6 1074.23L1187.12 1106.73L1198 1095.47L1166.6 1074.23Z" fill="#EBD2A0"/>
<path d="M1218.49 1127.94L1187.09 1106.7L1197.97 1095.44L1218.49 1127.94Z" fill="#EBD2A0"/>
<path d="M1200.5 1101C1200.5 1105.72 1196.89 1109.5 1192.5 1109.5C1188.11 1109.5 1184.5 1105.72 1184.5 1101C1184.5 1096.28 1188.11 1092.5 1192.5 1092.5C1196.89 1092.5 1200.5 1096.28 1200.5 1101Z" fill="#FF8888" stroke="#BDBDBD"/>
<circle cx="1192.5" cy="1084.5" r="2.5" fill="white"/>
<circle cx="1192.5" cy="1073" r="1" fill="white"/>
<circle r="2.5" transform="matrix(1 0 0 -1 1192.5 1117.5)" fill="white"/>
<circle r="1" transform="matrix(1 0 0 -1 1192.5 1129)" fill="white"/>
<circle cx="1207.5" cy="1101.5" r="2.5" transform="rotate(-90 1207.5 1101.5)" fill="white"/>
<circle cx="1218" cy="1101.5" r="1" transform="rotate(-90 1218 1101.5)" fill="white"/>
<circle r="2.5" transform="matrix(0 -1 -1 0 1176.5 1101.5)" fill="white"/>
<circle r="1" transform="matrix(0 -1 -1 0 1166 1101.5)" fill="white"/>
<circle r="0.5" transform="matrix(0 -1 -1 0 1180.5 1088.5)" fill="white"/>
<circle r="0.5" transform="matrix(0 -1 -1 0 1176.5 1084.5)" fill="white"/>
<circle r="0.5" transform="matrix(0.707107 -0.707107 -0.707107 -0.707107 1203.5 1089.5)" fill="white"/>
<circle r="0.5" transform="matrix(0.707107 -0.707107 -0.707107 -0.707107 1203.71 1112.71)" fill="white"/>
<circle r="0.5" transform="matrix(0.707107 -0.707107 -0.707107 -0.707107 1180.71 1112.71)" fill="white"/>
<circle r="0.5" transform="matrix(0.707107 -0.707107 -0.707107 -0.707107 1207.71 1116.71)" fill="white"/>
<circle r="0.5" transform="matrix(0.707107 -0.707107 -0.707107 -0.707107 1176.71 1117.71)" fill="white"/>
<circle r="0.5" transform="matrix(0.707107 -0.707107 -0.707107 -0.707107 1207.71 1085.71)" fill="white"/>
<circle cx="463" cy="1123" r="3.5" fill="#9ECBFF" stroke="#7BA0FF"/>
<circle r="1.5" transform="matrix(1 0 0 -1 465 1109)" fill="#FF9E9E" stroke="#FF7B7B"/>
<circle r="1.5" transform="matrix(1 0 0 -1 514 1192)" fill="#FF9E9E" stroke="#FF7B7B"/>
<circle r="1.5" transform="matrix(1 0 0 -1 468 1098)" fill="#9ECBFF" stroke="#7BA0FF"/>
<circle r="1.5" transform="matrix(1 0 0 -1 528 1195)" fill="#9ECBFF" stroke="#7BA0FF"/>
<circle r="0.5" transform="matrix(1 0 0 -1 471 1089)" fill="#FF9E9E" stroke="#FF7B7B"/>
<circle r="0.5" transform="matrix(1 0 0 -1 542 1195)" fill="#FF9E9E" stroke="#FF7B7B"/>
<circle r="0.5" transform="matrix(1 0 0 -1 474.5 1082.5)" fill="#FF9E9E"/>
<circle r="0.5" transform="matrix(1 0 0 -1 552.5 1194.5)" fill="#FF9E9E"/>
<circle cx="463" cy="1142" r="3.5" fill="#FF9E9E" stroke="#FF7B7B"/>
<circle cx="470" cy="1161" r="3.5" fill="#9ECBFF" stroke="#7BA0FF"/>
<circle cx="483" cy="1176" r="3.5" fill="#FF9E9E" stroke="#FF7B7B"/>
<circle cx="499" cy="1186" r="3.5" fill="#9ECBFF" stroke="#7BA0FF"/>
<circle cx="848" cy="1644" r="31" fill="#EBD2A0"/>
<circle cx="848" cy="1644" r="26.4412" fill="#989898"/>
<circle cx="848" cy="1644.3" r="22.1863" fill="#B4BBFF"/>
<path d="M853.471 1658.89H842.53L847.848 1666.49L853.471 1658.89Z" fill="#99A2F1"/>
<path d="M848.152 1627.89L858.408 1631.63L863.865 1641.08L861.97 1651.83L853.609 1658.84H842.695L834.334 1651.83L832.438 1641.08L837.896 1631.63L848.152 1627.89Z" fill="#5B6CFD"/>
<path d="M848.152 1627.89L837.667 1631.69L839.946 1623.49L848.152 1627.89Z" fill="#99A2F1"/>
<path d="M848.152 1627.89L858.941 1631.84L856.662 1623.64L848.152 1627.89Z" fill="#99A2F1"/>
<path d="M853.623 1658.89L861.98 1651.9L863.5 1660.11L853.623 1658.89Z" fill="#99A2F1"/>
<path d="M842.681 1658.89L834.324 1651.9L832.804 1660.11L842.681 1658.89Z" fill="#99A2F1"/>
<path d="M834.324 1651.75L832.5 1640.96L826.118 1647.5L834.324 1651.75Z" fill="#99A2F1"/>
<path d="M861.98 1651.75L863.804 1640.96L870.186 1647.5L861.98 1651.75Z" fill="#99A2F1"/>
<path d="M832.5 1640.96L837.97 1631.54L829.157 1632.6L832.5 1640.96Z" fill="#99A2F1"/>
<path d="M863.804 1640.96L858.333 1631.54L867.147 1632.6L863.804 1640.96Z" fill="#99A2F1"/>
<path d="M719.292 133.858C713.227 137.468 707.242 141.188 701.29 144.937C647.673 184.86 532.688 310.238 507.5 349C471.5 397.561 476.262 423.504 468.999 460.5C455.203 479.917 446.559 504.74 438.33 527.37C436.98 531.082 435.405 542.115 432.785 544.211C429.081 547.174 411.186 585.313 408 588.5C406.418 590.081 419.025 567 419.024 551.605C423.144 541.599 425.704 519.328 431.758 511.761C439.794 501.715 442.645 477.658 445.519 464.728C449.33 447.576 453.669 429.645 458.868 412.561C474.561 361 497.802 310.264 536.092 272.696C559.83 249.406 584.69 227.456 608.386 204.099C618.204 194.421 625.993 187.55 637.961 181.918C660.032 171.532 680.462 158.055 701.29 144.937C708.536 139.542 714.661 135.707 719.292 133.858Z" fill="#56352A"/>
<path d="M1307.02 753.655C1298.43 725.974 1285.12 698.571 1279 670C1289.06 690.128 1318.83 738.293 1333.04 770.866C1338.67 783.793 1343.84 784.515 1343.84 796.082V819.498V866.328C1343.84 879.058 1333.78 895.17 1333.04 907.755C1331.52 933.563 1329.43 960.164 1329.43 987.007C1329.43 1024.52 1334.93 1057.4 1345.64 1091.68C1354.69 1120.62 1358.25 1152.3 1358.25 1183.34V1231.29C1358.25 1242.77 1351.33 1268.25 1346.64 1278.8C1341.12 1291.23 1333.04 1313.95 1333.04 1327.43C1323.06 1350.44 1310.05 1379.58 1306.56 1391.79C1295.19 1431.61 1300.61 1445.43 1300.61 1487.73C1300.61 1522.77 1306.57 1554.38 1307.82 1589.4C1308.03 1595.2 1308.9 1606.66 1309.74 1615.42C1310.6 1618.34 1311.42 1621.21 1311.42 1624.62C1311.42 1630.62 1310.6 1624.47 1309.74 1615.42C1308.8 1612.23 1307.82 1608.96 1307.82 1604.81C1307.82 1596.11 1298.35 1565.79 1295.56 1548.29C1293.41 1534.79 1293.41 1528.75 1293.41 1516.55C1293.41 1493.03 1281.87 1469.86 1282.4 1446.91C1283.16 1414.27 1293.33 1377.08 1300.53 1350.75L1300.61 1350.44C1333.04 1292.29 1345.64 1214.79 1323.56 1174.29C1320.09 1158.67 1302.33 1117.25 1293.41 1103.08C1280.12 1081.97 1286.2 1046.85 1286.2 1023.03C1286.2 964.113 1315.02 908.053 1315.02 848.717C1315.02 816.743 1316.63 784.62 1307.02 753.655Z" fill="#56352A"/>
</g>
<defs>
<filter id="filter0_d_13_242" x="0" y="0" width="1764" height="1811.2" filterUnits="userSpaceOnUse" color-interpolation-filters="sRGB">
<feFlood flood-opacity="0" result="BackgroundImageFix"/>
<feColorMatrix in="SourceAlpha" type="matrix" values="0 0 0 0 0 0 0 0 0 0 0 0 0 0 0 0 0 0 127 0" result="hardAlpha"/>
<feOffset dy="4"/>
<feGaussianBlur stdDeviation="2"/>
<feComposite in2="hardAlpha" operator="out"/>
<feColorMatrix type="matrix" values="0 0 0 0 0 0 0 0 0 0 0 0 0 0 0 0 0 0 0.25 0"/>
<feBlend mode="normal" in2="BackgroundImageFix" result="effect1_dropShadow_13_242"/>
<feBlend mode="normal" in="SourceGraphic" in2="effect1_dropShadow_13_242" result="shape"/>
</filter>
</defs>
</svg>
