<svg width="869" height="803" viewBox="0 0 869 803" fill="none" xmlns="http://www.w3.org/2000/svg">
<g filter="url(#filter0_d_8_7)">
<path d="M384.689 448.757L711.302 420.182M386.316 467.357L712.929 438.782M388.008 486.7L714.622 458.125" stroke="#817F7F" stroke-width="5"/>
<path d="M248.981 442.637C246.23 442.878 244.195 445.303 244.436 448.054L246.117 467.276C246.259 468.894 247.178 470.343 248.582 471.16L279.916 489.41L319.473 508.815L356.812 524.29L398.015 536.804L440.413 545.839L478.087 552.289L518.039 554.791L549.417 553.545L588.412 549.384L618.436 543.383L646.099 536.09L676.566 524.429L718.448 506.145L761.879 479.855L799.697 453.681L815.955 442.735C816.208 442.565 816.444 442.372 816.662 442.159L839.851 419.437C840.919 418.39 841.462 416.92 841.332 415.43L839.631 395.981C839.39 393.23 836.965 391.195 834.214 391.436L248.981 442.637Z" fill="#DADADA"/>
<path d="M363.783 432.593L370.78 512.573L387.962 520.44L409.51 526.802L428.258 531.159L450.29 534.479L474.488 536.86L496.729 538.288L520.764 538.809L544.572 536.726L569.868 534.513L594.936 529.696L621.055 524.038L647.448 517.23L669.749 510.781L686.098 504.853L703.159 498.487L719.443 491.814L730.924 485.937L738.815 481.873L731.688 400.406L363.783 432.593Z" fill="white"/>
<path d="M378.097 433.398L384.25 503.717L396.232 509.176L409.625 513.789L424.061 517.587L438.433 520.668L453.848 522.934L470.736 525.072L488.267 526.069L507.607 526.546L525.475 527.152L542.049 525.702L557.518 524.348L572.987 522.995L589.437 520.122L608.401 516.294L623.65 512.429L641.447 507.993L657.893 503.799L675.398 498.222L688.022 493.11L705.091 485.806L719.486 479.449L713.051 405.901L378.097 433.398Z" fill="#5A5A5A"/>
<path d="M378.097 433.398L377.893 430.907L375.388 431.112L375.607 433.616L378.097 433.398ZM384.25 503.717L381.759 503.935L381.886 505.388L383.213 505.992L384.25 503.717ZM396.232 509.176L395.196 511.451L395.305 511.501L395.418 511.54L396.232 509.176ZM409.625 513.789L408.811 516.153L408.899 516.183L408.989 516.207L409.625 513.789ZM424.061 517.587L423.425 520.005L423.48 520.019L423.537 520.032L424.061 517.587ZM438.433 520.668L437.909 523.112L437.989 523.129L438.07 523.141L438.433 520.668ZM453.848 522.934L453.484 525.408L453.509 525.411L453.534 525.415L453.848 522.934ZM470.736 525.072L470.422 527.552L470.508 527.563L470.594 527.568L470.736 525.072ZM488.267 526.069L488.125 528.565L488.165 528.567L488.205 528.568L488.267 526.069ZM507.607 526.546L507.692 524.047L507.68 524.047L507.669 524.047L507.607 526.546ZM525.475 527.152L525.39 529.65L525.541 529.656L525.693 529.642L525.475 527.152ZM572.987 522.995L573.205 525.486L573.312 525.476L573.417 525.458L572.987 522.995ZM589.437 520.122L589.867 522.585L589.899 522.579L589.931 522.573L589.437 520.122ZM608.401 516.294L608.895 518.745L608.955 518.733L609.015 518.718L608.401 516.294ZM623.65 512.429L623.045 510.004L623.036 510.006L623.65 512.429ZM641.447 507.993L642.052 510.418L642.065 510.415L641.447 507.993ZM657.893 503.799L658.511 506.221L658.582 506.203L658.652 506.181L657.893 503.799ZM675.398 498.222L676.156 500.604L676.247 500.575L676.336 500.539L675.398 498.222ZM688.022 493.11L688.96 495.427L688.983 495.418L689.005 495.408L688.022 493.11ZM705.091 485.806L706.075 488.104L706.088 488.099L706.101 488.093L705.091 485.806ZM719.486 479.449L720.496 481.736L722.133 481.014L721.977 479.231L719.486 479.449ZM713.051 405.901L715.542 405.683L715.325 403.206L712.847 403.41L713.051 405.901ZM375.607 433.616L381.759 503.935L386.74 503.499L380.588 433.18L375.607 433.616ZM383.213 505.992L395.196 511.451L397.269 506.901L385.286 501.442L383.213 505.992ZM395.418 511.54L408.811 516.153L410.44 511.425L397.046 506.813L395.418 511.54ZM408.989 516.207L423.425 520.005L424.697 515.169L410.262 511.371L408.989 516.207ZM423.537 520.032L437.909 523.112L438.957 518.223L424.585 515.143L423.537 520.032ZM438.07 523.141L453.484 525.408L454.212 520.461L438.797 518.194L438.07 523.141ZM453.534 525.415L470.422 527.552L471.05 522.592L454.162 520.454L453.534 525.415ZM470.594 527.568L488.125 528.565L488.409 523.573L470.878 522.576L470.594 527.568ZM488.205 528.568L507.546 529.045L507.669 524.047L488.328 523.57L488.205 528.568ZM507.523 529.045L525.39 529.65L525.559 524.653L507.692 524.047L507.523 529.045ZM525.693 529.642L542.267 528.192L541.831 523.211L525.257 524.661L525.693 529.642ZM542.267 528.192L557.736 526.839L557.3 521.858L541.831 523.211L542.267 528.192ZM557.736 526.839L573.205 525.486L572.769 520.505L557.3 521.858L557.736 526.839ZM573.417 525.458L589.867 522.585L589.007 517.66L572.557 520.532L573.417 525.458ZM589.931 522.573L608.895 518.745L607.906 513.844L588.942 517.672L589.931 522.573ZM609.015 518.718L624.264 514.853L623.036 510.006L607.787 513.871L609.015 518.718ZM624.255 514.855L642.052 510.418L640.843 505.567L623.045 510.004L624.255 514.855ZM642.065 510.415L658.511 506.221L657.275 501.376L640.83 505.57L642.065 510.415ZM658.652 506.181L676.156 500.604L674.639 495.84L657.134 501.417L658.652 506.181ZM676.336 500.539L688.96 495.427L687.083 490.793L674.459 495.905L676.336 500.539ZM689.005 495.408L706.075 488.104L704.108 483.507L687.038 490.811L689.005 495.408ZM706.101 488.093L720.496 481.736L718.476 477.162L704.081 483.519L706.101 488.093ZM721.977 479.231L715.542 405.683L710.561 406.119L716.996 479.667L721.977 479.231ZM712.847 403.41L377.893 430.907L378.302 435.89L713.256 408.393L712.847 403.41Z" fill="#5A5A5A"/>
<path d="M399.56 430.213L407.013 515.402M429.73 427.573L438.094 523.176M460.287 424.9L469.235 527.175M492.391 422.091L501.731 528.845M522.561 419.451L532.13 528.818M553.505 416.744L558.208 470.495L563.073 526.111M583.288 414.138L592.694 521.639M609.591 411.837L618.702 515.979M635.506 409.57L644.225 509.232M663.356 407.133L671.66 502.059M691.205 404.697L698.723 490.63" stroke="white" stroke-width="9"/>
<path d="M371.911 448.376L727.168 417.295M373.897 471.067L723.945 440.442M375.784 492.643L725.833 462.018M391.031 512.675L722.108 483.71M454.573 527.733L649.127 510.711" stroke="white" stroke-width="8"/>
<path d="M451.236 763.801L432.489 549.531L432.229 546.555L442.905 548.62L450.88 549.796L460.036 551.619L469.903 553.005L479.026 554.456L487.373 555.6L495.719 556.744L506.427 679.131L631.418 668.195L620.548 543.949L626.337 541.568L632.531 539.527L638.417 538.262L645.355 536.156L651.921 534.082L657.743 532.073L665.359 529.158L674.431 525.74L684.248 522.257L703.449 741.735L451.236 763.801Z" fill="#DADADA"/>
<path d="M438.393 620.985L499.746 615.617L494.31 553.493L431.786 545.469L438.393 620.985Z" fill="#AAAAAA"/>
<path d="M690.952 598.888L626.224 604.551L620.87 543.346L684.526 522.174L690.952 598.888Z" fill="#AAAAAA"/>
<path d="M446.555 568.917L482.639 565.76M448.02 585.657L484.104 582.5M449.582 603.513L485.666 600.356" stroke="#5A5A5A" stroke-width="5"/>
<path d="M636.613 551.914L672.697 548.757M638.078 568.654L674.161 565.497M639.64 586.51L675.724 583.353" stroke="#5A5A5A" stroke-width="5"/>
<path d="M492.497 553.242L503.598 680.128L631.855 668.907L620.754 542.021L607.939 545.028L597.731 547.053L585.647 549.619L573.432 550.687L561.981 551.689L550.911 552.658L542.513 553.392L532.207 554.294L521.388 553.732L507.166 553.845L492.497 553.242Z" fill="#CEE6EE"/>
</g>
<g filter="url(#filter1_d_8_7)">
<path d="M73.6696 666.275L96.4906 536.851L216.893 465.779L252.248 593.229L225.629 782.035L20.7068 745.902L73.6696 666.275Z" fill="#4AC4AD"/>
<rect x="149.078" y="36.7953" width="17.5228" height="8.7614" transform="rotate(10 149.078 36.7953)" fill="#1F6763"/>
<path d="M216.256 217.119L177.779 220.899C171.793 259.715 160.718 278.46 145.31 313.592L197.619 322.816L216.256 217.119Z" fill="#6CBFAF"/>
<path d="M215.177 216.929L250.041 233.641C242.39 272.163 246.385 293.565 248.849 331.849L196.54 322.626L215.177 216.929Z" fill="#5DB7A5"/>
<path d="M145.206 27.2161C145.788 32.2103 146.677 34.3535 148.982 37.3345L166.239 40.3773L174.2 36.2208C180.312 23.5722 174.77 23.5323 182.127 7.03643C179.292 10.9119 177.614 12.8532 173.69 13.8893C175.502 10.9583 175.413 9.7962 174.736 7.95737C173.647 11.0014 172.456 12.4723 169.63 14.8415C169.083 12.754 168.548 11.3706 166.901 8.24395C164.445 13.3613 162.546 15.7346 157.354 18.2374C157.03 14.9432 155.979 13.7113 153.452 11.9889C153.997 14.6637 153.649 15.7573 152.501 17.3816C151.672 18.9351 151.863 19.4018 148.853 22.2988C145.844 25.1959 145.206 27.2161 145.206 27.2161Z" fill="#FE6635"/>
<path d="M227.638 145.174L223.328 202.241L212.542 200.339L227.638 145.174Z" fill="#4AC4AD"/>
<path d="M268.355 173.924L219.882 196.549L225.358 206.034L268.355 173.924Z" fill="#4AC4AD"/>
<path d="M286.711 205.421L222.095 206.415L223.996 217.2L286.711 205.421Z" fill="#4AC4AD"/>
<path d="M291.393 232.476L242.719 218.142L240.817 228.927L291.393 232.476Z" fill="#4AC4AD"/>
<path d="M180.994 158.52L218.805 196.359L210.415 203.399L180.994 158.52Z" fill="#4AC4AD"/>
<path d="M152.972 181.839L213.352 204.873L207.876 214.358L152.972 181.839Z" fill="#4AC4AD"/>
<path d="M139.319 205.662L189.961 208.839L188.059 219.624L139.319 205.662Z" fill="#4AC4AD"/>
<path d="M141.085 44.2825L171.284 49.6074L174.775 61.3437L133.251 54.0219L141.085 44.2825Z" fill="#6CE0CB"/>
<path d="M136.819 65.7717L167.41 71.1658L174.775 61.3436L132.712 53.9268L136.819 65.7717Z" fill="#48C4AC"/>
<path d="M145.457 71.7431L158.007 73.956L161.009 70.0371L143.753 66.9943L145.457 71.7431Z" fill="#1F6763"/>
<path d="M142.273 81.9577L147.7 88.8201L150.632 84.7434C144.556 78.4228 142.947 68.411 141.075 69.9338C138.456 72.063 138.814 75.0802 142.273 81.9577Z" fill="#05ADA0"/>
<path d="M138.973 110.635C136.616 105.98 135.558 103.083 136.22 94.5802L161.415 97.3541C165.264 96.3649 155.75 112.48 155.995 128.093L141.25 129.385L138.973 110.635Z" fill="#05ADA0"/>
<path d="M129.507 270.771L141.477 127.201L155.974 126.977L161.033 240.188L129.507 270.771Z" fill="#05ADA0"/>
<rect x="146.228" y="71.879" width="10.9517" height="62.425" transform="rotate(10 146.228 71.879)" fill="#1F6763"/>
<path d="M141.226 91.2716L138.531 91.7382C135.855 93.3036 135.494 95.0038 137.642 95.6267C143.924 94.7625 147.855 97.181 148.007 95.4985C148.218 93.1455 146.488 92.1177 141.226 91.2716Z" fill="#05ADA0"/>
<path d="M142.949 82.4381L139.855 83.5468C137.016 85.9536 136.948 88.0425 139.625 88.3376C146.885 86.0179 152.055 88.0727 151.879 86.0479C151.632 83.2161 149.364 82.3552 142.949 82.4381Z" fill="#05ADA0"/>
<path d="M142.254 86.8795L138.798 87.304C135.445 89.1802 135.098 91.3984 137.924 92.3732C145.996 91.6787 151.258 95.15 151.335 92.9401C151.442 89.8495 149.128 88.37 142.254 86.8795Z" fill="#05ADA0"/>
<path d="M153.495 93.7327L151.878 102.9L161.426 102.36L162.282 97.5068C157.016 92.6864 154.219 79.7317 153.547 81.1843C150.929 83.3135 150.036 86.8553 153.495 93.7327Z" fill="#05ADA0"/>
<path d="M105.241 275.945L132.357 235.688L129.507 270.771L161.128 239.649L164.43 261.916L115.714 311.154L104.832 300.339L105.241 275.945Z" fill="#6CE0CB"/>
<path d="M124.504 333.833L123.167 303.572L164.43 261.916L169.127 279.426L124.504 333.833Z" fill="#4AC4AD"/>
<path d="M176.995 285.261L169.127 279.426L109.882 347.38L129.429 394.197L176.995 285.261Z" fill="#6CE0CB"/>
<path d="M252.05 307.392C246.371 304.908 234.793 304.348 232.636 303.968L127.998 373.927L93.4998 471.823L93.0688 565.717L198.309 498.644L165.655 630.227L253.264 600.08L271.125 385.263L252.05 307.392Z" fill="#6CE0CB"/>
<path d="M93.69 470.745L251.51 307.297L93.8502 482.45L93.69 470.745Z" fill="#4AC4AD"/>
<path d="M233.175 304.064L176.456 285.166L124.669 383.349L233.175 304.064Z" fill="#4AC4AD"/>
<path d="M221.946 301.528L220.645 296.294L255.666 305.805L252.273 312.435L221.946 301.528Z" fill="#0B7D75"/>
<path d="M196.681 262.043L186.956 288.686L221.502 300.893L222.034 266.513L196.681 262.043Z" fill="#05ADA0"/>
<path d="M221.409 189.671C184.28 182.893 172.845 212.77 178.439 216.567L249.462 229.091C260.988 227.791 258.538 196.45 221.409 189.671Z" fill="#6CE0CB"/>
<path d="M220.838 192.907C183.712 186.114 171.925 217.987 177.488 221.96L248.511 234.483C260.074 232.975 257.965 199.7 220.838 192.907Z" fill="#1C806C"/>
<line x1="205.345" y1="195.513" x2="206.51" y2="201.763" stroke="#1F6763" stroke-width="3" stroke-linecap="round"/>
<line x1="1.5" y1="-1.5" x2="7.85718" y2="-1.5" transform="matrix(-0.508381 0.861132 0.861132 0.508381 235.952 200.019)" stroke="#1F6763" stroke-width="3" stroke-linecap="round"/>
<line x1="1.5" y1="-1.5" x2="7.85718" y2="-1.5" transform="matrix(-0.642788 0.766044 0.766044 0.642788 246.416 207.758)" stroke="#1F6763" stroke-width="3" stroke-linecap="round"/>
<line x1="193.782" y1="198.701" x2="195.957" y2="204.675" stroke="#1F6763" stroke-width="3" stroke-linecap="round"/>
<line x1="184.686" y1="206.561" x2="186.96" y2="209.85" stroke="#1F6763" stroke-width="3" stroke-linecap="round"/>
<path d="M180.132 213.862L182.023 215.779" stroke="#1F6763" stroke-width="3" stroke-linecap="round"/>
<path d="M251.32 226.414L248.888 227.569" stroke="#1F6763" stroke-width="3" stroke-linecap="round"/>
<line x1="1.5" y1="-1.5" x2="5.49848" y2="-1.5" transform="matrix(-0.815767 0.57838 0.57838 0.815767 251.077 218.255)" stroke="#1F6763" stroke-width="3" stroke-linecap="round"/>
<line x1="219.034" y1="202.185" x2="220.415" y2="194.354" stroke="#1F6763" stroke-width="3" stroke-linecap="round"/>
<path d="M230.745 271.116L241.204 233.303L217.682 209.03L205.131 280.214L230.745 271.116Z" fill="#6CE0CB"/>
<path d="M183.241 262.74L186.199 223.604L217.682 209.03L205.131 280.214L183.241 262.74Z" fill="#6CE0CB"/>
<path d="M216.143 217.76C207.437 224.688 195.353 226.611 180.911 222.057C188.85 209.695 201.2 204.746 218.253 205.795L216.143 217.76Z" fill="#2BB69C"/>
<path d="M216.143 217.76C221.955 227.247 232.652 233.188 247.78 233.848C244.549 219.517 234.636 210.642 218.253 205.795L216.143 217.76Z" fill="#3CC9AE"/>
<path d="M268.883 461.046L344.843 377.133L313.149 339.295L270.236 383.995L265.138 447.596L268.883 461.046Z" fill="#4AC4AD"/>
<path d="M283.05 371.242L266.269 365.503L270.776 384.09L283.05 371.242Z" fill="#16A097"/>
<path d="M277.283 454.404C273.894 454.594 272.146 454.202 269.194 452.977C272.048 448.241 273.577 446.498 276.108 445.3C275.512 442.843 275.198 441.436 275.916 436.926C276.259 433.611 276.772 432.072 274.931 426.743C275.613 423.26 278.357 426.236 281.086 432.833C281.466 430.677 284.258 430.613 275.787 421.89C275.279 418.465 276.28 416.729 280.862 418.337C280.664 414.291 281.1 412.922 284.319 414.498C291.552 420.778 296.12 423.252 295.804 428.2C298.372 422.38 297.334 418.807 292.535 412.054C291.52 405.964 292.331 405.16 295.198 406.408C302.305 416.558 308.46 422.647 306.811 425.693C300.088 435.332 295.613 440.885 286.069 448.724C282.931 451.992 280.956 453.056 277.283 454.404Z" fill="#05ADA0"/>
<path d="M261.148 498.604L265.423 445.978L269.326 452.227L293.179 443.088L281.258 485.469L274.247 484.233L261.148 498.604Z" fill="#0B7D75"/>
<path d="M112.307 674.2L118.697 549.663L198.754 499.279L165.465 631.306L236.643 606.046L211.608 779.563L70.3195 754.65L112.307 674.2Z" fill="#289984"/>
<path d="M173.465 680.536L183.164 625.53L229.062 608.046L187.975 774.84L123.802 763.525L173.465 680.536Z" fill="#20816F"/>
</g>
<defs>
<filter id="filter0_d_8_7" x="244.416" y="391.416" width="616.935" height="392.385" filterUnits="userSpaceOnUse" color-interpolation-filters="sRGB">
<feFlood flood-opacity="0" result="BackgroundImageFix"/>
<feColorMatrix in="SourceAlpha" type="matrix" values="0 0 0 0 0 0 0 0 0 0 0 0 0 0 0 0 0 0 127 0" result="hardAlpha"/>
<feOffset dx="10" dy="10"/>
<feGaussianBlur stdDeviation="5"/>
<feComposite in2="hardAlpha" operator="out"/>
<feColorMatrix type="matrix" values="0 0 0 0 0 0 0 0 0 0 0 0 0 0 0 0 0 0 0.25 0"/>
<feBlend mode="normal" in2="BackgroundImageFix" result="effect1_dropShadow_8_7"/>
<feBlend mode="normal" in="SourceGraphic" in2="effect1_dropShadow_8_7" result="shape"/>
</filter>
<filter id="filter1_d_8_7" x="0.70681" y="7.03644" width="344.136" height="794.999" filterUnits="userSpaceOnUse" color-interpolation-filters="sRGB">
<feFlood flood-opacity="0" result="BackgroundImageFix"/>
<feColorMatrix in="SourceAlpha" type="matrix" values="0 0 0 0 0 0 0 0 0 0 0 0 0 0 0 0 0 0 127 0" result="hardAlpha"/>
<feOffset dx="-10" dy="10"/>
<feGaussianBlur stdDeviation="5"/>
<feComposite in2="hardAlpha" operator="out"/>
<feColorMatrix type="matrix" values="0 0 0 0 0 0 0 0 0 0 0 0 0 0 0 0 0 0 0.25 0"/>
<feBlend mode="normal" in2="BackgroundImageFix" result="effect1_dropShadow_8_7"/>
<feBlend mode="normal" in="SourceGraphic" in2="effect1_dropShadow_8_7" result="shape"/>
</filter>
</defs>
</svg>
