<svg width="701" height="612" viewBox="0 0 701 612" fill="none" xmlns="http://www.w3.org/2000/svg">
<g filter="url(#filter0_d_221_7)">
<path d="M0 15C0 6.71573 6.71573 0 15 0L665.116 0C673.4 0 680.116 6.71573 680.116 15V425.742H0L0 15Z" fill="black"/>
<path d="M-6.10352e-05 425.742H680.116V480.36C680.116 488.645 673.4 495.36 665.116 495.36H15C6.71569 495.36 -6.10352e-05 488.645 -6.10352e-05 480.36L-6.10352e-05 425.742Z" fill="#E6E6E6"/>
<rect x="33.4703" y="36.1479" width="613.176" height="353.446" fill="#A6CEC7"/>
<path d="M282.596 495.36H395.28L406.999 570.333H271.779L282.596 495.36Z" fill="#D2D1D1"/>
<rect x="211.532" y="558.284" width="253.035" height="22.7598" rx="11.3799" fill="#E6E6E6"/>
<path d="M282.489 495.36H394.949L397.627 510.087H280.481L282.489 495.36Z" fill="#C4C4C4"/>
</g>
<g filter="url(#filter1_d_221_7)">
<rect x="84" y="139" width="513" height="175" rx="15" fill="white"/>
</g>
<g filter="url(#filter2_d_221_7)">
<path d="M84 154C84 145.716 90.7157 139 99 139H582C590.284 139 597 145.716 597 154V181H84V154Z" fill="#1743B6"/>
</g>
<path d="M116.072 203.805V223H112.46V203.805H116.072ZM122.031 203.805V206.666H106.567V203.805H122.031ZM127.595 202.75V223H124.101V202.75H127.595ZM127.041 215.354H126.013C126.013 214.36 126.145 213.446 126.408 212.611C126.672 211.776 127.045 211.051 127.529 210.436C128.012 209.812 128.588 209.329 129.256 208.986C129.933 208.643 130.68 208.472 131.497 208.472C132.2 208.472 132.837 208.573 133.409 208.775C133.989 208.968 134.485 209.28 134.898 209.711C135.312 210.142 135.628 210.704 135.848 211.398C136.076 212.084 136.19 212.919 136.19 213.903V223H132.684V213.877C132.684 213.218 132.587 212.699 132.394 212.321C132.2 211.935 131.923 211.658 131.563 211.491C131.211 211.324 130.776 211.24 130.258 211.24C129.695 211.24 129.212 211.35 128.808 211.57C128.403 211.781 128.069 212.075 127.806 212.453C127.551 212.831 127.357 213.266 127.226 213.758C127.103 214.25 127.041 214.782 127.041 215.354ZM147.12 219.968V213.389C147.12 212.906 147.036 212.488 146.869 212.137C146.702 211.785 146.447 211.513 146.104 211.319C145.762 211.126 145.327 211.029 144.799 211.029C144.333 211.029 143.925 211.108 143.573 211.267C143.23 211.425 142.967 211.649 142.782 211.939C142.598 212.22 142.505 212.545 142.505 212.915H139.012C139.012 212.326 139.152 211.768 139.434 211.24C139.715 210.704 140.115 210.229 140.633 209.816C141.161 209.395 141.789 209.065 142.519 208.828C143.257 208.59 144.083 208.472 144.997 208.472C146.078 208.472 147.041 208.656 147.884 209.025C148.737 209.386 149.405 209.931 149.888 210.66C150.38 211.39 150.626 212.308 150.626 213.416V219.638C150.626 220.35 150.67 220.961 150.758 221.471C150.855 221.972 150.996 222.407 151.18 222.776V223H147.634C147.467 222.64 147.339 222.183 147.251 221.629C147.164 221.066 147.12 220.513 147.12 219.968ZM147.607 214.312L147.634 216.382H145.432C144.887 216.382 144.408 216.439 143.995 216.553C143.582 216.659 143.244 216.817 142.98 217.028C142.716 217.23 142.519 217.476 142.387 217.766C142.255 218.047 142.189 218.368 142.189 218.729C142.189 219.08 142.268 219.396 142.426 219.678C142.593 219.959 142.831 220.183 143.138 220.35C143.455 220.508 143.824 220.587 144.246 220.587C144.861 220.587 145.397 220.464 145.854 220.218C146.311 219.963 146.667 219.656 146.922 219.295C147.177 218.935 147.313 218.592 147.331 218.267L148.333 219.77C148.209 220.13 148.025 220.513 147.779 220.917C147.533 221.321 147.216 221.699 146.83 222.051C146.443 222.402 145.977 222.692 145.432 222.921C144.887 223.149 144.254 223.264 143.534 223.264C142.611 223.264 141.785 223.079 141.055 222.71C140.326 222.341 139.75 221.835 139.328 221.194C138.906 220.552 138.695 219.823 138.695 219.005C138.695 218.25 138.836 217.582 139.117 217.001C139.398 216.421 139.816 215.934 140.37 215.538C140.923 215.134 141.609 214.831 142.426 214.628C143.252 214.417 144.197 214.312 145.261 214.312H147.607ZM157.179 211.781V223H153.698V208.735H156.968L157.179 211.781ZM156.625 215.354H155.597C155.605 214.316 155.746 213.376 156.019 212.532C156.291 211.688 156.673 210.963 157.166 210.357C157.667 209.75 158.26 209.285 158.945 208.959C159.631 208.634 160.396 208.472 161.239 208.472C161.925 208.472 162.544 208.568 163.098 208.762C163.652 208.955 164.126 209.263 164.522 209.685C164.926 210.106 165.234 210.66 165.445 211.346C165.665 212.022 165.774 212.857 165.774 213.851V223H162.268V213.824C162.268 213.174 162.171 212.66 161.978 212.282C161.793 211.904 161.521 211.636 161.16 211.478C160.809 211.319 160.374 211.24 159.855 211.24C159.319 211.24 158.849 211.35 158.444 211.57C158.049 211.781 157.715 212.075 157.442 212.453C157.179 212.831 156.977 213.266 156.836 213.758C156.695 214.25 156.625 214.782 156.625 215.354ZM172.327 202.737V223H168.846V202.737H172.327ZM181.265 208.735L175.056 215.709L171.694 219.124L170.586 216.421L173.184 213.152L177.06 208.735H181.265ZM177.706 223L173.289 216.355L175.609 214.101L181.74 223H177.706ZM194.014 221.418L197.837 208.735H201.568L195.846 225.162C195.714 225.514 195.543 225.896 195.332 226.309C195.13 226.722 194.857 227.113 194.515 227.482C194.172 227.86 193.741 228.168 193.223 228.405C192.713 228.643 192.093 228.761 191.364 228.761C191.047 228.761 190.766 228.739 190.52 228.695C190.274 228.651 190.015 228.594 189.742 228.524V225.914C189.83 225.922 189.931 225.927 190.045 225.927C190.168 225.936 190.274 225.94 190.362 225.94C190.872 225.94 191.293 225.878 191.627 225.755C191.961 225.641 192.229 225.452 192.432 225.188C192.643 224.934 192.818 224.6 192.959 224.187L194.014 221.418ZM192.128 208.735L195.358 219.243L195.925 222.921L193.526 223.356L188.371 208.735H192.128ZM202.425 216.013V215.736C202.425 214.69 202.574 213.728 202.873 212.849C203.172 211.961 203.607 211.192 204.178 210.542C204.75 209.891 205.448 209.386 206.274 209.025C207.101 208.656 208.041 208.472 209.096 208.472C210.168 208.472 211.117 208.656 211.943 209.025C212.778 209.386 213.481 209.891 214.053 210.542C214.624 211.192 215.059 211.961 215.358 212.849C215.657 213.728 215.806 214.69 215.806 215.736V216.013C215.806 217.05 215.657 218.012 215.358 218.9C215.059 219.779 214.624 220.548 214.053 221.207C213.481 221.857 212.783 222.363 211.957 222.723C211.13 223.083 210.186 223.264 209.122 223.264C208.067 223.264 207.123 223.083 206.288 222.723C205.453 222.363 204.75 221.857 204.178 221.207C203.607 220.548 203.172 219.779 202.873 218.9C202.574 218.012 202.425 217.05 202.425 216.013ZM205.905 215.736V216.013C205.905 216.637 205.967 217.221 206.09 217.766C206.213 218.311 206.402 218.79 206.657 219.203C206.912 219.616 207.241 219.941 207.646 220.179C208.059 220.407 208.551 220.521 209.122 220.521C209.685 220.521 210.168 220.407 210.572 220.179C210.977 219.941 211.306 219.616 211.561 219.203C211.825 218.79 212.018 218.311 212.141 217.766C212.264 217.221 212.326 216.637 212.326 216.013V215.736C212.326 215.121 212.264 214.545 212.141 214.009C212.018 213.464 211.825 212.985 211.561 212.572C211.306 212.15 210.972 211.82 210.559 211.583C210.155 211.337 209.667 211.214 209.096 211.214C208.533 211.214 208.05 211.337 207.646 211.583C207.241 211.82 206.912 212.15 206.657 212.572C206.402 212.985 206.213 213.464 206.09 214.009C205.967 214.545 205.905 215.121 205.905 215.736ZM226.828 219.612V208.735H230.334V223H227.039L226.828 219.612ZM227.276 216.659L228.357 216.632C228.357 217.59 228.251 218.474 228.041 219.282C227.83 220.091 227.5 220.794 227.052 221.392C226.612 221.98 226.054 222.442 225.377 222.776C224.701 223.101 223.901 223.264 222.978 223.264C222.275 223.264 221.633 223.167 221.053 222.974C220.473 222.771 219.972 222.459 219.55 222.038C219.137 221.607 218.816 221.058 218.588 220.39C218.359 219.713 218.245 218.9 218.245 217.951V208.735H221.726V217.977C221.726 218.452 221.778 218.847 221.884 219.164C221.998 219.48 222.152 219.739 222.345 219.941C222.547 220.135 222.78 220.275 223.044 220.363C223.316 220.442 223.606 220.482 223.914 220.482C224.758 220.482 225.421 220.315 225.905 219.981C226.397 219.638 226.749 219.181 226.959 218.61C227.17 218.03 227.276 217.379 227.276 216.659ZM244.705 223H241.198V207.417C241.198 206.345 241.404 205.444 241.817 204.714C242.23 203.976 242.819 203.418 243.584 203.04C244.349 202.662 245.25 202.473 246.287 202.473C246.629 202.473 246.955 202.495 247.262 202.539C247.579 202.583 247.891 202.645 248.198 202.724L248.132 205.374C247.965 205.33 247.781 205.299 247.579 205.281C247.385 205.264 247.17 205.255 246.933 205.255C246.458 205.255 246.054 205.338 245.72 205.505C245.386 205.672 245.131 205.918 244.955 206.244C244.788 206.56 244.705 206.951 244.705 207.417V223ZM247.592 208.735V211.24H239.049V208.735H247.592ZM249.121 216.013V215.736C249.121 214.69 249.271 213.728 249.569 212.849C249.868 211.961 250.303 211.192 250.875 210.542C251.446 209.891 252.145 209.386 252.971 209.025C253.797 208.656 254.737 208.472 255.792 208.472C256.864 208.472 257.813 208.656 258.64 209.025C259.475 209.386 260.178 209.891 260.749 210.542C261.32 211.192 261.755 211.961 262.054 212.849C262.353 213.728 262.502 214.69 262.502 215.736V216.013C262.502 217.05 262.353 218.012 262.054 218.9C261.755 219.779 261.32 220.548 260.749 221.207C260.178 221.857 259.479 222.363 258.653 222.723C257.827 223.083 256.882 223.264 255.818 223.264C254.764 223.264 253.819 223.083 252.984 222.723C252.149 222.363 251.446 221.857 250.875 221.207C250.303 220.548 249.868 219.779 249.569 218.9C249.271 218.012 249.121 217.05 249.121 216.013ZM252.602 215.736V216.013C252.602 216.637 252.663 217.221 252.786 217.766C252.909 218.311 253.098 218.79 253.353 219.203C253.608 219.616 253.938 219.941 254.342 220.179C254.755 220.407 255.247 220.521 255.818 220.521C256.381 220.521 256.864 220.407 257.269 220.179C257.673 219.941 258.002 219.616 258.257 219.203C258.521 218.79 258.714 218.311 258.837 217.766C258.96 217.221 259.022 216.637 259.022 216.013V215.736C259.022 215.121 258.96 214.545 258.837 214.009C258.714 213.464 258.521 212.985 258.257 212.572C258.002 212.15 257.668 211.82 257.255 211.583C256.851 211.337 256.363 211.214 255.792 211.214C255.229 211.214 254.746 211.337 254.342 211.583C253.938 211.82 253.608 212.15 253.353 212.572C253.098 212.985 252.909 213.464 252.786 214.009C252.663 214.545 252.602 215.121 252.602 215.736ZM268.514 211.649V223H265.034V208.735H268.33L268.514 211.649ZM272.852 208.643L272.799 211.886C272.605 211.851 272.386 211.825 272.14 211.807C271.902 211.79 271.678 211.781 271.467 211.781C270.931 211.781 270.461 211.855 270.057 212.005C269.652 212.146 269.314 212.352 269.042 212.625C268.778 212.897 268.576 213.231 268.435 213.626C268.294 214.013 268.215 214.453 268.198 214.945L267.446 214.853C267.446 213.947 267.539 213.108 267.723 212.334C267.908 211.561 268.176 210.884 268.527 210.304C268.879 209.724 269.318 209.276 269.846 208.959C270.382 208.634 270.997 208.472 271.691 208.472C271.885 208.472 272.091 208.489 272.311 208.524C272.54 208.551 272.72 208.59 272.852 208.643ZM286.22 220.363L289.542 208.735H293.181L288.29 223H286.075L286.22 220.363ZM283.794 208.735L287.156 220.39L287.274 223H285.046L280.142 208.735H283.794ZM298.705 208.735V223H295.211V208.735H298.705ZM294.974 205.004C294.974 204.486 295.149 204.055 295.501 203.712C295.861 203.37 296.345 203.198 296.951 203.198C297.558 203.198 298.037 203.37 298.388 203.712C298.749 204.055 298.929 204.486 298.929 205.004C298.929 205.514 298.749 205.94 298.388 206.283C298.037 206.626 297.558 206.797 296.951 206.797C296.345 206.797 295.861 206.626 295.501 206.283C295.149 205.94 294.974 205.514 294.974 205.004ZM309.871 219.098C309.871 218.799 309.792 218.531 309.634 218.293C309.476 218.056 309.177 217.841 308.737 217.647C308.307 217.445 307.674 217.256 306.839 217.081C306.101 216.922 305.419 216.725 304.795 216.487C304.171 216.25 303.635 215.964 303.187 215.63C302.739 215.288 302.387 214.888 302.132 214.431C301.886 213.965 301.763 213.429 301.763 212.822C301.763 212.233 301.891 211.68 302.146 211.161C302.4 210.634 302.77 210.172 303.253 209.777C303.736 209.373 304.325 209.056 305.02 208.828C305.714 208.59 306.496 208.472 307.366 208.472C308.579 208.472 309.621 208.669 310.491 209.065C311.37 209.46 312.042 210.005 312.508 210.7C312.974 211.385 313.207 212.159 313.207 213.02H309.726C309.726 212.642 309.638 212.299 309.462 211.992C309.295 211.684 309.036 211.438 308.685 211.253C308.333 211.06 307.889 210.963 307.353 210.963C306.87 210.963 306.461 211.042 306.127 211.201C305.802 211.359 305.556 211.565 305.389 211.82C305.222 212.075 305.138 212.356 305.138 212.664C305.138 212.893 305.182 213.099 305.27 213.284C305.367 213.459 305.521 213.622 305.731 213.771C305.942 213.921 306.228 214.057 306.588 214.18C306.958 214.303 307.41 214.422 307.946 214.536C309.01 214.747 309.937 215.028 310.728 215.38C311.528 215.723 312.152 216.18 312.6 216.751C313.048 217.322 313.272 218.052 313.272 218.939C313.272 219.572 313.136 220.152 312.864 220.68C312.591 221.198 312.196 221.651 311.677 222.038C311.159 222.424 310.539 222.728 309.818 222.947C309.098 223.158 308.285 223.264 307.379 223.264C306.07 223.264 304.962 223.031 304.057 222.565C303.152 222.09 302.466 221.493 302 220.772C301.535 220.042 301.302 219.287 301.302 218.504H304.637C304.664 219.058 304.813 219.502 305.085 219.836C305.358 220.17 305.701 220.412 306.114 220.561C306.536 220.702 306.979 220.772 307.445 220.772C307.973 220.772 308.417 220.702 308.777 220.561C309.137 220.412 309.41 220.214 309.594 219.968C309.779 219.713 309.871 219.423 309.871 219.098ZM319.614 208.735V223H316.12V208.735H319.614ZM315.883 205.004C315.883 204.486 316.059 204.055 316.41 203.712C316.771 203.37 317.254 203.198 317.86 203.198C318.467 203.198 318.946 203.37 319.297 203.712C319.658 204.055 319.838 204.486 319.838 205.004C319.838 205.514 319.658 205.94 319.297 206.283C318.946 206.626 318.467 206.797 317.86 206.797C317.254 206.797 316.771 206.626 316.41 206.283C316.059 205.94 315.883 205.514 315.883 205.004ZM329.686 208.735V211.24H321.512V208.735H329.686ZM323.701 205.229H327.194V218.887C327.194 219.309 327.251 219.634 327.366 219.862C327.48 220.091 327.651 220.245 327.88 220.324C328.108 220.403 328.381 220.442 328.697 220.442C328.926 220.442 329.137 220.429 329.33 220.403C329.523 220.376 329.686 220.35 329.818 220.324L329.831 222.934C329.541 223.031 329.211 223.11 328.842 223.171C328.482 223.233 328.073 223.264 327.616 223.264C326.834 223.264 326.148 223.132 325.56 222.868C324.971 222.596 324.514 222.161 324.188 221.563C323.863 220.957 323.701 220.157 323.701 219.164V205.229ZM335.698 208.735V223H332.204V208.735H335.698ZM331.967 205.004C331.967 204.486 332.143 204.055 332.494 203.712C332.854 203.37 333.338 203.198 333.944 203.198C334.551 203.198 335.03 203.37 335.381 203.712C335.742 204.055 335.922 204.486 335.922 205.004C335.922 205.514 335.742 205.94 335.381 206.283C335.03 206.626 334.551 206.797 333.944 206.797C333.338 206.797 332.854 206.626 332.494 206.283C332.143 205.94 331.967 205.514 331.967 205.004ZM342.435 211.781V223H338.954V208.735H342.224L342.435 211.781ZM341.881 215.354H340.853C340.861 214.316 341.002 213.376 341.274 212.532C341.547 211.688 341.929 210.963 342.421 210.357C342.922 209.75 343.516 209.285 344.201 208.959C344.887 208.634 345.651 208.472 346.495 208.472C347.181 208.472 347.8 208.568 348.354 208.762C348.908 208.955 349.382 209.263 349.778 209.685C350.182 210.106 350.49 210.66 350.701 211.346C350.92 212.022 351.03 212.857 351.03 213.851V223H347.523V213.824C347.523 213.174 347.427 212.66 347.233 212.282C347.049 211.904 346.776 211.636 346.416 211.478C346.064 211.319 345.629 211.24 345.111 211.24C344.575 211.24 344.104 211.35 343.7 211.57C343.305 211.781 342.971 212.075 342.698 212.453C342.435 212.831 342.232 213.266 342.092 213.758C341.951 214.25 341.881 214.782 341.881 215.354ZM363.172 208.735H366.336V222.565C366.336 223.857 366.055 224.951 365.493 225.848C364.939 226.753 364.161 227.438 363.159 227.904C362.157 228.379 360.993 228.616 359.666 228.616C359.094 228.616 358.475 228.537 357.807 228.379C357.147 228.221 356.51 227.97 355.895 227.627C355.289 227.293 354.783 226.858 354.379 226.322L355.948 224.266C356.422 224.819 356.958 225.237 357.556 225.518C358.154 225.808 358.8 225.953 359.494 225.953C360.197 225.953 360.795 225.821 361.287 225.558C361.788 225.303 362.17 224.925 362.434 224.424C362.707 223.932 362.843 223.325 362.843 222.604V211.992L363.172 208.735ZM353.535 216.039V215.762C353.535 214.672 353.667 213.684 353.931 212.796C354.194 211.899 354.572 211.13 355.064 210.489C355.565 209.847 356.167 209.351 356.871 208.999C357.583 208.647 358.382 208.472 359.27 208.472C360.21 208.472 361.001 208.643 361.643 208.986C362.293 209.329 362.83 209.816 363.251 210.449C363.682 211.082 364.016 211.833 364.253 212.704C364.5 213.565 364.688 214.514 364.82 215.551V216.303C364.697 217.313 364.5 218.241 364.227 219.084C363.963 219.928 363.612 220.667 363.172 221.299C362.733 221.923 362.188 222.407 361.538 222.75C360.887 223.092 360.123 223.264 359.244 223.264C358.365 223.264 357.574 223.083 356.871 222.723C356.167 222.363 355.565 221.857 355.064 221.207C354.572 220.557 354.194 219.792 353.931 218.913C353.667 218.034 353.535 217.076 353.535 216.039ZM357.016 215.762V216.039C357.016 216.654 357.077 217.23 357.2 217.766C357.323 218.302 357.512 218.777 357.767 219.19C358.022 219.594 358.343 219.911 358.729 220.139C359.116 220.368 359.578 220.482 360.114 220.482C360.834 220.482 361.423 220.333 361.88 220.034C362.346 219.726 362.698 219.309 362.935 218.781C363.181 218.245 363.339 217.643 363.41 216.975V214.905C363.366 214.378 363.269 213.89 363.12 213.442C362.979 212.994 362.781 212.607 362.526 212.282C362.271 211.957 361.946 211.702 361.551 211.517C361.155 211.333 360.685 211.24 360.14 211.24C359.613 211.24 359.151 211.359 358.756 211.596C358.36 211.825 358.035 212.146 357.78 212.559C357.525 212.972 357.332 213.451 357.2 213.996C357.077 214.541 357.016 215.129 357.016 215.762ZM379.665 211.662V223H376.185V208.735H379.467L379.665 211.662ZM379.151 215.354H378.083C378.083 214.36 378.202 213.446 378.439 212.611C378.685 211.776 379.045 211.051 379.52 210.436C379.995 209.812 380.579 209.329 381.273 208.986C381.977 208.643 382.79 208.472 383.712 208.472C384.354 208.472 384.943 208.568 385.479 208.762C386.015 208.946 386.477 209.241 386.863 209.645C387.259 210.041 387.562 210.559 387.773 211.201C387.984 211.833 388.089 212.594 388.089 213.481V223H384.609V213.837C384.609 213.169 384.512 212.646 384.319 212.269C384.134 211.891 383.866 211.627 383.515 211.478C383.163 211.319 382.741 211.24 382.249 211.24C381.704 211.24 381.234 211.35 380.838 211.57C380.452 211.781 380.131 212.075 379.876 212.453C379.63 212.831 379.445 213.266 379.322 213.758C379.208 214.25 379.151 214.782 379.151 215.354ZM387.826 214.708L386.389 214.971C386.397 214.075 386.521 213.235 386.758 212.453C386.995 211.662 387.342 210.972 387.799 210.383C388.265 209.786 388.841 209.32 389.526 208.986C390.221 208.643 391.021 208.472 391.926 208.472C392.629 208.472 393.262 208.573 393.824 208.775C394.396 208.968 394.883 209.28 395.288 209.711C395.692 210.133 396 210.682 396.21 211.359C396.43 212.036 396.54 212.862 396.54 213.837V223H393.033V213.824C393.033 213.13 392.937 212.598 392.743 212.229C392.559 211.86 392.291 211.605 391.939 211.464C391.587 211.315 391.174 211.24 390.7 211.24C390.216 211.24 389.794 211.333 389.434 211.517C389.083 211.693 388.784 211.939 388.538 212.255C388.3 212.572 388.12 212.941 387.997 213.363C387.883 213.776 387.826 214.224 387.826 214.708ZM403.844 221.418L407.667 208.735H411.398L405.676 225.162C405.544 225.514 405.373 225.896 405.162 226.309C404.96 226.722 404.688 227.113 404.345 227.482C404.002 227.86 403.571 228.168 403.053 228.405C402.543 228.643 401.923 228.761 401.194 228.761C400.877 228.761 400.596 228.739 400.35 228.695C400.104 228.651 399.845 228.594 399.572 228.524V225.914C399.66 225.922 399.761 225.927 399.875 225.927C399.999 225.936 400.104 225.94 400.192 225.94C400.702 225.94 401.124 225.878 401.458 225.755C401.792 225.641 402.06 225.452 402.262 225.188C402.473 224.934 402.648 224.6 402.789 224.187L403.844 221.418ZM401.958 208.735L405.188 219.243L405.755 222.921L403.356 223.356L398.201 208.735H401.958ZM423.777 219.572L426.902 208.735H429.117L428.458 212.479L425.307 223H423.395L423.777 219.572ZM422.05 208.735L424.397 219.599L424.608 223H422.406L418.662 208.735H422.05ZM432.017 219.44L434.311 208.735H437.686L433.968 223H431.767L432.017 219.44ZM429.459 208.735L432.558 219.467L432.966 223H431.055L427.877 212.479L427.231 208.735H429.459ZM446.15 223.264C445.069 223.264 444.098 223.088 443.236 222.736C442.375 222.385 441.641 221.897 441.035 221.273C440.437 220.64 439.976 219.906 439.65 219.071C439.334 218.228 439.176 217.322 439.176 216.355V215.828C439.176 214.729 439.334 213.732 439.65 212.835C439.967 211.93 440.415 211.152 440.995 210.502C441.575 209.852 442.27 209.351 443.078 208.999C443.887 208.647 444.779 208.472 445.754 208.472C446.765 208.472 447.657 208.643 448.431 208.986C449.204 209.32 449.85 209.794 450.369 210.41C450.887 211.025 451.278 211.763 451.542 212.625C451.806 213.477 451.938 214.422 451.938 215.459V216.922H440.758V214.523H448.51V214.259C448.492 213.706 448.387 213.2 448.193 212.743C448 212.277 447.701 211.908 447.297 211.636C446.893 211.354 446.37 211.214 445.728 211.214C445.209 211.214 444.757 211.328 444.37 211.557C443.992 211.776 443.676 212.093 443.421 212.506C443.175 212.91 442.99 213.394 442.867 213.956C442.744 214.519 442.683 215.143 442.683 215.828V216.355C442.683 216.953 442.762 217.507 442.92 218.017C443.087 218.526 443.329 218.97 443.645 219.348C443.97 219.717 444.357 220.007 444.805 220.218C445.262 220.42 445.781 220.521 446.361 220.521C447.09 220.521 447.75 220.381 448.338 220.1C448.936 219.81 449.455 219.383 449.894 218.821L451.647 220.64C451.349 221.08 450.944 221.501 450.435 221.906C449.934 222.31 449.327 222.64 448.615 222.895C447.903 223.141 447.082 223.264 446.15 223.264ZM454.258 202.75H457.751V219.849L457.409 223H454.258V202.75ZM466.927 215.723V216C466.927 217.063 466.809 218.039 466.571 218.926C466.343 219.814 465.996 220.583 465.53 221.233C465.064 221.875 464.484 222.376 463.79 222.736C463.104 223.088 462.3 223.264 461.377 223.264C460.498 223.264 459.733 223.092 459.083 222.75C458.441 222.407 457.901 221.923 457.461 221.299C457.022 220.667 456.67 219.924 456.407 219.071C456.143 218.21 455.945 217.27 455.813 216.25V215.499C455.945 214.47 456.143 213.53 456.407 212.677C456.67 211.825 457.022 211.082 457.461 210.449C457.901 209.816 458.441 209.329 459.083 208.986C459.725 208.643 460.48 208.472 461.351 208.472C462.282 208.472 463.095 208.652 463.79 209.012C464.493 209.364 465.073 209.865 465.53 210.515C465.996 211.157 466.343 211.921 466.571 212.809C466.809 213.688 466.927 214.659 466.927 215.723ZM463.434 216V215.723C463.434 215.116 463.385 214.545 463.289 214.009C463.192 213.464 463.034 212.985 462.814 212.572C462.594 212.159 462.295 211.833 461.917 211.596C461.54 211.359 461.065 211.24 460.494 211.24C459.949 211.24 459.483 211.333 459.096 211.517C458.718 211.702 458.402 211.957 458.147 212.282C457.901 212.607 457.708 212.989 457.567 213.429C457.435 213.868 457.347 214.343 457.303 214.853V216.909C457.365 217.586 457.51 218.197 457.738 218.742C457.967 219.278 458.305 219.704 458.753 220.021C459.21 220.337 459.799 220.495 460.52 220.495C461.083 220.495 461.553 220.385 461.931 220.166C462.309 219.937 462.607 219.621 462.827 219.216C463.047 218.803 463.201 218.324 463.289 217.779C463.385 217.234 463.434 216.641 463.434 216ZM477.303 219.098C477.303 218.799 477.224 218.531 477.065 218.293C476.907 218.056 476.608 217.841 476.169 217.647C475.738 217.445 475.105 217.256 474.271 217.081C473.532 216.922 472.851 216.725 472.227 216.487C471.603 216.25 471.067 215.964 470.619 215.63C470.17 215.288 469.819 214.888 469.564 214.431C469.318 213.965 469.195 213.429 469.195 212.822C469.195 212.233 469.322 211.68 469.577 211.161C469.832 210.634 470.201 210.172 470.685 209.777C471.168 209.373 471.757 209.056 472.451 208.828C473.146 208.59 473.928 208.472 474.798 208.472C476.011 208.472 477.052 208.669 477.922 209.065C478.801 209.46 479.474 210.005 479.939 210.7C480.405 211.385 480.638 212.159 480.638 213.02H477.158C477.158 212.642 477.07 212.299 476.894 211.992C476.727 211.684 476.468 211.438 476.116 211.253C475.765 211.06 475.321 210.963 474.785 210.963C474.301 210.963 473.893 211.042 473.559 211.201C473.233 211.359 472.987 211.565 472.82 211.82C472.653 212.075 472.57 212.356 472.57 212.664C472.57 212.893 472.614 213.099 472.702 213.284C472.798 213.459 472.952 213.622 473.163 213.771C473.374 213.921 473.66 214.057 474.02 214.18C474.389 214.303 474.842 214.422 475.378 214.536C476.441 214.747 477.369 215.028 478.16 215.38C478.959 215.723 479.583 216.18 480.032 216.751C480.48 217.322 480.704 218.052 480.704 218.939C480.704 219.572 480.568 220.152 480.295 220.68C480.023 221.198 479.627 221.651 479.109 222.038C478.59 222.424 477.971 222.728 477.25 222.947C476.529 223.158 475.716 223.264 474.811 223.264C473.501 223.264 472.394 223.031 471.489 222.565C470.583 222.09 469.898 221.493 469.432 220.772C468.966 220.042 468.733 219.287 468.733 218.504H472.069C472.095 219.058 472.245 219.502 472.517 219.836C472.79 220.17 473.132 220.412 473.545 220.561C473.967 220.702 474.411 220.772 474.877 220.772C475.404 220.772 475.848 220.702 476.208 220.561C476.569 220.412 476.841 220.214 477.026 219.968C477.21 219.713 477.303 219.423 477.303 219.098ZM487.045 208.735V223H483.552V208.735H487.045ZM483.314 205.004C483.314 204.486 483.49 204.055 483.842 203.712C484.202 203.37 484.686 203.198 485.292 203.198C485.898 203.198 486.377 203.37 486.729 203.712C487.089 204.055 487.27 204.486 487.27 205.004C487.27 205.514 487.089 205.94 486.729 206.283C486.377 206.626 485.898 206.797 485.292 206.797C484.686 206.797 484.202 206.626 483.842 206.283C483.49 205.94 483.314 205.514 483.314 205.004ZM497.118 208.735V211.24H488.944V208.735H497.118ZM491.132 205.229H494.626V218.887C494.626 219.309 494.683 219.634 494.797 219.862C494.912 220.091 495.083 220.245 495.312 220.324C495.54 220.403 495.812 220.442 496.129 220.442C496.357 220.442 496.568 220.429 496.762 220.403C496.955 220.376 497.118 220.35 497.25 220.324L497.263 222.934C496.973 223.031 496.643 223.11 496.274 223.171C495.914 223.233 495.505 223.264 495.048 223.264C494.266 223.264 493.58 223.132 492.991 222.868C492.402 222.596 491.945 222.161 491.62 221.563C491.295 220.957 491.132 220.157 491.132 219.164V205.229ZM505.845 223.264C504.764 223.264 503.793 223.088 502.932 222.736C502.07 222.385 501.336 221.897 500.73 221.273C500.132 220.64 499.671 219.906 499.346 219.071C499.029 218.228 498.871 217.322 498.871 216.355V215.828C498.871 214.729 499.029 213.732 499.346 212.835C499.662 211.93 500.11 211.152 500.69 210.502C501.271 209.852 501.965 209.351 502.773 208.999C503.582 208.647 504.474 208.472 505.45 208.472C506.46 208.472 507.353 208.643 508.126 208.986C508.899 209.32 509.545 209.794 510.064 210.41C510.583 211.025 510.974 211.763 511.237 212.625C511.501 213.477 511.633 214.422 511.633 215.459V216.922H500.453V214.523H508.205V214.259C508.188 213.706 508.082 213.2 507.889 212.743C507.695 212.277 507.396 211.908 506.992 211.636C506.588 211.354 506.065 211.214 505.423 211.214C504.905 211.214 504.452 211.328 504.065 211.557C503.688 211.776 503.371 212.093 503.116 212.506C502.87 212.91 502.686 213.394 502.562 213.956C502.439 214.519 502.378 215.143 502.378 215.828V216.355C502.378 216.953 502.457 217.507 502.615 218.017C502.782 218.526 503.024 218.97 503.34 219.348C503.666 219.717 504.052 220.007 504.5 220.218C504.958 220.42 505.476 220.521 506.056 220.521C506.786 220.521 507.445 220.381 508.034 220.1C508.631 219.81 509.15 219.383 509.589 218.821L511.343 220.64C511.044 221.08 510.64 221.501 510.13 221.906C509.629 222.31 509.022 222.64 508.311 222.895C507.599 223.141 506.777 223.264 505.845 223.264ZM111.695 235.805V255H108.07V235.805H111.695ZM125.485 234.75V255H121.992V234.75H125.485ZM124.932 247.354H123.903C123.903 246.36 124.035 245.446 124.299 244.611C124.562 243.776 124.936 243.051 125.419 242.436C125.903 241.812 126.479 241.329 127.146 240.986C127.823 240.643 128.57 240.472 129.388 240.472C130.091 240.472 130.728 240.573 131.299 240.775C131.879 240.968 132.376 241.28 132.789 241.711C133.202 242.142 133.519 242.704 133.738 243.398C133.967 244.084 134.081 244.919 134.081 245.903V255H130.574V245.877C130.574 245.218 130.478 244.699 130.284 244.321C130.091 243.935 129.814 243.658 129.454 243.491C129.102 243.324 128.667 243.24 128.148 243.24C127.586 243.24 127.103 243.35 126.698 243.57C126.294 243.781 125.96 244.075 125.696 244.453C125.441 244.831 125.248 245.266 125.116 245.758C124.993 246.25 124.932 246.782 124.932 247.354ZM136.533 248.013V247.736C136.533 246.69 136.683 245.728 136.981 244.849C137.28 243.961 137.715 243.192 138.287 242.542C138.858 241.891 139.557 241.386 140.383 241.025C141.209 240.656 142.149 240.472 143.204 240.472C144.276 240.472 145.226 240.656 146.052 241.025C146.887 241.386 147.59 241.891 148.161 242.542C148.732 243.192 149.167 243.961 149.466 244.849C149.765 245.728 149.915 246.69 149.915 247.736V248.013C149.915 249.05 149.765 250.012 149.466 250.9C149.167 251.779 148.732 252.548 148.161 253.207C147.59 253.857 146.891 254.363 146.065 254.723C145.239 255.083 144.294 255.264 143.23 255.264C142.176 255.264 141.231 255.083 140.396 254.723C139.561 254.363 138.858 253.857 138.287 253.207C137.715 252.548 137.28 251.779 136.981 250.9C136.683 250.012 136.533 249.05 136.533 248.013ZM140.014 247.736V248.013C140.014 248.637 140.075 249.221 140.198 249.766C140.321 250.311 140.51 250.79 140.765 251.203C141.02 251.616 141.35 251.941 141.754 252.179C142.167 252.407 142.659 252.521 143.23 252.521C143.793 252.521 144.276 252.407 144.681 252.179C145.085 251.941 145.415 251.616 145.669 251.203C145.933 250.79 146.126 250.311 146.25 249.766C146.373 249.221 146.434 248.637 146.434 248.013V247.736C146.434 247.121 146.373 246.545 146.25 246.009C146.126 245.464 145.933 244.985 145.669 244.572C145.415 244.15 145.081 243.82 144.667 243.583C144.263 243.337 143.775 243.214 143.204 243.214C142.642 243.214 142.158 243.337 141.754 243.583C141.35 243.82 141.02 244.15 140.765 244.572C140.51 244.985 140.321 245.464 140.198 246.009C140.075 246.545 140.014 247.121 140.014 247.736ZM155.926 243.478V260.484H152.433V240.735H155.663L155.926 243.478ZM165.089 247.723V248C165.089 249.037 164.966 249.999 164.72 250.887C164.482 251.766 164.131 252.535 163.665 253.194C163.199 253.844 162.619 254.354 161.925 254.723C161.239 255.083 160.448 255.264 159.552 255.264C158.673 255.264 157.908 255.097 157.258 254.763C156.607 254.42 156.058 253.937 155.61 253.312C155.162 252.688 154.801 251.963 154.529 251.137C154.265 250.302 154.067 249.393 153.936 248.408V247.525C154.067 246.479 154.265 245.53 154.529 244.677C154.801 243.816 155.162 243.073 155.61 242.449C156.058 241.816 156.603 241.329 157.245 240.986C157.895 240.643 158.655 240.472 159.525 240.472C160.431 240.472 161.226 240.643 161.912 240.986C162.606 241.329 163.19 241.821 163.665 242.462C164.14 243.104 164.496 243.869 164.733 244.756C164.97 245.644 165.089 246.633 165.089 247.723ZM161.595 248V247.723C161.595 247.09 161.538 246.505 161.424 245.969C161.31 245.424 161.134 244.95 160.896 244.545C160.659 244.132 160.352 243.812 159.974 243.583C159.596 243.354 159.139 243.24 158.603 243.24C158.066 243.24 157.605 243.328 157.218 243.504C156.832 243.68 156.515 243.93 156.269 244.255C156.023 244.581 155.83 244.967 155.689 245.416C155.557 245.855 155.469 246.343 155.425 246.879V249.067C155.504 249.718 155.658 250.302 155.887 250.821C156.115 251.339 156.449 251.752 156.889 252.06C157.337 252.368 157.917 252.521 158.629 252.521C159.165 252.521 159.622 252.403 160 252.166C160.378 251.928 160.686 251.603 160.923 251.19C161.16 250.768 161.332 250.285 161.437 249.74C161.542 249.195 161.595 248.615 161.595 248ZM174.041 255.264C172.959 255.264 171.988 255.088 171.127 254.736C170.266 254.385 169.532 253.897 168.925 253.273C168.328 252.64 167.866 251.906 167.541 251.071C167.225 250.228 167.066 249.322 167.066 248.355V247.828C167.066 246.729 167.225 245.732 167.541 244.835C167.857 243.93 168.306 243.152 168.886 242.502C169.466 241.852 170.16 241.351 170.969 240.999C171.777 240.647 172.669 240.472 173.645 240.472C174.656 240.472 175.548 240.643 176.321 240.986C177.095 241.32 177.741 241.794 178.259 242.41C178.778 243.025 179.169 243.763 179.433 244.625C179.696 245.477 179.828 246.422 179.828 247.459V248.922H168.648V246.523H176.4V246.259C176.383 245.706 176.277 245.2 176.084 244.743C175.891 244.277 175.592 243.908 175.188 243.636C174.783 243.354 174.26 243.214 173.619 243.214C173.1 243.214 172.647 243.328 172.261 243.557C171.883 243.776 171.566 244.093 171.312 244.506C171.065 244.91 170.881 245.394 170.758 245.956C170.635 246.519 170.573 247.143 170.573 247.828V248.355C170.573 248.953 170.652 249.507 170.811 250.017C170.978 250.526 171.219 250.97 171.536 251.348C171.861 251.717 172.248 252.007 172.696 252.218C173.153 252.42 173.671 252.521 174.251 252.521C174.981 252.521 175.64 252.381 176.229 252.1C176.827 251.81 177.345 251.383 177.785 250.821L179.538 252.64C179.239 253.08 178.835 253.501 178.325 253.906C177.824 254.31 177.218 254.64 176.506 254.895C175.794 255.141 174.972 255.264 174.041 255.264ZM193.064 253.418L196.888 240.735H200.619L194.897 257.162C194.765 257.514 194.594 257.896 194.383 258.309C194.181 258.722 193.908 259.113 193.565 259.482C193.223 259.86 192.792 260.168 192.273 260.405C191.764 260.643 191.144 260.761 190.415 260.761C190.098 260.761 189.817 260.739 189.571 260.695C189.325 260.651 189.065 260.594 188.793 260.524V257.914C188.881 257.922 188.982 257.927 189.096 257.927C189.219 257.936 189.325 257.94 189.413 257.94C189.922 257.94 190.344 257.878 190.678 257.755C191.012 257.641 191.28 257.452 191.482 257.188C191.693 256.934 191.869 256.6 192.01 256.187L193.064 253.418ZM191.179 240.735L194.409 251.243L194.976 254.921L192.577 255.356L187.422 240.735H191.179ZM201.476 248.013V247.736C201.476 246.69 201.625 245.728 201.924 244.849C202.223 243.961 202.658 243.192 203.229 242.542C203.8 241.891 204.499 241.386 205.325 241.025C206.151 240.656 207.092 240.472 208.146 240.472C209.219 240.472 210.168 240.656 210.994 241.025C211.829 241.386 212.532 241.891 213.104 242.542C213.675 243.192 214.11 243.961 214.409 244.849C214.708 245.728 214.857 246.69 214.857 247.736V248.013C214.857 249.05 214.708 250.012 214.409 250.9C214.11 251.779 213.675 252.548 213.104 253.207C212.532 253.857 211.833 254.363 211.007 254.723C210.181 255.083 209.236 255.264 208.173 255.264C207.118 255.264 206.173 255.083 205.338 254.723C204.503 254.363 203.8 253.857 203.229 253.207C202.658 252.548 202.223 251.779 201.924 250.9C201.625 250.012 201.476 249.05 201.476 248.013ZM204.956 247.736V248.013C204.956 248.637 205.018 249.221 205.141 249.766C205.264 250.311 205.453 250.79 205.708 251.203C205.962 251.616 206.292 251.941 206.696 252.179C207.109 252.407 207.602 252.521 208.173 252.521C208.735 252.521 209.219 252.407 209.623 252.179C210.027 251.941 210.357 251.616 210.612 251.203C210.875 250.79 211.069 250.311 211.192 249.766C211.315 249.221 211.376 248.637 211.376 248.013V247.736C211.376 247.121 211.315 246.545 211.192 246.009C211.069 245.464 210.875 244.985 210.612 244.572C210.357 244.15 210.023 243.82 209.61 243.583C209.206 243.337 208.718 243.214 208.146 243.214C207.584 243.214 207.101 243.337 206.696 243.583C206.292 243.82 205.962 244.15 205.708 244.572C205.453 244.985 205.264 245.464 205.141 246.009C205.018 246.545 204.956 247.121 204.956 247.736ZM225.878 251.612V240.735H229.385V255H226.089L225.878 251.612ZM226.327 248.659L227.408 248.632C227.408 249.59 227.302 250.474 227.091 251.282C226.88 252.091 226.551 252.794 226.103 253.392C225.663 253.98 225.105 254.442 224.428 254.776C223.751 255.101 222.952 255.264 222.029 255.264C221.326 255.264 220.684 255.167 220.104 254.974C219.524 254.771 219.023 254.459 218.601 254.038C218.188 253.607 217.867 253.058 217.639 252.39C217.41 251.713 217.296 250.9 217.296 249.951V240.735H220.776V249.977C220.776 250.452 220.829 250.847 220.935 251.164C221.049 251.48 221.203 251.739 221.396 251.941C221.598 252.135 221.831 252.275 222.095 252.363C222.367 252.442 222.657 252.482 222.965 252.482C223.809 252.482 224.472 252.315 224.956 251.981C225.448 251.638 225.799 251.181 226.01 250.61C226.221 250.03 226.327 249.379 226.327 248.659ZM242.885 234.75V255H239.392V234.75H242.885ZM249.899 240.735V255H246.405V240.735H249.899ZM246.168 237.004C246.168 236.486 246.344 236.055 246.695 235.712C247.056 235.37 247.539 235.198 248.146 235.198C248.752 235.198 249.231 235.37 249.583 235.712C249.943 236.055 250.123 236.486 250.123 237.004C250.123 237.514 249.943 237.94 249.583 238.283C249.231 238.626 248.752 238.797 248.146 238.797C247.539 238.797 247.056 238.626 246.695 238.283C246.344 237.94 246.168 237.514 246.168 237.004ZM256.702 234.737V255H253.221V234.737H256.702ZM265.64 240.735L259.431 247.709L256.069 251.124L254.961 248.421L257.559 245.152L261.435 240.735H265.64ZM262.081 255L257.664 248.355L259.984 246.101L266.115 255H262.081ZM273.629 255.264C272.548 255.264 271.577 255.088 270.716 254.736C269.854 254.385 269.121 253.897 268.514 253.273C267.917 252.64 267.455 251.906 267.13 251.071C266.813 250.228 266.655 249.322 266.655 248.355V247.828C266.655 246.729 266.813 245.732 267.13 244.835C267.446 243.93 267.895 243.152 268.475 242.502C269.055 241.852 269.749 241.351 270.558 240.999C271.366 240.647 272.258 240.472 273.234 240.472C274.245 240.472 275.137 240.643 275.91 240.986C276.684 241.32 277.33 241.794 277.848 242.41C278.367 243.025 278.758 243.763 279.021 244.625C279.285 245.477 279.417 246.422 279.417 247.459V248.922H268.237V246.523H275.989V246.259C275.972 245.706 275.866 245.2 275.673 244.743C275.479 244.277 275.181 243.908 274.776 243.636C274.372 243.354 273.849 243.214 273.208 243.214C272.689 243.214 272.236 243.328 271.85 243.557C271.472 243.776 271.155 244.093 270.9 244.506C270.654 244.91 270.47 245.394 270.347 245.956C270.224 246.519 270.162 247.143 270.162 247.828V248.355C270.162 248.953 270.241 249.507 270.399 250.017C270.566 250.526 270.808 250.97 271.125 251.348C271.45 251.717 271.836 252.007 272.285 252.218C272.742 252.42 273.26 252.521 273.84 252.521C274.57 252.521 275.229 252.381 275.818 252.1C276.416 251.81 276.934 251.383 277.374 250.821L279.127 252.64C278.828 253.08 278.424 253.501 277.914 253.906C277.413 254.31 276.807 254.64 276.095 254.895C275.383 255.141 274.561 255.264 273.629 255.264ZM291.941 243.662V255H288.461V240.735H291.744L291.941 243.662ZM291.427 247.354H290.359C290.359 246.36 290.478 245.446 290.715 244.611C290.961 243.776 291.322 243.051 291.796 242.436C292.271 241.812 292.855 241.329 293.55 240.986C294.253 240.643 295.066 240.472 295.989 240.472C296.63 240.472 297.219 240.568 297.755 240.762C298.292 240.946 298.753 241.241 299.14 241.645C299.535 242.041 299.838 242.559 300.049 243.201C300.26 243.833 300.366 244.594 300.366 245.481V255H296.885V245.837C296.885 245.169 296.789 244.646 296.595 244.269C296.411 243.891 296.143 243.627 295.791 243.478C295.439 243.319 295.018 243.24 294.525 243.24C293.98 243.24 293.51 243.35 293.115 243.57C292.728 243.781 292.407 244.075 292.152 244.453C291.906 244.831 291.722 245.266 291.599 245.758C291.484 246.25 291.427 246.782 291.427 247.354ZM300.102 246.708L298.665 246.971C298.674 246.075 298.797 245.235 299.034 244.453C299.271 243.662 299.619 242.972 300.076 242.383C300.542 241.786 301.117 241.32 301.803 240.986C302.497 240.643 303.297 240.472 304.202 240.472C304.905 240.472 305.538 240.573 306.101 240.775C306.672 240.968 307.16 241.28 307.564 241.711C307.968 242.133 308.276 242.682 308.487 243.359C308.707 244.036 308.816 244.862 308.816 245.837V255H305.31V245.824C305.31 245.13 305.213 244.598 305.02 244.229C304.835 243.86 304.567 243.605 304.215 243.464C303.864 243.315 303.451 243.24 302.976 243.24C302.493 243.24 302.071 243.333 301.71 243.517C301.359 243.693 301.06 243.939 300.814 244.255C300.577 244.572 300.396 244.941 300.273 245.363C300.159 245.776 300.102 246.224 300.102 246.708ZM316.12 253.418L319.943 240.735H323.674L317.953 257.162C317.821 257.514 317.649 257.896 317.438 258.309C317.236 258.722 316.964 259.113 316.621 259.482C316.278 259.86 315.848 260.168 315.329 260.405C314.819 260.643 314.2 260.761 313.47 260.761C313.154 260.761 312.873 260.739 312.626 260.695C312.38 260.651 312.121 260.594 311.849 260.524V257.914C311.937 257.922 312.038 257.927 312.152 257.927C312.275 257.936 312.38 257.94 312.468 257.94C312.978 257.94 313.4 257.878 313.734 257.755C314.068 257.641 314.336 257.452 314.538 257.188C314.749 256.934 314.925 256.6 315.065 256.187L316.12 253.418ZM314.235 240.735L317.465 251.243L318.032 254.921L315.632 255.356L310.478 240.735H314.235ZM336.054 251.572L339.178 240.735H341.393L340.734 244.479L337.583 255H335.671L336.054 251.572ZM334.327 240.735L336.673 251.599L336.884 255H334.683L330.938 240.735H334.327ZM344.293 251.44L346.587 240.735H349.962L346.245 255H344.043L344.293 251.44ZM341.736 240.735L344.834 251.467L345.243 255H343.331L340.154 244.479L339.508 240.735H341.736ZM358.426 255.264C357.345 255.264 356.374 255.088 355.513 254.736C354.651 254.385 353.917 253.897 353.311 253.273C352.713 252.64 352.252 251.906 351.927 251.071C351.61 250.228 351.452 249.322 351.452 248.355V247.828C351.452 246.729 351.61 245.732 351.927 244.835C352.243 243.93 352.691 243.152 353.271 242.502C353.852 241.852 354.546 241.351 355.354 240.999C356.163 240.647 357.055 240.472 358.031 240.472C359.042 240.472 359.934 240.643 360.707 240.986C361.48 241.32 362.126 241.794 362.645 242.41C363.164 243.025 363.555 243.763 363.818 244.625C364.082 245.477 364.214 246.422 364.214 247.459V248.922H353.034V246.523H360.786V246.259C360.769 245.706 360.663 245.2 360.47 244.743C360.276 244.277 359.978 243.908 359.573 243.636C359.169 243.354 358.646 243.214 358.004 243.214C357.486 243.214 357.033 243.328 356.646 243.557C356.269 243.776 355.952 244.093 355.697 244.506C355.451 244.91 355.267 245.394 355.144 245.956C355.021 246.519 354.959 247.143 354.959 247.828V248.355C354.959 248.953 355.038 249.507 355.196 250.017C355.363 250.526 355.605 250.97 355.921 251.348C356.247 251.717 356.633 252.007 357.082 252.218C357.539 252.42 358.057 252.521 358.637 252.521C359.367 252.521 360.026 252.381 360.615 252.1C361.212 251.81 361.731 251.383 362.17 250.821L363.924 252.64C363.625 253.08 363.221 253.501 362.711 253.906C362.21 254.31 361.604 254.64 360.892 254.895C360.18 255.141 359.358 255.264 358.426 255.264ZM366.534 234.75H370.028V251.849L369.685 255H366.534V234.75ZM379.204 247.723V248C379.204 249.063 379.085 250.039 378.848 250.926C378.619 251.814 378.272 252.583 377.806 253.233C377.34 253.875 376.76 254.376 376.066 254.736C375.38 255.088 374.576 255.264 373.653 255.264C372.774 255.264 372.01 255.092 371.359 254.75C370.718 254.407 370.177 253.923 369.738 253.299C369.298 252.667 368.947 251.924 368.683 251.071C368.419 250.21 368.222 249.27 368.09 248.25V247.499C368.222 246.47 368.419 245.53 368.683 244.677C368.947 243.825 369.298 243.082 369.738 242.449C370.177 241.816 370.718 241.329 371.359 240.986C372.001 240.643 372.757 240.472 373.627 240.472C374.559 240.472 375.372 240.652 376.066 241.012C376.769 241.364 377.349 241.865 377.806 242.515C378.272 243.157 378.619 243.921 378.848 244.809C379.085 245.688 379.204 246.659 379.204 247.723ZM375.71 248V247.723C375.71 247.116 375.662 246.545 375.565 246.009C375.468 245.464 375.31 244.985 375.09 244.572C374.871 244.159 374.572 243.833 374.194 243.596C373.816 243.359 373.341 243.24 372.77 243.24C372.225 243.24 371.759 243.333 371.373 243.517C370.995 243.702 370.678 243.957 370.423 244.282C370.177 244.607 369.984 244.989 369.843 245.429C369.711 245.868 369.624 246.343 369.58 246.853V248.909C369.641 249.586 369.786 250.197 370.015 250.742C370.243 251.278 370.582 251.704 371.03 252.021C371.487 252.337 372.076 252.495 372.796 252.495C373.359 252.495 373.829 252.385 374.207 252.166C374.585 251.937 374.884 251.621 375.104 251.216C375.323 250.803 375.477 250.324 375.565 249.779C375.662 249.234 375.71 248.641 375.71 248ZM389.579 251.098C389.579 250.799 389.5 250.531 389.342 250.293C389.184 250.056 388.885 249.841 388.445 249.647C388.015 249.445 387.382 249.256 386.547 249.081C385.809 248.922 385.127 248.725 384.503 248.487C383.879 248.25 383.343 247.964 382.895 247.63C382.447 247.288 382.095 246.888 381.84 246.431C381.594 245.965 381.471 245.429 381.471 244.822C381.471 244.233 381.599 243.68 381.854 243.161C382.108 242.634 382.478 242.172 382.961 241.777C383.444 241.373 384.033 241.056 384.728 240.828C385.422 240.59 386.204 240.472 387.074 240.472C388.287 240.472 389.329 240.669 390.199 241.065C391.078 241.46 391.75 242.005 392.216 242.7C392.682 243.385 392.915 244.159 392.915 245.02H389.434C389.434 244.642 389.346 244.299 389.17 243.992C389.003 243.684 388.744 243.438 388.393 243.253C388.041 243.06 387.597 242.963 387.061 242.963C386.578 242.963 386.169 243.042 385.835 243.201C385.51 243.359 385.264 243.565 385.097 243.82C384.93 244.075 384.846 244.356 384.846 244.664C384.846 244.893 384.89 245.099 384.978 245.284C385.075 245.459 385.229 245.622 385.439 245.771C385.65 245.921 385.936 246.057 386.296 246.18C386.666 246.303 387.118 246.422 387.654 246.536C388.718 246.747 389.645 247.028 390.436 247.38C391.236 247.723 391.86 248.18 392.308 248.751C392.756 249.322 392.98 250.052 392.98 250.939C392.98 251.572 392.844 252.152 392.572 252.68C392.299 253.198 391.904 253.651 391.385 254.038C390.867 254.424 390.247 254.728 389.526 254.947C388.806 255.158 387.993 255.264 387.087 255.264C385.778 255.264 384.67 255.031 383.765 254.565C382.86 254.09 382.174 253.493 381.708 252.772C381.243 252.042 381.01 251.287 381.01 250.504H384.345C384.372 251.058 384.521 251.502 384.793 251.836C385.066 252.17 385.409 252.412 385.822 252.561C386.244 252.702 386.688 252.772 387.153 252.772C387.681 252.772 388.125 252.702 388.485 252.561C388.845 252.412 389.118 252.214 389.302 251.968C389.487 251.713 389.579 251.423 389.579 251.098ZM399.322 240.735V255H395.828V240.735H399.322ZM395.591 237.004C395.591 236.486 395.767 236.055 396.118 235.712C396.479 235.37 396.962 235.198 397.568 235.198C398.175 235.198 398.654 235.37 399.005 235.712C399.366 236.055 399.546 236.486 399.546 237.004C399.546 237.514 399.366 237.94 399.005 238.283C398.654 238.626 398.175 238.797 397.568 238.797C396.962 238.797 396.479 238.626 396.118 238.283C395.767 237.94 395.591 237.514 395.591 237.004ZM409.394 240.735V243.24H401.22V240.735H409.394ZM403.409 237.229H406.902V250.887C406.902 251.309 406.959 251.634 407.074 251.862C407.188 252.091 407.359 252.245 407.588 252.324C407.816 252.403 408.089 252.442 408.405 252.442C408.634 252.442 408.845 252.429 409.038 252.403C409.231 252.376 409.394 252.35 409.526 252.324L409.539 254.934C409.249 255.031 408.919 255.11 408.55 255.171C408.19 255.233 407.781 255.264 407.324 255.264C406.542 255.264 405.856 255.132 405.268 254.868C404.679 254.596 404.222 254.161 403.896 253.563C403.571 252.957 403.409 252.157 403.409 251.164V237.229ZM418.122 255.264C417.041 255.264 416.069 255.088 415.208 254.736C414.347 254.385 413.613 253.897 413.006 253.273C412.409 252.64 411.947 251.906 411.622 251.071C411.306 250.228 411.147 249.322 411.147 248.355V247.828C411.147 246.729 411.306 245.732 411.622 244.835C411.938 243.93 412.387 243.152 412.967 242.502C413.547 241.852 414.241 241.351 415.05 240.999C415.858 240.647 416.75 240.472 417.726 240.472C418.737 240.472 419.629 240.643 420.402 240.986C421.176 241.32 421.822 241.794 422.34 242.41C422.859 243.025 423.25 243.763 423.514 244.625C423.777 245.477 423.909 246.422 423.909 247.459V248.922H412.729V246.523H420.481V246.259C420.464 245.706 420.358 245.2 420.165 244.743C419.972 244.277 419.673 243.908 419.269 243.636C418.864 243.354 418.341 243.214 417.7 243.214C417.181 243.214 416.729 243.328 416.342 243.557C415.964 243.776 415.647 244.093 415.393 244.506C415.146 244.91 414.962 245.394 414.839 245.956C414.716 246.519 414.654 247.143 414.654 247.828V248.355C414.654 248.953 414.733 249.507 414.892 250.017C415.059 250.526 415.3 250.97 415.617 251.348C415.942 251.717 416.329 252.007 416.777 252.218C417.234 252.42 417.752 252.521 418.333 252.521C419.062 252.521 419.721 252.381 420.31 252.1C420.908 251.81 421.426 251.383 421.866 250.821L423.619 252.64C423.32 253.08 422.916 253.501 422.406 253.906C421.905 254.31 421.299 254.64 420.587 254.895C419.875 255.141 419.053 255.264 418.122 255.264ZM430.211 235.805L429.829 249.239H426.889L426.506 235.805H430.211ZM426.401 253.378C426.401 252.86 426.577 252.425 426.928 252.073C427.289 251.713 427.772 251.533 428.378 251.533C428.985 251.533 429.464 251.713 429.815 252.073C430.176 252.425 430.356 252.86 430.356 253.378C430.356 253.888 430.176 254.319 429.815 254.67C429.464 255.022 428.985 255.198 428.378 255.198C427.772 255.198 427.289 255.022 426.928 254.67C426.577 254.319 426.401 253.888 426.401 253.378ZM115.466 270.718L109.995 287H106.158L113.33 267.805H115.782L115.466 270.718ZM120.041 287L114.543 270.718L114.213 267.805H116.679L123.89 287H120.041ZM119.79 279.868V282.729H109.494V279.868H119.79ZM128.676 275.781V287H125.195V272.735H128.465L128.676 275.781ZM128.122 279.354H127.094C127.103 278.316 127.243 277.376 127.516 276.532C127.788 275.688 128.17 274.963 128.663 274.357C129.164 273.75 129.757 273.285 130.442 272.959C131.128 272.634 131.893 272.472 132.736 272.472C133.422 272.472 134.042 272.568 134.595 272.762C135.149 272.955 135.624 273.263 136.019 273.685C136.423 274.106 136.731 274.66 136.942 275.346C137.162 276.022 137.271 276.857 137.271 277.851V287H133.765V277.824C133.765 277.174 133.668 276.66 133.475 276.282C133.29 275.904 133.018 275.636 132.657 275.478C132.306 275.319 131.871 275.24 131.352 275.24C130.816 275.24 130.346 275.35 129.941 275.57C129.546 275.781 129.212 276.075 128.939 276.453C128.676 276.831 128.474 277.266 128.333 277.758C128.192 278.25 128.122 278.782 128.122 279.354ZM148.899 283.968V266.75H152.406V287H149.242L148.899 283.968ZM139.737 280.039V279.762C139.737 278.672 139.86 277.684 140.106 276.796C140.361 275.899 140.73 275.13 141.213 274.489C141.697 273.847 142.281 273.351 142.967 272.999C143.661 272.647 144.448 272.472 145.327 272.472C146.179 272.472 146.922 272.643 147.555 272.986C148.196 273.329 148.741 273.816 149.189 274.449C149.646 275.082 150.011 275.833 150.284 276.704C150.556 277.565 150.754 278.514 150.877 279.551V280.303C150.754 281.313 150.556 282.241 150.284 283.084C150.011 283.928 149.646 284.667 149.189 285.299C148.741 285.923 148.196 286.407 147.555 286.75C146.913 287.092 146.162 287.264 145.3 287.264C144.43 287.264 143.648 287.083 142.954 286.723C142.268 286.363 141.684 285.857 141.2 285.207C140.726 284.557 140.361 283.792 140.106 282.913C139.86 282.034 139.737 281.076 139.737 280.039ZM143.23 279.762V280.039C143.23 280.654 143.283 281.23 143.389 281.766C143.494 282.302 143.666 282.777 143.903 283.19C144.14 283.594 144.443 283.911 144.812 284.139C145.19 284.368 145.647 284.482 146.184 284.482C146.869 284.482 147.432 284.333 147.871 284.034C148.319 283.726 148.667 283.309 148.913 282.781C149.159 282.245 149.317 281.643 149.387 280.975V278.905C149.352 278.378 149.26 277.89 149.11 277.442C148.97 276.994 148.768 276.607 148.504 276.282C148.249 275.957 147.933 275.702 147.555 275.517C147.177 275.333 146.729 275.24 146.21 275.24C145.674 275.24 145.217 275.359 144.839 275.596C144.461 275.825 144.153 276.146 143.916 276.559C143.679 276.972 143.503 277.451 143.389 277.996C143.283 278.541 143.23 279.129 143.23 279.762ZM166.46 285.418L170.283 272.735H174.014L168.292 289.162C168.161 289.514 167.989 289.896 167.778 290.309C167.576 290.722 167.304 291.113 166.961 291.482C166.618 291.86 166.188 292.168 165.669 292.405C165.159 292.643 164.54 292.761 163.81 292.761C163.494 292.761 163.212 292.739 162.966 292.695C162.72 292.651 162.461 292.594 162.188 292.524V289.914C162.276 289.922 162.377 289.927 162.492 289.927C162.615 289.936 162.72 289.94 162.808 289.94C163.318 289.94 163.74 289.878 164.074 289.755C164.408 289.641 164.676 289.452 164.878 289.188C165.089 288.934 165.265 288.6 165.405 288.187L166.46 285.418ZM164.575 272.735L167.805 283.243L168.372 286.921L165.972 287.356L160.817 272.735H164.575ZM174.871 280.013V279.736C174.871 278.69 175.021 277.728 175.319 276.849C175.618 275.961 176.053 275.192 176.625 274.542C177.196 273.891 177.895 273.386 178.721 273.025C179.547 272.656 180.487 272.472 181.542 272.472C182.614 272.472 183.563 272.656 184.39 273.025C185.225 273.386 185.928 273.891 186.499 274.542C187.07 275.192 187.505 275.961 187.804 276.849C188.103 277.728 188.252 278.69 188.252 279.736V280.013C188.252 281.05 188.103 282.012 187.804 282.9C187.505 283.779 187.07 284.548 186.499 285.207C185.928 285.857 185.229 286.363 184.403 286.723C183.577 287.083 182.632 287.264 181.568 287.264C180.514 287.264 179.569 287.083 178.734 286.723C177.899 286.363 177.196 285.857 176.625 285.207C176.053 284.548 175.618 283.779 175.319 282.9C175.021 282.012 174.871 281.05 174.871 280.013ZM178.352 279.736V280.013C178.352 280.637 178.413 281.221 178.536 281.766C178.659 282.311 178.848 282.79 179.103 283.203C179.358 283.616 179.688 283.941 180.092 284.179C180.505 284.407 180.997 284.521 181.568 284.521C182.131 284.521 182.614 284.407 183.019 284.179C183.423 283.941 183.752 283.616 184.007 283.203C184.271 282.79 184.464 282.311 184.587 281.766C184.71 281.221 184.772 280.637 184.772 280.013V279.736C184.772 279.121 184.71 278.545 184.587 278.009C184.464 277.464 184.271 276.985 184.007 276.572C183.752 276.15 183.418 275.82 183.005 275.583C182.601 275.337 182.113 275.214 181.542 275.214C180.979 275.214 180.496 275.337 180.092 275.583C179.688 275.82 179.358 276.15 179.103 276.572C178.848 276.985 178.659 277.464 178.536 278.009C178.413 278.545 178.352 279.121 178.352 279.736ZM199.274 283.612V272.735H202.781V287H199.485L199.274 283.612ZM199.722 280.659L200.803 280.632C200.803 281.59 200.698 282.474 200.487 283.282C200.276 284.091 199.946 284.794 199.498 285.392C199.059 285.98 198.5 286.442 197.824 286.776C197.147 287.101 196.347 287.264 195.424 287.264C194.721 287.264 194.08 287.167 193.5 286.974C192.919 286.771 192.418 286.459 191.997 286.038C191.583 285.607 191.263 285.058 191.034 284.39C190.806 283.713 190.691 282.9 190.691 281.951V272.735H194.172V281.977C194.172 282.452 194.225 282.847 194.33 283.164C194.444 283.48 194.598 283.739 194.792 283.941C194.994 284.135 195.227 284.275 195.49 284.363C195.763 284.442 196.053 284.482 196.36 284.482C197.204 284.482 197.868 284.315 198.351 283.981C198.843 283.638 199.195 283.181 199.406 282.61C199.617 282.03 199.722 281.379 199.722 280.659ZM216.004 266.75V287H212.51V266.75H216.004ZM215.45 279.354H214.422C214.422 278.36 214.554 277.446 214.817 276.611C215.081 275.776 215.455 275.051 215.938 274.436C216.421 273.812 216.997 273.329 217.665 272.986C218.342 272.643 219.089 272.472 219.906 272.472C220.609 272.472 221.247 272.573 221.818 272.775C222.398 272.968 222.895 273.28 223.308 273.711C223.721 274.142 224.037 274.704 224.257 275.398C224.485 276.084 224.6 276.919 224.6 277.903V287H221.093V277.877C221.093 277.218 220.996 276.699 220.803 276.321C220.609 275.935 220.333 275.658 219.972 275.491C219.621 275.324 219.186 275.24 218.667 275.24C218.104 275.24 217.621 275.35 217.217 275.57C216.812 275.781 216.479 276.075 216.215 276.453C215.96 276.831 215.767 277.266 215.635 277.758C215.512 278.25 215.45 278.782 215.45 279.354ZM235.529 283.968V277.389C235.529 276.906 235.445 276.488 235.278 276.137C235.111 275.785 234.856 275.513 234.514 275.319C234.171 275.126 233.736 275.029 233.208 275.029C232.743 275.029 232.334 275.108 231.982 275.267C231.64 275.425 231.376 275.649 231.191 275.939C231.007 276.22 230.915 276.545 230.915 276.915H227.421C227.421 276.326 227.562 275.768 227.843 275.24C228.124 274.704 228.524 274.229 229.042 273.816C229.57 273.395 230.198 273.065 230.928 272.828C231.666 272.59 232.492 272.472 233.406 272.472C234.487 272.472 235.45 272.656 236.293 273.025C237.146 273.386 237.814 273.931 238.297 274.66C238.79 275.39 239.036 276.308 239.036 277.416V283.638C239.036 284.35 239.08 284.961 239.167 285.471C239.264 285.972 239.405 286.407 239.589 286.776V287H236.043C235.876 286.64 235.749 286.183 235.661 285.629C235.573 285.066 235.529 284.513 235.529 283.968ZM236.017 278.312L236.043 280.382H233.841C233.296 280.382 232.817 280.439 232.404 280.553C231.991 280.659 231.653 280.817 231.389 281.028C231.125 281.23 230.928 281.476 230.796 281.766C230.664 282.047 230.598 282.368 230.598 282.729C230.598 283.08 230.677 283.396 230.835 283.678C231.002 283.959 231.24 284.183 231.547 284.35C231.864 284.508 232.233 284.587 232.655 284.587C233.27 284.587 233.806 284.464 234.263 284.218C234.72 283.963 235.076 283.656 235.331 283.295C235.586 282.935 235.722 282.592 235.74 282.267L236.742 283.77C236.619 284.13 236.434 284.513 236.188 284.917C235.942 285.321 235.625 285.699 235.239 286.051C234.852 286.402 234.386 286.692 233.841 286.921C233.296 287.149 232.664 287.264 231.943 287.264C231.02 287.264 230.194 287.079 229.464 286.71C228.735 286.341 228.159 285.835 227.737 285.194C227.315 284.552 227.104 283.823 227.104 283.005C227.104 282.25 227.245 281.582 227.526 281.001C227.808 280.421 228.225 279.934 228.779 279.538C229.333 279.134 230.018 278.831 230.835 278.628C231.662 278.417 232.606 278.312 233.67 278.312H236.017ZM246.695 284.363L250.018 272.735H253.656L248.765 287H246.55L246.695 284.363ZM244.27 272.735L247.631 284.39L247.75 287H245.522L240.618 272.735H244.27ZM261.711 287.264C260.63 287.264 259.659 287.088 258.798 286.736C257.937 286.385 257.203 285.897 256.596 285.273C255.999 284.64 255.537 283.906 255.212 283.071C254.896 282.228 254.737 281.322 254.737 280.355V279.828C254.737 278.729 254.896 277.732 255.212 276.835C255.528 275.93 255.977 275.152 256.557 274.502C257.137 273.852 257.831 273.351 258.64 272.999C259.448 272.647 260.34 272.472 261.316 272.472C262.327 272.472 263.219 272.643 263.992 272.986C264.766 273.32 265.412 273.794 265.93 274.41C266.449 275.025 266.84 275.763 267.104 276.625C267.367 277.477 267.499 278.422 267.499 279.459V280.922H256.319V278.523H264.071V278.259C264.054 277.706 263.948 277.2 263.755 276.743C263.562 276.277 263.263 275.908 262.858 275.636C262.454 275.354 261.931 275.214 261.29 275.214C260.771 275.214 260.318 275.328 259.932 275.557C259.554 275.776 259.237 276.093 258.982 276.506C258.736 276.91 258.552 277.394 258.429 277.956C258.306 278.519 258.244 279.143 258.244 279.828V280.355C258.244 280.953 258.323 281.507 258.481 282.017C258.648 282.526 258.89 282.97 259.207 283.348C259.532 283.717 259.918 284.007 260.367 284.218C260.824 284.42 261.342 284.521 261.922 284.521C262.652 284.521 263.311 284.381 263.9 284.1C264.498 283.81 265.016 283.383 265.456 282.821L267.209 284.64C266.91 285.08 266.506 285.501 265.996 285.906C265.495 286.31 264.889 286.64 264.177 286.895C263.465 287.141 262.643 287.264 261.711 287.264ZM280.023 275.662V287H276.543V272.735H279.826L280.023 275.662ZM279.509 279.354H278.441C278.441 278.36 278.56 277.446 278.797 276.611C279.043 275.776 279.404 275.051 279.878 274.436C280.353 273.812 280.938 273.329 281.632 272.986C282.335 272.643 283.148 272.472 284.071 272.472C284.712 272.472 285.301 272.568 285.837 272.762C286.374 272.946 286.835 273.241 287.222 273.645C287.617 274.041 287.92 274.559 288.131 275.201C288.342 275.833 288.448 276.594 288.448 277.481V287H284.967V277.837C284.967 277.169 284.871 276.646 284.677 276.269C284.493 275.891 284.225 275.627 283.873 275.478C283.521 275.319 283.1 275.24 282.607 275.24C282.062 275.24 281.592 275.35 281.197 275.57C280.81 275.781 280.489 276.075 280.234 276.453C279.988 276.831 279.804 277.266 279.681 277.758C279.566 278.25 279.509 278.782 279.509 279.354ZM288.184 278.708L286.747 278.971C286.756 278.075 286.879 277.235 287.116 276.453C287.354 275.662 287.701 274.972 288.158 274.383C288.624 273.786 289.199 273.32 289.885 272.986C290.579 272.643 291.379 272.472 292.284 272.472C292.987 272.472 293.62 272.573 294.183 272.775C294.754 272.968 295.242 273.28 295.646 273.711C296.05 274.133 296.358 274.682 296.569 275.359C296.789 276.036 296.898 276.862 296.898 277.837V287H293.392V277.824C293.392 277.13 293.295 276.598 293.102 276.229C292.917 275.86 292.649 275.605 292.297 275.464C291.946 275.315 291.533 275.24 291.058 275.24C290.575 275.24 290.153 275.333 289.792 275.517C289.441 275.693 289.142 275.939 288.896 276.255C288.659 276.572 288.479 276.941 288.355 277.363C288.241 277.776 288.184 278.224 288.184 278.708ZM304.202 285.418L308.025 272.735H311.756L306.035 289.162C305.903 289.514 305.731 289.896 305.521 290.309C305.318 290.722 305.046 291.113 304.703 291.482C304.36 291.86 303.93 292.168 303.411 292.405C302.901 292.643 302.282 292.761 301.552 292.761C301.236 292.761 300.955 292.739 300.708 292.695C300.462 292.651 300.203 292.594 299.931 292.524V289.914C300.019 289.922 300.12 289.927 300.234 289.927C300.357 289.936 300.462 289.94 300.55 289.94C301.06 289.94 301.482 289.878 301.816 289.755C302.15 289.641 302.418 289.452 302.62 289.188C302.831 288.934 303.007 288.6 303.147 288.187L304.202 285.418ZM302.317 272.735L305.547 283.243L306.114 286.921L303.714 287.356L298.56 272.735H302.317ZM326.021 284.521C326.513 284.521 326.953 284.425 327.339 284.231C327.726 284.038 328.034 283.766 328.262 283.414C328.5 283.062 328.627 282.654 328.645 282.188H331.927C331.91 283.155 331.637 284.021 331.11 284.785C330.583 285.55 329.879 286.156 329 286.604C328.13 287.044 327.155 287.264 326.074 287.264C324.975 287.264 324.017 287.079 323.2 286.71C322.382 286.341 321.701 285.827 321.156 285.167C320.62 284.508 320.216 283.744 319.943 282.874C319.68 282.003 319.548 281.072 319.548 280.079V279.657C319.548 278.664 319.68 277.732 319.943 276.862C320.216 275.992 320.62 275.227 321.156 274.568C321.701 273.909 322.382 273.395 323.2 273.025C324.017 272.656 324.971 272.472 326.061 272.472C327.212 272.472 328.223 272.696 329.093 273.144C329.972 273.592 330.657 274.225 331.149 275.042C331.65 275.86 331.91 276.822 331.927 277.93H328.645C328.627 277.42 328.513 276.963 328.302 276.559C328.091 276.154 327.792 275.829 327.405 275.583C327.019 275.337 326.548 275.214 325.995 275.214C325.406 275.214 324.914 275.337 324.518 275.583C324.131 275.829 323.828 276.167 323.608 276.598C323.397 277.02 323.248 277.495 323.16 278.022C323.081 278.541 323.042 279.085 323.042 279.657V280.079C323.042 280.659 323.081 281.212 323.16 281.74C323.248 282.267 323.397 282.742 323.608 283.164C323.828 283.577 324.131 283.906 324.518 284.152C324.914 284.398 325.415 284.521 326.021 284.521ZM333.628 280.013V279.736C333.628 278.69 333.777 277.728 334.076 276.849C334.375 275.961 334.81 275.192 335.381 274.542C335.953 273.891 336.651 273.386 337.478 273.025C338.304 272.656 339.244 272.472 340.299 272.472C341.371 272.472 342.32 272.656 343.146 273.025C343.981 273.386 344.685 273.891 345.256 274.542C345.827 275.192 346.262 275.961 346.561 276.849C346.86 277.728 347.009 278.69 347.009 279.736V280.013C347.009 281.05 346.86 282.012 346.561 282.9C346.262 283.779 345.827 284.548 345.256 285.207C344.685 285.857 343.986 286.363 343.16 286.723C342.333 287.083 341.389 287.264 340.325 287.264C339.271 287.264 338.326 287.083 337.491 286.723C336.656 286.363 335.953 285.857 335.381 285.207C334.81 284.548 334.375 283.779 334.076 282.9C333.777 282.012 333.628 281.05 333.628 280.013ZM337.108 279.736V280.013C337.108 280.637 337.17 281.221 337.293 281.766C337.416 282.311 337.605 282.79 337.86 283.203C338.115 283.616 338.444 283.941 338.849 284.179C339.262 284.407 339.754 284.521 340.325 284.521C340.888 284.521 341.371 284.407 341.775 284.179C342.18 283.941 342.509 283.616 342.764 283.203C343.028 282.79 343.221 282.311 343.344 281.766C343.467 281.221 343.529 280.637 343.529 280.013V279.736C343.529 279.121 343.467 278.545 343.344 278.009C343.221 277.464 343.028 276.985 342.764 276.572C342.509 276.15 342.175 275.82 341.762 275.583C341.358 275.337 340.87 275.214 340.299 275.214C339.736 275.214 339.253 275.337 338.849 275.583C338.444 275.82 338.115 276.15 337.86 276.572C337.605 276.985 337.416 277.464 337.293 278.009C337.17 278.545 337.108 279.121 337.108 279.736ZM352.955 275.781V287H349.475V272.735H352.744L352.955 275.781ZM352.401 279.354H351.373C351.382 278.316 351.522 277.376 351.795 276.532C352.067 275.688 352.45 274.963 352.942 274.357C353.443 273.75 354.036 273.285 354.722 272.959C355.407 272.634 356.172 272.472 357.016 272.472C357.701 272.472 358.321 272.568 358.875 272.762C359.428 272.955 359.903 273.263 360.298 273.685C360.703 274.106 361.01 274.66 361.221 275.346C361.441 276.022 361.551 276.857 361.551 277.851V287H358.044V277.824C358.044 277.174 357.947 276.66 357.754 276.282C357.569 275.904 357.297 275.636 356.937 275.478C356.585 275.319 356.15 275.24 355.631 275.24C355.095 275.24 354.625 275.35 354.221 275.57C353.825 275.781 353.491 276.075 353.219 276.453C352.955 276.831 352.753 277.266 352.612 277.758C352.472 278.25 352.401 278.782 352.401 279.354ZM371.373 272.735V275.24H363.199V272.735H371.373ZM365.387 269.229H368.881V282.887C368.881 283.309 368.938 283.634 369.052 283.862C369.167 284.091 369.338 284.245 369.566 284.324C369.795 284.403 370.067 284.442 370.384 284.442C370.612 284.442 370.823 284.429 371.017 284.403C371.21 284.376 371.373 284.35 371.504 284.324L371.518 286.934C371.228 287.031 370.898 287.11 370.529 287.171C370.168 287.233 369.76 287.264 369.303 287.264C368.521 287.264 367.835 287.132 367.246 286.868C366.657 286.596 366.2 286.161 365.875 285.563C365.55 284.957 365.387 284.157 365.387 283.164V269.229ZM381.55 283.968V277.389C381.55 276.906 381.467 276.488 381.3 276.137C381.133 275.785 380.878 275.513 380.535 275.319C380.192 275.126 379.757 275.029 379.23 275.029C378.764 275.029 378.355 275.108 378.004 275.267C377.661 275.425 377.397 275.649 377.213 275.939C377.028 276.22 376.936 276.545 376.936 276.915H373.442C373.442 276.326 373.583 275.768 373.864 275.24C374.146 274.704 374.545 274.229 375.064 273.816C375.591 273.395 376.22 273.065 376.949 272.828C377.688 272.59 378.514 272.472 379.428 272.472C380.509 272.472 381.471 272.656 382.315 273.025C383.167 273.386 383.835 273.931 384.319 274.66C384.811 275.39 385.057 276.308 385.057 277.416V283.638C385.057 284.35 385.101 284.961 385.189 285.471C385.286 285.972 385.426 286.407 385.611 286.776V287H382.064C381.897 286.64 381.77 286.183 381.682 285.629C381.594 285.066 381.55 284.513 381.55 283.968ZM382.038 278.312L382.064 280.382H379.863C379.318 280.382 378.839 280.439 378.426 280.553C378.013 280.659 377.674 280.817 377.411 281.028C377.147 281.23 376.949 281.476 376.817 281.766C376.686 282.047 376.62 282.368 376.62 282.729C376.62 283.08 376.699 283.396 376.857 283.678C377.024 283.959 377.261 284.183 377.569 284.35C377.885 284.508 378.254 284.587 378.676 284.587C379.292 284.587 379.828 284.464 380.285 284.218C380.742 283.963 381.098 283.656 381.353 283.295C381.607 282.935 381.744 282.592 381.761 282.267L382.763 283.77C382.64 284.13 382.456 284.513 382.209 284.917C381.963 285.321 381.647 285.699 381.26 286.051C380.874 286.402 380.408 286.692 379.863 286.921C379.318 287.149 378.685 287.264 377.964 287.264C377.042 287.264 376.215 287.079 375.486 286.71C374.756 286.341 374.181 285.835 373.759 285.194C373.337 284.552 373.126 283.823 373.126 283.005C373.126 282.25 373.267 281.582 373.548 281.001C373.829 280.421 374.247 279.934 374.8 279.538C375.354 279.134 376.04 278.831 376.857 278.628C377.683 278.417 378.628 278.312 379.691 278.312H382.038ZM394.048 284.521C394.541 284.521 394.98 284.425 395.367 284.231C395.753 284.038 396.061 283.766 396.29 283.414C396.527 283.062 396.654 282.654 396.672 282.188H399.955C399.937 283.155 399.665 284.021 399.137 284.785C398.61 285.55 397.907 286.156 397.028 286.604C396.158 287.044 395.182 287.264 394.101 287.264C393.002 287.264 392.044 287.079 391.227 286.71C390.41 286.341 389.729 285.827 389.184 285.167C388.647 284.508 388.243 283.744 387.971 282.874C387.707 282.003 387.575 281.072 387.575 280.079V279.657C387.575 278.664 387.707 277.732 387.971 276.862C388.243 275.992 388.647 275.227 389.184 274.568C389.729 273.909 390.41 273.395 391.227 273.025C392.044 272.656 392.998 272.472 394.088 272.472C395.239 272.472 396.25 272.696 397.12 273.144C397.999 273.592 398.685 274.225 399.177 275.042C399.678 275.86 399.937 276.822 399.955 277.93H396.672C396.654 277.42 396.54 276.963 396.329 276.559C396.118 276.154 395.819 275.829 395.433 275.583C395.046 275.337 394.576 275.214 394.022 275.214C393.433 275.214 392.941 275.337 392.545 275.583C392.159 275.829 391.855 276.167 391.636 276.598C391.425 277.02 391.275 277.495 391.188 278.022C391.108 278.541 391.069 279.085 391.069 279.657V280.079C391.069 280.659 391.108 281.212 391.188 281.74C391.275 282.267 391.425 282.742 391.636 283.164C391.855 283.577 392.159 283.906 392.545 284.152C392.941 284.398 393.442 284.521 394.048 284.521ZM409.025 272.735V275.24H400.851V272.735H409.025ZM403.04 269.229H406.533V282.887C406.533 283.309 406.59 283.634 406.705 283.862C406.819 284.091 406.99 284.245 407.219 284.324C407.447 284.403 407.72 284.442 408.036 284.442C408.265 284.442 408.476 284.429 408.669 284.403C408.862 284.376 409.025 284.35 409.157 284.324L409.17 286.934C408.88 287.031 408.55 287.11 408.181 287.171C407.821 287.233 407.412 287.264 406.955 287.264C406.173 287.264 405.487 287.132 404.898 286.868C404.31 286.596 403.853 286.161 403.527 285.563C403.202 284.957 403.04 284.157 403.04 283.164V269.229ZM419.189 283.098C419.189 282.799 419.11 282.531 418.952 282.293C418.794 282.056 418.495 281.841 418.056 281.647C417.625 281.445 416.992 281.256 416.157 281.081C415.419 280.922 414.738 280.725 414.114 280.487C413.49 280.25 412.954 279.964 412.505 279.63C412.057 279.288 411.706 278.888 411.451 278.431C411.205 277.965 411.082 277.429 411.082 276.822C411.082 276.233 411.209 275.68 411.464 275.161C411.719 274.634 412.088 274.172 412.571 273.777C413.055 273.373 413.644 273.056 414.338 272.828C415.032 272.59 415.814 272.472 416.685 272.472C417.897 272.472 418.939 272.669 419.809 273.065C420.688 273.46 421.36 274.005 421.826 274.7C422.292 275.385 422.525 276.159 422.525 277.02H419.044C419.044 276.642 418.957 276.299 418.781 275.992C418.614 275.684 418.354 275.438 418.003 275.253C417.651 275.06 417.208 274.963 416.671 274.963C416.188 274.963 415.779 275.042 415.445 275.201C415.12 275.359 414.874 275.565 414.707 275.82C414.54 276.075 414.457 276.356 414.457 276.664C414.457 276.893 414.5 277.099 414.588 277.284C414.685 277.459 414.839 277.622 415.05 277.771C415.261 277.921 415.546 278.057 415.907 278.18C416.276 278.303 416.729 278.422 417.265 278.536C418.328 278.747 419.255 279.028 420.046 279.38C420.846 279.723 421.47 280.18 421.918 280.751C422.367 281.322 422.591 282.052 422.591 282.939C422.591 283.572 422.455 284.152 422.182 284.68C421.91 285.198 421.514 285.651 420.996 286.038C420.477 286.424 419.857 286.728 419.137 286.947C418.416 287.158 417.603 287.264 416.698 287.264C415.388 287.264 414.281 287.031 413.375 286.565C412.47 286.09 411.785 285.493 411.319 284.772C410.853 284.042 410.62 283.287 410.62 282.504H413.956C413.982 283.058 414.131 283.502 414.404 283.836C414.676 284.17 415.019 284.412 415.432 284.561C415.854 284.702 416.298 284.772 416.764 284.772C417.291 284.772 417.735 284.702 418.095 284.561C418.456 284.412 418.728 284.214 418.913 283.968C419.097 283.713 419.189 283.423 419.189 283.098ZM429.209 267.805L428.827 281.239H425.887L425.504 267.805H429.209ZM425.399 285.378C425.399 284.86 425.575 284.425 425.926 284.073C426.287 283.713 426.77 283.533 427.376 283.533C427.983 283.533 428.462 283.713 428.813 284.073C429.174 284.425 429.354 284.86 429.354 285.378C429.354 285.888 429.174 286.319 428.813 286.67C428.462 287.022 427.983 287.198 427.376 287.198C426.77 287.198 426.287 287.022 425.926 286.67C425.575 286.319 425.399 285.888 425.399 285.378Z" fill="black"/>
<rect x="556" y="145" width="29" height="29" rx="6" fill="#F55454" stroke="white" stroke-width="2"/>
<path d="M561 151L579 169M579 151L561 169" stroke="white" stroke-width="2"/>
<path d="M115.232 164.036V152.648H118.32V164.036C118.32 165.122 118.084 166.054 117.613 166.833C117.141 167.604 116.497 168.195 115.681 168.607C114.865 169.019 113.944 169.225 112.918 169.225C111.863 169.225 110.927 169.049 110.111 168.697C109.295 168.337 108.655 167.791 108.19 167.057C107.734 166.323 107.505 165.391 107.505 164.261H110.605C110.605 164.875 110.699 165.369 110.886 165.743C111.073 166.118 111.339 166.387 111.683 166.552C112.035 166.716 112.447 166.799 112.918 166.799C113.375 166.799 113.776 166.694 114.12 166.484C114.472 166.267 114.745 165.953 114.94 165.541C115.135 165.129 115.232 164.628 115.232 164.036ZM127.855 166.417V160.813C127.855 160.401 127.784 160.046 127.642 159.746C127.499 159.447 127.282 159.215 126.99 159.05C126.698 158.885 126.328 158.803 125.878 158.803C125.482 158.803 125.133 158.87 124.834 159.005C124.542 159.14 124.317 159.331 124.16 159.578C124.003 159.817 123.924 160.094 123.924 160.409H120.948C120.948 159.907 121.068 159.432 121.308 158.982C121.547 158.526 121.888 158.121 122.33 157.77C122.779 157.41 123.314 157.129 123.936 156.927C124.564 156.725 125.268 156.624 126.047 156.624C126.968 156.624 127.788 156.781 128.506 157.096C129.233 157.403 129.802 157.867 130.213 158.488C130.633 159.11 130.842 159.892 130.842 160.835V166.136C130.842 166.743 130.88 167.263 130.955 167.697C131.037 168.124 131.157 168.495 131.314 168.809V169H128.293C128.151 168.693 128.042 168.304 127.967 167.832C127.892 167.353 127.855 166.881 127.855 166.417ZM128.271 161.599L128.293 163.362H126.417C125.953 163.362 125.545 163.411 125.193 163.508C124.841 163.598 124.553 163.733 124.329 163.913C124.104 164.085 123.936 164.294 123.823 164.542C123.711 164.781 123.655 165.054 123.655 165.361C123.655 165.661 123.722 165.93 123.857 166.17C123.999 166.41 124.201 166.6 124.463 166.743C124.733 166.877 125.047 166.945 125.407 166.945C125.931 166.945 126.388 166.84 126.777 166.63C127.166 166.413 127.469 166.151 127.687 165.844C127.904 165.537 128.02 165.245 128.035 164.968L128.888 166.249C128.783 166.556 128.626 166.881 128.417 167.226C128.207 167.57 127.937 167.892 127.608 168.191C127.278 168.491 126.882 168.738 126.417 168.933C125.953 169.127 125.414 169.225 124.8 169.225C124.014 169.225 123.31 169.067 122.689 168.753C122.068 168.438 121.577 168.008 121.218 167.461C120.858 166.915 120.679 166.293 120.679 165.597C120.679 164.953 120.799 164.384 121.038 163.89C121.278 163.396 121.633 162.98 122.105 162.644C122.577 162.299 123.161 162.041 123.857 161.869C124.561 161.689 125.366 161.599 126.271 161.599H128.271ZM140.804 166.417V151.75H143.791V169H141.096L140.804 166.417ZM132.999 163.07V162.834C132.999 161.906 133.103 161.064 133.313 160.308C133.53 159.544 133.845 158.889 134.256 158.342C134.668 157.796 135.166 157.373 135.75 157.073C136.341 156.774 137.012 156.624 137.76 156.624C138.486 156.624 139.119 156.77 139.658 157.062C140.205 157.354 140.669 157.77 141.051 158.309C141.44 158.848 141.751 159.488 141.983 160.229C142.215 160.963 142.383 161.771 142.488 162.655V163.295C142.383 164.156 142.215 164.946 141.983 165.665C141.751 166.383 141.44 167.012 141.051 167.551C140.669 168.083 140.205 168.495 139.658 168.787C139.112 169.079 138.472 169.225 137.738 169.225C136.997 169.225 136.33 169.071 135.739 168.764C135.155 168.457 134.657 168.027 134.245 167.473C133.841 166.919 133.53 166.267 133.313 165.519C133.103 164.77 132.999 163.954 132.999 163.07ZM135.975 162.834V163.07C135.975 163.594 136.02 164.085 136.109 164.542C136.199 164.998 136.345 165.403 136.547 165.754C136.75 166.099 137.008 166.368 137.322 166.563C137.644 166.758 138.034 166.855 138.49 166.855C139.074 166.855 139.553 166.728 139.928 166.473C140.31 166.211 140.605 165.855 140.815 165.406C141.025 164.95 141.159 164.437 141.219 163.868V162.104C141.189 161.655 141.111 161.24 140.983 160.858C140.864 160.476 140.691 160.147 140.467 159.87C140.25 159.593 139.98 159.375 139.658 159.218C139.336 159.061 138.954 158.982 138.513 158.982C138.056 158.982 137.667 159.083 137.345 159.286C137.023 159.48 136.761 159.754 136.559 160.105C136.356 160.457 136.207 160.865 136.109 161.33C136.02 161.794 135.975 162.295 135.975 162.834ZM151.933 169.225C151.012 169.225 150.185 169.075 149.451 168.775C148.717 168.476 148.092 168.06 147.576 167.529C147.067 166.99 146.674 166.365 146.396 165.653C146.127 164.935 145.992 164.163 145.992 163.34V162.891C145.992 161.955 146.127 161.105 146.396 160.341C146.666 159.57 147.048 158.908 147.542 158.354C148.036 157.799 148.628 157.373 149.316 157.073C150.005 156.774 150.765 156.624 151.596 156.624C152.457 156.624 153.217 156.77 153.876 157.062C154.535 157.347 155.085 157.751 155.527 158.275C155.969 158.799 156.302 159.428 156.526 160.162C156.751 160.888 156.863 161.693 156.863 162.576V163.823H147.34V161.779H153.943V161.554C153.928 161.083 153.839 160.652 153.674 160.263C153.509 159.866 153.255 159.551 152.91 159.319C152.566 159.08 152.12 158.96 151.574 158.96C151.132 158.96 150.746 159.057 150.417 159.252C150.095 159.439 149.826 159.709 149.608 160.061C149.399 160.405 149.242 160.817 149.137 161.296C149.032 161.775 148.979 162.307 148.979 162.891V163.34C148.979 163.849 149.047 164.321 149.182 164.755C149.324 165.189 149.53 165.567 149.799 165.889C150.076 166.204 150.406 166.451 150.788 166.63C151.177 166.803 151.619 166.889 152.113 166.889C152.734 166.889 153.296 166.769 153.797 166.529C154.306 166.282 154.748 165.919 155.123 165.44L156.616 166.99C156.362 167.364 156.017 167.723 155.583 168.068C155.156 168.412 154.64 168.693 154.033 168.91C153.427 169.12 152.727 169.225 151.933 169.225ZM158.975 167.551C158.975 167.102 159.128 166.724 159.435 166.417C159.742 166.11 160.158 165.957 160.682 165.957C161.206 165.957 161.621 166.11 161.928 166.417C162.235 166.724 162.389 167.102 162.389 167.551C162.389 167.993 162.235 168.367 161.928 168.674C161.621 168.974 161.206 169.124 160.682 169.124C160.158 169.124 159.742 168.974 159.435 168.674C159.128 168.367 158.975 167.993 158.975 167.551ZM170.845 169.225C169.924 169.225 169.097 169.075 168.363 168.775C167.63 168.476 167.004 168.06 166.488 167.529C165.979 166.99 165.586 166.365 165.309 165.653C165.039 164.935 164.904 164.163 164.904 163.34V162.891C164.904 161.955 165.039 161.105 165.309 160.341C165.578 159.57 165.96 158.908 166.454 158.354C166.948 157.799 167.54 157.373 168.229 157.073C168.917 156.774 169.677 156.624 170.508 156.624C171.369 156.624 172.129 156.77 172.788 157.062C173.447 157.347 173.997 157.751 174.439 158.275C174.881 158.799 175.214 159.428 175.438 160.162C175.663 160.888 175.775 161.693 175.775 162.576V163.823H166.252V161.779H172.855V161.554C172.84 161.083 172.751 160.652 172.586 160.263C172.421 159.866 172.167 159.551 171.822 159.319C171.478 159.08 171.032 158.96 170.486 158.96C170.044 158.96 169.659 159.057 169.329 159.252C169.007 159.439 168.738 159.709 168.521 160.061C168.311 160.405 168.154 160.817 168.049 161.296C167.944 161.775 167.892 162.307 167.892 162.891V163.34C167.892 163.849 167.959 164.321 168.094 164.755C168.236 165.189 168.442 165.567 168.711 165.889C168.988 166.204 169.318 166.451 169.7 166.63C170.089 166.803 170.531 166.889 171.025 166.889C171.646 166.889 172.208 166.769 172.709 166.529C173.219 166.282 173.66 165.919 174.035 165.44L175.528 166.99C175.274 167.364 174.929 167.723 174.495 168.068C174.068 168.412 173.552 168.693 172.945 168.91C172.339 169.12 171.639 169.225 170.845 169.225ZM180.088 156.849L182.255 160.712L184.457 156.849H187.68L184.108 162.801L187.826 169H184.603L182.278 164.946L179.942 169H176.719L180.425 162.801L176.876 156.849H180.088ZM194.631 169.225C193.71 169.225 192.883 169.075 192.149 168.775C191.416 168.476 190.791 168.06 190.274 167.529C189.765 166.99 189.372 166.365 189.095 165.653C188.825 164.935 188.69 164.163 188.69 163.34V162.891C188.69 161.955 188.825 161.105 189.095 160.341C189.364 159.57 189.746 158.908 190.24 158.354C190.734 157.799 191.326 157.373 192.015 157.073C192.703 156.774 193.463 156.624 194.294 156.624C195.155 156.624 195.915 156.77 196.574 157.062C197.233 157.347 197.783 157.751 198.225 158.275C198.667 158.799 199 159.428 199.225 160.162C199.449 160.888 199.562 161.693 199.562 162.576V163.823H190.038V161.779H196.642V161.554C196.627 161.083 196.537 160.652 196.372 160.263C196.207 159.866 195.953 159.551 195.608 159.319C195.264 159.08 194.819 158.96 194.272 158.96C193.83 158.96 193.445 159.057 193.115 159.252C192.793 159.439 192.524 159.709 192.307 160.061C192.097 160.405 191.94 160.817 191.835 161.296C191.73 161.775 191.678 162.307 191.678 162.891V163.34C191.678 163.849 191.745 164.321 191.88 164.755C192.022 165.189 192.228 165.567 192.498 165.889C192.775 166.204 193.104 166.451 193.486 166.63C193.875 166.803 194.317 166.889 194.811 166.889C195.432 166.889 195.994 166.769 196.496 166.529C197.005 166.282 197.446 165.919 197.821 165.44L199.314 166.99C199.06 167.364 198.715 167.723 198.281 168.068C197.854 168.412 197.338 168.693 196.731 168.91C196.125 169.12 195.425 169.225 194.631 169.225Z" fill="white"/>
<defs>
<filter id="filter0_d_221_7" x="-6.10352e-05" y="0" width="700.116" height="611.044" filterUnits="userSpaceOnUse" color-interpolation-filters="sRGB">
<feFlood flood-opacity="0" result="BackgroundImageFix"/>
<feColorMatrix in="SourceAlpha" type="matrix" values="0 0 0 0 0 0 0 0 0 0 0 0 0 0 0 0 0 0 127 0" result="hardAlpha"/>
<feOffset dx="10" dy="20"/>
<feGaussianBlur stdDeviation="5"/>
<feComposite in2="hardAlpha" operator="out"/>
<feColorMatrix type="matrix" values="0 0 0 0 0 0 0 0 0 0 0 0 0 0 0 0 0 0 0.25 0"/>
<feBlend mode="normal" in2="BackgroundImageFix" result="effect1_dropShadow_221_7"/>
<feBlend mode="normal" in="SourceGraphic" in2="effect1_dropShadow_221_7" result="shape"/>
</filter>
<filter id="filter1_d_221_7" x="84" y="139" width="528" height="190" filterUnits="userSpaceOnUse" color-interpolation-filters="sRGB">
<feFlood flood-opacity="0" result="BackgroundImageFix"/>
<feColorMatrix in="SourceAlpha" type="matrix" values="0 0 0 0 0 0 0 0 0 0 0 0 0 0 0 0 0 0 127 0" result="hardAlpha"/>
<feOffset dx="10" dy="10"/>
<feGaussianBlur stdDeviation="2.5"/>
<feComposite in2="hardAlpha" operator="out"/>
<feColorMatrix type="matrix" values="0 0 0 0 0 0 0 0 0 0 0 0 0 0 0 0 0 0 0.25 0"/>
<feBlend mode="normal" in2="BackgroundImageFix" result="effect1_dropShadow_221_7"/>
<feBlend mode="normal" in="SourceGraphic" in2="effect1_dropShadow_221_7" result="shape"/>
</filter>
<filter id="filter2_d_221_7" x="80" y="139" width="521" height="50" filterUnits="userSpaceOnUse" color-interpolation-filters="sRGB">
<feFlood flood-opacity="0" result="BackgroundImageFix"/>
<feColorMatrix in="SourceAlpha" type="matrix" values="0 0 0 0 0 0 0 0 0 0 0 0 0 0 0 0 0 0 127 0" result="hardAlpha"/>
<feOffset dy="4"/>
<feGaussianBlur stdDeviation="2"/>
<feComposite in2="hardAlpha" operator="out"/>
<feColorMatrix type="matrix" values="0 0 0 0 0 0 0 0 0 0 0 0 0 0 0 0 0 0 0.25 0"/>
<feBlend mode="normal" in2="BackgroundImageFix" result="effect1_dropShadow_221_7"/>
<feBlend mode="normal" in="SourceGraphic" in2="effect1_dropShadow_221_7" result="shape"/>
</filter>
</defs>
</svg>
