<svg width="319" height="508" viewBox="0 0 319 508" fill="none" xmlns="http://www.w3.org/2000/svg">
<g filter="url(#filter0_d_212_33)">
<rect x="31.9733" width="256.117" height="477.209" rx="40" fill="black"/>
<rect x="49.4855" y="19.7012" width="221.092" height="437.807" rx="22" fill="#97C1BA"/>
<path d="M102.022 17.5122L216.947 17.5122V26.308C216.947 32.9354 211.574 38.308 204.947 38.308L114.022 38.308C107.395 38.308 102.022 32.9354 102.022 26.308V17.5122Z" fill="black"/>
<rect x="139.236" y="22.9849" width="40.4971" height="5.47258" rx="2.73629" fill="#C4C4C4"/>
<circle cx="196.698" cy="25.7209" r="3.83081" fill="#C4C4C4"/>
</g>
<rect x="0.26532" y="144.532" width="318.469" height="131.468" rx="15" fill="#C7C7C7"/>
<path d="M0.26532 159.532C0.26532 151.248 6.98105 144.532 15.2653 144.532H303.735C312.019 144.532 318.735 151.248 318.735 159.532V185.333H0.26532V159.532Z" fill="#D9D9D9"/>
<rect x="18.2985" y="151.333" width="29.6675" height="29.6675" rx="5" fill="url(#paint0_linear_212_33)"/>
<path fill-rule="evenodd" clip-rule="evenodd" d="M33.388 174.697C39.2813 174.697 44.0589 170.738 44.0589 165.855C44.0589 160.972 39.2813 157.014 33.388 157.014C27.4946 157.014 22.7171 160.972 22.7171 165.855C22.7171 168.13 23.7534 170.203 25.4561 171.77L23.7676 175.319L27.8123 173.395C29.4349 174.221 31.3443 174.697 33.388 174.697Z" fill="#EDEDED"/>
<path d="M66.1239 162.335H67.4935L70.9871 171.029L74.4735 162.335H75.8504L71.5145 172.999H70.4451L66.1239 162.335ZM65.6771 162.335H66.8856L67.0833 168.839V172.999H65.6771V162.335ZM75.0814 162.335H76.2899V172.999H74.8836V168.839L75.0814 162.335ZM85.5477 171.849V172.999H79.9007V171.849H85.5477ZM80.1864 162.335V172.999H78.7728V162.335H80.1864ZM84.8006 166.92V168.07H79.9007V166.92H84.8006ZM85.4744 162.335V163.492H79.9007V162.335H85.4744ZM92.9818 170.304C92.9818 170.055 92.9427 169.835 92.8646 169.645C92.7913 169.449 92.6595 169.273 92.4691 169.117C92.2835 168.961 92.0247 168.812 91.6927 168.67C91.3656 168.529 90.9505 168.385 90.4476 168.238C89.9202 168.082 89.4442 167.909 89.0194 167.718C88.5946 167.523 88.2308 167.301 87.9281 167.052C87.6253 166.803 87.3934 166.517 87.2323 166.195C87.0711 165.873 86.9906 165.504 86.9906 165.089C86.9906 164.674 87.076 164.291 87.2469 163.939C87.4178 163.587 87.6619 163.282 87.9793 163.023C88.3016 162.76 88.6849 162.555 89.1292 162.408C89.5736 162.262 90.0692 162.188 90.616 162.188C91.4168 162.188 92.0955 162.342 92.6522 162.65C93.2137 162.953 93.6409 163.351 93.9339 163.844C94.2269 164.332 94.3734 164.854 94.3734 165.411H92.9671C92.9671 165.011 92.8817 164.657 92.7108 164.349C92.5399 164.037 92.2811 163.792 91.9344 163.617C91.5877 163.436 91.1483 163.346 90.616 163.346C90.1131 163.346 89.6981 163.421 89.3709 163.573C89.0438 163.724 88.7996 163.929 88.6385 164.188C88.4823 164.447 88.4041 164.742 88.4041 165.074C88.4041 165.299 88.4505 165.504 88.5433 165.689C88.6409 165.87 88.7899 166.039 88.9901 166.195C89.1951 166.351 89.4539 166.495 89.7664 166.627C90.0838 166.759 90.4622 166.886 90.9017 167.008C91.5072 167.179 92.0296 167.369 92.4691 167.579C92.9085 167.789 93.2699 168.026 93.5531 168.29C93.8411 168.548 94.0535 168.844 94.1903 169.176C94.3319 169.503 94.4027 169.874 94.4027 170.289C94.4027 170.724 94.3148 171.117 94.139 171.468C93.9632 171.82 93.7118 172.12 93.3846 172.369C93.0575 172.618 92.6644 172.811 92.2054 172.948C91.7513 173.08 91.2435 173.146 90.682 173.146C90.1888 173.146 89.703 173.077 89.2244 172.94C88.7508 172.804 88.3187 172.599 87.9281 172.325C87.5423 172.052 87.2323 171.715 86.9979 171.314C86.7684 170.909 86.6536 170.44 86.6536 169.908H88.0599C88.0599 170.274 88.1307 170.589 88.2723 170.853C88.4139 171.112 88.6068 171.327 88.8509 171.498C89.0999 171.668 89.3807 171.795 89.6932 171.878C90.0106 171.957 90.3402 171.996 90.682 171.996C91.1751 171.996 91.5926 171.927 91.9344 171.791C92.2762 171.654 92.535 171.458 92.7108 171.205C92.8914 170.951 92.9818 170.65 92.9818 170.304ZM101.888 170.304C101.888 170.055 101.849 169.835 101.771 169.645C101.698 169.449 101.566 169.273 101.375 169.117C101.19 168.961 100.931 168.812 100.599 168.67C100.272 168.529 99.8568 168.385 99.3538 168.238C98.8265 168.082 98.3504 167.909 97.9256 167.718C97.5008 167.523 97.137 167.301 96.8343 167.052C96.5316 166.803 96.2996 166.517 96.1385 166.195C95.9774 165.873 95.8968 165.504 95.8968 165.089C95.8968 164.674 95.9823 164.291 96.1532 163.939C96.3241 163.587 96.5682 163.282 96.8856 163.023C97.2078 162.76 97.5911 162.555 98.0355 162.408C98.4798 162.262 98.9754 162.188 99.5223 162.188C100.323 162.188 101.002 162.342 101.558 162.65C102.12 162.953 102.547 163.351 102.84 163.844C103.133 164.332 103.28 164.854 103.28 165.411H101.873C101.873 165.011 101.788 164.657 101.617 164.349C101.446 164.037 101.187 163.792 100.841 163.617C100.494 163.436 100.055 163.346 99.5223 163.346C99.0194 163.346 98.6043 163.421 98.2772 163.573C97.95 163.724 97.7059 163.929 97.5448 164.188C97.3885 164.447 97.3104 164.742 97.3104 165.074C97.3104 165.299 97.3568 165.504 97.4495 165.689C97.5472 165.87 97.6961 166.039 97.8963 166.195C98.1014 166.351 98.3602 166.495 98.6727 166.627C98.9901 166.759 99.3685 166.886 99.8079 167.008C100.413 167.179 100.936 167.369 101.375 167.579C101.815 167.789 102.176 168.026 102.459 168.29C102.747 168.548 102.96 168.844 103.097 169.176C103.238 169.503 103.309 169.874 103.309 170.289C103.309 170.724 103.221 171.117 103.045 171.468C102.869 171.82 102.618 172.12 102.291 172.369C101.964 172.618 101.571 172.811 101.112 172.948C100.658 173.08 100.15 173.146 99.5882 173.146C99.0951 173.146 98.6092 173.077 98.1307 172.94C97.6571 172.804 97.2249 172.599 96.8343 172.325C96.4486 172.052 96.1385 171.715 95.9041 171.314C95.6746 170.909 95.5599 170.44 95.5599 169.908H96.9661C96.9661 170.274 97.0369 170.589 97.1785 170.853C97.3201 171.112 97.513 171.327 97.7572 171.498C98.0062 171.668 98.2869 171.795 98.5994 171.878C98.9168 171.957 99.2464 171.996 99.5882 171.996C100.081 171.996 100.499 171.927 100.841 171.791C101.182 171.654 101.441 171.458 101.617 171.205C101.798 170.951 101.888 170.65 101.888 170.304ZM109.058 163.28L105.528 172.999H104.085L108.15 162.335H109.08L109.058 163.28ZM112.017 172.999L108.48 163.28L108.458 162.335H109.388L113.468 172.999H112.017ZM111.834 169.051V170.208H105.843V169.051H111.834ZM122.689 167.689V171.593C122.557 171.788 122.347 172.008 122.059 172.252C121.771 172.491 121.373 172.701 120.865 172.882C120.362 173.058 119.713 173.146 118.917 173.146C118.267 173.146 117.669 173.033 117.122 172.809C116.58 172.579 116.109 172.247 115.709 171.812C115.313 171.373 115.006 170.841 114.786 170.216C114.571 169.586 114.464 168.873 114.464 168.077V167.25C114.464 166.454 114.556 165.743 114.742 165.118C114.932 164.493 115.211 163.963 115.577 163.529C115.943 163.089 116.392 162.757 116.925 162.533C117.457 162.303 118.067 162.188 118.756 162.188C119.571 162.188 120.252 162.33 120.799 162.613C121.351 162.892 121.781 163.277 122.088 163.771C122.401 164.264 122.601 164.825 122.689 165.455H121.275C121.212 165.069 121.085 164.718 120.894 164.4C120.709 164.083 120.443 163.829 120.096 163.639C119.749 163.443 119.303 163.346 118.756 163.346C118.263 163.346 117.835 163.436 117.474 163.617C117.113 163.797 116.815 164.056 116.58 164.393C116.346 164.73 116.17 165.138 116.053 165.616C115.941 166.095 115.885 166.634 115.885 167.235V168.077C115.885 168.692 115.955 169.242 116.097 169.725C116.243 170.208 116.451 170.621 116.72 170.963C116.988 171.3 117.308 171.556 117.679 171.732C118.055 171.908 118.47 171.996 118.924 171.996C119.427 171.996 119.835 171.954 120.147 171.871C120.46 171.783 120.704 171.681 120.88 171.563C121.056 171.441 121.19 171.327 121.283 171.219V168.832H118.814V167.689H122.689ZM131.807 171.849V172.999H126.16V171.849H131.807ZM126.446 162.335V172.999H125.033V162.335H126.446ZM131.06 166.92V168.07H126.16V166.92H131.06ZM131.734 162.335V163.492H126.16V162.335H131.734ZM139.242 170.304C139.242 170.055 139.202 169.835 139.124 169.645C139.051 169.449 138.919 169.273 138.729 169.117C138.543 168.961 138.285 168.812 137.952 168.67C137.625 168.529 137.21 168.385 136.707 168.238C136.18 168.082 135.704 167.909 135.279 167.718C134.854 167.523 134.491 167.301 134.188 167.052C133.885 166.803 133.653 166.517 133.492 166.195C133.331 165.873 133.25 165.504 133.25 165.089C133.25 164.674 133.336 164.291 133.507 163.939C133.678 163.587 133.922 163.282 134.239 163.023C134.561 162.76 134.945 162.555 135.389 162.408C135.833 162.262 136.329 162.188 136.876 162.188C137.677 162.188 138.355 162.342 138.912 162.65C139.473 162.953 139.901 163.351 140.194 163.844C140.487 164.332 140.633 164.854 140.633 165.411H139.227C139.227 165.011 139.141 164.657 138.971 164.349C138.8 164.037 138.541 163.792 138.194 163.617C137.847 163.436 137.408 163.346 136.876 163.346C136.373 163.346 135.958 163.421 135.631 163.573C135.304 163.724 135.059 163.929 134.898 164.188C134.742 164.447 134.664 164.742 134.664 165.074C134.664 165.299 134.71 165.504 134.803 165.689C134.901 165.87 135.05 166.039 135.25 166.195C135.455 166.351 135.714 166.495 136.026 166.627C136.344 166.759 136.722 166.886 137.161 167.008C137.767 167.179 138.289 167.369 138.729 167.579C139.168 167.789 139.53 168.026 139.813 168.29C140.101 168.548 140.313 168.844 140.45 169.176C140.592 169.503 140.662 169.874 140.662 170.289C140.662 170.724 140.575 171.117 140.399 171.468C140.223 171.82 139.972 172.12 139.644 172.369C139.317 172.618 138.924 172.811 138.465 172.948C138.011 173.08 137.503 173.146 136.942 173.146C136.449 173.146 135.963 173.077 135.484 172.94C135.011 172.804 134.578 172.599 134.188 172.325C133.802 172.052 133.492 171.715 133.258 171.314C133.028 170.909 132.913 170.44 132.913 169.908H134.32C134.32 170.274 134.39 170.589 134.532 170.853C134.674 171.112 134.867 171.327 135.111 171.498C135.36 171.668 135.64 171.795 135.953 171.878C136.27 171.957 136.6 171.996 136.942 171.996C137.435 171.996 137.852 171.927 138.194 171.791C138.536 171.654 138.795 171.458 138.971 171.205C139.151 170.951 139.242 170.65 139.242 170.304Z" fill="#737373"/>
<path d="M276.759 166.767V173H275.404V165.075H276.685L276.759 166.767ZM276.436 168.737L275.872 168.715C275.877 168.173 275.958 167.673 276.114 167.214C276.27 166.75 276.49 166.347 276.773 166.005C277.057 165.664 277.393 165.4 277.784 165.214C278.18 165.024 278.617 164.929 279.095 164.929C279.486 164.929 279.837 164.982 280.15 165.09C280.462 165.192 280.728 165.358 280.948 165.588C281.173 165.817 281.344 166.115 281.461 166.481C281.578 166.843 281.637 167.285 281.637 167.807V173H280.274V167.792C280.274 167.377 280.213 167.045 280.091 166.796C279.969 166.542 279.791 166.359 279.557 166.247C279.322 166.13 279.034 166.071 278.692 166.071C278.355 166.071 278.048 166.142 277.769 166.284C277.496 166.425 277.259 166.621 277.059 166.87C276.864 167.119 276.71 167.404 276.598 167.727C276.49 168.044 276.436 168.381 276.436 168.737ZM283.336 169.125V168.957C283.336 168.386 283.419 167.856 283.585 167.368C283.751 166.875 283.99 166.447 284.303 166.086C284.615 165.72 284.994 165.437 285.438 165.236C285.882 165.031 286.38 164.929 286.932 164.929C287.489 164.929 287.989 165.031 288.433 165.236C288.883 165.437 289.264 165.72 289.576 166.086C289.893 166.447 290.135 166.875 290.301 167.368C290.467 167.856 290.55 168.386 290.55 168.957V169.125C290.55 169.697 290.467 170.227 290.301 170.715C290.135 171.203 289.893 171.63 289.576 171.997C289.264 172.358 288.885 172.641 288.441 172.846C288.001 173.046 287.503 173.146 286.947 173.146C286.39 173.146 285.89 173.046 285.445 172.846C285.001 172.641 284.62 172.358 284.303 171.997C283.99 171.63 283.751 171.203 283.585 170.715C283.419 170.227 283.336 169.697 283.336 169.125ZM284.691 168.957V169.125C284.691 169.521 284.737 169.895 284.83 170.246C284.923 170.593 285.062 170.9 285.247 171.169C285.438 171.438 285.675 171.65 285.958 171.806C286.241 171.958 286.571 172.033 286.947 172.033C287.318 172.033 287.642 171.958 287.921 171.806C288.204 171.65 288.438 171.438 288.624 171.169C288.809 170.9 288.949 170.593 289.041 170.246C289.139 169.895 289.188 169.521 289.188 169.125V168.957C289.188 168.566 289.139 168.198 289.041 167.851C288.949 167.5 288.807 167.189 288.617 166.921C288.431 166.647 288.197 166.433 287.913 166.276C287.635 166.12 287.308 166.042 286.932 166.042C286.561 166.042 286.234 166.12 285.951 166.276C285.672 166.433 285.438 166.647 285.247 166.921C285.062 167.189 284.923 167.5 284.83 167.851C284.737 168.198 284.691 168.566 284.691 168.957ZM294.256 171.594L296.292 165.075H297.186L297.01 166.372L294.937 173H294.066L294.256 171.594ZM292.887 165.075L294.622 171.667L294.747 173H293.831L291.532 165.075H292.887ZM299.134 171.616L300.789 165.075H302.137L299.837 173H298.929L299.134 171.616ZM297.384 165.075L299.376 171.484L299.603 173H298.739L296.607 166.357L296.432 165.075H297.384Z" fill="#737373"/>
<path d="M23.8027 234.781L27.1035 241.568L30.4043 234.781H33.1191L28.334 243.766V249H25.8633V243.766L21.0781 234.781H23.8027ZM33.3438 243.834V243.609C33.3438 242.848 33.4544 242.141 33.6758 241.49C33.8971 240.833 34.2161 240.263 34.6328 239.781C35.056 239.293 35.5703 238.915 36.1758 238.648C36.7878 238.375 37.4779 238.238 38.2461 238.238C39.0208 238.238 39.7109 238.375 40.3164 238.648C40.9284 238.915 41.446 239.293 41.8691 239.781C42.2923 240.263 42.6146 240.833 42.8359 241.49C43.0573 242.141 43.168 242.848 43.168 243.609V243.834C43.168 244.596 43.0573 245.302 42.8359 245.953C42.6146 246.604 42.2923 247.174 41.8691 247.662C41.446 248.144 40.9316 248.521 40.3262 248.795C39.7207 249.062 39.0339 249.195 38.2656 249.195C37.4909 249.195 36.7975 249.062 36.1855 248.795C35.5801 248.521 35.0658 248.144 34.6426 247.662C34.2194 247.174 33.8971 246.604 33.6758 245.953C33.4544 245.302 33.3438 244.596 33.3438 243.834ZM35.6973 243.609V243.834C35.6973 244.309 35.7461 244.758 35.8438 245.182C35.9414 245.605 36.0944 245.976 36.3027 246.295C36.5111 246.614 36.778 246.865 37.1035 247.047C37.429 247.229 37.8164 247.32 38.2656 247.32C38.7018 247.32 39.0794 247.229 39.3984 247.047C39.724 246.865 39.9909 246.614 40.1992 246.295C40.4076 245.976 40.5605 245.605 40.6582 245.182C40.7624 244.758 40.8145 244.309 40.8145 243.834V243.609C40.8145 243.141 40.7624 242.698 40.6582 242.281C40.5605 241.858 40.4043 241.484 40.1895 241.158C39.9811 240.833 39.7142 240.579 39.3887 240.396C39.0697 240.208 38.6888 240.113 38.2461 240.113C37.8034 240.113 37.4193 240.208 37.0938 240.396C36.7747 240.579 36.5111 240.833 36.3027 241.158C36.0944 241.484 35.9414 241.858 35.8438 242.281C35.7461 242.698 35.6973 243.141 35.6973 243.609ZM51.498 246.51V238.434H53.8613V249H51.6348L51.498 246.51ZM51.8301 244.312L52.6211 244.293C52.6211 245.003 52.543 245.657 52.3867 246.256C52.2305 246.848 51.9896 247.366 51.6641 247.809C51.3385 248.245 50.9219 248.587 50.4141 248.834C49.9062 249.075 49.2975 249.195 48.5879 249.195C48.0736 249.195 47.6016 249.12 47.1719 248.971C46.7422 248.821 46.3711 248.59 46.0586 248.277C45.7526 247.965 45.515 247.558 45.3457 247.057C45.1764 246.555 45.0918 245.956 45.0918 245.26V238.434H47.4453V245.279C47.4453 245.663 47.4909 245.986 47.582 246.246C47.6732 246.5 47.7969 246.705 47.9531 246.861C48.1094 247.018 48.2917 247.128 48.5 247.193C48.7083 247.258 48.9297 247.291 49.1641 247.291C49.8346 247.291 50.362 247.161 50.7461 246.9C51.1367 246.633 51.4134 246.275 51.5762 245.826C51.7454 245.377 51.8301 244.872 51.8301 244.312ZM68.0215 238.434H70.1602V248.707C70.1602 249.658 69.9583 250.465 69.5547 251.129C69.151 251.793 68.5879 252.298 67.8652 252.643C67.1426 252.994 66.306 253.17 65.3555 253.17C64.9518 253.17 64.5026 253.111 64.0078 252.994C63.5195 252.877 63.0443 252.688 62.582 252.428C62.1263 252.174 61.7454 251.839 61.4395 251.422L62.543 250.035C62.9206 250.484 63.3372 250.813 63.793 251.021C64.2487 251.23 64.7272 251.334 65.2285 251.334C65.7689 251.334 66.2279 251.233 66.6055 251.031C66.9896 250.836 67.2858 250.546 67.4941 250.162C67.7025 249.778 67.8066 249.309 67.8066 248.756V240.826L68.0215 238.434ZM60.8438 243.834V243.629C60.8438 242.828 60.9414 242.099 61.1367 241.441C61.332 240.777 61.612 240.208 61.9766 239.732C62.3411 239.251 62.7839 238.883 63.3047 238.629C63.8255 238.368 64.4147 238.238 65.0723 238.238C65.7559 238.238 66.3385 238.362 66.8203 238.609C67.3086 238.857 67.7155 239.212 68.041 239.674C68.3665 240.13 68.6204 240.676 68.8027 241.314C68.9915 241.946 69.1315 242.649 69.2227 243.424V244.078C69.138 244.833 68.9948 245.523 68.793 246.148C68.5911 246.773 68.3242 247.314 67.9922 247.77C67.6602 248.225 67.25 248.577 66.7617 248.824C66.2799 249.072 65.7103 249.195 65.0527 249.195C64.4082 249.195 63.8255 249.062 63.3047 248.795C62.7904 248.528 62.3477 248.154 61.9766 247.672C61.612 247.19 61.332 246.624 61.1367 245.973C60.9414 245.315 60.8438 244.602 60.8438 243.834ZM63.1973 243.629V243.834C63.1973 244.316 63.2428 244.765 63.334 245.182C63.4316 245.598 63.5781 245.966 63.7734 246.285C63.9753 246.598 64.2292 246.845 64.5352 247.027C64.8477 247.203 65.2155 247.291 65.6387 247.291C66.1921 247.291 66.6445 247.174 66.9961 246.939C67.3542 246.705 67.6276 246.389 67.8164 245.992C68.0117 245.589 68.1484 245.139 68.2266 244.645V242.877C68.1875 242.493 68.1061 242.135 67.9824 241.803C67.8652 241.471 67.7057 241.181 67.5039 240.934C67.3021 240.68 67.0482 240.484 66.7422 240.348C66.4362 240.204 66.0749 240.133 65.6582 240.133C65.235 240.133 64.8672 240.224 64.5547 240.406C64.2422 240.589 63.985 240.839 63.7832 241.158C63.5879 241.477 63.4414 241.848 63.3438 242.271C63.2461 242.695 63.1973 243.147 63.1973 243.629ZM72.1523 243.834V243.609C72.1523 242.848 72.263 242.141 72.4844 241.49C72.7057 240.833 73.0247 240.263 73.4414 239.781C73.8646 239.293 74.3789 238.915 74.9844 238.648C75.5964 238.375 76.2865 238.238 77.0547 238.238C77.8294 238.238 78.5195 238.375 79.125 238.648C79.737 238.915 80.2546 239.293 80.6777 239.781C81.1009 240.263 81.4232 240.833 81.6445 241.49C81.8659 242.141 81.9766 242.848 81.9766 243.609V243.834C81.9766 244.596 81.8659 245.302 81.6445 245.953C81.4232 246.604 81.1009 247.174 80.6777 247.662C80.2546 248.144 79.7402 248.521 79.1348 248.795C78.5293 249.062 77.8424 249.195 77.0742 249.195C76.2995 249.195 75.6061 249.062 74.9941 248.795C74.3887 248.521 73.8743 248.144 73.4512 247.662C73.028 247.174 72.7057 246.604 72.4844 245.953C72.263 245.302 72.1523 244.596 72.1523 243.834ZM74.5059 243.609V243.834C74.5059 244.309 74.5547 244.758 74.6523 245.182C74.75 245.605 74.903 245.976 75.1113 246.295C75.3197 246.614 75.5866 246.865 75.9121 247.047C76.2376 247.229 76.625 247.32 77.0742 247.32C77.5104 247.32 77.888 247.229 78.207 247.047C78.5326 246.865 78.7995 246.614 79.0078 246.295C79.2161 245.976 79.3691 245.605 79.4668 245.182C79.571 244.758 79.623 244.309 79.623 243.834V243.609C79.623 243.141 79.571 242.698 79.4668 242.281C79.3691 241.858 79.2129 241.484 78.998 241.158C78.7897 240.833 78.5228 240.579 78.1973 240.396C77.8783 240.208 77.4974 240.113 77.0547 240.113C76.612 240.113 76.2279 240.208 75.9023 240.396C75.5833 240.579 75.3197 240.833 75.1113 241.158C74.903 241.484 74.75 241.858 74.6523 242.281C74.5547 242.698 74.5059 243.141 74.5059 243.609ZM88.793 238.434V240.152H82.8359V238.434H88.793ZM84.5547 235.846H86.9082V246.08C86.9082 246.406 86.9538 246.656 87.0449 246.832C87.1426 247.001 87.276 247.115 87.4453 247.174C87.6146 247.232 87.8132 247.262 88.041 247.262C88.2038 247.262 88.36 247.252 88.5098 247.232C88.6595 247.213 88.7799 247.193 88.8711 247.174L88.8809 248.971C88.6855 249.029 88.4577 249.081 88.1973 249.127C87.9434 249.173 87.6504 249.195 87.3184 249.195C86.778 249.195 86.2995 249.101 85.8828 248.912C85.4661 248.717 85.1406 248.401 84.9062 247.965C84.6719 247.529 84.5547 246.949 84.5547 246.227V235.846ZM97.9434 240.582V249H95.5898V238.434H97.8066L97.9434 240.582ZM97.5625 243.326L96.7617 243.316C96.7617 242.587 96.8529 241.913 97.0352 241.295C97.2174 240.676 97.4844 240.139 97.8359 239.684C98.1875 239.221 98.6237 238.867 99.1445 238.619C99.6719 238.365 100.281 238.238 100.971 238.238C101.452 238.238 101.892 238.31 102.289 238.453C102.693 238.59 103.041 238.808 103.334 239.107C103.633 239.407 103.861 239.791 104.018 240.26C104.18 240.729 104.262 241.295 104.262 241.959V249H101.908V242.164C101.908 241.65 101.83 241.246 101.674 240.953C101.524 240.66 101.306 240.452 101.02 240.328C100.74 240.198 100.404 240.133 100.014 240.133C99.571 240.133 99.1934 240.217 98.8809 240.387C98.5749 240.556 98.3242 240.787 98.1289 241.08C97.9336 241.373 97.7904 241.712 97.6992 242.096C97.6081 242.48 97.5625 242.89 97.5625 243.326ZM104.115 242.701L103.012 242.945C103.012 242.307 103.1 241.705 103.275 241.139C103.458 240.566 103.721 240.064 104.066 239.635C104.418 239.199 104.851 238.857 105.365 238.609C105.88 238.362 106.469 238.238 107.133 238.238C107.673 238.238 108.155 238.313 108.578 238.463C109.008 238.606 109.372 238.834 109.672 239.146C109.971 239.459 110.199 239.866 110.355 240.367C110.512 240.862 110.59 241.461 110.59 242.164V249H108.227V242.154C108.227 241.62 108.148 241.207 107.992 240.914C107.842 240.621 107.628 240.419 107.348 240.309C107.068 240.191 106.732 240.133 106.342 240.133C105.977 240.133 105.655 240.201 105.375 240.338C105.102 240.468 104.87 240.654 104.682 240.895C104.493 241.129 104.35 241.399 104.252 241.705C104.161 242.011 104.115 242.343 104.115 242.701ZM116.078 247.848L118.949 238.434H121.469L117.23 250.611C117.133 250.872 117.006 251.155 116.85 251.461C116.693 251.767 116.488 252.057 116.234 252.33C115.987 252.61 115.678 252.835 115.307 253.004C114.936 253.18 114.486 253.268 113.959 253.268C113.751 253.268 113.549 253.248 113.354 253.209C113.165 253.176 112.986 253.141 112.816 253.102L112.807 251.305C112.872 251.311 112.95 251.318 113.041 251.324C113.139 251.331 113.217 251.334 113.275 251.334C113.666 251.334 113.992 251.285 114.252 251.188C114.512 251.096 114.724 250.947 114.887 250.738C115.056 250.53 115.199 250.25 115.316 249.898L116.078 247.848ZM114.457 238.434L116.967 246.344L117.387 248.824L115.756 249.244L111.918 238.434H114.457ZM132.113 247.32C132.497 247.32 132.842 247.245 133.148 247.096C133.461 246.939 133.712 246.725 133.9 246.451C134.096 246.178 134.203 245.862 134.223 245.504H136.439C136.426 246.188 136.225 246.809 135.834 247.369C135.443 247.929 134.926 248.375 134.281 248.707C133.637 249.033 132.924 249.195 132.143 249.195C131.335 249.195 130.632 249.059 130.033 248.785C129.434 248.505 128.936 248.121 128.539 247.633C128.142 247.145 127.842 246.581 127.641 245.943C127.445 245.305 127.348 244.622 127.348 243.893V243.551C127.348 242.822 127.445 242.138 127.641 241.5C127.842 240.855 128.142 240.289 128.539 239.801C128.936 239.312 129.434 238.932 130.033 238.658C130.632 238.378 131.332 238.238 132.133 238.238C132.979 238.238 133.721 238.408 134.359 238.746C134.997 239.078 135.499 239.544 135.863 240.143C136.234 240.735 136.426 241.425 136.439 242.213H134.223C134.203 241.822 134.105 241.471 133.93 241.158C133.76 240.839 133.52 240.585 133.207 240.396C132.901 240.208 132.533 240.113 132.104 240.113C131.628 240.113 131.234 240.211 130.922 240.406C130.609 240.595 130.365 240.855 130.189 241.188C130.014 241.513 129.887 241.881 129.809 242.291C129.737 242.695 129.701 243.115 129.701 243.551V243.893C129.701 244.329 129.737 244.752 129.809 245.162C129.88 245.572 130.004 245.94 130.18 246.266C130.362 246.585 130.609 246.842 130.922 247.037C131.234 247.226 131.632 247.32 132.113 247.32ZM137.797 243.834V243.609C137.797 242.848 137.908 242.141 138.129 241.49C138.35 240.833 138.669 240.263 139.086 239.781C139.509 239.293 140.023 238.915 140.629 238.648C141.241 238.375 141.931 238.238 142.699 238.238C143.474 238.238 144.164 238.375 144.77 238.648C145.382 238.915 145.899 239.293 146.322 239.781C146.745 240.263 147.068 240.833 147.289 241.49C147.51 242.141 147.621 242.848 147.621 243.609V243.834C147.621 244.596 147.51 245.302 147.289 245.953C147.068 246.604 146.745 247.174 146.322 247.662C145.899 248.144 145.385 248.521 144.779 248.795C144.174 249.062 143.487 249.195 142.719 249.195C141.944 249.195 141.251 249.062 140.639 248.795C140.033 248.521 139.519 248.144 139.096 247.662C138.673 247.174 138.35 246.604 138.129 245.953C137.908 245.302 137.797 244.596 137.797 243.834ZM140.15 243.609V243.834C140.15 244.309 140.199 244.758 140.297 245.182C140.395 245.605 140.548 245.976 140.756 246.295C140.964 246.614 141.231 246.865 141.557 247.047C141.882 247.229 142.27 247.32 142.719 247.32C143.155 247.32 143.533 247.229 143.852 247.047C144.177 246.865 144.444 246.614 144.652 246.295C144.861 245.976 145.014 245.605 145.111 245.182C145.215 244.758 145.268 244.309 145.268 243.834V243.609C145.268 243.141 145.215 242.698 145.111 242.281C145.014 241.858 144.857 241.484 144.643 241.158C144.434 240.833 144.167 240.579 143.842 240.396C143.523 240.208 143.142 240.113 142.699 240.113C142.257 240.113 141.872 240.208 141.547 240.396C141.228 240.579 140.964 240.833 140.756 241.158C140.548 241.484 140.395 241.858 140.297 242.281C140.199 242.698 140.15 243.141 140.15 243.609ZM151.928 240.689V249H149.574V238.434H151.791L151.928 240.689ZM151.508 243.326L150.746 243.316C150.753 242.568 150.857 241.881 151.059 241.256C151.267 240.631 151.553 240.094 151.918 239.645C152.289 239.195 152.732 238.85 153.246 238.609C153.76 238.362 154.333 238.238 154.965 238.238C155.473 238.238 155.932 238.31 156.342 238.453C156.758 238.59 157.113 238.814 157.406 239.127C157.706 239.439 157.934 239.846 158.09 240.348C158.246 240.842 158.324 241.451 158.324 242.174V249H155.961V242.164C155.961 241.656 155.886 241.256 155.736 240.963C155.593 240.663 155.382 240.452 155.102 240.328C154.828 240.198 154.486 240.133 154.076 240.133C153.673 240.133 153.311 240.217 152.992 240.387C152.673 240.556 152.403 240.787 152.182 241.08C151.967 241.373 151.801 241.712 151.684 242.096C151.566 242.48 151.508 242.89 151.508 243.326ZM165.57 238.434V240.152H159.613V238.434H165.57ZM161.332 235.846H163.686V246.08C163.686 246.406 163.731 246.656 163.822 246.832C163.92 247.001 164.053 247.115 164.223 247.174C164.392 247.232 164.59 247.262 164.818 247.262C164.981 247.262 165.137 247.252 165.287 247.232C165.437 247.213 165.557 247.193 165.648 247.174L165.658 248.971C165.463 249.029 165.235 249.081 164.975 249.127C164.721 249.173 164.428 249.195 164.096 249.195C163.555 249.195 163.077 249.101 162.66 248.912C162.243 248.717 161.918 248.401 161.684 247.965C161.449 247.529 161.332 246.949 161.332 246.227V235.846ZM173.344 246.881V241.842C173.344 241.464 173.275 241.139 173.139 240.865C173.002 240.592 172.794 240.38 172.514 240.23C172.24 240.081 171.895 240.006 171.479 240.006C171.094 240.006 170.762 240.071 170.482 240.201C170.202 240.331 169.984 240.507 169.828 240.729C169.672 240.95 169.594 241.201 169.594 241.48H167.25C167.25 241.064 167.351 240.66 167.553 240.27C167.755 239.879 168.048 239.531 168.432 239.225C168.816 238.919 169.275 238.678 169.809 238.502C170.342 238.326 170.941 238.238 171.605 238.238C172.4 238.238 173.103 238.372 173.715 238.639C174.333 238.906 174.818 239.309 175.17 239.85C175.528 240.383 175.707 241.054 175.707 241.861V246.559C175.707 247.04 175.74 247.473 175.805 247.857C175.876 248.235 175.977 248.564 176.107 248.844V249H173.695C173.585 248.746 173.497 248.424 173.432 248.033C173.373 247.636 173.344 247.252 173.344 246.881ZM173.686 242.574L173.705 244.029H172.016C171.579 244.029 171.195 244.072 170.863 244.156C170.531 244.234 170.255 244.352 170.033 244.508C169.812 244.664 169.646 244.853 169.535 245.074C169.424 245.296 169.369 245.546 169.369 245.826C169.369 246.106 169.434 246.363 169.564 246.598C169.695 246.826 169.883 247.005 170.131 247.135C170.385 247.265 170.691 247.33 171.049 247.33C171.531 247.33 171.951 247.232 172.309 247.037C172.673 246.835 172.96 246.591 173.168 246.305C173.376 246.012 173.487 245.735 173.5 245.475L174.262 246.52C174.184 246.786 174.05 247.073 173.861 247.379C173.673 247.685 173.425 247.978 173.119 248.258C172.82 248.531 172.458 248.756 172.035 248.932C171.618 249.107 171.137 249.195 170.59 249.195C169.9 249.195 169.285 249.059 168.744 248.785C168.204 248.505 167.781 248.131 167.475 247.662C167.169 247.187 167.016 246.65 167.016 246.051C167.016 245.491 167.12 244.996 167.328 244.566C167.543 244.13 167.855 243.766 168.266 243.473C168.682 243.18 169.19 242.958 169.789 242.809C170.388 242.652 171.072 242.574 171.84 242.574H173.686ZM182.484 247.32C182.868 247.32 183.214 247.245 183.52 247.096C183.832 246.939 184.083 246.725 184.271 246.451C184.467 246.178 184.574 245.862 184.594 245.504H186.811C186.798 246.188 186.596 246.809 186.205 247.369C185.814 247.929 185.297 248.375 184.652 248.707C184.008 249.033 183.295 249.195 182.514 249.195C181.706 249.195 181.003 249.059 180.404 248.785C179.805 248.505 179.307 248.121 178.91 247.633C178.513 247.145 178.214 246.581 178.012 245.943C177.816 245.305 177.719 244.622 177.719 243.893V243.551C177.719 242.822 177.816 242.138 178.012 241.5C178.214 240.855 178.513 240.289 178.91 239.801C179.307 239.312 179.805 238.932 180.404 238.658C181.003 238.378 181.703 238.238 182.504 238.238C183.35 238.238 184.092 238.408 184.73 238.746C185.368 239.078 185.87 239.544 186.234 240.143C186.605 240.735 186.798 241.425 186.811 242.213H184.594C184.574 241.822 184.477 241.471 184.301 241.158C184.132 240.839 183.891 240.585 183.578 240.396C183.272 240.208 182.904 240.113 182.475 240.113C181.999 240.113 181.605 240.211 181.293 240.406C180.98 240.595 180.736 240.855 180.561 241.188C180.385 241.513 180.258 241.881 180.18 242.291C180.108 242.695 180.072 243.115 180.072 243.551V243.893C180.072 244.329 180.108 244.752 180.18 245.162C180.251 245.572 180.375 245.94 180.551 246.266C180.733 246.585 180.98 246.842 181.293 247.037C181.605 247.226 182.003 247.32 182.484 247.32ZM193.461 238.434V240.152H187.504V238.434H193.461ZM189.223 235.846H191.576V246.08C191.576 246.406 191.622 246.656 191.713 246.832C191.811 247.001 191.944 247.115 192.113 247.174C192.283 247.232 192.481 247.262 192.709 247.262C192.872 247.262 193.028 247.252 193.178 247.232C193.327 247.213 193.448 247.193 193.539 247.174L193.549 248.971C193.354 249.029 193.126 249.081 192.865 249.127C192.611 249.173 192.318 249.195 191.986 249.195C191.446 249.195 190.967 249.101 190.551 248.912C190.134 248.717 189.809 248.401 189.574 247.965C189.34 247.529 189.223 246.949 189.223 246.227V235.846ZM201.205 246.139C201.205 245.904 201.146 245.693 201.029 245.504C200.912 245.309 200.688 245.133 200.355 244.977C200.03 244.82 199.548 244.677 198.91 244.547C198.35 244.423 197.836 244.277 197.367 244.107C196.905 243.932 196.508 243.72 196.176 243.473C195.844 243.225 195.587 242.932 195.404 242.594C195.222 242.255 195.131 241.865 195.131 241.422C195.131 240.992 195.225 240.585 195.414 240.201C195.603 239.817 195.873 239.479 196.225 239.186C196.576 238.893 197.003 238.661 197.504 238.492C198.012 238.323 198.578 238.238 199.203 238.238C200.089 238.238 200.847 238.388 201.479 238.688C202.117 238.98 202.605 239.381 202.943 239.889C203.282 240.39 203.451 240.956 203.451 241.588H201.098C201.098 241.308 201.026 241.048 200.883 240.807C200.746 240.559 200.538 240.361 200.258 240.211C199.978 240.055 199.626 239.977 199.203 239.977C198.799 239.977 198.464 240.042 198.197 240.172C197.937 240.296 197.742 240.458 197.611 240.66C197.488 240.862 197.426 241.083 197.426 241.324C197.426 241.5 197.458 241.66 197.523 241.803C197.595 241.939 197.712 242.066 197.875 242.184C198.038 242.294 198.259 242.398 198.539 242.496C198.826 242.594 199.184 242.688 199.613 242.779C200.421 242.949 201.114 243.167 201.693 243.434C202.279 243.694 202.729 244.033 203.041 244.449C203.354 244.859 203.51 245.38 203.51 246.012C203.51 246.48 203.409 246.91 203.207 247.301C203.012 247.685 202.725 248.02 202.348 248.307C201.97 248.587 201.518 248.805 200.99 248.961C200.469 249.117 199.883 249.195 199.232 249.195C198.275 249.195 197.465 249.026 196.801 248.688C196.137 248.342 195.632 247.903 195.287 247.369C194.949 246.829 194.779 246.269 194.779 245.689H197.055C197.081 246.126 197.201 246.474 197.416 246.734C197.637 246.988 197.911 247.174 198.236 247.291C198.568 247.402 198.91 247.457 199.262 247.457C199.685 247.457 200.04 247.402 200.326 247.291C200.613 247.174 200.831 247.018 200.98 246.822C201.13 246.62 201.205 246.393 201.205 246.139ZM208.285 234.781L208.051 244.811H206.039L205.795 234.781H208.285ZM205.727 247.887C205.727 247.529 205.844 247.229 206.078 246.988C206.319 246.741 206.651 246.617 207.074 246.617C207.491 246.617 207.82 246.741 208.061 246.988C208.301 247.229 208.422 247.529 208.422 247.887C208.422 248.232 208.301 248.528 208.061 248.775C207.82 249.016 207.491 249.137 207.074 249.137C206.651 249.137 206.319 249.016 206.078 248.775C205.844 248.528 205.727 248.232 205.727 247.887ZM218.363 234V249H216V234H218.363ZM225.6 249.195C224.818 249.195 224.112 249.068 223.48 248.814C222.855 248.554 222.322 248.193 221.879 247.73C221.443 247.268 221.107 246.725 220.873 246.1C220.639 245.475 220.521 244.801 220.521 244.078V243.688C220.521 242.861 220.642 242.112 220.883 241.441C221.124 240.771 221.459 240.198 221.889 239.723C222.318 239.241 222.826 238.873 223.412 238.619C223.998 238.365 224.633 238.238 225.316 238.238C226.072 238.238 226.732 238.365 227.299 238.619C227.865 238.873 228.334 239.231 228.705 239.693C229.083 240.149 229.363 240.693 229.545 241.324C229.734 241.956 229.828 242.652 229.828 243.414V244.42H221.664V242.73H227.504V242.545C227.491 242.122 227.406 241.725 227.25 241.354C227.1 240.982 226.869 240.683 226.557 240.455C226.244 240.227 225.827 240.113 225.307 240.113C224.916 240.113 224.568 240.198 224.262 240.367C223.962 240.53 223.712 240.768 223.51 241.08C223.308 241.393 223.152 241.77 223.041 242.213C222.937 242.649 222.885 243.141 222.885 243.688V244.078C222.885 244.54 222.947 244.97 223.07 245.367C223.201 245.758 223.389 246.1 223.637 246.393C223.884 246.686 224.184 246.917 224.535 247.086C224.887 247.249 225.287 247.33 225.736 247.33C226.303 247.33 226.807 247.216 227.25 246.988C227.693 246.76 228.077 246.438 228.402 246.021L229.643 247.223C229.415 247.555 229.118 247.874 228.754 248.18C228.389 248.479 227.943 248.723 227.416 248.912C226.895 249.101 226.29 249.195 225.6 249.195ZM236.508 238.434V240.152H230.551V238.434H236.508ZM232.27 235.846H234.623V246.08C234.623 246.406 234.669 246.656 234.76 246.832C234.857 247.001 234.991 247.115 235.16 247.174C235.329 247.232 235.528 247.262 235.756 247.262C235.919 247.262 236.075 247.252 236.225 247.232C236.374 247.213 236.495 247.193 236.586 247.174L236.596 248.971C236.4 249.029 236.173 249.081 235.912 249.127C235.658 249.173 235.365 249.195 235.033 249.195C234.493 249.195 234.014 249.101 233.598 248.912C233.181 248.717 232.855 248.401 232.621 247.965C232.387 247.529 232.27 246.949 232.27 246.227V235.846ZM240.639 234V235.377C240.639 235.787 240.564 236.214 240.414 236.656C240.271 237.092 240.069 237.512 239.809 237.916C239.548 238.313 239.249 238.658 238.91 238.951L237.729 238.209C237.995 237.805 238.21 237.379 238.373 236.93C238.542 236.474 238.627 235.963 238.627 235.396V234H240.639ZM247.123 246.139C247.123 245.904 247.064 245.693 246.947 245.504C246.83 245.309 246.605 245.133 246.273 244.977C245.948 244.82 245.466 244.677 244.828 244.547C244.268 244.423 243.754 244.277 243.285 244.107C242.823 243.932 242.426 243.72 242.094 243.473C241.762 243.225 241.505 242.932 241.322 242.594C241.14 242.255 241.049 241.865 241.049 241.422C241.049 240.992 241.143 240.585 241.332 240.201C241.521 239.817 241.791 239.479 242.143 239.186C242.494 238.893 242.921 238.661 243.422 238.492C243.93 238.323 244.496 238.238 245.121 238.238C246.007 238.238 246.765 238.388 247.396 238.688C248.035 238.98 248.523 239.381 248.861 239.889C249.2 240.39 249.369 240.956 249.369 241.588H247.016C247.016 241.308 246.944 241.048 246.801 240.807C246.664 240.559 246.456 240.361 246.176 240.211C245.896 240.055 245.544 239.977 245.121 239.977C244.717 239.977 244.382 240.042 244.115 240.172C243.855 240.296 243.66 240.458 243.529 240.66C243.406 240.862 243.344 241.083 243.344 241.324C243.344 241.5 243.376 241.66 243.441 241.803C243.513 241.939 243.63 242.066 243.793 242.184C243.956 242.294 244.177 242.398 244.457 242.496C244.743 242.594 245.102 242.688 245.531 242.779C246.339 242.949 247.032 243.167 247.611 243.434C248.197 243.694 248.646 244.033 248.959 244.449C249.271 244.859 249.428 245.38 249.428 246.012C249.428 246.48 249.327 246.91 249.125 247.301C248.93 247.685 248.643 248.02 248.266 248.307C247.888 248.587 247.436 248.805 246.908 248.961C246.387 249.117 245.801 249.195 245.15 249.195C244.193 249.195 243.383 249.026 242.719 248.688C242.055 248.342 241.55 247.903 241.205 247.369C240.867 246.829 240.697 246.269 240.697 245.689H242.973C242.999 246.126 243.119 246.474 243.334 246.734C243.555 246.988 243.829 247.174 244.154 247.291C244.486 247.402 244.828 247.457 245.18 247.457C245.603 247.457 245.958 247.402 246.244 247.291C246.531 247.174 246.749 247.018 246.898 246.822C247.048 246.62 247.123 246.393 247.123 246.139ZM260.785 247.32C261.169 247.32 261.514 247.245 261.82 247.096C262.133 246.939 262.383 246.725 262.572 246.451C262.768 246.178 262.875 245.862 262.895 245.504H265.111C265.098 246.188 264.896 246.809 264.506 247.369C264.115 247.929 263.598 248.375 262.953 248.707C262.309 249.033 261.596 249.195 260.814 249.195C260.007 249.195 259.304 249.059 258.705 248.785C258.106 248.505 257.608 248.121 257.211 247.633C256.814 247.145 256.514 246.581 256.312 245.943C256.117 245.305 256.02 244.622 256.02 243.893V243.551C256.02 242.822 256.117 242.138 256.312 241.5C256.514 240.855 256.814 240.289 257.211 239.801C257.608 239.312 258.106 238.932 258.705 238.658C259.304 238.378 260.004 238.238 260.805 238.238C261.651 238.238 262.393 238.408 263.031 238.746C263.669 239.078 264.171 239.544 264.535 240.143C264.906 240.735 265.098 241.425 265.111 242.213H262.895C262.875 241.822 262.777 241.471 262.602 241.158C262.432 240.839 262.191 240.585 261.879 240.396C261.573 240.208 261.205 240.113 260.775 240.113C260.3 240.113 259.906 240.211 259.594 240.406C259.281 240.595 259.037 240.855 258.861 241.188C258.686 241.513 258.559 241.881 258.48 242.291C258.409 242.695 258.373 243.115 258.373 243.551V243.893C258.373 244.329 258.409 244.752 258.48 245.162C258.552 245.572 258.676 245.94 258.852 246.266C259.034 246.585 259.281 246.842 259.594 247.037C259.906 247.226 260.303 247.32 260.785 247.32ZM269.242 234V249H266.898V234H269.242ZM268.832 243.326L268.07 243.316C268.077 242.587 268.178 241.913 268.373 241.295C268.575 240.676 268.855 240.139 269.213 239.684C269.577 239.221 270.014 238.867 270.521 238.619C271.029 238.365 271.592 238.238 272.211 238.238C272.732 238.238 273.201 238.31 273.617 238.453C274.04 238.596 274.405 238.827 274.711 239.146C275.017 239.459 275.248 239.869 275.404 240.377C275.567 240.878 275.648 241.49 275.648 242.213V249H273.285V242.193C273.285 241.686 273.21 241.282 273.061 240.982C272.917 240.683 272.706 240.468 272.426 240.338C272.146 240.201 271.804 240.133 271.4 240.133C270.977 240.133 270.603 240.217 270.277 240.387C269.958 240.556 269.691 240.787 269.477 241.08C269.262 241.373 269.099 241.712 268.988 242.096C268.884 242.48 268.832 242.89 268.832 243.326ZM283.988 246.881V241.842C283.988 241.464 283.92 241.139 283.783 240.865C283.646 240.592 283.438 240.38 283.158 240.23C282.885 240.081 282.54 240.006 282.123 240.006C281.739 240.006 281.407 240.071 281.127 240.201C280.847 240.331 280.629 240.507 280.473 240.729C280.316 240.95 280.238 241.201 280.238 241.48H277.895C277.895 241.064 277.995 240.66 278.197 240.27C278.399 239.879 278.692 239.531 279.076 239.225C279.46 238.919 279.919 238.678 280.453 238.502C280.987 238.326 281.586 238.238 282.25 238.238C283.044 238.238 283.747 238.372 284.359 238.639C284.978 238.906 285.463 239.309 285.814 239.85C286.173 240.383 286.352 241.054 286.352 241.861V246.559C286.352 247.04 286.384 247.473 286.449 247.857C286.521 248.235 286.622 248.564 286.752 248.844V249H284.34C284.229 248.746 284.141 248.424 284.076 248.033C284.018 247.636 283.988 247.252 283.988 246.881ZM284.33 242.574L284.35 244.029H282.66C282.224 244.029 281.84 244.072 281.508 244.156C281.176 244.234 280.899 244.352 280.678 244.508C280.456 244.664 280.29 244.853 280.18 245.074C280.069 245.296 280.014 245.546 280.014 245.826C280.014 246.106 280.079 246.363 280.209 246.598C280.339 246.826 280.528 247.005 280.775 247.135C281.029 247.265 281.335 247.33 281.693 247.33C282.175 247.33 282.595 247.232 282.953 247.037C283.318 246.835 283.604 246.591 283.812 246.305C284.021 246.012 284.132 245.735 284.145 245.475L284.906 246.52C284.828 246.786 284.695 247.073 284.506 247.379C284.317 247.685 284.07 247.978 283.764 248.258C283.464 248.531 283.103 248.756 282.68 248.932C282.263 249.107 281.781 249.195 281.234 249.195C280.544 249.195 279.929 249.059 279.389 248.785C278.848 248.505 278.425 248.131 278.119 247.662C277.813 247.187 277.66 246.65 277.66 246.051C277.66 245.491 277.764 244.996 277.973 244.566C278.188 244.13 278.5 243.766 278.91 243.473C279.327 243.18 279.835 242.958 280.434 242.809C281.033 242.652 281.716 242.574 282.484 242.574H284.33ZM293.656 238.434V240.152H287.699V238.434H293.656ZM289.418 235.846H291.771V246.08C291.771 246.406 291.817 246.656 291.908 246.832C292.006 247.001 292.139 247.115 292.309 247.174C292.478 247.232 292.676 247.262 292.904 247.262C293.067 247.262 293.223 247.252 293.373 247.232C293.523 247.213 293.643 247.193 293.734 247.174L293.744 248.971C293.549 249.029 293.321 249.081 293.061 249.127C292.807 249.173 292.514 249.195 292.182 249.195C291.641 249.195 291.163 249.101 290.746 248.912C290.329 248.717 290.004 248.401 289.77 247.965C289.535 247.529 289.418 246.949 289.418 246.227V235.846Z" fill="black"/>
<path d="M27.7236 212.198V201.359H30.9355V212.198C30.9355 213.244 30.7064 214.143 30.248 214.895C29.7897 215.639 29.1631 216.212 28.3682 216.613C27.5804 217.014 26.6924 217.215 25.7041 217.215C24.68 217.215 23.7741 217.043 22.9863 216.699C22.1986 216.355 21.5791 215.829 21.1279 215.12C20.6768 214.404 20.4512 213.498 20.4512 212.402H23.6846C23.6846 212.975 23.7633 213.43 23.9209 213.767C24.0856 214.103 24.3184 214.343 24.6191 214.486C24.9199 214.63 25.2816 214.701 25.7041 214.701C26.1123 214.701 26.4668 214.604 26.7676 214.411C27.0684 214.218 27.3011 213.935 27.4658 213.562C27.6377 213.19 27.7236 212.735 27.7236 212.198ZM39.7656 214.379V209.201C39.7656 208.829 39.7048 208.51 39.583 208.245C39.4613 207.973 39.2715 207.762 39.0137 207.611C38.763 207.461 38.4372 207.386 38.0361 207.386C37.6924 207.386 37.3952 207.447 37.1445 207.568C36.8939 207.683 36.7005 207.851 36.5645 208.073C36.4284 208.288 36.3604 208.542 36.3604 208.836H33.2666C33.2666 208.342 33.3812 207.873 33.6104 207.429C33.8395 206.985 34.1725 206.594 34.6094 206.258C35.0462 205.914 35.5654 205.646 36.167 205.452C36.7757 205.259 37.4561 205.162 38.208 205.162C39.1104 205.162 39.9124 205.312 40.6143 205.613C41.3161 205.914 41.8675 206.365 42.2686 206.967C42.6768 207.568 42.8809 208.32 42.8809 209.223V214.196C42.8809 214.834 42.9202 215.356 42.999 215.765C43.0778 216.166 43.1924 216.517 43.3428 216.817V217H40.2168C40.0664 216.685 39.9518 216.291 39.873 215.818C39.8014 215.339 39.7656 214.859 39.7656 214.379ZM40.1738 209.921L40.1953 211.672H38.4658C38.0576 211.672 37.7031 211.718 37.4023 211.812C37.1016 211.905 36.8545 212.037 36.6611 212.209C36.4678 212.374 36.3245 212.567 36.2314 212.789C36.1455 213.011 36.1025 213.255 36.1025 213.52C36.1025 213.785 36.1634 214.024 36.2852 214.239C36.4069 214.447 36.5824 214.612 36.8115 214.733C37.0407 214.848 37.3092 214.905 37.6172 214.905C38.0827 214.905 38.4873 214.812 38.8311 214.626C39.1748 214.44 39.4398 214.211 39.626 213.938C39.8193 213.666 39.9196 213.409 39.9268 213.165L40.7432 214.476C40.6286 214.769 40.471 215.074 40.2705 215.389C40.0771 215.704 39.8301 216.001 39.5293 216.28C39.2285 216.552 38.8669 216.778 38.4443 216.957C38.0218 217.129 37.5205 217.215 36.9404 217.215C36.2028 217.215 35.5332 217.068 34.9316 216.774C34.3372 216.474 33.8646 216.062 33.5137 215.539C33.1699 215.009 32.998 214.408 32.998 213.734C32.998 213.126 33.1126 212.585 33.3418 212.112C33.571 211.64 33.9076 211.242 34.3516 210.92C34.8027 210.59 35.3649 210.343 36.0381 210.179C36.7113 210.007 37.4919 209.921 38.3799 209.921H40.1738ZM52.1299 214.465V200.5H55.2451V217H52.4414L52.1299 214.465ZM44.7822 211.328V211.103C44.7822 210.215 44.8825 209.409 45.083 208.686C45.2835 207.955 45.5771 207.328 45.9639 206.806C46.3506 206.283 46.8268 205.878 47.3926 205.592C47.9583 205.305 48.6029 205.162 49.3262 205.162C50.0065 205.162 50.6009 205.305 51.1094 205.592C51.625 205.878 52.0618 206.286 52.4199 206.816C52.7852 207.339 53.0788 207.959 53.3008 208.675C53.5228 209.384 53.6839 210.161 53.7842 211.006V211.5C53.6839 212.309 53.5228 213.061 53.3008 213.756C53.0788 214.451 52.7852 215.059 52.4199 215.582C52.0618 216.098 51.625 216.499 51.1094 216.785C50.5938 217.072 49.9922 217.215 49.3047 217.215C48.5814 217.215 47.9368 217.068 47.3711 216.774C46.8125 216.481 46.3398 216.069 45.9531 215.539C45.5736 215.009 45.2835 214.386 45.083 213.67C44.8825 212.954 44.7822 212.173 44.7822 211.328ZM47.876 211.103V211.328C47.876 211.808 47.9118 212.256 47.9834 212.671C48.0622 213.086 48.1875 213.455 48.3594 213.777C48.5384 214.092 48.7676 214.34 49.0469 214.519C49.3333 214.69 49.6807 214.776 50.0889 214.776C50.6188 214.776 51.0557 214.658 51.3994 214.422C51.7432 214.178 52.0046 213.845 52.1836 213.423C52.3698 213 52.4772 212.513 52.5059 211.962V210.555C52.4844 210.104 52.4199 209.699 52.3125 209.341C52.2122 208.976 52.0618 208.664 51.8613 208.406C51.668 208.148 51.4245 207.948 51.1309 207.805C50.8444 207.661 50.5042 207.59 50.1104 207.59C49.7093 207.59 49.3656 207.683 49.0791 207.869C48.7926 208.048 48.5599 208.295 48.3809 208.61C48.209 208.925 48.0801 209.298 47.9941 209.728C47.9154 210.15 47.876 210.608 47.876 211.103ZM63.0117 217.215C62.1094 217.215 61.3001 217.072 60.584 216.785C59.8678 216.492 59.2591 216.087 58.7578 215.571C58.2637 215.056 57.8841 214.458 57.6191 213.777C57.3542 213.09 57.2217 212.359 57.2217 211.586V211.156C57.2217 210.275 57.347 209.47 57.5977 208.739C57.8483 208.009 58.2064 207.375 58.6719 206.838C59.1445 206.301 59.7174 205.889 60.3906 205.603C61.0638 205.309 61.8229 205.162 62.668 205.162C63.4915 205.162 64.222 205.298 64.8594 205.57C65.4967 205.842 66.0303 206.229 66.46 206.73C66.8968 207.232 67.2262 207.833 67.4482 208.535C67.6702 209.23 67.7812 210.003 67.7812 210.855V212.145H58.543V210.082H64.7412V209.846C64.7412 209.416 64.6624 209.033 64.5049 208.696C64.3545 208.353 64.1253 208.08 63.8174 207.88C63.5094 207.679 63.1156 207.579 62.6357 207.579C62.2275 207.579 61.8766 207.669 61.583 207.848C61.2894 208.027 61.0495 208.277 60.8633 208.6C60.6842 208.922 60.5482 209.301 60.4551 209.738C60.3691 210.168 60.3262 210.641 60.3262 211.156V211.586C60.3262 212.051 60.3906 212.481 60.5195 212.875C60.6556 213.269 60.8454 213.609 61.0889 213.896C61.3395 214.182 61.6403 214.404 61.9912 214.562C62.3493 214.719 62.7539 214.798 63.2051 214.798C63.7637 214.798 64.2829 214.69 64.7627 214.476C65.2497 214.254 65.6686 213.921 66.0195 213.477L67.5234 215.109C67.2799 215.46 66.9469 215.797 66.5244 216.119C66.109 216.441 65.6077 216.706 65.0205 216.914C64.4333 217.115 63.7637 217.215 63.0117 217.215Z" fill="black"/>
<defs>
<filter id="filter0_d_212_33" x="16.9733" y="0" width="276.117" height="507.209" filterUnits="userSpaceOnUse" color-interpolation-filters="sRGB">
<feFlood flood-opacity="0" result="BackgroundImageFix"/>
<feColorMatrix in="SourceAlpha" type="matrix" values="0 0 0 0 0 0 0 0 0 0 0 0 0 0 0 0 0 0 127 0" result="hardAlpha"/>
<feOffset dx="-5" dy="20"/>
<feGaussianBlur stdDeviation="5"/>
<feComposite in2="hardAlpha" operator="out"/>
<feColorMatrix type="matrix" values="0 0 0 0 0 0 0 0 0 0 0 0 0 0 0 0 0 0 0.25 0"/>
<feBlend mode="normal" in2="BackgroundImageFix" result="effect1_dropShadow_212_33"/>
<feBlend mode="normal" in="SourceGraphic" in2="effect1_dropShadow_212_33" result="shape"/>
</filter>
<linearGradient id="paint0_linear_212_33" x1="33.1323" y1="151.333" x2="33.1323" y2="181" gradientUnits="userSpaceOnUse">
<stop stop-color="#9EEDB0"/>
<stop offset="1" stop-color="#58A76A"/>
</linearGradient>
</defs>
</svg>
