<svg width="83" height="83" viewBox="0 0 83 83" fill="none" xmlns="http://www.w3.org/2000/svg">
<path fill-rule="evenodd" clip-rule="evenodd" d="M0 15C0 6.71573 6.71573 0 15 0H68C76.2843 0 83 6.71573 83 15V68C83 76.2843 76.2843 83 68 83H15C6.71573 83 0 76.2843 0 68V15ZM19.33 30.275C19.33 28.235 18.7 27.905 17.8 27.5C18.88 27.14 19.405 26.12 19.405 24.92C19.405 23.975 18.955 21.83 16.06 21.83H10.855V32.75H13.45V28.475H15.145C16.81 28.475 17.065 29.195 17.065 30.68C17.065 31.805 17.05 32.21 16.765 32.75H19.33V30.275ZM13.45 26.63V23.72H15.625C16.96 23.72 17.215 24.59 17.215 25.145C17.215 26.225 16.645 26.63 15.46 26.63H13.45ZM29.0663 21.83H21.6263V32.735H29.0663V31.1H24.1013V27.71H28.1963V26.225H24.1013V23.555H29.0663V21.83ZM31.0704 31.61C32.2254 32.33 33.7704 32.75 35.1054 32.75C36.9654 32.75 39.4254 31.835 39.5004 29.57C39.5754 27.2767 38.0927 26.8407 36.0551 26.2414L36.0504 26.24C35.5104 26.09 33.9204 25.595 33.9204 24.86C33.9204 24.095 34.5504 23.825 35.5254 23.72C36.6954 23.6 37.9554 24.29 38.7804 24.995V22.895C37.7154 22.16 36.4554 21.815 35.1354 21.815C33.2604 21.815 31.0854 22.82 31.0854 24.86C31.0854 25.82 31.5504 26.555 32.4804 27.08C32.7654 27.245 33.7554 27.56 35.3154 27.965C35.9004 28.085 37.3704 28.535 37.2504 29.48C37.1304 30.26 36.0954 30.5 35.0154 30.5C33.4554 30.5 32.1504 29.9 31.0704 29.195V31.61ZM41.4051 21.89V29.21C41.2851 31.28 42.7701 32.75 44.9451 32.75H46.9401C48.7701 32.75 50.3451 31.79 50.3451 29.51V21.89H47.9301V28.985C47.9301 29.645 47.6001 30.395 46.5951 30.395H45.0951C44.0751 30.395 43.8351 29.615 43.8351 29.075V21.89H41.4051ZM57.622 24.47L55.252 21.815H52.732V32.75H55.252V24.695L57.592 26.765L59.962 24.68V32.75H62.197V21.83H59.962L57.622 24.47ZM72.1737 21.83H64.7337V32.735H72.1737V31.1H67.2087V27.71H71.3037V26.225H67.2087V23.555H72.1737V21.83ZM18 42.5H64V39.5H18V42.5ZM64 52.5H18V49.5H64V52.5ZM18 62.5H64V59.5H18V62.5Z" fill="black"/>
</svg>
