<svg width="392" height="388" viewBox="0 0 392 388" fill="none" xmlns="http://www.w3.org/2000/svg">
<rect x="18" y="15" width="374" height="373" rx="20" fill="#C4C4C4"/>
<rect width="374" height="373" rx="20" fill="#6A635E"/>
<rect x="102" y="73" width="166" height="226" rx="20" fill="#3E3E3E"/>
<rect x="114" y="93" width="143" height="52" rx="10" fill="#DADADA"/>
<rect x="124" y="161" width="22" height="20" rx="5" fill="#6A635E"/>
<rect x="158" y="161" width="21" height="20" rx="5" fill="#6A635E"/>
<rect x="192" y="161" width="21" height="20" rx="5" fill="#6A635E"/>
<rect x="225" y="161" width="22" height="20" rx="5" fill="#B35A3E"/>
<rect x="124" y="195" width="22" height="21" rx="5" fill="#6A635E"/>
<rect x="158" y="195" width="21" height="21" rx="5" fill="#6A635E"/>
<rect x="192" y="195" width="21" height="21" rx="5" fill="#6A635E"/>
<rect x="225" y="195" width="22" height="21" rx="5" fill="#B5B5B5"/>
<rect x="124" y="228" width="22" height="21" rx="5" fill="#6A635E"/>
<rect x="124" y="263" width="89" height="20" rx="5" fill="#8C8886"/>
<rect x="158" y="228" width="21" height="21" rx="5" fill="#6A635E"/>
<rect x="192" y="228" width="21" height="21" rx="5" fill="#6A635E"/>
<rect x="225" y="228" width="22" height="21" rx="5" fill="#B5B5B5"/>
<rect x="225" y="263" width="22" height="20" rx="5" fill="#A0A0A0"/>
</svg>
