<svg width="389" height="385" viewBox="0 0 389 385" fill="none" xmlns="http://www.w3.org/2000/svg">
<circle cx="202.5" cy="198.5" r="186.5" fill="#AAAAAA"/>
<rect width="376" height="378" rx="188" fill="#958E8E"/>
<rect x="105" y="85" width="166" height="226" rx="20" fill="#3E3E3E"/>
<rect x="117" y="105" width="143" height="52" rx="10" fill="#DADADA"/>
<rect x="127" y="173" width="22" height="20" rx="5" fill="#6A635E"/>
<rect x="161" y="173" width="21" height="20" rx="5" fill="#6A635E"/>
<rect x="195" y="173" width="21" height="20" rx="5" fill="#6A635E"/>
<rect x="228" y="173" width="22" height="20" rx="5" fill="#B35A3E"/>
<rect x="127" y="207" width="22" height="21" rx="5" fill="#6A635E"/>
<rect x="161" y="207" width="21" height="21" rx="5" fill="#6A635E"/>
<rect x="195" y="207" width="21" height="21" rx="5" fill="#6A635E"/>
<rect x="228" y="207" width="22" height="21" rx="5" fill="#B5B5B5"/>
<rect x="127" y="240" width="22" height="21" rx="5" fill="#6A635E"/>
<rect x="127" y="275" width="89" height="20" rx="5" fill="#8C8886"/>
<rect x="161" y="240" width="21" height="21" rx="5" fill="#6A635E"/>
<rect x="195" y="240" width="21" height="21" rx="5" fill="#6A635E"/>
<rect x="228" y="240" width="22" height="21" rx="5" fill="#B5B5B5"/>
<rect x="228" y="275" width="22" height="20" rx="5" fill="#A0A0A0"/>
</svg>
