<svg width="389" height="385" viewBox="0 0 389 385" fill="none" xmlns="http://www.w3.org/2000/svg">
<circle cx="202.5" cy="198.5" r="186.5" fill="#AAAAAA"/>
<rect width="376" height="378" rx="188" fill="#B3CBE8"/>
<path d="M130.255 157.979C129.89 154.91 128.801 152.06 127.16 149.608L274.22 100.506L266.501 77.3841C265.379 74.024 261.744 72.2107 258.386 73.3315L98.4166 126.743C95.0587 127.863 93.2417 131.497 94.3639 134.857L98.1493 146.193C94.3704 149.702 92 154.707 92 160.259C92 167.448 95.9744 173.724 101.84 177.013V267.586C101.84 271.129 104.714 274 108.254 274H276.905C280.444 274 283.318 271.129 283.318 267.586V157.979H130.255ZM223.987 92.361L243.457 85.8604L238.772 104.798L219.302 111.299L223.987 92.361ZM175.884 108.422L195.355 101.921L190.67 120.858L171.2 127.359L175.884 108.422ZM111.197 170.04C105.805 170.04 101.418 165.652 101.418 160.259C101.418 154.866 105.805 150.479 111.197 150.479C116.59 150.479 120.977 154.866 120.977 160.259C120.977 165.652 116.59 170.04 111.197 170.04ZM127.782 124.482L147.254 117.982L142.568 136.919L123.097 143.421L127.782 124.482ZM146.909 179.636H126.382L136.823 163.157H157.35L146.909 179.636ZM187.536 163.157H208.063L197.622 179.636H177.095L187.536 163.157ZM182.497 242.795V199.327L217.114 221.061L182.497 242.795ZM248.335 179.636H227.808L238.249 163.157H258.776L248.335 179.636Z" fill="#383838"/>
</svg>
