<svg width="392" height="388" viewBox="0 0 392 388" fill="none" xmlns="http://www.w3.org/2000/svg">
<rect x="18" y="15" width="374" height="373" rx="20" fill="#C4C4C4"/>
<rect width="374" height="373" rx="20" fill="#B3CBE8"/>
<path d="M129.255 170.979C128.89 167.91 127.801 165.06 126.16 162.608L273.22 113.506L265.501 90.3841C264.379 87.024 260.744 85.2107 257.386 86.3315L97.4166 139.743C94.0587 140.863 92.2417 144.497 93.3639 147.857L97.1493 159.193C93.3704 162.702 91 167.707 91 173.259C91 180.448 94.9744 186.724 100.84 190.013V280.586C100.84 284.129 103.714 287 107.254 287H275.905C279.444 287 282.318 284.129 282.318 280.586V170.979H129.255ZM222.987 105.361L242.457 98.8604L237.772 117.798L218.302 124.299L222.987 105.361ZM174.884 121.422L194.355 114.921L189.67 133.858L170.2 140.359L174.884 121.422ZM110.197 183.04C104.805 183.04 100.418 178.652 100.418 173.259C100.418 167.866 104.805 163.479 110.197 163.479C115.59 163.479 119.977 167.866 119.977 173.259C119.977 178.652 115.59 183.04 110.197 183.04ZM126.782 137.482L146.254 130.982L141.568 149.919L122.097 156.421L126.782 137.482ZM145.909 192.636H125.382L135.823 176.157H156.35L145.909 192.636ZM186.536 176.157H207.063L196.622 192.636H176.095L186.536 176.157ZM181.497 255.795V212.327L216.114 234.061L181.497 255.795ZM247.335 192.636H226.808L237.249 176.157H257.776L247.335 192.636Z" fill="#383838"/>
</svg>
