<svg width="186" height="327" viewBox="0 0 186 327" fill="none" xmlns="http://www.w3.org/2000/svg">
<rect width="186" height="327" rx="25" fill="black"/>
<rect x="7" y="8" width="173" height="311" rx="20" fill="white"/>
<path d="M42 8H143C143 15.732 136.732 22 129 22H56C48.268 22 42 15.732 42 8Z" fill="black"/>
<g clip-path="url(#clip0_2_100)">
<rect x="74.4462" y="10" width="26.7077" height="4" rx="2" fill="#D9D9D9"/>
<ellipse cx="112.6" cy="12" rx="2.86154" ry="3" fill="#D9D9D9"/>
<circle cx="33" cy="42" r="15" fill="#D9D9D9"/>
<rect x="62" y="47" width="36" height="10" rx="2" fill="#A8A8A8"/>
<rect x="110" y="47" width="36" height="10" rx="2" fill="#A8A8A8"/>
<path d="M63 36L146 36" stroke="#A8A8A8" stroke-width="3"/>
<path d="M7 68L185 68" stroke="#D9D9D9"/>
<path d="M7 124L185 124" stroke="#D9D9D9"/>
<path d="M7 142L185 142" stroke="#D9D9D9"/>
<circle cx="28" cy="93" r="13" fill="#D9D9D9"/>
<circle cx="67" cy="93" r="13" fill="#D9D9D9"/>
<circle cx="106" cy="93" r="13" fill="#D9D9D9"/>
<circle cx="145" cy="93" r="13" fill="#D9D9D9"/>
<circle cx="185" cy="93" r="13" fill="#D9D9D9"/>
<path d="M18 112H38.5" stroke="#D9D9D9" stroke-width="2"/>
<path d="M18 118H38.5" stroke="#D9D9D9" stroke-width="2"/>
<path d="M57 112H77.5" stroke="#D9D9D9" stroke-width="2"/>
<path d="M57 118H77.5" stroke="#D9D9D9" stroke-width="2"/>
<path d="M96 112H116.5" stroke="#D9D9D9" stroke-width="2"/>
<path d="M96 118H116.5" stroke="#D9D9D9" stroke-width="2"/>
<path d="M135 112H155.5" stroke="#D9D9D9" stroke-width="2"/>
<path d="M135 118H155.5" stroke="#D9D9D9" stroke-width="2"/>
<path d="M175 112H195.5" stroke="#D9D9D9" stroke-width="2"/>
<path d="M175 118H195.5" stroke="#D9D9D9" stroke-width="2"/>
<circle cx="170.5" cy="31.5" r="1.5" fill="#A8A8A8"/>
<circle cx="170.5" cy="36.5" r="1.5" fill="#A8A8A8"/>
<circle cx="170.5" cy="41.5" r="1.5" fill="#A8A8A8"/>
<rect x="29.5" y="128.5" width="11" height="11" rx="0.5" stroke="#A8A8A8"/>
<path d="M29 132H40M29 136H40" stroke="#A8A8A8"/>
<path d="M37 128L37 139M33 128L33 139" stroke="#A8A8A8"/>
<path d="M100 134L90.25 139.196L90.25 128.804L100 134Z" fill="#A8A8A8"/>
<mask id="path-36-inside-1_2_100" fill="white">
<path fill-rule="evenodd" clip-rule="evenodd" d="M153.232 129L151.5 126L149.768 129H147C146.448 129 146 129.448 146 130V139C146 139.552 146.448 140 147 140H156C156.552 140 157 139.552 157 139V130C157 129.448 156.552 129 156 129H153.232Z"/>
</mask>
<path d="M151.5 126L152.366 125.5L151.5 124L150.634 125.5L151.5 126ZM153.232 129L152.366 129.5L152.655 130H153.232V129ZM149.768 129V130H150.345L150.634 129.5L149.768 129ZM150.634 126.5L152.366 129.5L154.098 128.5L152.366 125.5L150.634 126.5ZM150.634 129.5L152.366 126.5L150.634 125.5L148.902 128.5L150.634 129.5ZM147 130H149.768V128H147V130ZM147 130V130V128C145.895 128 145 128.895 145 130H147ZM147 139V130H145V139H147ZM147 139H147H145C145 140.105 145.895 141 147 141V139ZM156 139H147V141H156V139ZM156 139V141C157.105 141 158 140.105 158 139H156ZM156 130V139H158V130H156ZM156 130H158C158 128.895 157.105 128 156 128V130ZM153.232 130H156V128H153.232V130Z" fill="#A8A8A8" mask="url(#path-36-inside-1_2_100)"/>
<circle cx="151.5" cy="132.5" r="2" stroke="#A8A8A8"/>
<path d="M151.5 136C153.006 136 153.997 136.954 154.641 138.01C154.96 138.534 155.18 139.062 155.319 139.462C155.324 139.475 155.328 139.487 155.332 139.5H147.668C147.672 139.487 147.676 139.475 147.681 139.462C147.82 139.062 148.04 138.534 148.359 138.01C149.003 136.954 149.994 136 151.5 136Z" stroke="#A8A8A8"/>
<rect x="123.5" y="142.5" width="57" height="57" fill="#D9D9D9" stroke="#A8A8A8"/>
<rect x="65.5" y="142.5" width="57" height="57" fill="#D9D9D9" stroke="#A8A8A8"/>
<rect x="7.5" y="142.5" width="57" height="57" fill="#D9D9D9" stroke="#A8A8A8"/>
<rect x="123.5" y="200.5" width="57" height="57" fill="#D9D9D9" stroke="#A8A8A8"/>
<rect x="65.5" y="200.5" width="57" height="57" fill="#D9D9D9" stroke="#A8A8A8"/>
<rect x="7.5" y="200.5" width="57" height="57" fill="#D9D9D9" stroke="#A8A8A8"/>
<rect x="123.5" y="258.5" width="57" height="57" fill="#D9D9D9" stroke="#A8A8A8"/>
<rect x="65.5" y="258.5" width="57" height="57" fill="#D9D9D9" stroke="#A8A8A8"/>
<rect x="7.5" y="258.5" width="57" height="57" fill="#D9D9D9" stroke="#A8A8A8"/>
<rect x="7" y="290" width="174" height="36" fill="white"/>
<mask id="path-50-inside-2_2_100" fill="white">
<path fill-rule="evenodd" clip-rule="evenodd" d="M32.9956 301L27 295L21.0044 301H21V307H25.6154V304.385C25.6154 303.62 26.2353 303 27 303C27.7647 303 28.3846 303.62 28.3846 304.385V307H33V301H32.9956Z"/>
</mask>
<path d="M27 295L27.7074 294.293L27 293.585L26.2926 294.293L27 295ZM32.9956 301L32.2882 301.707L32.5811 302H32.9956V301ZM21.0044 301V302H21.4189L21.7118 301.707L21.0044 301ZM21 301V300H20V301H21ZM21 307H20V308H21V307ZM25.6154 307V308H26.6154V307H25.6154ZM28.3846 307H27.3846V308H28.3846V307ZM33 307V308H34V307H33ZM33 301H34V300H33V301ZM26.2926 295.707L32.2882 301.707L33.7029 300.293L27.7074 294.293L26.2926 295.707ZM21.7118 301.707L27.7074 295.707L26.2926 294.293L20.2971 300.293L21.7118 301.707ZM21.0044 300H21V302H21.0044V300ZM20 301V307H22V301H20ZM21 308H25.6154V306H21V308ZM26.6154 307V304.385H24.6154V307H26.6154ZM26.6154 304.385C26.6154 304.172 26.7876 304 27 304V302C25.683 302 24.6154 303.068 24.6154 304.385H26.6154ZM27 304C27.2124 304 27.3846 304.172 27.3846 304.385H29.3846C29.3846 303.068 28.317 302 27 302V304ZM27.3846 304.385V307H29.3846V304.385H27.3846ZM28.3846 308H33V306H28.3846V308ZM34 307V301H32V307H34ZM33 300H32.9956V302H33V300Z" fill="#A8A8A8" mask="url(#path-50-inside-2_2_100)"/>
<path d="M61.9194 302.989L61.5696 302.632L61.2086 302.985L61.5658 303.342L61.9194 302.989ZM61.1283 303.612L61.4819 303.258L61.2004 302.977L60.863 303.188L61.1283 303.612ZM64.5187 307.002L64.1651 307.356L64.5187 307.709L64.8722 307.356L64.5187 307.002ZM65.2258 306.295L65.5794 306.649L65.9329 306.295L65.5794 305.942L65.2258 306.295ZM62.8191 299.66C62.8191 300.824 62.3412 301.876 61.5696 302.632L62.2692 303.346C63.225 302.41 63.8191 301.104 63.8191 299.66H62.8191ZM58.6595 295.5C60.9568 295.5 62.8191 297.362 62.8191 299.66H63.8191C63.8191 296.81 61.5091 294.5 58.6595 294.5V295.5ZM54.5 299.66C54.5 297.362 56.3623 295.5 58.6595 295.5V294.5C55.81 294.5 53.5 296.81 53.5 299.66H54.5ZM58.6595 303.819C56.3623 303.819 54.5 301.957 54.5 299.66H53.5C53.5 302.509 55.81 304.819 58.6595 304.819V303.819ZM60.863 303.188C60.2244 303.588 59.4697 303.819 58.6595 303.819V304.819C59.6628 304.819 60.6006 304.532 61.3936 304.036L60.863 303.188ZM64.8722 306.649L61.4819 303.258L60.7748 303.966L64.1651 307.356L64.8722 306.649ZM64.8722 305.942L64.1651 306.649L64.8722 307.356L65.5794 306.649L64.8722 305.942ZM61.5658 303.342L64.8722 306.649L65.5794 305.942L62.2729 302.635L61.5658 303.342Z" fill="#A8A8A8"/>
<rect x="86.5" y="295.5" width="12" height="11" rx="3" stroke="#A8A8A8"/>
<path d="M87 299H91.4444M99 299H91.4444M89.5 295.5L91.4444 299" stroke="#A8A8A8"/>
<path d="M93 295.5L95 299" stroke="#A8A8A8"/>
<path d="M94.625 302.283C94.7917 302.38 94.7917 302.62 94.625 302.717L91.625 304.449C91.4583 304.545 91.25 304.425 91.25 304.232L91.25 300.768C91.25 300.575 91.4583 300.455 91.625 300.551L94.625 302.283Z" fill="#A8A8A8"/>
<rect x="120.5" y="297.618" width="13" height="8.88235" rx="3.5" stroke="#A8A8A8"/>
<path d="M130.5 297.471C130.5 296.815 130.131 296.187 129.475 295.724C128.818 295.26 127.928 295 127 295C126.072 295 125.182 295.26 124.525 295.724C123.869 296.187 123.5 296.815 123.5 297.471" stroke="#A8A8A8"/>
<path d="M130.5 299.235C130.5 299.891 130.131 300.519 129.475 300.982C128.818 301.446 127.928 301.706 127 301.706C126.072 301.706 125.182 301.446 124.525 300.982C123.869 300.519 123.5 299.891 123.5 299.235" stroke="#A8A8A8"/>
<circle cx="161" cy="301" r="6" fill="#D9D9D9"/>
<rect x="61" y="315" width="65" height="3" rx="1.5" fill="#D9D9D9"/>
</g>
<defs>
<clipPath id="clip0_2_100">
<rect x="7" y="9" width="173" height="314" rx="25" fill="white"/>
</clipPath>
</defs>
</svg>
